<?xml version="1.0" standalone="no"?> 
<!DOCTYPE svg PUBLIC "-//W3C//DTD SVG 1.1//EN" "http://www.w3.org/Graphics/SVG/1.1/DTD/svg11.dtd" >
<svg xmlns="http://www.w3.org/2000/svg">
<defs>
  <font id="bccFont" horiz-adv-x="200">
    <font-face font-family="bccFont"
      units-per-em="200" ascent="200"
      descent="0" />
    <missing-glyph horiz-adv-x="0" />
    <glyph glyph-name="add"
      unicode="&#xE001;"
      horiz-adv-x="200" d=" M99.402 190.669C49.696 190.669 9.402 150.375 9.402 100.669C9.402 50.964 49.696 10.669 99.402 10.669S189.402 50.964 189.402 100.669C189.401 150.375 149.107 190.669 99.402 190.669zM151.113 105.369V95.968V92.911H107.158V48.957H104.102H94.697H91.641V92.911H47.69V95.968V105.369V108.425H91.642V152.382H94.698H104.103H107.159V108.424H151.114V105.369z" />
    <glyph glyph-name="back"
      unicode="&#xE002;"
      horiz-adv-x="200" d=" M139.523 10.569L50.118 99.975L139.523 189.381L149.879 179.023L70.832 99.975L149.879 20.926z" />
    <glyph glyph-name="battery"
      unicode="&#xE003;"
      horiz-adv-x="200" d=" M138.6 173.3V189.2H61.4V173.3H37.9V10.8H162.2V173.3H138.6zM141.1 40.1H61.4V55.4H141.1V40.1zM141.1 68H61.4V83.3H141.1V68zM141.1 95.9H61.4V111.2H141.1V95.9zM141.1 126.1H61.4V141.4H141.1V126.1z" />
    <glyph glyph-name="blog"
      unicode="&#xE004;"
      horiz-adv-x="200" d=" M120.027 86.964H78.473C75.615 86.964 73.279 84.626 73.279 81.77V79.173C73.279 76.315 75.615 73.978 78.473 73.978H120.028C122.884 73.978 125.223 76.315 125.223 79.173V81.77C125.223 84.626 122.884 86.964 120.027 86.964z M78.473 112.937H101.848C104.703 112.937 107.042 115.273 107.042 118.131V120.728C107.042 123.584 104.703 125.922 101.848 125.922H78.473C75.615 125.922 73.279 123.584 73.279 120.728V118.131C73.278 115.272 75.614 112.937 78.473 112.937z M99.25 189.95C49.545 189.95 9.25 149.656 9.25 99.95C9.25 50.244 49.545 9.95 99.25 9.95C148.956 9.95 189.25 50.245 189.25 99.95C189.25 149.656 148.956 189.95 99.25 189.95zM151.194 85.404C151.194 64.887 136.648 48.006 115.871 48.006H82.627C61.85 48.006 47.306 64.627 47.306 85.404V121.765C47.306 137.348 61.85 151.894 77.433 151.894H102.368C128.079 151.894 132.495 122.805 132.495 122.805C132.495 117.091 137.169 112.416 142.884 112.416H149.118C151.195 107.741 151.195 100.467 151.195 93.715V85.404z" />
    <glyph glyph-name="booking"
      unicode="&#xE005;"
      horiz-adv-x="200" d=" M59.674 63.522C60.805 63.522 61.864 63.96 62.654 64.754L86.064 88.171C87.706 89.815 87.705 92.488 86.064 94.129C85.269 94.925 84.211 95.364 83.085 95.364C81.96 95.364 80.902 94.925 80.105 94.13L59.672 73.694L52.275 81.084C51.48 81.88 50.422 82.318 49.296 82.318C48.171 82.318 47.113 81.88 46.319 81.087C45.521 80.292 45.081 79.234 45.081 78.107C45.081 76.982 45.519 75.923 46.317 75.126L56.693 64.754C57.49 63.96 58.548 63.522 59.674 63.522z M83.086 63.651C81.961 63.651 80.902 63.211 80.106 62.414L59.673 41.984L52.277 49.374C51.482 50.173 50.424 50.613 49.297 50.613C48.172 50.613 47.113 50.173 46.319 49.377C45.521 48.581 45.082 47.523 45.082 46.397C45.082 45.272 45.521 44.214 46.318 43.421L56.696 33.045C57.496 32.25 58.552 31.812 59.673 31.812C60.799 31.812 61.857 32.251 62.653 33.048L86.062 56.456C86.859 57.253 87.298 58.312 87.298 59.439C87.297 60.565 86.858 61.621 86.065 62.412C85.271 63.211 84.212 63.651 83.086 63.651z M187.941 112.122L169.666 130.399C168.869 131.195 167.812 131.633 166.687 131.633C165.561 131.633 164.502 131.195 163.707 130.399L150.718 117.41V159.02C150.718 161.344 148.826 163.234 146.503 163.234H124.76C122.054 167.725 117.849 171.426 112.784 173.769C110.548 183.563 101.817 190.593 91.736 190.593C81.653 190.593 72.922 183.563 70.686 173.769C65.623 171.427 61.419 167.727 58.716 163.234H32.696C30.372 163.234 28.48 161.343 28.48 159.02V14.982C28.48 12.66 30.372 10.77 32.696 10.77H146.502C148.825 10.77 150.717 12.66 150.717 14.982V68.939L187.943 106.164C189.583 107.805 189.583 110.478 187.941 112.122zM103.077 45.709L106.521 61.293L156.755 111.53L169.071 99.213L118.852 48.995L103.077 45.709zM67.439 139.378H116.029C122.692 139.378 128.112 144.799 128.112 151.463C128.112 152.52 128.014 153.624 127.815 154.805H142.288V108.98L99.693 66.384C99.121 65.814 98.728 65.096 98.554 64.307L93.441 41.158C93.133 39.757 93.551 38.311 94.555 37.298C95.535 36.299 96.992 35.836 98.411 36.131L121.791 41.001C122.606 41.165 123.347 41.564 123.924 42.149L142.288 60.51V19.197H36.909V154.806H55.656C55.454 153.62 55.359 152.531 55.359 151.464C55.359 144.8 60.778 139.378 67.439 139.378zM91.735 182.165C98.47 182.165 104.101 177.07 104.834 170.314L105.113 167.711L107.573 166.807C114.93 164.11 119.683 158.088 119.683 151.463C119.683 149.448 118.044 147.808 116.029 147.808H67.439C65.426 147.808 63.789 149.448 63.789 151.463C63.789 158.082 68.542 164.105 75.898 166.807L78.361 167.711L78.637 170.313C79.366 177.07 84.996 182.165 91.735 182.165zM179.001 109.142L175.031 105.173L162.716 117.489L166.686 121.458L179.001 109.142z M49.298 113.886C48.173 113.886 47.115 113.448 46.319 112.652C45.522 111.855 45.083 110.797 45.083 109.672S45.522 107.488 46.319 106.693L56.698 96.318C57.498 95.524 58.554 95.087 59.674 95.087C60.799 95.087 61.857 95.525 62.654 96.322L86.063 119.737C86.859 120.534 87.298 121.592 87.298 122.717C87.298 123.843 86.859 124.901 86.064 125.697C85.269 126.492 84.211 126.931 83.085 126.931C81.96 126.931 80.902 126.493 80.105 125.698L59.673 105.26L52.276 112.651C51.481 113.447 50.424 113.886 49.298 113.886z" />
    <glyph glyph-name="call"
      unicode="&#xE006;"
      horiz-adv-x="200" d=" M133.402 9.965C106.302 9.965 75.572 24.512 51.206 48.881C17.487 82.594 3.701 127.08 17.673 157.049C20.48 163.066 26.796 167.268 33.037 167.268C36.352 167.268 39.39 166.062 41.582 163.869L63.364 142.123C65.551 139.944 66.756 136.918 66.756 133.607C66.76 129.404 64.856 125.092 61.544 121.773L53.888 114.12C51.366 111.598 51.125 108.623 52.064 107.672L110.012 49.728C110.435 49.304 111.101 49.215 111.587 49.215L111.587 49.215C113.15 49.215 115.018 50.115 116.458 51.554L124.048 59.15C129.97 65.07 139.422 65.925 144.383 60.984L166.15 39.275C168.94 36.491 170.095 32.449 169.314 28.193C168.305 22.647 164.157 17.494 158.755 15.059C151.245 11.683 142.715 9.965 133.402 9.965zM33.037 157.437C30.932 157.437 27.957 155.844 26.584 152.897C14.516 127.014 27.793 86.189 58.157 55.834C80.722 33.27 108.849 19.797 133.398 19.797C141.315 19.797 148.486 21.223 154.72 24.029C157.613 25.33 159.276 27.947 159.648 29.957C159.779 30.704 159.813 31.711 159.208 32.319L137.442 54.021C137.022 54.445 136.356 54.533 135.875 54.533C134.311 54.533 132.446 53.64 131.004 52.201L123.411 44.607C120.1 41.288 115.789 39.395 111.59 39.395C111.59 39.395 111.59 39.395 111.586 39.395C108.277 39.395 105.248 40.593 103.062 42.78L45.115 100.73C39.922 105.92 40.726 114.859 46.943 121.072L54.596 128.725C56.036 130.165 56.932 132.036 56.928 133.6C56.928 134.09 56.84 134.748 56.42 135.164L34.635 156.918C34.291 157.261 33.75 157.437 33.037 157.437z M153.079 98.807C150.365 98.807 148.164 101.007 148.164 103.725C148.16 129.492 127.2 150.447 101.434 150.456C98.715 150.456 96.515 152.656 96.515 155.369C96.515 158.087 98.715 160.287 101.434 160.287L101.434 160.287C132.6210000000001 160.287 157.997 134.909 157.998 103.725C158 101.006 155.796 98.807 153.079 98.807z M182.395 102.278C179.683 102.278 177.484 104.478 177.484 107.197C177.484 147.217 144.922 179.774 104.903 179.774C102.184 179.774 99.984 181.974 99.984 184.694C99.984 187.405 102.184 189.606 104.903 189.606C150.34 189.606 187.315 152.633 187.315 107.198C187.314 104.479 185.114 102.278 182.395 102.278z" />
    <glyph glyph-name="chain"
      unicode="&#xE007;"
      horiz-adv-x="200" d=" M106.428 66.831C106.428 67.166 106.362 67.482 106.262 67.785C106.243 68.493 106.001 69.172 105.536 69.721L92.501 85.078V95.415C92.501 96.314 92.112 97.122 91.5 97.691C91.004 98.761 89.926 99.51 88.67 99.51H26.595C24.873 99.51 23.472 98.111 23.472 96.39C23.472 96.109 23.521 95.84 23.592 95.58C23.589 95.522 23.575 95.472 23.575 95.413V85.078L10.539 69.718C10.165 69.279 9.936 68.752 9.847 68.197C9.643 67.782 9.518 67.322 9.518 66.83C9.518 60.4080000000001 13.94 54.878 20.269 52.388V15.943C20.269 13.339 22.399 11.222 25.017 11.222H90.03C92.648 11.222 94.777 13.339 94.777 15.943V52.062C101.582 54.364 106.428 60.107 106.428 66.831zM88.195 57.221C81.584 57.221 76.206 61.533 76.206 66.831C76.206 68.553 74.805 69.953 73.083 69.953C71.362 69.953 69.962 68.553 69.962 66.831C69.962 61.531 64.584 57.221 57.974 57.221C51.363 57.221 45.984 61.533 45.984 66.831C45.984 68.553 44.584 69.953 42.862 69.953C41.141 69.953 39.741 68.553 39.741 66.831C39.741 61.531 34.363 57.221 27.752 57.221C21.378 57.221 16.165 61.231 15.797 66.268L28.1 80.762H42.932L41.127 76.448C40.805 75.677 40.802 74.83 41.119 74.059C41.436 73.288 42.034 72.686 42.801 72.365C43.184 72.204 43.59 72.122 44.007 72.122C45.268 72.122 46.399 72.874 46.888 74.039L49.7 80.765H67.37L69.441 74.23C69.853 72.924 71.047 72.047 72.415 72.047C72.734 72.047 73.053 72.097 73.359 72.194C74.154 72.446 74.803 72.992 75.187 73.731C75.571 74.471 75.644 75.317 75.392 76.112L73.918 80.762H87.977L100.158 66.4100000000001C99.879 61.307 94.628 57.221 88.195 57.221zM26.512 51.031C26.923 51.007 27.333 50.976 27.751 50.976C27.888 50.976 28.02 50.992 28.156 50.994V32.596C28.156 30.467 29.909 28.737 32.064 28.737H63.54C65.694 28.737 67.447 30.467 67.447 32.596V53.024C67.447 53.119 67.427 53.207 67.42 53.296C69.669 54.486 71.611 56.075 73.084 57.969C76.365 53.753 81.914 50.977 88.195 50.977C88.309 50.977 88.419 50.991 88.532 50.993V17.468H26.512V51.031zM42.862 57.969C46.143 53.753 51.692 50.977 57.974 50.977C59.078 50.977 60.154 51.078 61.204 51.243V34.979H34.399V52.084C37.856 53.268 40.808 55.329 42.862 57.969zM86.257 87.006H29.817V93.268H86.256L86.257 87.006L86.257 87.006z M189.453 157.773C189.453 158.108 189.387 158.424 189.288 158.727C189.269 159.436 189.027 160.114 188.562 160.663L175.527 176.021V186.357C175.527 187.258 175.138 188.064 174.525 188.634C174.029 189.705 172.952 190.454 171.695 190.454H109.621C107.898 190.454 106.498 189.054 106.498 187.333C106.498 187.052 106.548 186.784 106.617 186.525C106.614 186.468 106.599 186.415 106.599 186.358V176.023L93.563 160.663C93.189 160.223 92.96 159.697 92.871 159.141C92.667 158.726 92.542 158.266 92.542 157.774C92.542 151.352 96.964 145.821 103.293 143.332V106.885C103.293 104.282 105.423 102.165 108.041 102.165H173.054C175.671 102.165 177.802 104.282 177.802 106.885V143.005C184.607 145.306 189.453 151.05 189.453 157.773zM171.223 148.162C164.612 148.162 159.233 152.474 159.233 157.773C159.233 159.495 157.833 160.895 156.11 160.895C154.389 160.895 152.989 159.495 152.989 157.773C152.989 152.473 147.612 148.162 141.002 148.162S129.013 152.474 129.013 157.773C129.013 159.495 127.613 160.895 125.89 160.895C124.169 160.895 122.769 159.495 122.769 157.773C122.769 152.473 117.392 148.162 110.781 148.162C104.406 148.162 99.194 152.173 98.826 157.21L111.129 171.704H125.96L124.154 167.389C123.833 166.619 123.83 165.771 124.146 165C124.461 164.229 125.06 163.627 125.828 163.307C126.212 163.145 126.618 163.063 127.033 163.063C128.296 163.063 129.427 163.815 129.916 164.98L132.729 171.705H150.399L152.469 165.17C152.881 163.865 154.076 162.988 155.444 162.988C155.764 162.988 156.083 163.038 156.389 163.136C157.184 163.388 157.832 163.934 158.216 164.674C158.6 165.414 158.673 166.259 158.421 167.054L156.945 171.705H171.006L183.188 157.353C182.904 152.248 177.654 148.162 171.223 148.162zM109.538 141.973C109.949 141.949 110.359 141.918 110.777 141.918C110.914 141.918 111.047 141.933 111.181 141.936V123.536C111.181 121.408 112.935 119.677 115.089 119.677H146.566C148.72 119.677 150.472 121.408 150.472 123.536V143.965C150.472 144.058 150.452 144.146 150.445 144.238C152.695 145.429 154.636 147.017 156.109 148.91C159.39 144.695 164.939 141.918 171.22 141.918C171.333 141.918 171.445 141.931 171.558 141.933V108.408H109.537L109.538 141.973L109.538 141.973zM125.889 148.911C129.169 144.695 134.719 141.919 141 141.919C142.104 141.919 143.18 142.019 144.23 142.183V125.92H117.424V143.025C120.883 144.208 123.834 146.271 125.889 148.911zM169.283 177.948H112.844V184.21H169.283V177.948z" />
    <glyph glyph-name="chart"
      unicode="&#xE008;"
      horiz-adv-x="200" d=" M53.291 70.775C54.148 70.232 55.103 69.977 56.047 69.977C57.764 69.977 59.445 70.832 60.429 72.391L83.378 108.776L99.619 85.498C100.483 84.256 101.852 83.455 103.357 83.308C104.87 83.159 106.363 83.681 107.453 84.732L130.909 107.333L148.122 91.101C149.363 89.929 151.11 89.45 152.785 89.813C154.457 90.183 155.839 91.356 156.476 92.945L184.08 161.95C185.14 164.604 183.852 167.615 181.195 168.678C178.544 169.737 175.534 168.448 174.469 165.794L149.689 103.849L134.42 118.248C132.409 120.146 129.268 120.127 127.281 118.21L104.638 96.391L87.405 121.096C86.413 122.517 84.835 123.404 83.041 123.308C81.307 123.267 79.708 122.362 78.784 120.895L51.674 77.914C50.15 75.494 50.874 72.3 53.291 70.775z M188.843 52.038L35.694 52.038L35.694 175.262L25.343 175.262L25.343 155.587L9.673 155.587L9.673 145.237L25.343 145.237L25.343 113.892L9.673 113.892L9.673 103.541L25.343 103.541L25.343 72.196L9.673 72.196L9.673 61.845L25.343 61.845L25.343 52.038L25.343 42.178L25.343 41.687L46.4 41.687L46.4 26.594L56.75 26.594L56.75 41.687L83.496 41.687L83.496 26.594L93.847 26.594L93.847 41.687L120.596 41.687L120.596 26.594L130.946 26.594L130.946 41.687L157.692 41.687L157.692 26.594L168.043 26.594L168.043 41.687L188.843 41.687z" />
    <glyph glyph-name="check"
      unicode="&#xE009;"
      horiz-adv-x="200" d=" M100 190.208C50.172 190.208 9.791 149.839 9.791 100.013C9.791 50.182 50.172 9.791 100 9.791C149.83 9.791 190.209 50.185 190.209 100.013C190.209 149.839 149.826 190.208 100 190.208zM85.773 61.087L47.658 99.387L55.208 107.97L85.771 77.519L144.788 138.915L152.336 130.332L85.773 61.087z" />
    <glyph glyph-name="close"
      unicode="&#xE00A;"
      horiz-adv-x="200" d=" M189.855 177.282L176.74 190.398L99.816 113.475L22.896 190.398L9.779 177.282L86.702 100.36L9.779 23.437L22.896 10.321L99.816 87.243L176.74 10.321L189.855 23.437L112.932 100.36z" />
    <glyph glyph-name="cloud"
      unicode="&#xE00B;"
      horiz-adv-x="200" d=" M189.933 104.901C189.933 70.459 163.73 42.013 130.04 38.272V47.218C155.495 50.961 180.984 78.696 180.984 104.901C180.984 134.091 153.196 162.192 122.554 163.327C96.369 164.297 68.616 143.859 64.871 118.41H53.168C32.821 119.003 19.209 98.914 19.209 82.441C19.209 69.714 23.632 56.75 41.192 48.718C44.936 47.218 50.688 46.473 55.176 46.473H85.124V37.525H55.176L55.176 37.525C30.473 37.525 10.259 57.7379999999999 10.259 82.441C10.259 107.145 30.473 127.36 55.176 127.36L55.176 127.36H58.919C67.906 153.559 93.353 172.2769999999999 122.555 172.2769999999999C159.988 172.277 189.933 142.331 189.933 104.901zM135.283 77.195C138.271 80.197 136.263 84.687 133.275 87.683L112.825 110.141C111.323 111.631 109.825 112.386 107.582 112.386C105.335 112.386 103.837 111.631 102.339 110.141L81.888 87.683C78.897 84.687 76.889 80.197 79.88 77.195C82.877 74.201 86.35 77.195 86.35 77.195L102.102 92.954V37.524C102.102 33.024 103.092 30.036 107.582 30.036C112.068 30.036 113.061 33.024 113.061 37.524V92.954L124.802 81.211C127.794 78.217 132.287 74.201 135.283 77.195z" />
    <glyph glyph-name="coupon"
      unicode="&#xE00C;"
      horiz-adv-x="200" d=" M180.688 142.324C180.659 143.425 180.22 144.451 179.459 145.206L152.516 172.153C151.741 172.935 150.705 173.374 149.608 173.388L107.141 174.115C106.128 174.115 105.137 173.67 104.364 172.877L86.174 154.695L85.894 154.879C67.284 167.211 59.64 178.727 60.778 181.485L60.812 181.548C61.086 181.882 62.258 182.446 64.913 182.446C71.07 182.446 80.608 179.498 91.082 174.357L92.168 173.824L98.41 180.066L96.325 181.12C84.1 187.297 72.651 190.841 64.913 190.841C58.072 190.841 54.989 188.123 53.604 185.839C51.494 182.331 50.952 175.933 60.352 165.37C65.164 159.963 71.857 154.276 79.706 148.924L80.123 148.639L19.452 87.972C18.663 87.173 18.228 86.118 18.228 85C18.228 83.888 18.663 82.836 19.458 82.034L89.331 12.17C90.114 11.373 91.171 10.934 92.306 10.934C93.422 10.934 94.472 11.37 95.263 12.16L180.18 97.069C180.968 97.863 181.411 98.967 181.397 100.105L180.688 142.324zM140.034 141.572L139.979 142.11L140.637 142.197C140.836 142.227 141.041 142.25 141.246 142.25H141.264C143.478 142.25 145.556 141.388 147.117 139.819C148.678 138.258 149.538 136.178 149.538 133.962C149.538 131.745 148.678 129.666 147.117 128.105C145.625 126.611 143.491 125.755 141.264 125.755C139.039 125.755 136.903 126.613 135.411 128.096C134.911 128.602 134.482 129.187 134.086 129.905L133.852 130.314L134.291 130.491C136.426 131.349 138.035 132.655 139.075 134.376C140.292 136.403 140.605 138.757 140.034 141.572zM125.261 129.282C126.038 126.606 127.492 124.149 129.467 122.174C132.627 119.024 136.817 117.289 141.265 117.289C145.722 117.289 149.91 119.025 153.056 122.176C156.202 125.322 157.935 129.509 157.935 133.967C157.935 138.425 156.203 142.613 153.054 145.759C149.894 148.91 145.707 150.645 141.261 150.645C136.8 150.635 132.614 148.898 129.476 145.755C127.412 143.696 125.924 141.119 125.174 138.307L125.078 137.951L124.715 137.996C116.878 138.952 105.396 143.404 93.998 149.907L93.525 150.176L109.041 165.684L147.771 165.029L172.326 140.474L172.986 101.739L92.306 21.059L28.361 85.004L87.382 144.037L87.667 143.866C101.222 135.83 115.14 130.487 124.895 129.574L125.184 129.547L125.261 129.282z M56.231 82.587C55.607 81.681 55.368 80.575 55.561 79.452C55.932 77.461 57.666 76.015 59.684 76.015C59.932 76.015 60.179 76.036 60.452 76.081L128.132 88.544C129.227 88.752 130.177 89.372 130.801 90.279C131.441 91.195 131.682 92.314 131.481 93.429C131.121 95.42 129.385 96.866 127.355 96.866C127.137 96.866 126.906 96.847 126.595 96.803L58.919 84.331C57.817 84.126 56.863 83.506 56.231 82.587z M94.092 97.909C97.773 97.909 101.238 99.345 103.846 101.95C106.449 104.546 107.881 108.012 107.881 111.709C107.881 115.395 106.446 118.857 103.841 121.458C101.239 124.059 97.777 125.491 94.091 125.491C90.403 125.491 86.94 124.057 84.341 121.452C78.976 116.073 78.972 107.324 84.336 101.945C86.948 99.343 90.413 97.909 94.092 97.909zM94.092 117.1C95.539 117.1 96.9 116.54 97.916 115.532C98.932 114.508 99.492 113.148 99.492 111.699C99.492 110.259 98.931 108.903 97.92 107.885C96.948 106.913 95.553 106.355 94.092 106.355C92.637 106.355 91.245 106.913 90.274 107.884C89.257 108.901 88.699 110.257 88.7 111.702C88.7 113.147 89.262 114.502 90.285 115.522C91.296 116.54 92.647 117.1 94.092 117.1z M92.947 74.977C89.257 74.977 85.794 73.541 83.198 70.936C80.597 68.336 79.165 64.873 79.165 61.183C79.165 57.489 80.598 54.027 83.195 51.44C85.793 48.833 89.256 47.397 92.946 47.397C96.639 47.397 100.102 48.832 102.695 51.433C105.299 54.036 106.733 57.499 106.732 61.187C106.73 64.873 105.297 68.334 102.696 70.936C100.09 73.541 96.627 74.977 92.947 74.977zM92.947 55.838C91.495 55.838 90.102 56.396 89.128 57.367C88.112 58.383 87.554 59.738 87.555 61.182C87.555 62.628 88.118 63.986 89.134 65.001C90.156 66.018 91.51 66.577 92.947 66.577C94.39 66.577 95.747 66.016 96.766 65.002C98.87 62.895 98.87 59.468 96.763 57.358C95.802 56.392 94.412 55.838 92.947 55.838z" />
    <glyph glyph-name="cpu"
      unicode="&#xE00D;"
      horiz-adv-x="200" d=" M161.1 141.7C160.901 154.8 155.401 159.2 141.8 159.3C127.901 159.4 114.1 159.3 100.2 159.3C85.9 159.3 71.6 159 57.4 159.4C45.8 159.7 39.4 153.5 39.1 143.1C38.4 114.1 38.5 85.1 39 56.2C39.2 45.9 45 38.7 56.5 38.7C85.5 38.599 114.5 38.5 143.4 38.7C154.5 38.8 160.9 45.3 161.099 56C161.6 84.6 161.6 113.2 161.1 141.7zM142.4 69.3C142.299 61.8 137.799 57.401 130.2 57.3C110.099 57.1 90 57.2 70 57.3C62.1 57.3 58 62.3 57.9 69.401C57.5 89.501 57.4 109.601 57.9 129.601C58.1 136.801 62.5 141.101 70.6 140.901C80.5 140.601 90.4 140.801 100.3 140.801C109.901 140.801 119.5 140.901 129.1 140.801C138.5 140.701 142.3 137.701 142.5 128.601C142.7 108.9 142.7 89.1 142.4 69.3z M123.8 180.3C123.901 173 123.8 166.7 115.3 166.7C106.901 166.7 107 173.1 106.7 179.2C106.4 186 107.4 190.2 116 190C124.7 189.8 124 184.7 123.8 180.3z M136.8 181.4C136.7 184.6 135.901 190 144.6 189.9C151.701 189.9 154.5 187.6 153.901 180.5C153.401 174.3 154.701 166.9 145.401 166.7C137.1 166.6 136.8 173 136.8 181.4z M19.2 63.2C27.1 63.2 33.3 62.3 32.8 54.2C32.3 46.099 25.5 46.599 19.6 46.2C12.6 45.599 10.1 48.099 10.1 55.4C10 64 15.1 63.4 19.2 63.2z M136.8 21.2C136.7 27.2 137.8 33.099 145.2 32.4C153.5 31.599 153.5 24.5 153.9 17.9C154.299 10.4 149.9 10.299 144.299 10C135.2 9.8 136.9 16 136.8 21.2z M19.2 76.2C13.5 75.3 10 76.9 10 84.7C10 92.7 14 93.5 20.2 93.2C26.5 92.8 32.7 91.7 32.8 84.2C32.9 75.8 26 76.1 19.2 76.2z M93.7 181.5C93.8 173.1 93.6 166.6 85.3 166.8C76.1 167 77.6 174.9 76.7 180.7C75.5 188 79.2 189.7 86.1 189.9C94.9 190.1 93.8 184.7 93.7 181.5z M181.2 76.2C174.5 75.7 168.099 77 167.8 84.3C167.5 91.8 173.901 92.901 180.3 93.2C187 93.5 190.2 91.8 190.1 84.2C189.8 77.4 187.1 75.3 181.2 76.2z M180.9 63.1C186.4 63.8 189.9 62.5 190 55.3S187.6 45.7 180.6 46C174.201 46.3 167.8 47.3 167.8 54.6C167.7 62 174.1 63.5 180.9 63.1z M93.5 19.1C94.5 13 92.4 9.901 84.8 10C77.8 10.1 76.2 13 76.5 19.2C76.8 25.3 77 32.2 84.7 32.4C92.1 32.6 93.7 26.3 93.5 19.1z M114.8 10.3C106.1 9 106.7 15 106.7 20.6C106.7 26.5 108 32.5 114.8 32.401C123.401 32.3 123.2 25.1 123.5 18.6C124 12 121.3 9.3 114.8 10.3z M63.4 178.7C63.3 173.2 63.8 166.9 55.9 166.9C47.1 166.9 48.2 173.8 47.9 179.6C47.6 185.6 47.9 190 56.2 189.9C65.4 189.8 63 183.7 63.4 178.7z M19.8 106.3C14.9 106 10 105.6 10.1 114.2C10.2 121.9 14.4 122 19.9 121.8C25.8 121.6 32.8 122.4 32.7 113.8C32.6 106.4 26.3 106.2 19.8 106.3z M19.7 136.6C14.2 135.9 9.9 136.6 10.1 144.8C10.3 153 15.5 151.7 20.3 151.7C25.8 151.8 32.3 152.4 32.7 144.8C33.1 136.4 26.4 136.4 19.7 136.6z M183.1 151.9C185.401 152.1 189.8 152.2 189.901 144.4C190.001 135.7 184.8 136.7 179.3 136.5C173.1 136.3 167.7 137.8 167.901 144.8C168 152.6 174.7 151.6 183.1 151.9z M181 121.8C185.3 122.1 189.8 122.2 189.8 114.4C189.901 107.3 186.7 106 180.7 106.2C174.4 106.4 167.9 107 167.7 114.7C167.7 122.4 174.5 121.7 181 121.8z M47.9 21.1C47.7 26.3 47.9 32.3 54.7 32.3C62.5 32.2 63.1 25.8 63.3 19.6C63.4 13.901 62.8 10.201 55.4 10.1C46.3 10 48 15.9 47.9 21.1z M123.7 133.3C115.8 133.4 108 133.3 100.1 133.3C92 133.3 83.9 133.1 75.8 133.4C69.2 133.6 65.6 130 65.4 124.1C65 107.7 65 91.2 65.4 74.8C65.5 68.901 68.8 64.901 75.3 64.901C91.7 64.8 108.2 64.8 124.6 64.901C130.901 64.901 134.5 68.6 134.6 74.701C134.901 90.901 134.901 107.101 134.6 123.301C134.5 130.7 131.4 133.2 123.7 133.3z" />
    <glyph glyph-name="date"
      unicode="&#xE00E;"
      horiz-adv-x="200" d=" M69.796 111.35H58.561C55.466 111.35 52.943 108.827 52.943 105.732V94.497C52.943 91.402 55.466 88.879 58.561 88.879H69.797C72.891 88.879 75.415 91.402 75.415 94.497V105.731C75.414 108.826 72.89 111.35 69.796 111.35z M105.504 111.35H94.268C91.173 111.35 88.65 108.827 88.65 105.732V94.497C88.65 91.402 91.173 88.879 94.268 88.879H105.504C108.6 88.879 111.122 91.402 111.122 94.497V105.731C111.122 108.826 108.6 111.35 105.504 111.35z M141.211 111.35H129.977C126.882 111.35 124.358 108.827 124.358 105.732V94.497C124.358 91.402 126.882 88.879 129.977 88.879H141.211C144.307 88.879 146.829 91.402 146.829 94.497V105.731C146.829 108.826 144.307 111.35 141.211 111.35z M69.796 75.643H58.561C55.466 75.643 52.943 73.12 52.943 70.026V58.79C52.943 55.696 55.466 53.173 58.561 53.173H69.797C72.891 53.173 75.415 55.696 75.415 58.79V70.026C75.414 73.118 72.89 75.643 69.796 75.643z M105.504 75.643H94.268C91.173 75.643 88.65 73.12 88.65 70.026V58.79C88.65 55.696 91.173 53.173 94.268 53.173H105.504C108.6 53.173 111.122 55.696 111.122 58.79V70.026C111.122 73.118 108.6 75.643 105.504 75.643z M141.211 75.643H129.977C126.882 75.643 124.358 73.12 124.358 70.026V58.79C124.358 55.696 126.882 53.173 129.977 53.173H141.211C144.307 53.173 146.829 55.696 146.829 58.79V70.026C146.829 73.118 144.307 75.643 141.211 75.643z M185.773 145.057C185.771 161.437 172.444 174.764 156.064 174.764H140.829V184.382C140.829 185.274 140.103 186 139.211 186H127.977C127.084 186 126.358 185.274 126.358 184.382V174.764H73.414V184.382C73.414 185.274 72.688 186 71.796 186H60.561C59.669 186 58.943 185.274 58.943 184.382V174.764H43.707C27.327 174.764 14 161.437 14 145.057V43.935C14 27.554 27.327 14.228 43.708 14.228H156.066C172.447 14.228 185.773 27.554 185.773 43.935V145.057zM171.299 43.936C171.3 39.928 169.701 36.12 166.796 33.211C163.89 30.303 160.079 28.7 156.067 28.7H43.707C35.448 28.7 28.471 35.677 28.471 43.935V145.057C28.471 153.316 35.448 160.293 43.707 160.293H58.942V150.675C58.942 149.783 59.668 149.057 60.56 149.057H71.796C72.688 149.057 73.414 149.783 73.414 150.675V160.293H126.357V150.675C126.357 149.783 127.083 149.057 127.974 149.057H139.209C140.102 149.057 140.827 149.783 140.827 150.675V160.293H156.063C164.321 160.293 171.297 153.316 171.297 145.057V43.936z" />
    <glyph glyph-name="down"
      unicode="&#xE00F;"
      horiz-adv-x="200" d=" M108.932 52.173C103.962 46.465 95.821 46.465 90.83 52.173L12.711 141.432C7.741 147.124 9.869 151.783 17.41 151.783H182.354C189.928 151.783 192.039 147.117 187.046 141.432L108.932 52.173z" />
    <glyph glyph-name="download"
      unicode="&#xE010;"
      horiz-adv-x="200" d=" M53.53 102.498C50.264 105.765 50.264 110.676 53.53 113.942C56.805 117.215 61.709 117.215 64.983 113.942L91.968 86.957V181.824C91.968 186.727 95.243 190.002 100.146 190.002C105.057 190.002 108.324 186.728 108.324 181.824V86.957L135.31 113.942C138.583 117.215 143.487 117.215 146.762 113.942C150.035 110.675 150.035 105.764 146.762 102.498L105.872 61.608C104.235 59.971 101.783 59.156 100.145 59.156C98.509 59.156 96.056 59.971 94.419 61.608L53.53 102.498zM181.924 75.512C177.021 75.512 173.747 72.239 173.747 67.334V34.623C173.747 29.711 170.48 26.446 165.568 26.446H34.724C29.82 26.446 26.545 29.711 26.545 34.623V67.334C26.545 72.238 23.279 75.512 18.367 75.512C13.464 75.512 10.189 72.239 10.189 67.334V34.623C10.189 31.349 11.012 28.075 11.826 24.809C13.464 21.536 15.101 19.083 16.73 16.63C19.189 14.179 21.642 12.541 24.908 11.719C28.181 10.09 31.457 10.09 34.724 10.09H165.568C168.842 10.09 172.108 10.903 175.383 11.719C178.656 13.357 181.11 14.993 182.745 16.63C185.196 19.083 186.836 21.535 187.649 24.809C189.285 28.076 189.285 31.349 189.285 34.623V67.334C190.102 72.238 186.837 75.512 181.924 75.512z" />
    <glyph glyph-name="email"
      unicode="&#xE011;"
      horiz-adv-x="200" d=" M131.258 129.892L105.788 104.309C102.311 100.832 97.286 100.832 93.902 104.218L68.249 129.891C66.244 131.89 62.999 131.89 60.993 129.891C58.994 127.892 58.994 124.64 60.993 122.635L86.118 97.629C89.404 94.357 93.895 92.14 99.749 92.14C105.332 92.14 110.193 94.45 113.473 97.722L138.514 122.635C140.51 124.64 140.51 127.892 138.514 129.892C136.508 131.897 133.264 131.897 131.258 129.892z M123.172 92.526C121.171 94.525 117.934 94.525 115.928 92.526C113.922 90.521 113.922 87.276 115.928 85.278L131.258 69.935C132.263 68.943 133.572 68.444 134.882 68.444C136.197 68.444 137.506 68.943 138.514 69.935C140.51 71.941 140.51 75.186 138.514 77.191L123.172 92.526z M76.328 92.526L60.992 77.19C58.993 75.184 58.993 71.939 60.992 69.933C61.998 68.941 63.306 68.442 64.617 68.442C65.933 68.442 67.242 68.941 68.248 69.933L83.577 85.278C85.576 87.276 85.576 90.521 83.578 92.526C81.571 94.525 78.333 94.525 76.328 92.526z M99.749 190C50 190 9.666 149.674 9.666 99.917S50 9.833 99.749 9.833C149.499 9.833 189.832 50.159 189.832 99.916S149.498 190 99.749 190zM146.593 70.428C146.593 65.7 142.749 61.858 138.02 61.858H61.485C56.748 61.858 52.906 65.701 52.906 70.428V129.398C52.906 134.133 56.748 137.977 61.485 137.977H138.02C142.749 137.977 146.593 134.133 146.593 129.397V70.428z" />
    <glyph glyph-name="expan"
      unicode="&#xE012;"
      horiz-adv-x="200" d=" M147.126 156.367H145.232V146.658H147.126C149.383 146.658 151.287 144.75 151.287 142.496V23.357C151.287 21.1 149.383 19.196 147.126 19.196H53.87C51.614 19.196 49.709 21.1 49.709 23.357V142.496C49.709 144.75 51.614 146.658 53.87 146.658H55.764V156.367H53.87C46.241 156.367 40 150.125 40 142.496V23.357C40 15.728 46.242 9.486 53.871 9.486H147.127C154.756 9.486 160.998 15.728 160.998 23.357V142.496C160.997 150.125 154.755 156.367 147.126 156.367z M64.434 77.449H81.079V67.739H64.434V77.449z M92.175 77.449H108.82V67.739H92.175V77.449z M119.917 77.449H136.563V67.739H119.917V77.449z M64.434 58.029H81.079V48.319H64.434V58.029z M92.175 58.029H108.82V48.319H92.175V58.029z M119.917 58.029H136.563V48.319H119.917V58.029z M64.434 38.61H81.079V28.9H64.434V38.61z M92.175 38.61H108.82V28.9H92.175V38.61z M119.917 38.61H136.563V28.9H119.917V38.61z M64.434 117.488V90.301H136.563V117.488H64.434zM126.855 100.011H74.146V107.779H126.855V100.011z M138.741 137.227H136.706V190.419H87.02L86.917 190.538L86.783 190.419H86.681L80.843 185.217L64.225 170.655L64.349 170.514L64.29 170.46V137.227H62.252C59.571 137.227 57.398 135.054 57.398 132.372S59.572 127.517 62.252 127.517H138.741C141.423 127.517 143.595 129.69 143.595 132.372S141.423 137.227 138.741 137.227zM88.602 179.103V166.565H74.292L88.602 179.103zM74 156.855H98.312V180.709H126.997V137.249H74V156.855z" />
    <glyph glyph-name="fb"
      unicode="&#xE013;"
      horiz-adv-x="200" d=" M98.989 190.187C49.483 190.187 9.409 150.054 9.409 100.55C9.409 56.609 45.186 20.049 82.837 12.395V77.63H59.529V108.109H82.837V127.945C82.837 151.266 98.634 163.964 119.423 163.964C129.39 163.964 134.532 163.22 142.003 162.887V138.59H124.298C112.983 138.59 111.524 133.135 111.524 125.247V108.11H137.84L134.321 77.631H111.523V11.702C156.346 17.509 188.952 55.073 188.952 100.551C188.952 150.056 148.489 190.187 98.989 190.187z" />
    <glyph glyph-name="fix"
      unicode="&#xE014;"
      horiz-adv-x="200" d=" M117.6 78.9C107.1 89.4 96.6 99.9 85.9 110.6C86 110.8 86.3 111.4 86.7 111.8C105.3 130.6 124 149.3 142.8 168C150 175.1 159.8 176.7 168.6 172.6C176.901 168.7 182.5 160.1 181.401 150.8C180.901 146.2 179.3 140.9 176.201 137.7C157.1 117.9 137.5 98.6 118.1 79.2C118 79 117.6 78.9 117.6 78.9zM112.1 101.1C113.5 102.2 114.201 102.6 114.701 103.2C131.301 119.8 147.901 136.3 164.401 152.9C165.001 153.5 165.8 154.1 166.001 154.8C166.201 156 166.501 157.8 165.901 158.3C165.001 159 163.201 159.3 162.001 158.9C160.901 158.6 159.901 157.3 159.001 156.4C143.101 140.5 127.301 124.7 111.401 108.8C110.401 107.8 109.501 106.6 108.1 105C109.4 103.7 110.6 102.6 112.1 101.1zM103.7 109.3C105.099 110.3 105.8 110.7 106.4 111.2C121.7 126.5 137.099 141.8 152.4 157.1C153 157.7 153.9 158.3 153.9 159C153.9 160.3 153.9 162 153.099 162.9C152.599 163.5 150.7 163.3 149.599 162.9C148.599 162.5 147.799 161.4 146.999 160.6C132.399 146 117.799 131.4 103.199 116.8C102.199 115.8 101.399 114.6 100.299 113.4C101.6 111.8 102.6 110.6 103.7 109.3zM120.2 93C121.5 94 122 94.3 122.5 94.8C137.8 110.1 153.1 125.4 168.4 140.7C169 141.3 169.9 141.9 170 142.6C170.2 143.9 170.4 145.8 169.7 146.5C168.9 147.2 167 147.1 165.8 146.7C164.7 146.3 163.8 145 162.8 144.1C148.1 129.4 133.4 114.7 118.7 100C117.9 99.2 117.3 98.3 116.3 97.1C117.7 95.6 118.8 94.4 120.2 93z M20.7 151.3C25.5 146.2 29.6 141.6 33.9 137.3C41.7 129.5 52.5 129.3 59.7 136.6C66.9 143.9 66.7 154.1 59 162C55.1 166.1 51 169.9 46.9 174C56.8 179.1 74.1 173.2 82.8 162C93.5 148 92.9 128.7 81.3 115.5C69.9 102.6 50.2 99.7 35.3 108.8C21.2 117.5 14.6 135.2 20.7 151.3z M109.6 60.9C118.8 70 128 79.099 137.1 88.099C146.901 78.4 157.201 68.799 166.901 58.499C174.001 50.999 173.1 39.099 165.901 31.799C158.8 24.699 146.901 23.4 139.6 30.199C129.2 40 119.6 50.6 109.6 60.9zM161.3 45.1C161.3 49.901 157.1 54.1 152.401 54C148.001 53.9 143.8 49.7 143.701 45.3C143.6 40.7 147.901 36.2 152.501 36.2C157.2 36 161.3 40.2 161.3 45.1z M61.2 65C70 74 78.7 82.7 87.5 91.6C90.8 88.1 94 84.8 97.6 81C88.8 72.4 80 63.6 71.2 55C73.7 50.4 72.8 46.8 68.4 44C57.9 37.3 47.2 30.8 35.9 23.9C34.3 26 32.7 28.099 30.7 30.799C37.1 41.099 43.9 52.299 50.9 63.299C53.2 66.9 56.8 67.3 61.2 65z" />
    <glyph glyph-name="guide"
      unicode="&#xE015;"
      horiz-adv-x="200" d=" M176.841 169.94C176.841 180.937 167.892 189.879 156.901 189.879H146.93C141.425 189.879 136.96 185.415 136.96 179.909V107.517L134.809 108.767C133.261 109.673 131.528 110.121 129.796 110.121C128.111 110.121 126.431 109.698 124.918 108.846L122.007 107.21V179.91C122.007 185.416 117.541 189.88 112.037 189.88H42.249C31.254 189.88 22.309 180.938 22.309 169.941V30.365C22.309 19.368 31.254 10.426 42.249 10.426H156.9C167.891 10.426 176.84 19.368 176.84 30.365V169.94zM166.87 45.318H47.233V35.348H166.87V30.364C166.87 24.857 162.411 20.393 156.9 20.393H42.249C36.747 20.393 32.278 24.857 32.278 30.364V60.273H42.249V70.242H32.278V100.152H42.249V110.122H32.278V140.031H42.249V150H32.278V169.94C32.278 175.446 36.747 179.91 42.249 179.91H112.037V90.182L129.796 100.152L146.93 90.182V179.91H156.901C162.412 179.91 166.871 175.446 166.871 169.94V45.318z" />
    <glyph glyph-name="help"
      unicode="&#xE016;"
      horiz-adv-x="200" d=" M99.453 10.674C49.875 10.674 9.541 51.007 9.541 100.586C9.541 150.164 49.875 190.5 99.453 190.5C149.03 190.5 189.365 150.164 189.365 100.586C189.365 51.007 149.03 10.674 99.453 10.674zM99.453 177.489C57.05 177.489 22.552 142.989 22.552 100.586S57.05 23.686 99.453 23.686C141.857 23.686 176.355 58.183 176.355 100.586S141.857 177.489 99.453 177.489z M131.439 121.298C131.439 118.032 130.959 115.112 130.001 112.543C129.042 109.972 127.672 107.6 125.885 105.42C124.098 103.241 121.182 100.67 117.129 97.711L111.902 93.857C108.765 91.589 106.433 89.208 104.91 86.705C103.388 84.198 102.6 81.465 102.56 78.501H91.122C91.209 81.51 91.676 84.146 92.527 86.406C93.377 88.674 94.476 90.678 95.826 92.421C97.178 94.164 98.703 95.724 100.4 97.095C102.1 98.468 103.819 99.774 105.562 101.015C107.304 102.257 109.012 103.493 110.692 104.737C112.367 105.979 113.861 107.361 115.167 108.89C116.475 110.413 117.529 112.132 118.337 114.048C119.141 115.967 119.544 118.208 119.544 120.781C119.544 125.744 117.856 129.666 114.481 132.543C111.102 135.418 106.366 136.855 100.269 136.855C94.171 136.855 89.333 135.33 85.762 132.282C82.191 129.232 80.098 125.052 79.491 119.738L67.468 120.521C68.6 129.147 71.998 135.768 77.662 140.386C83.324 145.003 90.818 147.312 100.14 147.312C109.852 147.312 117.5 145.015 123.076 140.419C128.648 135.814 131.439 129.445 131.439 121.298zM90.601 53.869V67.003H103.341V53.869H90.601z" />
    <glyph glyph-name="internet"
      unicode="&#xE017;"
      horiz-adv-x="200" d=" M60.5 11.5L137.6 11.5L100.3 102.7z M145.3 22.8L141.5 29C166.2 44 180.9 70.2 180.9 99C180.9 144.1 144.2 180.8 99.1 180.8S17.3 144.1 17.3 99C17.3 71.2 31.2 45.6 54.5 30.4L50.5 24.299C25.1 40.8 10 68.7 10 98.9C10 148 50 188 99.1 188S188.2 148 188.2 98.9C188.2 67.5 172.1 39.1 145.3 22.8z M66 50.2C47.9 61.6 37.1 81.3 37.1 102.6C37.1 136.8 64.9 164.6 99.1 164.6C133.3 164.6 161.1 136.8 161.1 102.6C161.1 82 150.901 62.7 133.8 51.2L129.8 57.2C144.9 67.4 154 84.4 154 102.6C154 132.8 129.4 157.4 99.2 157.4S44.3 132.9 44.3 102.7C44.3 83.8 53.9 66.5 69.9 56.4L66 50.2z M114.8 83.1L110.8 89.1C116.6 93 120 99.5 120 106.5C120 118 110.6 127.4 99.1 127.4C87.6 127.4 78.1 118 78.1 106.4C78.1 99.4 81.5 92.9 87.3 89L83.3 83C75.5 88.3 70.9 97 70.9 106.3C70.9 121.8 83.5 134.5 99.1 134.5S127.3 121.9 127.3 106.3C127.2 97.1 122.6 88.3 114.8 83.1z" />
    <glyph glyph-name="inventory"
      unicode="&#xE018;"
      horiz-adv-x="200" d=" M182.887 157.189C182.719 157.654 182.483 158.085 182.182 158.474L163.322 182.721C160.176 186.776 154.163 189.718 149.023 189.718H50.978C45.838 189.718 39.828 186.778 36.683 182.726L17.816 158.472C17.515 158.084 17.28 157.655 17.112 157.19C14.842 155.049 13.549 152.096 13.549 149.023V21.566C13.549 15.343 18.612 10.282 24.832 10.282H175.167C181.39 10.282 186.451 15.344 186.451 21.566V149.022C186.451 152.096 185.157 155.049 182.887 157.189zM117.819 160.306V180.226H149.022C151.151 180.226 154.519 178.578 155.824 176.897L168.728 160.306H117.819zM108.325 122.877C108.325 121.891 107.523 121.088 106.537 121.088H93.464C92.477 121.088 91.674 121.891 91.674 122.877V180.226H108.325V122.877zM93.464 111.594H106.537C112.758 111.594 117.819 116.657 117.819 122.877V150.812H175.167C176.154 150.812 176.957 150.009 176.957 149.022V21.565C176.957 20.577 176.154 19.775 175.167 19.775H24.832C23.846 19.775 23.043 20.577 23.043 21.565V149.022C23.043 150.009 23.846 150.812 24.832 150.812H82.18V122.876C82.18 116.656 87.242 111.594 93.464 111.594zM44.179 176.9C45.482 178.579 48.85 180.225 50.978 180.225H82.18V160.305H31.271L44.179 176.9z M96.731 29.891H158.826C161.443 29.891 163.573 32.02 163.573 34.637C163.573 37.255 161.443 39.385 158.826 39.385H96.731C94.114 39.385 91.985 37.255 91.985 34.637C91.985 32.02 94.114 29.891 96.731 29.891z M132.683 69.108C133.95 69.108 135.141 69.601 136.038 70.499L141.007 75.468V50.978C141.007 48.361 143.137 46.232 145.754 46.232C148.372 46.232 150.501 48.361 150.501 50.978V75.468L155.471 70.499C156.367 69.603 157.56 69.109 158.826 69.109C160.096 69.109 161.286 69.602 162.182 70.499C163.079 71.395 163.573 72.588 163.573 73.854C163.573 75.123 163.079 76.315 162.182 77.21L149.11 90.283C148.214 91.18 147.021 91.674 145.754 91.674S143.295 91.181 142.398 90.283L129.327 77.211C128.431 76.315 127.936 75.122 127.936 73.854C127.936 72.587 128.429 71.395 129.327 70.498C130.222 69.602 131.414 69.108 132.683 69.108z M96.732 69.108C97.999 69.108 99.191 69.601 100.087 70.499L105.058 75.468V50.978C105.058 48.361 107.187 46.232 109.803 46.232C112.42 46.232 114.551 48.361 114.551 50.978V75.468L119.521 70.499C120.417 69.603 121.609 69.109 122.877 69.109C124.145 69.109 125.336 69.602 126.232 70.499C127.129 71.395 127.622 72.588 127.622 73.854C127.622 75.123 127.129 76.315 126.232 77.21L113.16 90.283C112.264 91.179 111.071 91.674 109.803 91.674C108.536 91.674 107.344 91.181 106.448 90.283L93.376 77.211C92.479 76.315 91.985 75.122 91.985 73.854C91.985 72.587 92.478 71.395 93.376 70.499C94.272 69.602 95.464 69.108 96.732 69.108z" />
    <glyph glyph-name="invoice"
      unicode="&#xE019;"
      horiz-adv-x="200" d=" M20.3 135.1C20.3 139.9 20.3 144.7 20.3 149.5C21 152.5 21.7 155.6 22.5 158.6C26.4 173.3 34.3 179.4 49.4 179.4C78.9 179.4 108.4 179.4 137.9 179.4C153.5 179.4 159.599 173.4 159.599 157.6C159.599 126.1 159.599 94.6 159.599 63C159.599 60.9 159.599 58.8 159.599 56.5C166.9 56.5 173.299 56.5 179.7 56.5C179.7 52.8 179.7 49.1 179.7 45.4C178.9 43 178.2 40.599 177.4 38.2C173.599 26.9 166.299 20.9 155.2 20.8C121.3 20.6 87.4 20.7 53.4 20.7C47.3 20.7 43.2 23.9 41.4 29.5C40.5 32.4 40.2 35.6 40.2 38.7C40.1 68.7 40.1 98.8 40.1 128.8C40.1 130.8 40.1 132.7 40.1 135C33.1 135.1 26.7 135.1 20.3 135.1zM48.6 169.4C49.1 162.1 49.9 155.3 50 148.6C50.1 112.6 50 76.7 50.2 40.7C50.2 37.4 51.9 34.2 52.8 30.9C54.9 34.099 57.9 37 58.9 40.5C60.3 45.3 60.1 50.5 60.7 56.3C90.3 56.3 119.8 56.3 149.7 56.3C149.7 59 149.7 61 149.7 63C149.7 90.5 149.7 118 149.7 145.4C149.7 150.6 149.8 155.7 149.599 160.9C149.4 165.6 147.7 169.4 142.2 169.4C110.9 169.4 79.5 169.4 48.6 169.4zM67 31C68.1 30.8 69.2 30.5 70.2 30.5C98.2 30.5 126.2 30.4 154.2 30.5C163.099 30.6 168.3 36.5 168.5 46C135.8 46 103.1 46 70.3 46C69.2 40.9 68.1 36.1 67 31zM39 165.4C38.3 165.4 37.5 165.5 36.8 165.5C31.9 159.9 31 153 30.4 145.6C33.8 145.6 36.8 145.6 40.5 145.6C40 152.6 39.5 159 39 165.4z M139.3 81.9C139.3 78.799 139.3 76.099 139.3 73C115.1 73 91.1 73 66.6 73C66.6 75.8 66.6 78.6 66.6 81.9C90.6 81.9 114.6 81.9 139.3 81.9z M138.7 147.9C138.7 144.7 138.7 141.9 138.7 138.7C128.599 138.7 118.7 138.7 108.5 138.7C108.5 141.8 108.5 144.6 108.5 147.9C118.5 147.9 128.3 147.9 138.7 147.9z M108.6 116.7C108.6 119.7 108.6 122.5 108.6 125.8C118.6 125.8 128.5 125.8 138.701 125.8C138.701 122.7 138.701 119.9 138.701 116.7C128.6 116.7 118.8 116.7 108.6 116.7z M108.5 95.6C108.5 98.5 108.5 101.4 108.5 104.6C118.5 104.6 128.3 104.6 138.5 104.6C138.5 101.7 138.5 98.9 138.5 95.6C128.8 95.6 118.8 95.6 108.5 95.6z M83.7 100.6V94H78.1V100.6C69.6 101.5 64.5 105.6 62.7 112.8L72.4 115C73.5 110.9 76.5 108.8 81.5 108.8C83.9 108.8 85.7 109.3 86.9 110.2C88.1 111.1 88.7 112.2 88.7 113.5S88.2 115.8 87.1 116.6C86 117.3 84 118 80.9 118.6C74.2 120 69.9 121.8 68 124.2C66 126.5 65 129.2 65 132.3C65 136 66.2 139.1 68.7 141.7C71.1 144.3 74.3 145.8 78.2 146.3V151.9H83.8V146.4C91 145.7 95.8 142.3 98 136L89.1 133C87.9 136.5 85.4 138.3 81.5 138.3C77.4 138.3 75.3 137 75.3 134.3C75.3 133.2 75.7 132.3 76.5 131.6C77.3 130.9 79 130.2 81.7 129.7C86.2 128.8 89.6 127.9 91.7 126.9C93.8 126 95.6 124.4 97 122.4S99.2 118 99.2 115.4C99.2 111.8 97.9 108.6 95.4 105.7C92.8 102.8 88.9 101.1 83.7 100.6z" />
    <glyph glyph-name="lang"
      unicode="&#xE01A;"
      horiz-adv-x="200" d=" M103.23 160.366H78.989C77.632 159.168 76.647 158.352 76.031 157.923H99.752L99.455 150.968H102.413V147.369H99.307L99.013 143.977H100.825V140.482H98.75C98.354 138.536 97.448 137.185 96.032 136.426C94.61 135.669 91.892 135.29 87.87 135.29L86.65 138.955C87.513 138.909 88.29 138.888 88.983 138.888C91.276 138.888 92.574 139.42 92.869 140.483H71.032L72.256 147.37H67.258V150.969H72.773L73.218 156.056C71.885 155.151 70.628 154.485 69.444 154.054L66.113 158.193C70.552 160.185 74.698 163.273 78.546 167.459L84.505 166.204C84.16 165.661 83.628 165.061 82.915 164.405H103.231V160.366zM89.981 113.234C85.343 110.474 79.125 108.065 71.329 106.008L67.555 110.688C74.218 112.025 80.077 114.015 85.132 116.662L89.981 113.234zM129.836 119.375L124.618 116.391C124.222 116.731 123.236 117.771 121.657 119.512L103.155 118.121V111.3C103.155 109.65 102.586 108.327 101.452 107.331C100.314 106.335 96.95 105.804 91.349 105.736L89.461 110.689C93.165 110.646 95.248 110.798 95.718 111.149C96.185 111.5 96.418 112.037 96.418 112.761V117.783L72.107 117.07L71.179 121.31C78.212 122.169 85.664 124.069 93.532 127.01C87.636 126.557 82.134 126.298 77.028 126.231L75.806 129.86C85.257 130.719 93.433 133.287 100.342 137.563L105.819 135.153C102.957 133.459 99.541 131.92 95.569 130.538L103.636 130.845C108.767 133.015 112.455 134.611 114.702 135.63L120.661 132.576C108.497 127.372 99.047 123.822 92.311 121.921C101.121 122.17 109.356 122.678 117.03 123.447C115.428 124.668 114.318 125.461 113.701 125.822L118.995 128.741C123.088 126.139 126.703 123.017 129.836 119.375zM84.356 143.977C83.714 144.43 82.653 145.053 81.173 145.843L83.614 147.369H78.396L77.843 143.977H84.356zM84.763 150.968C83.8 151.759 82.888 152.415 82.026 152.935L84.283 154.327H79.137L78.842 150.969H84.763zM93.386 147.369H86.43C87.194 146.918 88.205 146.295 89.462 145.503L87.17 143.977H93.237L93.386 147.369zM93.757 154.326H86.798C87.709 153.806 88.673 153.08 89.687 152.154L88.019 150.968H93.681L93.757 154.326zM133.314 140.923L130.134 136.24C125.394 137.369 121.077 139.27 117.18 141.941C113.654 139.702 109.961 138.039 106.117 136.952L102.561 141.534C105.842 142.303 109.197 143.625 112.627 145.503C110.899 147.29 109.285 149.462 107.779 152.02L112.848 154.257C114.452 151.861 115.919 150.027 117.251 148.762C119.718 151.294 121.335 154.213 122.098 157.516H111.11C109.209 155.253 107.139 153.353 104.894 151.815L101.192 155.851C105.19 158.658 108.52 162.502 111.187 167.388L116.958 165.93C116.17 164.483 115.463 163.295 114.85 162.368H131.945V157.516H127.946C126.519 152.13 124.394 148.127 121.586 145.503C124.47 143.672 128.382 142.145 133.314 140.923zM132.279 110.18L128.392 105.735C121.829 108.789 115.44 111.064 109.226 112.556L112.924 116.73C120.302 114.807 126.751 112.623 132.279 110.18z M42.448 84.759H32.195C33.75 82.542 34.836 80.553 35.452 78.788L29.16 77.26C28.248 79.118 26.755 81.617 24.682 84.759H22.203C19.983 81.998 17.454 79.545 14.616 77.397L9.473 81.163C14.21 84.647 18.452 89.534 22.203 95.822L28.273 93.583C27.458 92.135 26.767 91.05 26.202 90.326H42.447V84.759zM20.391 34.166H13.879V68.102L20.391 68.031V34.166zM31.677 71.154L26.608 67.181C23.796 69.899 20.402 72.453 16.431 74.852L21.427 78.922C25.745 76.164 29.161 73.572 31.677 71.154zM58.951 40.988H27.792V66.573H58.95V40.988zM73.124 39.799C73.124 37.876 72.49 36.506 71.219 35.696C69.948 34.879 67.956 34.473 65.242 34.473C64.378 34.473 63.442 34.517 62.429 34.61L60.024 40.445C61.48 40.287 62.75 40.206 63.838 40.206C65.142 40.206 65.959 40.31 66.278 40.5C66.598 40.694 66.759 41.011 66.759 41.461V71.424H34.157V76.717H73.123V39.799zM52.513 56.221V61.349H34.304V56.221H52.513zM52.513 46.28V51.27H34.304V46.28H52.513zM76.012 84.759H63.578C64.686 83.133 65.747 81.334 66.76 79.363L60.173 77.77C59.283 79.874 57.94 82.204 56.14 84.758H52.587C50.54 82.203 48.171 79.818 45.483 77.599L40.005 80.957C45.135 84.94 49.233 89.846 52.292 95.685L58.584 94.158C58.064 92.935 57.323 91.659 56.361 90.325H76.012V84.759z M152.015 37.866H142.245L136.878 51.542H113.938L108.831 37.866H99.063L120.673 90.426H130.552L152.015 37.866zM134.4 58.291L126.409 79.025C126.109 79.77 125.813 81.094 125.519 82.996H125.259C125.036 81.433 124.73 80.134 124.334 79.093L116.379 58.291H134.4z M159.971 72.883C164.142 75.146 168.965 76.278 174.441 76.278C184.776 76.278 189.945 71.379 189.945 61.586V37.867H181.507V43.567H181.323C178.536 39.177 174.39 36.985 168.887 36.985C164.869 36.985 161.711 37.979 159.403 39.971C157.096 41.959 155.935 44.64 155.935 48.012C155.935 55.07 160.515 59.185 169.666 60.366L181.547 61.855C181.547 67.443 178.869 70.238 173.512 70.238C168.607 70.238 164.089 68.777 159.97 65.861V72.883zM172.518 55.307C169.557 54.944 167.471 54.254 166.252 53.238C165.028 52.218 164.413 50.727 164.413 48.758C164.413 47.108 165.064 45.764 166.374 44.712C167.681 43.659 169.36 43.127 171.404 43.127C174.318 43.127 176.734 44.075 178.658 45.965C180.583 47.855 181.548 50.23 181.548 53.102V56.429L172.518 55.307z" />
    <glyph glyph-name="language"
      unicode="&#xE01B;"
      horiz-adv-x="200" d=" M99.977 189.732C50.486 189.732 10.222 149.468 10.222 99.977S50.486 10.223 99.977 10.223C149.469 10.223 189.731 50.486 189.731 99.977S149.469 189.732 99.977 189.732zM128.022 101.611C131.741 98.387 138.398 98.152 141.125 99.068C143.85 99.934 154.425 98.598 155.486 98.335C156.56 98.048 161.957 85.52 162.89 82.429C163.819 79.362 168.616 75.536 167.108 71.919C165.629 68.327 164.606 63.007 166.402 62.456C167.031 62.247 168.211 63.113 169.481 64.319C156.531 38.185 129.655 20.129 98.575 20.129C54.927 20.129 19.418 55.639 19.418 99.3C19.418 116.885 25.263 133.133 35.024 146.289C36.203 137.17 40.095 119.164 41.931 117.592C44.157 115.652 43.07 108.655 46.791 105.432C49.598 102.999 54.499 98.989 56.738 97.164C56.669 94.332 57.95 88.135 58.152 85.179C58.415 81.353 62.595 81.982 70.299 76.271C78.057 70.53 74.754 62.958 75.082 58.11C75.448 53.26 75.949 35.384 77.716 30.278C79.459 25.142 85.238 22.781 85.238 22.781S83.928 26.505 83.509 32.428C83.103 38.324 85.2 37.799 91.87 42.438C98.514 47.102 106.821 73.126 108.315 76.375C109.863 79.648 112.927 80.227 111.985 83.663C111.04 87.066 106.963 85.731 100.216 87.33C93.454 88.956 88.266 93.488 82.657 98.679C77.089 103.867 69.253 105.755 66.29 103.108C63.826 100.883 59.093 99.239 57.634 98.769C57.341 100.96 56.775 104.219 55.753 107.216C53.959 112.351 55.701 112.825 54.22 114.108C52.714 115.367 50.538 111.724 46.646 112.511C42.741 113.271 42.702 123.727 48.729 127.317C54.756 130.881 59.776 119.376 59.776 119.376S62.922 119.247 63.578 124.88C64.115 129.52 77.795 146.267 86.364 154.181C88.159 155.884 93.494 154.416 94.672 155.098C95.499 155.597 86.863 163.799 87.296 164.559C89.38 168.308 87.19 174.046 85.617 177.295C89.849 178.003 94.161 178.449 98.575 178.449C105.913 178.449 112.977 177.374 119.725 175.487C119.844 172.787 120.525 170.061 123.968 169.04C129.697 167.361 128.792 165.187 133.944 166.604C136.039 167.18 137.689 167.389 138.935 167.259C139.642 166.841 140.335 166.448 141.019 166.002C141.174 165.426 141.123 164.638 140.771 163.59C139.828 160.824 140.967 161.779 141.195 161.994C141.107 161.907 140.849 161.635 140.272 160.969C137.676 158.009 133.367 154.523 138.7 153.185C144.044 151.823 142.51 157.012 147.283 158.402C149.156 158.951 149.889 159.056 150.349 159.03C151.37 158.14 152.38 157.248 153.361 156.305C153.913 154.707 153.953 152.479 157.805 151.64C162.589 146.242 166.611 140.186 169.794 133.636C169.65 133.585 169.587 133.532 169.428 133.507C161.512 131.568 162.681 129.89 155.642 130.807C148.581 131.671 144.033 136.94 139.263 135.209C139.263 135.209 137.284 133.688 134.453 134.188C131.65 134.686 130.758 132.195 129.526 129.653C128.334 127.111 123.196 125.697 123.498 121.529C123.774 117.363 124.312 104.861 128.022 101.611z" />
    <glyph glyph-name="list"
      unicode="&#xE01C;"
      horiz-adv-x="200" d=" M151.368 10.521H49.93C41.313 10.521 34.318 17.511 34.318 26.124V174.39C34.318 183.006 41.313 189.994 49.93 189.994H123.947C123.947 189.994 123.964 189.994 123.98 189.994H124.055C124.063 189.994 124.063 189.994 124.063 189.994C125.305 189.994 126.367 189.373 127.084 188.455L165.442 150.109C166.347 149.393 166.98 148.331 166.98 147.076L166.98 147.076V146.993C166.98 146.993 166.98 146.985 166.98 146.976V26.123C166.979 17.512 159.984 10.521 151.368 10.521zM127.955 176.801V150.981H153.779L127.955 176.801zM159.17 143.179H124.063C121.898 143.179 120.163 144.928 120.163 147.076V182.192H49.93C45.617 182.192 42.12 178.698 42.12 174.39V26.124C42.12 21.82 45.618 18.322 49.93 18.322H151.368C155.681 18.322 159.17 21.816 159.17 26.124V143.179zM135.765 41.732H65.533C63.377 41.732 61.632 43.485 61.632 45.636C61.632 47.792 63.377 49.537 65.533 49.537H135.764C137.92 49.537 139.665 47.792 139.665 45.636C139.666 43.481 137.921 41.732 135.765 41.732zM135.765 72.946H65.533C63.377 72.946 61.632 74.696 61.632 76.847C61.632 79.003 63.377 80.748 65.533 80.748H135.764C137.92 80.748 139.665 79.003 139.665 76.847C139.666 74.696 137.921 72.946 135.765 72.946zM135.765 104.162H65.533C63.377 104.162 61.632 105.907 61.632 108.063C61.632 110.223 63.377 111.968 65.533 111.968H135.764C137.92 111.968 139.665 110.223 139.665 108.063C139.666 105.907 137.921 104.162 135.765 104.162z" />
    <glyph glyph-name="mail"
      unicode="&#xE01D;"
      horiz-adv-x="200" d=" M188.593 162.692C157.831 136.311 129.232 111.787 100.038 86.751C71.147 111.504 42.386 136.147 11.84 162.319C16.564 163.559 19.6 165.043 22.643 165.051C74.222 165.193 125.803 165.187 177.384 165.071C180.363 165.062 183.339 163.846 188.593 162.692z M100.067 74.322C107.779 81.008 114.909 87.191 122.609 93.867C144.038 75.508 165.35 57.247 188.463 37.443C183.327 36.281 180.157 34.947 176.985 34.939C125.743 34.806 74.502 34.81 23.261 34.93C20.05 34.937 16.844 36.157 11.41 37.267C34.401 57 55.501 75.114 77.275 93.802C84.636 87.513 91.96 81.254 100.067 74.322z M127.988 98.968C149.217 117.428 169.432 135.005 190.57 153.385C190.57 117.346 190.57 82.378 190.57 45.882C169.561 63.703 149.116 81.047 127.988 98.968z M72.006 98.996C51.095 81.21 30.736 63.895 9.43 45.772C9.43 81.934 9.43 116.917 9.43 153.344C30.482 135.06 50.945 117.289 72.006 98.996z" />
    <glyph glyph-name="maintain"
      unicode="&#xE01E;"
      horiz-adv-x="200" d=" M152.459 59.16C145.779 59.16 140.367 53.771 140.367 47.121C140.367 40.475 145.779 35.093 152.459 35.093C159.128 35.093 164.54 40.476 164.54 47.121C164.54 53.771 159.128 59.16 152.459 59.16zM152.459 44.813C151.152 44.813 150.09 45.849 150.09 47.121C150.09 48.398 151.153 49.437 152.459 49.437C153.76 49.437 154.817 48.398 154.817 47.121C154.817 45.85 153.76 44.813 152.459 44.813z M178.405 58.163L141.858 94.69C142.722 95.142 143.547 95.688 144.269 96.414L183.213 135.643C183.379 135.814 183.545 135.995 183.697 136.175C188.6630000000001 141.981 189.2650000000001 152.211 188.834 157.337C188.3310000000001 163.366 186.327 167.885 182.8720000000001 170.776C177.716 175.086 169.584 175.727 165.1930000000001 175.727C159.763 175.727 152.329 174.768 147.7540000000001 170.192L109.2500000000001 130.156C108.7710000000001 129.657 108.3630000000001 129.111 108.0020000000001 128.527L101.1660000000001 135.367L101.4330000000001 146.494C101.4420000000001 146.926 101.4220000000001 147.363 101.3740000000001 147.79C100.1640000000001 158.769 97.6150000000001 167.832 89.0990000000001 176.348C82.7660000000001 182.685 74.896 186.981 65.711 189.108C65.616 189.132 65.521 189.15 65.4230000000001 189.17C62.302 189.796 59.1760000000001 190.115 56.131 190.115C50.082 190.115 44.28 188.919 38.392 186.469C35.418 185.23 33.251 182.595 32.607 179.439C31.961 176.283 32.923 173.007 35.173 170.705L56.157 149.191C56.762 148.394 57.1760000000001 147.777 57.4580000000001 147.312L50.2420000000001 140.785C50.1920000000001 140.743 50.142 140.695 50.0920000000001 140.647C49.7930000000001 140.865 49.4280000000001 141.174 49.0120000000001 141.592C48.8960000000001 141.706 48.7770000000001 141.82 48.6560000000001 141.929L28.127 160.518C26.316 162.151 23.983 163.029 21.602 163.029C20.712 163.029 19.815 162.91 18.937 162.654C15.708 161.738 13.186 159.217 12.258 155.994L11.814 154.456C9.839 147.668 8.133 141.796 10.794 132.297C13.11 122.395 16.989 115.179 22.968 109.639C30.732 101.356 40.249 99.472 48.577 98.365C50.808 98.047 53.984 97.852 57.196 97.852C57.986 97.852 58.9 97.862 59.866 97.9L70.013 88.073C69.438 87.694 68.897 87.266 68.408 86.763L50.412 68.312L42.183 66.749C39.589 66.256 37.308 64.728 35.862 62.52L16.623 33.112C14.178 29.377 14.596 24.449 17.634 21.179L24.589 13.688C26.485 11.641 29.089 10.579 31.719 10.579C33.53 10.579 35.355 11.082 36.971 12.126L66.91 31.371C69.284 32.899 70.879 35.382 71.277 38.174L72.424 46.2L90.736 64.548C91.345 65.16 91.82 65.844 92.236 66.56L138.194 22.067C138.755 21.521 139.377 21.051 140.05 20.658C145.627 17.396 151.248 15.744 156.759 15.744C167.491 15.744 176.977 22.172 181.495 32.511C185.521 41.715 184.415 51.675 178.671 57.884C178.581 57.978 178.496 58.067 178.405 58.163zM154.628 163.318C156.461 165.146 160.779 166.006 165.194 166.006C169.817 166.006 174.542 165.066 176.634 163.318C180.726 159.896 179.511 146.234 176.311 142.494L137.368 103.265L116.257 123.416L154.628 163.318zM63.257 50.781L61.653 39.55L31.714 20.301L24.759 27.792L43.999 57.199L55.235 59.336L75.367 79.975L83.855 71.416L63.257 50.781zM156.759 25.466C153.241 25.466 149.274 26.529 144.953 29.05L63.457 107.954C61.927 107.698 59.607 107.574 57.196 107.574C54.561 107.574 51.815 107.721 49.862 108.002C41.844 109.069 35.184 110.665 29.829 116.541C24.489 121.359 21.811 127.773 20.212 134.722C18.066 142.213 19.453 145.821 21.603 153.306L42.134 134.722C44.819 132.031 47.736 130.488 50.531 130.488C52.74 130.488 54.875 131.446 56.764 133.573L65.831 141.771C69.571 146.043 67.265 150.757 63.518 155.571L42.133 177.493C46.495 179.311 51.105 180.394 56.132 180.394C58.496 180.394 60.953 180.152 63.518 179.639C70.468 178.03 76.881 174.826 82.226 169.475C88.644 163.057 90.652 156.35 91.71 146.727L91.344 131.437L171.53 51.284C178.382 43.874 171.432 25.466 156.759 25.466z" />
    <glyph glyph-name="map"
      unicode="&#xE01F;"
      horiz-adv-x="200" d=" M100.06 189.5C64.444 189.5 35.57 160.619 35.57 125.01C35.57 89.393 100.06 10.233 100.06 10.233S164.543 89.391 164.543 125.01C164.543 160.619 135.674 189.5 100.06 189.5zM100.06 96.722C84.442 96.722 71.772 109.391 71.772 125.011C71.772 140.622 84.442 153.293 100.06 153.293C115.678 153.293 128.341 140.622 128.341 125.011C128.341 109.391 115.677 96.722 100.06 96.722z" />
    <glyph glyph-name="member"
      unicode="&#xE020;"
      horiz-adv-x="200" d=" M179.721 35.336C175.852 48.064 145.341 63.871 134.962 68.404C133.663 68.973 132.126 68.947 130.851 68.328L100.494 53.655L73.354 68.229C72.111 68.903 70.582 68.999 69.241 68.48C68.802 68.309 25.272 50.964 21.174 35.129C18.786 25.9 17.866 21.483 17.859 21.448C17.789 21.114 17.754 20.775 17.754 20.44C17.754 14.905 20.873 12.45 22.731 11.479C25.207 10.184 27.924 10.005 30.493 10.005C31.201 10.005 31.919 10.021 32.641 10.035L32.962 10.042C33.681 10.056 34.416 10.065 35.154 10.065H165.605C166.564 10.065 167.512 10.032 168.44 9.998L168.744 9.988C169.61 9.959 170.452 9.931 171.253 9.931C180.966 9.931 183.005 15.409 183.005 20.004C183.003 23.616 182.681 25.594 179.721 35.336zM32.116 19.891L30.496 19.898C28.877 19.898 28.051 20.003 27.621 20.107C28.082 22.174 29.044 26.319 30.687 32.671C32.27 38.784 52.959 51.227 70.714 58.484L98.048 43.807C99.404 43.077 101.112 43.036 102.515 43.711L133.068 58.482C151.998 49.855 168.852 37.281 170.311 32.475C173.032 23.521 173.17 22.279 173.17 20.004C173.17 19.953 173.17 19.898 173.17 19.842C172.848 19.801 172.273 19.7629999999999 171.248 19.7629999999999C170.486 19.7629999999999 169.689 19.7919999999999 168.775 19.825L168.426 19.837C167.502 19.866 166.556 19.897 165.601 19.897H35.152L33.583 19.903C33.314 19.903 33.047 19.901 32.771 19.897C32.552 19.893 32.333 19.891 32.116 19.891z M64.867 104.012C66.6 99.842 68.529 96.804 70.566 93.596L70.62 93.51C71.212 92.582 71.813 91.639 72.415 90.655C74.431 87.347 76.519 84.752 78.782 82.746C78.57 79.242 78.141 76.005 77.589 73.766C76.943 71.136 78.557 68.468 81.188 67.819C81.573 67.724 81.969 67.676 82.363 67.676C84.632 67.676 86.594 69.216 87.135 71.42C88.143 75.529 88.613 81.08 88.716 84.905C88.759 86.57 87.971 88.131 86.604 89.079C84.58 90.478 82.738 92.605 80.804 95.777C80.226 96.719 79.655 97.618 79.093 98.504L78.91 98.791C76.706 102.249 74.804 105.235 73.197 109.696C72.579 111.402 70.926 112.674 69.031 112.916C68.896 112.999 68.641 113.2 68.497 113.463C65.747 118.511 64.518 125.592 64.462 128.334C65.686 128.345 66.866 128.864 67.787 129.795C68.74 130.758 69.258 132.085 69.209 133.435C68.542 151.492 75.111 161.132 80.74 166.039C82.0330000000001 167.167 82.621 168.894 82.36 170.531C83.9500000000001 171.18 86.035 171.425 87.553 171.425L89.407 171.026L89.654 175.425L92.799 177.587L92.494 178.282C94.037 177.358 95.845 176.592 97.766 176.06C103.047 174.598 107.875 172.911 112.173 171.022C125.386 165.787 132.569 152.083 131.8780000000001 133.419C131.8320000000001 132.106 132.3210000000001 130.809 133.221 129.861C134.011 129.03 135.035 128.511 136.147 128.366C136.132 125.624 134.964 118.557 132.167 113.429C132 113.125 131.724 112.905 131.585 112.819C129.858 112.517 128.4270000000001 111.326 127.825 109.681C126.204 105.301 124.207 102.171 122.072 98.827C121.408 97.786 120.735 96.731 120.059 95.62C118.187 92.55 116.514 90.501 114.79 89.171C113.59 88.237 112.878 86.773 112.887 85.248C112.91 82.193 113.164 76.279 114.61 71C115.187 68.867 117.137 67.378 119.352 67.378C119.773 67.378 120.201 67.434 120.65 67.55C123.26 68.27 124.804 70.978 124.091 73.588C123.189 76.883 122.88 80.724 122.777 83.107C124.708 84.984 126.57 87.413 128.452 90.503C129.01 91.421 129.567 92.297 130.116 93.161L130.367 93.555C132.35 96.658 134.4 99.862 136.201 104.138C138.095 105.15 139.746 106.788 140.795 108.716C144.841 116.142 147.046 127.761 145.332 132.624C144.675 134.492 143.446 135.957 141.749 136.916C141.408 157.717 131.8 173.82 115.968 180.087C112.803 181.479 107.532 183.554 100.396 185.532C98.278 186.117 97.122 186.944 96.699 187.296C96.389 188.383 95.706 189.345 94.771 189.99C93.672 190.75 92.264 191.027 91.014 190.767C87.246 190.017 84.441 185.329 83.485 182.955C83.199 182.247 82.976 181.539 82.818 180.839C78.616 180.038 72.483 177.734 70.634 171.116C70.455 170.587 70.363 170.036 70.359 169.49C63.263 161.269 59.562 150.398 59.348 137.157C57.451 136.216 56.05 134.649 55.346 132.65C53.623 127.793 55.825 116.178 59.877 108.754C61.001 106.687 62.793 104.992 64.867 104.012z" />
    <glyph glyph-name="money"
      unicode="&#xE021;"
      horiz-adv-x="200" d=" M105.304 105.713V120.024C109.263 119.727 115.233 119.644 116.588 116.523C118.13 113.095 120.246 111.745 122.946 111.745H128.55C129.804 111.745 133.373 112.677 133.373 117.357C133.373 128.388 117.361 134.103 105.304 134.2V140.75C105.304 142.526 104.05 143.875 102.408 143.875H98.547C96.903 143.875 95.65 142.525 95.65 140.75V134.103C75.095 133.274 66.303 126.714 66.303 114.855C66.303 100.933 82.527 96.042 95.65 92.92V74.509H95.259C90.436 74.509 84.063 78.467 82.522 82.004C80.976 85.442 78.849 86.79 76.148 86.79H70.556C69.303 86.79 65.728 85.85 65.728 81.169C65.728 70.045 83.751 62.459 95.908 62.459H95.65V57.733C95.65 55.958 96.902 54.606 98.547 54.606H102.408C104.052 54.606 105.304 55.958 105.304 57.733V62.564C125.957 63.287 135.115 71.708 135.115 83.671C135.116 97.718 118.426 102.603 105.304 105.713zM95.317 120.024V105.713C95.317 104.854 95.43 104.011 95.633 103.211C82.106 106.639 76.288 110.166 76.288 114.857C76.288 117.609 76.288 123.327 96.052 124.128C96.101 124.128 96.149 124.128 96.198 124.132C95.623 122.853 95.317 121.46 95.317 120.024zM105.444 72.567C105.572 73.191 105.634 73.838 105.634 74.506V92.921C105.634 93.783 105.524 94.62 105.318 95.428C119.172 91.935 125.125 88.375 125.125 83.669C125.126 76.844 118.505 73.107 105.444 72.567z M100.461 189.345C50.901 189.345 10.578 149.026 10.578 99.461S50.901 9.578 100.461 9.578S190.344 49.896 190.344 99.461S150.021 189.345 100.461 189.345zM100.461 19.564C56.338 19.564 20.565 55.337 20.565 99.46S56.338 179.356 100.461 179.356C144.585 179.356 180.358 143.583 180.358 99.46S144.585 19.564 100.461 19.564z M100.461 169.371C61.855 169.371 30.552 138.07 30.552 99.461C30.552 60.854 61.855 29.552 100.461 29.552C139.069 29.552 170.371 60.855 170.371 99.461S139.069 169.371 100.461 169.371zM100.461 39.539C67.418 39.539 40.539 66.418 40.539 99.461C40.539 132.505 67.418 159.384 100.461 159.384C133.503 159.384 160.383 132.505 160.383 99.461C160.384 66.418 133.504 39.539 100.461 39.539z" />
    <glyph glyph-name="nav"
      unicode="&#xE022;"
      horiz-adv-x="200" d=" M189.558 167.399C189.558 161.232 184.562 156.234 178.393 156.234H22.098C15.928 156.234 10.934 161.232 10.934 167.399V167.16C10.934 173.332 15.927 178.325 22.098 178.325H178.392C184.561 178.325 189.557 173.332 189.557 167.16V167.399z M189.558 100.411C189.558 94.24 184.562 89.244 178.393 89.244H22.098C15.928 89.244 10.934 94.24 10.934 100.411V100.175C10.934 106.35 15.927 111.348 22.098 111.348H178.392C184.561 111.348 189.557 106.351 189.557 100.175V100.411z M189.558 33.435C189.558 27.257 184.562 22.265 178.393 22.265H22.098C15.928 22.265 10.934 27.259 10.934 33.435V33.187C10.934 39.355 15.927 44.351 22.098 44.351H178.392C184.561 44.351 189.557 39.355 189.557 33.187V33.435z" />
    <glyph glyph-name="new"
      unicode="&#xE023;"
      horiz-adv-x="200" d=" M178.931 144.246H21.146C15.375 144.246 10.697 139.568 10.697 133.797V66.923C10.697 61.152 15.375 56.474 21.146 56.474H178.931C184.702 56.474 189.38 61.152 189.38 66.923V133.797C189.38 139.568 184.702 144.246 178.931 144.246zM67.598 79.483H55.434L39.799 102.408V79.485H27.667V121.237H39.712L55.434 98.138V121.237H67.598V79.483zM111.347 79.483H76.142V121.237H110.721V112.321H89.072V105.686H109.154V97.168H89.072V88.938H111.347V79.483zM163.208 79.483H150.557L143.233 105.772L135.938 79.483H123.285L113.997 121.236H126.25L130.664 97.861L137.122 121.236H149.335L155.807 97.893L160.225 121.236H172.415L163.208 79.483z" />
    <glyph glyph-name="next"
      unicode="&#xE024;"
      horiz-adv-x="200" d=" M60.371 10.56L49.981 20.946L129.249 100.214L49.981 179.482L60.371 189.869L150.022 100.214z" />
    <glyph glyph-name="next2"
      unicode="&#xE025;"
      horiz-adv-x="200" d=" M10 189.564L189.939 96.268L10 9.671V189.564z" />
    <glyph glyph-name="offline"
      unicode="&#xE026;"
      horiz-adv-x="200" d=" M117.542 57.737C105.147 64.716 90.417 64.716 78.791 57.737C74.916 55.416 74.143 50.767 75.692 46.892C78.018 43.017 82.666 41.467 86.541 43.789C93.519 48.445 102.821 48.445 109.791 43.789C112.897 42.235 116.769 42.235 119.095 45.343C119.867 46.112 119.867 46.112 120.649 46.892C122.193 50.768 121.421 55.416 117.542 57.737z M142.347 79.444C145.446 77.114 150.097 77.114 152.423 80.216C152.423 80.216 152.423 80.216 153.195 80.988C155.521 84.094 155.521 89.519 152.423 92.614C141.861 101.117 129.841 106.777 117.363 109.599L141.938 134.173C153.75 129.168 164.92 122.037 174.902 112.769C177.992 109.666 182.652 110.447 185.743 112.769C188.069 117.416 188.069 122.843 184.978 125.167C175.491 133.913 165.094 140.98 154.145 146.38L189.407 181.641L181.397 189.653L142.98 151.241C114.843 161.919 83.994 162.196 55.892 152.062L18.301 189.655L10.289 181.643L44.583 147.349C32.997 141.836 22.041 134.443 12.138 125.168C9.039 122.074 9.039 117.418 11.362 113.543C14.466 110.448 19.112 109.668 22.215 112.771C32.708 122.516 44.518 129.896 57.004 134.929L81.935 109.998C68.568 107.266 55.743 101.24 44.693 91.847C41.592 88.741 40.818 84.096 43.916 80.217C47.017 76.346 51.666 76.346 54.767 79.445C64.15 87.407 74.996 92.435 86.227 94.555L11.277 20.525L19.289 12.512L99.845 92.083L179.423 12.512L187.433 20.525L114.089 93.866C124.174 91.443 133.858 86.646 142.347 79.444zM68.973 138.98C89.003 144.513 110.194 144.321 130.145 138.405L103.3 111.563C100.966 111.691 98.631 111.721 96.297 111.654L68.973 138.98z" />
    <glyph glyph-name="payment"
      unicode="&#xE027;"
      horiz-adv-x="200" d=" M96.07 73.961L96.065 81.509L95.375 81.578C85.337 82.597 77.669 86.934 75.513 92.729L83.915 94.786C85.34 92.985 89.494 90.88 95.197 90.119L96.068 90.002V103.211L95.422 103.314C87.621 104.566 83.224 106.459 81.298 107.477L80.972 107.65C76.985 110.344 74.877 113.731 74.877 117.444C74.88 124.772 83.31 130.742 95.374 131.958L96.067 132.027V139.385H104.503V131.974L105.189 131.896C114.217 130.864 121.303 127.098 123.953 121.989L115.787 119.108C114.224 120.731 110.571 122.573 105.39 123.352L104.504 123.486L104.51 109.698L105.146 109.585C110.734 108.586 115.315 107.286 118.381 105.822C119.768 105.154 120.814 104.5 121.576 103.821C121.854 103.561 122.099 103.3 122.327 103.055C124.175 100.946 125.116 98.606 125.116 96.109C125.116 88.934 116.923 82.984 105.189 81.645L104.503 81.567V73.959L96.07 73.961zM104.504 90.077L105.39 90.214C112.042 91.227 116.679 94.133 116.679 96.109C116.689 98.074 112.059 100.968 105.39 101.972L104.504 102.106V90.077zM95.197 123.421C87.846 122.442 83.322 119.285 83.31 117.454C83.313 115.62 87.835 112.47 95.197 111.493L96.068 111.376V123.538L95.197 123.421z M137.445 189.688H62.555C54.717 189.688 48.306 183.276 48.306 175.439V24.56C48.306 16.724 54.717 10.311 62.555 10.311H137.446C145.283 10.311 151.695 16.724 151.695 24.56V175.439C151.694 183.276 145.282 189.688 137.445 189.688zM141.721 56.922H58.28V154.911H141.72V56.922zM62.555 179.714H137.446C139.761 179.714 141.721 177.758 141.721 175.44V164.886H58.28V175.439C58.28 177.758 60.237 179.714 62.555 179.714zM137.445 20.286H62.555C60.238 20.286 58.281 22.246 58.281 24.56V46.948H141.721V24.56C141.721 22.246 139.761 20.286 137.445 20.286z M93.586 34.224C93.586 30.6827501840849 96.456750184085 27.812 99.998 27.812C103.5392498159151 27.812 106.41 30.6827501840849 106.41 34.224C106.41 37.765249815915 103.5392498159151 40.636 99.998 40.636C96.456750184085 40.636 93.586 37.765249815915 93.586 34.224z" />
    <glyph glyph-name="pos"
      unicode="&#xE028;"
      horiz-adv-x="200" d=" M103.001 40.53C102.221 40.569 101.438 40.561 100.655 40.552C100.327 40.548 100 40.545 99.672 40.545L98.51 40.554C97.671 40.564 96.833 40.574 96.002 40.545C91.979 40.41 89.8 38.283 89.867 34.556C89.927 30.863 92.143 28.605 95.948 28.361C97.261 28.275 98.44 28.234 99.553 28.234C100.777 28.234 101.899 28.283 102.983 28.385C106.775 28.744 108.911 31.078 108.842 34.789C108.782 38.312 106.707 40.351 103.001 40.53z M111.85 88.427H106.548C104.625 88.427 103.061 86.864 103.061 84.941V84.204C103.061 82.284 104.625 80.723 106.548 80.723H111.85C113.772 80.723 115.335 82.285 115.335 84.204V84.941C115.335 86.863 113.771 88.427 111.85 88.427z M128.661 88.427H123.37C121.447 88.427 119.883 86.864 119.883 84.941V84.204C119.883 82.284 121.447 80.723 123.37 80.723H128.661C130.584 80.723 132.148 82.285 132.148 84.204V84.941C132.148 86.863 130.584 88.427 128.661 88.427z M146.334 88.427H141.023C139.105 88.427 137.545 86.864 137.545 84.941V84.204C137.545 82.284 139.105 80.723 141.023 80.723H146.334C148.257 80.723 149.82 82.285 149.82 84.204V84.941C149.82 86.863 148.257 88.427 146.334 88.427z M111.85 77.601H106.548C104.625 77.601 103.061 76.039 103.061 74.121V73.383C103.061 71.461 104.625 69.898 106.548 69.898H111.85C113.772 69.898 115.335 71.461 115.335 73.383V74.121C115.335 76.039 113.771 77.601 111.85 77.601z M128.661 77.601H123.37C121.447 77.601 119.883 76.039 119.883 74.121V73.383C119.883 71.461 121.447 69.898 123.37 69.898H128.661C130.584 69.898 132.148 71.461 132.148 73.383V74.121C132.148 76.039 130.584 77.601 128.661 77.601z M146.334 77.601H141.023C139.105 77.601 137.545 76.039 137.545 74.121V73.383C137.545 71.461 139.105 69.898 141.023 69.898H146.334C148.257 69.898 149.82 71.461 149.82 73.383V74.121C149.82 76.039 148.257 77.601 146.334 77.601z M108.769 93.579H143.763C147.609 93.579 150.738 96.707 150.738 100.553V109.011C150.738 112.854 147.609 115.98 143.763 115.98H108.769C104.923 115.98 101.794 112.854 101.794 109.011V100.553C101.794 96.707 104.923 93.579 108.769 93.579zM109.77 101.549V108.015H142.772V101.549H109.77z M174.508 58.186H174.479C171.702 86.915 164.817 123.769 163.092 128.074C161.017 133.284 156.594 135.103 156.097 135.293C155.637 135.469 155.157 135.558 154.669 135.558H130.249V155.126H155.047C158.893 155.126 162.022 158.252 162.022 162.095V184.158C162.022 188.001 158.893 191.127 155.047 191.127H99.479C95.639 191.127 92.515 188.001 92.515 184.158V162.095C92.515 158.252 95.639 155.126 99.479 155.126H122.284V135.557H88.12C89.306 137.504 90.12 138.508 90.133 138.523C91.09 139.71 91.285 141.366 90.631 142.742C89.976 144.12 88.567 145.012 87.041 145.012H64.143C63.162 145.012 62.218 144.649 61.484 143.991C58.664 141.459 56.183 138.622 54.105 135.557H44.184C37.689 135.557 34.561 131.562 33.88 128.223C26.436 109.29 24.56 70.444 24.147 58.182C20.398 58.071 17.383 54.989 17.383 51.215V17.939C17.383 14.097 20.511 10.971 24.357 10.971H174.509C178.349 10.971 181.472 14.097 181.472 17.939V51.215C181.471 55.059 178.348 58.186 174.508 58.186zM154.047 183.157V163.092H100.47V183.157H154.047zM41.415 125.61C41.569 125.975 41.653 126.176 41.664 126.53C41.831 127.201 42.749 127.587 44.184 127.587H49.828C44.156 113.859 46.021 99.617 47.797 91.909H46.065C43.867 91.909 42.078 90.123 42.078 87.927S43.867 83.945 46.065 83.945H86.655C88.854 83.945 90.643 85.731 90.643 87.927S88.854 91.909 86.655 91.909H81.727C78.334 107.445 81.158 119.825 84.207 127.587H153.694C154.19 127.258 155.16 126.476 155.699 125.122C156.814 122.275 163.631 87.198 166.472 58.185H32.122C32.561 70.299 34.469 108.343 41.415 125.61zM65.714 137.042H79.812C75.507 128.96 69.471 112.993 73.58 91.909H56.013C54.154 99.107 49.98 121.769 65.714 137.042zM173.505 50.22V18.938H25.348V50.22H27.846L27.964 50.201H170.859C170.913 50.201 170.965 50.208 171.01 50.22H173.505z" />
    <glyph glyph-name="printer"
      unicode="&#xE029;"
      horiz-adv-x="200" d=" M59.5 113.5H140.5C144.9 113.5 148.5 117.1 148.5 121.5V182C148.5 186.4 144.9 190 140.5 190H59.5C55.1 190 51.5 186.4 51.5 182V121.5C51.5 117.1 55.1 113.5 59.5 113.5z M140 42.9H59.9C55.2 42.9 51.4 39.099 51.4 34.4V18.5C51.4 13.8 55.2 10 59.9 10H140.1C144.701 10 148.5 13.8 148.5 18.5V34.4C148.5 39.1 144.7 42.9 140 42.9z M170.3 163.1C161.2 163.1 153.8 155.7 153.8 146.6V114.8C151.5 109.9 146.7 108.6 137 108.6C116.7 108.5 96.5 108.6 76.2 108.6C56.4 108.6 49 108.6 46.3 116.6V146.6C46.3 155.7 38.9 163.1 29.8 163.1C20.7 163.1 13.3 155.7 13.3 146.6V30.4C13.3 21.299 20.7 13.9 29.8 13.9C38.9 13.9 46.3 21.299 46.3 30.4V41.6C49.2 48.1 54 48.5 61.3 48.5C86.3 48.4 111.3 48.5 136.3 48.5C146.5 48.5 151.6 47 153.901 41.7V30.5C153.901 21.4 161.3 14 170.401 14C179.501 14 186.901 21.4 186.901 30.5V146.6C186.8 155.7 179.4 163.1 170.3 163.1z" />
    <glyph glyph-name="purchase"
      unicode="&#xE02A;"
      horiz-adv-x="200" d=" M71.619 69.046C71.854 69.071 72.091 69.122 72.337 69.201C73.038 69.078 73.692 69.018 74.335 69.018H152.504C158.139 69.018 164.192 73.118 166.286 78.352L187.501 131.391C188.79 134.609 188.523 137.941 186.7700000000001 140.531C185.0210000000001 143.117 182.0290000000001 144.6 178.561 144.6H58.051C54.724 144.6 51.717 143.192 49.8 140.738C47.883 138.284 47.245 135.025 48.051 131.796L61.177 79.296C61.48 78.084 61.988 76.901 62.69 75.775C59.932 73.453 57.812 70.237 56.385 66.208C55.368 63.327 55.227 58.91 57.885 55.153C59.714 52.563 63.488 49.477 71.079 49.477H165.534C168.412 49.477 170.754 51.819 170.754 54.697C170.754 57.576 168.412 59.919 165.534 59.919H71.079C68.714 59.919 66.968 60.39 66.41 61.179C66.009 61.745 66.18 62.585 66.23 62.727C68.239 68.405 71.512 69.026 71.619 69.046zM152.505 79.46H74.335C73.174 79.46 71.588 80.697 71.306 81.824L58.222 134.16H177.364L156.593 82.229C156.052 80.884 153.951 79.46 152.505 79.46z M50.601 146.189C51.936 146.591 53.036 147.49 53.695 148.72C54.353 149.949 54.494 151.361 54.092 152.696L47.639 174.049C44.399 186.81 35.064 190.214 30.059 190.214C29.836 190.214 29.621 190.207 29.552 190.199H15.708C12.83 190.199 10.488 187.857 10.488 184.979S12.83 179.759 15.708 179.759H29.71C31.049 179.759 35.573 179.147 37.582 171.256L44.097 149.678C44.767 147.458 46.775 145.967 49.093 145.967C49.605 145.967 50.113 146.042 50.601 146.189z M71.079 46.889C61.016 46.889 52.83 38.702 52.83 28.64C52.83 18.578 61.016 10.392 71.079 10.392C81.141 10.392 89.327 18.579 89.327 28.64C89.327 38.702 81.141 46.889 71.079 46.889zM71.079 20.832C66.774 20.832 63.271 24.335 63.271 28.64C63.271 32.946 66.774 36.449 71.079 36.449S78.887 32.946 78.887 28.64C78.887 24.335 75.384 20.832 71.079 20.832z M149.247 46.889C139.185 46.889 130.999 38.702 130.999 28.64C130.999 18.578 139.186 10.392 149.247 10.392C159.31 10.392 167.497 18.579 167.497 28.64C167.497 38.702 159.311 46.889 149.247 46.889zM149.247 20.832C144.942 20.832 141.439 24.335 141.439 28.64C141.439 32.946 144.942 36.449 149.247 36.449C153.553 36.449 157.056 32.946 157.056 28.64C157.056 24.335 153.553 20.832 149.247 20.832z" />
    <glyph glyph-name="report"
      unicode="&#xE02B;"
      horiz-adv-x="200" d=" M89.083 91.219V170.716C45.812 169.958 10.966 134.669 10.966 91.219C10.966 47.77 45.812 12.477 89.083 11.718C89.557 11.709 90.024 11.68 90.502 11.68C134.428 11.68 170.037 47.293 170.037 91.219H89.083zM78.812 159.46V138.954H40.582C50.646 149.467 63.916 156.893 78.812 159.46zM32.452 128.681H78.81V111.731H24.444C26.347 117.771 29.055 123.458 32.452 128.681zM21.239 91.219C21.239 94.7 21.565 98.105 22.072 101.458H78.812V91.219V89.323L72.88 84.51H21.572C21.355 86.72 21.239 88.956 21.239 91.219zM33.305 52.388C28.805 58.967 25.397 66.338 23.377 74.237H60.226L33.305 52.388zM90.502 21.953C90.334 21.953 90.172 21.962 90.009 21.971L89.265 21.992C69.744 22.333 52.131 30.922 39.712 44.358L84.791 80.947H159.006C154.027 47.606 125.204 21.953 90.502 21.953z M109.498 188.32C109.018 188.32 108.552 188.293 108.077 188.284V108.784H189.033C189.033 152.712 153.424 188.32 109.498 188.32zM118.35 177.484C149.003 173.558 173.454 149.515 178.002 119.057H118.35V177.484z" />
    <glyph glyph-name="right"
      unicode="&#xE02C;"
      horiz-adv-x="200" d=" M177.227 107.44L177.642 107.003L177.76 106.845L178.016 106.547L178.211 106.26C178.494 105.9 178.733 105.542 178.929 105.14L178.95 105.12L179.129 104.776L179.288 104.453C179.463 104.022 179.622 103.601 179.741 103.16L179.807 102.995L179.988 102.147L180.099 101.236L180.14 100.656V100.63V100.153V100.113L180.099 99.538L179.988 98.626L179.807 97.778L179.741 97.607C179.627 97.172 179.464 96.747 179.288 96.336L179.129 96.004L178.95 95.67L178.929 95.64C178.734 95.26 178.494 94.879 178.211 94.522L178.016 94.235L177.76 93.948L177.642 93.802L177.227 93.352L97.579 13.704C93.69 9.825 87.395 9.825 83.5 13.704C79.611 17.604 79.611 23.9039999999999 83.5 27.794L146.163 90.448H29.175C23.675 90.448 19.227 94.905 19.227 100.395C19.227 105.896 23.676 110.355 29.175 110.355H146.159L83.5 173.008C79.611 176.886 79.611 183.204 83.5 187.089C87.391 190.967 93.682 190.967 97.579 187.089L177.051 107.622L177.227 107.44L177.227 107.44zM180.139 100.643V100.396V100.171V100.643z" />
    <glyph glyph-name="sale"
      unicode="&#xE02D;"
      horiz-adv-x="200" d=" M187.442 185.849C185.49 188.725 182.738 190.242 179.463 190.242C179.409 190.242 179.357 190.242 179.297 190.24C168.662 190.081 153.474 172.067 143.255 158.056C137.538 161.96 130.782 164.073 123.755 164.073C115.458 164.073 107.639 161.198 101.4 155.912L98.587 158.551C96.942 160.094 94.793 160.945 92.537 160.945C90.102 160.945 87.75 159.927 86.086 158.154L12.122 79.325C8.788 75.772 8.966 70.162 12.519 66.82L68.359 14.43C70.006 12.889 72.152 12.039 74.409 12.039H74.412C76.843 12.039 79.196 13.055 80.863 14.831L154.825 93.654C156.439 95.381 157.286 97.631 157.213 99.993C157.134 102.358 156.142 104.548 154.421 106.16L151.609 108.801C159.575 119.591 160.409 134.002 154.388 145.55C168.393 153.502 185.93 165.337 188.924 176.114C189.896 179.622 189.388 182.987 187.442 185.849zM144.358 110.798C143.1 109.407 143.187 107.265 144.557 105.984L149.717 101.143C150.094 100.782 150.319 100.3 150.332 99.776C150.352 99.25 150.16 98.751 149.803 98.367L75.844 19.54C75.338 19 74.729 18.921 74.411 18.921C73.908 18.921 73.429 19.11 73.065 19.451L17.232 71.837C16.441 72.577 16.399 73.828 17.139 74.616L91.103 153.446C91.609 153.984 92.218 154.065 92.536 154.065C93.036 154.065 93.515 153.876 93.879 153.534L99.033 148.696C100.401 147.412 102.544 147.459 103.855 148.803C109.127 154.213 116.194 157.194 123.755 157.194C129.342 157.194 134.711 155.527 139.267 152.447C137.854 150.409 136.611 148.561 135.578 146.998C133.672 147.976 131.549 148.496 129.3600000000001 148.496C125.6010000000001 148.496 121.969 146.925 119.4020000000001 144.186C116.9080000000001 141.529 115.5980000000001 138.06 115.7110000000001 134.414C115.8300000000001 130.768 117.3580000000001 127.386 120.0180000000001 124.896C122.5520000000001 122.511 125.8670000000001 121.196 129.3540000000001 121.196C133.1120000000001 121.196 136.7370000000001 122.767 139.311 125.508C142.841 129.273 143.8180000000001 134.526 142.314 139.118C144.061 139.991 146.103 141.035 148.362 142.238C153.525 132.229 152.284 119.57 144.358 110.798zM134.289 130.216C132.999 128.837 131.245 128.079 129.353 128.079C127.625 128.079 125.985 128.729 124.721 129.915C123.405 131.149 122.65 132.824 122.591 134.632C122.531 136.44 123.18 138.158 124.423 139.476C125.714 140.856 127.467 141.613 129.36 141.613C130.366 141.613 131.342 141.386 132.233 140.969C131.849 140.096 131.819 139.072 132.251 138.139C132.833 136.882 134.077 136.14 135.374 136.142C135.576 136.142 135.778 136.171 135.979 136.206C136.401 134.127 135.849 131.879 134.289 130.216zM182.288 177.956C180.019 169.762 164.311 159.126 150.579 151.339C149.949 152.112 149.285 152.864 148.579 153.59C159.588 168.586 172.753 183.261 179.404 183.36C179.424 183.362 179.45 183.362 179.469 183.362C180.177 183.362 180.945 183.177 181.752 181.987C182.565 180.786 182.731 179.542 182.288 177.956z M58.51 63.768C55.013 62.197 53.352 61.641 52.102 62.891C51.08 63.916 51.139 65.723 53.061 67.648C54.986 69.571 56.937 70.414 58.105 70.825L55.512 75.403C53.818 74.757 51.721 73.592 49.504 71.38C44.87 66.742 44.638 61.38 47.989 58.028C50.843 55.171 54.78 55.491 59.183 57.618C62.385 59.134 64.019 59.369 65.243 58.145C66.53 56.861 66.295 54.939 64.254 52.895C62.358 51.002 59.91 49.779 58.104 49.197L60.873 44.619C62.59 45.114 65.391 46.749 67.635 48.991C73.027 54.384 72.765 59.716 69.47 63.011C66.704 65.782 63.267 65.954 58.51 63.768z M63.217 84.446L76.86 58.792L81.462 63.4L77.82 69.84L83.447 75.468L90.003 71.941L94.783 76.717L69.046 90.274L63.217 84.446zM69.308 83.89C70.764 83.017 72.573 81.906 74.088 81.092L79.484 78.148L75.141 73.804L72.134 79.14C71.324 80.599 70.123 82.375 69.253 83.831L69.308 83.89z M98.147 87.543L82.232 103.46L77.769 99.001L97.419 79.352L109.69 91.625L105.959 95.355z M113.138 102.361L108.474 107.025L115.704 114.254L112.092 117.869L104.86 110.641L100.779 114.721L108.446 122.388L104.801 126.031L92.675 113.904L112.316 94.258L124.854 106.792L121.215 110.436z" />
    <glyph glyph-name="scan"
      unicode="&#xE02E;"
      horiz-adv-x="200" d=" M86.3 190H17.8C13.5 190 10 186.5 10 182.2V113.7C10 109.4 13.5 105.9 17.8 105.9H86.3C90.6 105.9 94.1 109.4 94.1 113.7V182.2C94 186.5 90.6 190 86.3 190zM79.1 128.7C79.1 124.4 75.6 120.9 71.3 120.9H32.7C28.4 120.9 24.9 124.4 24.9 128.7V167.3C24.9 171.6 28.4 175.1 32.7 175.1H71.3C75.6 175.1 79.1 171.6 79.1 167.3V128.7z M40.2 148C40.2 141.4830399519966 45.4830399519966 136.2 52 136.2C58.5169600480034 136.2 63.8 141.4830399519966 63.8 148C63.8 154.5169600480034 58.5169600480034 159.8 52 159.8C45.4830399519966 159.8 40.2 154.5169600480034 40.2 148z M86.3 94H17.8C13.5 94 10 90.5 10 86.2V17.7C10 13.4 13.5 9.9 17.8 9.9H86.3C90.6 9.9 94.1 13.4 94.1 17.7V86.2C94 90.6 90.6 94 86.3 94zM79.1 32.7C79.1 28.4 75.6 24.9 71.3 24.9H32.7C28.4 24.9 24.9 28.4 24.9 32.7V71.3C24.9 75.6 28.4 79.1 32.7 79.1H71.3C75.6 79.1 79.1 75.6 79.1 71.3V32.7z M40.2 52C40.2 45.4830399519966 45.4830399519966 40.2 52 40.2C58.5169600480034 40.2 63.8 45.4830399519966 63.8 52C63.8 58.5169600480034 58.5169600480034 63.8 52 63.8C45.4830399519966 63.8 40.2 58.5169600480034 40.2 52z M183.8 190H115.3C111 190 107.5 186.5 107.5 182.2V113.7C107.5 109.4 111 105.9 115.3 105.9H183.8C188.1 105.9 191.6 109.4 191.6 113.7V182.2C191.6 186.5 188.1 190 183.8 190zM176.6 128.7C176.6 124.4 173.1 120.9 168.8 120.9H130.2C125.9 120.9 122.4 124.4 122.4 128.7V167.3C122.4 171.6 125.9 175.1 130.2 175.1H168.8C173.1 175.1 176.6 171.6 176.6 167.3V128.7L176.6 128.7z M137.8 148C137.8 141.4830399519966 143.0830399519966 136.2 149.6 136.2C156.1169600480034 136.2 161.4 141.4830399519966 161.4 148C161.4 154.5169600480034 156.1169600480034 159.8 149.6 159.8C143.0830399519966 159.8 137.8 154.5169600480034 137.8 148z M139.7 30.4H160.099V10H139.7V30.4z M171.7 30.4H192.099V10H171.7V30.4z M139.7 59.3V42.8H191.6V86.3C191.6 90.6 188.1 94.1 183.8 94.1H174.2V64.2H153.8V94H115.3C111 94 107.5 90.5 107.5 86.2V17.7C107.5 13.4 111 9.9 115.3 9.9H121.8V59.2H139.7V59.3z" />
    <glyph glyph-name="screen"
      unicode="&#xE02F;"
      horiz-adv-x="200" d=" M160.9 176.7C161 186.6 157.3 190.1 147.5 190C115.9 189.6 84.3 189.6 52.7 190C41.9 190.2 38.9 185.7 39.1 175.6C39.6 150.8 39.3 125.9 39.3 101.1C39.3 75.4 39.6 49.7 39.1 24C38.9 13.5 42.7 9.9 53.1 10C84.3 10.5 115.4 10.4 146.6 10C156.8 9.9 160.901 13.1 160.901 23.7C160.5 74.7 160.6 125.7 160.9 176.7zM48.9 166.3L47.9 168L64 177.7L65 176L57.8 171.6L89.1 120L87.4 119L56.1 170.6L48.9 166.3zM93.6 94.8C92.3 93.2 90.6 92.401 88.5 92.401C86.7 92.401 85.3 92.901 84.2 93.901C83.1 94.901 82.4 96.201 82.3 97.901L84.8 98.1C85 96.901 85.4 96 86.1 95.3C86.8 94.7 87.6 94.401 88.6 94.401C89.8 94.401 90.7 94.8 91.5 95.701C92.3 96.6 92.7 97.701 92.7 99.201C92.7 100.601 92.3 101.601 91.5 102.401C90.7 103.201 89.7 103.601 88.5 103.601C87.7 103.601 87 103.401 86.4 103.101C85.8 102.801 85.3 102.301 84.9 101.701L82.6 102L84.5 112H94.2V109.7H86.4L85.3 104.5C86.5 105.3 87.7 105.7 89 105.7C90.7 105.7 92.1 105.1 93.3 103.9C94.5 102.7 95.1 101.2 95.1 99.3C95.1 97.6 94.6 96.1 93.6 94.8zM101.4 92.7H98.7V95.4H101.4V92.7zM104.9 97.8L107.4 98C107.599 96.8 108 95.9 108.7 95.2S110.2 94.3 111.2 94.3C112.4 94.3 113.3 94.7 114.099 95.6C114.9 96.5 115.299 97.6 115.299 99.1C115.299 100.5 114.9 101.5 114.099 102.3C113.299 103.1 112.299 103.5 111.099 103.5C110.299 103.5 109.599 103.3 108.999 103S107.899 102.2 107.499 101.6L105.299 101.9L107.199 111.9H116.899V109.6H109.1L108 104.4C109.2 105.2 110.4 105.6 111.7 105.6C113.4 105.6 114.8 105 116 103.8C117.2 102.6 117.8 101.1 117.8 99.2C117.8 97.4 117.3 95.9 116.3 94.599C115.1 92.999 113.3 92.2 111.2 92.2C109.4 92.2 108 92.7 106.9 93.7C105.7 94.9 105.1 96.2 104.9 97.8zM136.1 22.3L135.1 24L142.3 28.4L111.1 79.9L112.8 80.9L144 29.4L151.2 33.799L152.2 32.099L136.1 22.3z" />
    <glyph glyph-name="search"
      unicode="&#xE030;"
      horiz-adv-x="200" d=" M186.229 23.872L139.767 70.327C149.55 82.553 156.069 98.853 156.069 115.975C156.069 156.73 123.466 189.333 82.712 189.333C41.958 189.333 9.355 156.73 9.355 115.975C9.355 75.221 41.958 42.617 82.712 42.617C99.834 42.617 116.136 48.325 128.362 58.919L174.815 12.458C176.448 10.826 178.891 10.015 180.521 10.015C182.153 10.015 184.596 10.827 186.229 12.458C189.493 15.722 189.493 20.609 186.229 23.872zM82.712 58.919C50.93 58.919 25.657 84.184 25.657 115.975C25.657 147.759 50.929 173.031 82.712 173.031C114.503 173.031 139.768 147.759 139.768 115.975C139.768 84.184 114.503 58.919 82.712 58.919z" />
    <glyph glyph-name="service"
      unicode="&#xE031;"
      horiz-adv-x="200" d=" M179.912 33.355C177.705 40.609 165.815 46.685 154.317 52.561C151.284 54.109 148.363 55.603 145.826 57.025C144.217 57.931 142.169 57.356 141.265 55.741C140.359 54.123 140.934 52.082 142.548 51.178C145.15 49.717 148.153 48.185 151.266 46.593C160.066 42.094 172.119 35.932 173.495 31.403C176.357 21.985 176.504 20.628 176.504 18.093C176.504 17.173 176.329 16.763 176.227 16.66C175.565 16.02 172.361 16.133 170.231 16.204C169.191 16.243 168.116 16.282 167.026 16.282H32.974C32.162 16.282 31.357 16.267 30.565 16.254C28.084 16.211 24.672 16.141 23.853 16.947C23.658 17.137 23.536 17.593 23.506 18.22C23.777 19.465 24.77 23.901 26.746 31.527C28.262 37.388 43.17 45.868 70.899 56.673C71.578 56.898 77.645 59.015 81.003 63.498C82.113 64.975 81.814 67.077 80.333 68.188C78.849 69.295 76.751 68.997 75.642 67.516C73.859 65.139 70.079 63.471 68.624 62.974C46.263 54.267 23.03 43.92 20.254 33.211C17.86 23.953 16.906 19.413 16.864 19.224C16.818 19.001 16.793 18.768 16.793 18.538C16.793 15.85 17.588 13.702 19.158 12.162C21.982 9.391 26.199 9.474 30.688 9.549C31.438 9.564 32.202 9.578 32.972 9.578H167.027C168.034 9.578 169.031 9.542 169.997 9.511C170.959 9.472 171.912 9.442 172.838 9.442C175.954 9.442 178.791 9.821 180.883 11.838C182.424 13.327 183.205 15.432 183.205 18.092C183.205 21.61 182.884 23.568 179.912 33.355z M46.385 90.015H56.438C58.378 90.015 59.954 90.606 61.123 91.78C63.149 93.812 63.144 96.733 63.137 99.562V99.895C63.676 99.544 64.236 99.231 64.817 99.008C66.626 94.489 68.688 91.251 70.858 87.839C71.47 86.881 72.091 85.902 72.716 84.879C75.327 80.595 77.977 77.604 80.837 75.634C81.207 75.329 89.891 68.26 99.878 68.137C100.248 68.083 100.839 68.027 101.626 68.027C104.955 68.027 111.761 69.039 119.953 75.831C122.558 77.844 124.923 80.672 127.395 84.73C128.058 85.813 128.714 86.846 129.367 87.863C131.467 91.147 133.625 94.532 135.481 99.095C135.959 99.309 136.419 99.574 136.865 99.878V99.565C136.857 96.736 136.85 93.814 138.879 91.779C139.271 91.387 139.723 91.087 140.2 90.825C139.974 82.94 138.004 67.641 130.618 65.011C128.982 66.143 127.018 66.818 124.901 66.818C124.123 66.818 123.341 66.726 122.581 66.543L106.279 62.67C100.885 61.386 97.543 55.952 98.825 50.558C99.906 46.009 103.932 42.829 108.614 42.829C109.394 42.829 110.174 42.924 110.932 43.102L127.234 46.981C132.6270000000001 48.265 135.9690000000001 53.695 134.6890000000001 59.089C134.6610000000001 59.198 134.6110000000001 59.294 134.5830000000001 59.403C144.9400000000001 64.734 146.6470000000001 82.294 146.8860000000001 90.015H153.6170000000001C158.1840000000001 90.015 164.6770000000001 93.297 167.0980000000001 98.269C171.477 107.93 171.477 119.01 167.0590000000001 128.765C164.6750000000001 133.652 158.1820000000001 136.933 153.6170000000001 136.933H153.5400000000001C152.671 166.646 129.021 190.556 100 190.556C70.982 190.556 47.33 166.646 46.46 136.935H46.384C41.815 136.935 35.323 133.651 32.902 128.678C28.523 119.017 28.523 107.938 32.942 98.184C35.328 93.297 41.819 90.015 46.385 90.015zM125.686 53.504L109.385 49.625C107.606 49.213 105.763 50.368 105.348 52.112C104.921 53.907 106.036 55.716 107.834 56.148L124.136 60.021C124.389 60.08 124.649 60.117 124.904 60.117C126.443 60.117 127.819 59.031 128.173 57.538C128.598 55.741 127.48 53.931 125.686 53.504zM134.153 106.583C133.679 105.713 132.809 105.166 132.472 105.12C131.25 104.949 130.223 104.12 129.794 102.963C128.063 98.272 125.951 94.972 123.721 91.477C123.045 90.419 122.363 89.344 121.671 88.219C119.639 84.88 117.789 82.63 115.768 81.067C107.105 73.888 100.978 74.746 100.778 74.777C100.567 74.816 100.357 74.838 100.144 74.838C92.485 74.838 85.169 80.75 84.879 80.974C82.594 82.562 80.546 84.912 78.44 88.37C77.789 89.434 77.146 90.444 76.512 91.442C74.189 95.092 72.181 98.248 70.476 102.985C70.033 104.218 68.741 105.086 67.439 105.198C67.115 105.229 66.226 105.76 65.751 106.624C65.201 107.633 64.201 108.186 63.138 108.295V120.178C63.141 120.178 63.143 120.178 63.147 120.178C64.962 120.178 66.362 121.194 66.401 123.016C66.404 123.123 66.61 133.388 71.177 143.999C77.067 157.697 86.888 164.644 100.727 164.644C134.15 164.644 134.254 125.391 134.258 123.717C134.262 121.867 136.866 120.384 136.866 120.384V108.257C135.767 108.18 134.723 107.62 134.153 106.583zM160.998 125.912C164.581 118.008 164.581 108.943 161.037 101.127C159.88 98.748 155.993 96.718 153.619 96.718L143.669 96.736C143.563 97.438 143.566 98.671 143.566 99.55V127.397C143.566 128.285 143.562 129.538 143.671 130.23H153.618C155.991 130.229 159.88 128.199 160.998 125.912zM100 183.854C125.324 183.854 145.974 162.95 146.837 136.934H143.566C142.022 136.934 140.718 136.541 139.661 135.798C136.9 149.944 128.25 171.56 101.098 171.56C73.918 171.56 64.603 149.12 61.427 134.803C61.323 134.923 61.237 135.055 61.121 135.169C59.954 136.339 58.379 136.934 56.438 136.934H53.166C54.028 162.95 74.676 183.854 100 183.854zM38.966 125.823C40.124 128.201 44.012 130.232 46.385 130.232L56.334 130.212C56.438 129.511 56.437 128.282 56.433 127.404V99.549C56.436 98.663 56.438 97.411 56.332 96.717H46.385C44.014 96.717 40.124 98.747 39.009 101.037C35.426 108.942 35.426 118.006 38.966 125.823z" />
    <glyph glyph-name="speaker"
      unicode="&#xE032;"
      horiz-adv-x="200" d=" M106.4 189C100.6 191.8 96 187.8 91.8 184.2C76.5 171.2 61.2 158.1 45.9 145.1C40.4 140.4 35.2 135.5 27.9 134.5H14.5C12.7 134.5 11.2 133 11.2 131.2V69.6C11.2 67.8 12.7 66.3 14.5 66.3H29.4C32.9 65.401 35.8 63.5 38.8 61C56.6 45.7 74.7 30.8 92.7 15.7C96.7 12.3 101.099 9.3 106.3 11.7C111.8 14.3 111.3 19.9 111.3 24.9C111.5 49.7 111.5 74.4 111.5 99.099C111.5 124.299 111.5 149.399 111.5 174.599C111.5 180 112.3 186.2 106.4 189z M152.5 108.1C148.9 119.1 142 126.5 141.7 126.8C139.8 128.8 136.599 128.9 134.599 127S132.499 121.9 134.4 119.9C135.299 119 156.5 96.1 134.5 74.1C132.5 72.1 132.5 69 134.5 67C135.4 66 136.7 65.5 138 65.5C139.2 65.5 140.5 66 141.6 67C156.7 82.1 155.9 97.7 152.5 108.1z M169.8 148.3C160.1 157.1 150.3 159.4 149.901 159.5C146.6 160.2 143.501 158.2 142.701 155S143.901 148.6 147.1 147.8C148.3 147.5 176.8 140.1 176.8 99.2C176.8 61.8 147.6 50.599 146.401 50.099C143.3 48.999 141.701 45.499 142.8 42.4C143.6 39.9 145.901 38.4 148.401 38.4C149.1 38.4 149.701 38.5 150.6 38.9C151 39 160.5 42.5 169.901 51.7C178.6 60.2 188.901 75.3 188.901 99.2C188.9 125.4 178.5 140.4 169.8 148.3z" />
    <glyph glyph-name="sturdy"
      unicode="&#xE033;"
      horiz-adv-x="200" d=" M38.4 189.3V10.6H161.6V189.3H38.4zM55.4 29.9V170.1H144.5V29.9H55.4z M65.2 161.5H134.9V38.4H65.2V161.5z" />
    <glyph glyph-name="table"
      unicode="&#xE034;"
      horiz-adv-x="200" d=" M116.286 59.273C114.723 60.287 112.629 59.846 111.611 58.276C110.597 56.713 111.043 54.622 112.607 53.602C113.233 53.196 113.668 52.571 113.822 51.839C114.064 50.71 113.85 49.552 113.221 48.578C112.589 47.604 111.622 46.938 110.492 46.695C108.969 46.37 107.703 47.031 106.906 47.645C105.423 48.7799999999999 104.409 50.657 104.322 52.43C104.073 57.389 103.933 110.548 103.93 111.0829999999999C103.929 111.5529999999999 103.831 111.9999999999999 103.658 112.405C115.301 112.5469999999999 126.132 113.251 134.528 114.423C146.99 116.161 151.847 118.461 151.847 122.627C151.847 126.789 146.99 129.089 134.528 130.827C125.086 132.145 112.566 132.869 99.273 132.869S73.461 132.145 64.021 130.827C51.556 129.089 46.699 126.789 46.699 122.627C46.699 118.461 51.556 116.162 64.021 114.423C73.024 113.166 84.831 112.448 97.436 112.3839999999999C97.266 111.9789999999999 97.172 111.533 97.173 111.066C97.176 108.9369999999999 97.307 60.304 97.55 52.6879999999999C97.314 52.2559999999999 97.159 51.7719999999999 97.133 51.2489999999999C97.046 49.4819999999999 96.032 47.6039999999999 94.55 46.4699999999999C93.75 45.8549999999999 92.478 45.1949999999999 90.963 45.519C89.834 45.757 88.863 46.4289999999999 88.234 47.396C87.606 48.37 87.391 49.529 87.631 50.664C87.788 51.394 88.219 52.019 88.848 52.426C90.412 53.44 90.858 55.531 89.844 57.101C88.83 58.665 86.733 59.112 85.169 58.098C83.028 56.707 81.557 54.57 81.021 52.078C80.401 49.182 80.949 46.215 82.559 43.724C84.17 41.238 86.652 39.529 89.549 38.909C90.287 38.747 91.032 38.672 91.774 38.672C94.195 38.672 96.582 39.507 98.668 41.111C99.645 41.861 100.493 42.754 101.223 43.728C101.708 43.212 102.222 42.721 102.787 42.287C104.873 40.683 107.26 39.849 109.678 39.849C110.42 39.849 111.164 39.929 111.906 40.086C114.802 40.706 117.283 42.415 118.893 44.906C120.506 47.391 121.054 50.357 120.434 53.255C119.898 55.751 118.425 57.889 116.286 59.273zM56.815 122.628C63.344 124.27 77.595 126.112 99.274 126.112C120.952 126.112 135.207 124.27 141.737 122.628C135.207 120.982 120.952 119.14 99.274 119.14C77.595 119.141 63.344 120.982 56.815 122.628z M55.219 104.327C48.586 105.554 39.961 106.267 30.74 106.373C30.685 127.905 30.61 147.208 30.517 149.082C30.349 152.405 28.634 155.626 25.934 157.703C23.518 159.554 20.648 160.244 17.847 159.644C12.546 158.511 9.151 153.274 10.287 147.964C10.762 145.731 12.083 143.819 13.995 142.579C15.565 141.559 17.657 142.008 18.67 143.576C19.687 145.14 19.238 147.234 17.673 148.251C17.273 148.512 16.995 148.914 16.897 149.378C16.543 151.041 17.604 152.68 19.261 153.034C20.329 153.263 21.242 152.782 21.816 152.342C22.934 151.485 23.699 150.071 23.766 148.747C23.931 145.434 24.053 79.099 24.093 44.483C24.093 42.617 25.608 41.105 27.473 41.105H27.475C29.341 41.111 30.853 42.623 30.853 44.494C30.851 46.245 30.828 64.863 30.786 85.928C39.99 86.035 48.597 86.743 55.22 87.974C57.877 88.465 60.095 89.011 61.934 89.625V42.305C61.934 40.439 63.449 38.928 65.317 38.928C67.183 38.928 68.695 40.439 68.695 42.305V94.909C68.794 95.306 68.851 95.717 68.851 96.148C68.851 100.112 64.778 102.56 55.219 104.327zM30.771 92.684C30.766 94.991 30.761 97.308 30.756 99.619C45.955 99.447 55.9 97.658 60.204 96.149C55.901 94.639 45.961 92.856 30.771 92.684z M181.71 159.645C178.904 160.245 176.036 159.555 173.623 157.704C170.921 155.627 169.209 152.406 169.041 149.08C168.947 147.207 168.873 127.904 168.817 106.372C159.6690000000001 106.258 151.1210000000001 105.546 144.535 104.328C135.2940000000001 102.62 131.192 100.271 130.929 96.536C130.888 96.324 130.864 96.106 130.864 95.883V42.306C130.864 40.44 132.376 38.929 134.2400000000001 38.929C136.1060000000001 38.929 137.6210000000001 40.44 137.6210000000001 42.306V89.694C139.4980000000001 89.052 141.7820000000001 88.484 144.536 87.975C151.111 86.753 159.6400000000001 86.046 168.772 85.931C168.73 64.867 168.708 46.246 168.706 44.495C168.703 42.624 170.215 41.112 172.083 41.106C172.083 41.106 172.083 41.106 172.086 41.106C173.949 41.106 175.464 42.618 175.467 44.484C175.507 79.099 175.629 145.434 175.791 148.745C175.86 150.072 176.626 151.486 177.743 152.343C178.316 152.783 179.229 153.264 180.298 153.035C181.9550000000001 152.681 183.016 151.042 182.662 149.385C182.5620000000001 148.915 182.285 148.513 181.8850000000001 148.252C180.3190000000001 147.235 179.8700000000001 145.141 180.8900000000001 143.577C181.9040000000001 142.01 183.9970000000001 141.563 185.5650000000001 142.58C187.4760000000001 143.82 188.7940000000001 145.731 189.2730000000001 147.967C190.406 153.275 187.012 158.512 181.71 159.645zM139.55 96.148C143.836 97.651 153.712 99.431 168.801 99.617C168.796 97.307 168.79 94.991 168.785 92.684C153.705 92.87 143.835 94.646 139.55 96.148z" />
    <glyph glyph-name="taste"
      unicode="&#xE035;"
      horiz-adv-x="200" d=" M105.617 147.125H101.664V158.632C101.664 160.753 99.945 162.471 97.826 162.471H84.497L80.668 187.56C80.38 189.435 78.767 190.82 76.872 190.82H70.306C68.41 190.82 66.798 189.435 66.51 187.56L62.681 162.471H49.352C47.232 162.471 45.513 160.753 45.513 158.632V147.125H41.563C39.443 147.125 37.724 145.405 37.724 143.285V14.155C37.724 12.037 39.443 10.318 41.563 10.318H105.618C107.739 10.318 109.454 12.037 109.454 14.155V143.285C109.453 145.405 107.738 147.125 105.617 147.125zM73.589 183.034L76.731 162.471H70.45L73.589 183.034zM53.191 154.792H65.979H81.199H93.987V147.125H53.191V154.792zM101.775 17.995H45.401V139.446H49.351H97.825H101.775V17.995z M73.589 101.014C64.311 101.014 56.765 93.466 56.765 84.191C56.765 74.916 64.311 67.369 73.589 67.369S90.413 74.916 90.413 84.191C90.413 93.466 82.867 101.014 73.589 101.014zM73.589 75.047C68.547 75.047 64.445 79.149 64.445 84.192C64.445 89.234 68.547 93.336 73.589 93.336S82.733 89.234 82.733 84.192C82.732 79.148 78.631 75.047 73.589 75.047z M156.492 147.125H152.543V158.632C152.543 160.753 150.824 162.471 148.703 162.471H135.375L131.543 187.56C131.258 189.435 129.643 190.82 127.746 190.82H121.185C119.287 190.82 117.675 189.435 117.386 187.56L113.558 162.471H113.439C111.318 162.471 109.599 160.753 109.599 158.632S111.318 154.792 113.439 154.792H116.857H132.076H144.861V147.125H141.054H120.58C118.459 147.125 116.74 145.405 116.74 143.285S118.459 139.446 120.58 139.446H141.055H148.703H152.654V17.995H120.705C118.582 17.995 116.863 16.276 116.863 14.154C116.863 12.036 118.582 10.317 120.705 10.317H156.492C158.615 10.317 160.334 12.036 160.334 14.154V143.285C160.334 145.405 158.615 147.125 156.492 147.125zM121.328 162.471L124.467 183.034L127.606 162.471H121.328z M124.467 75.047C123.729 75.047 122.996 75.133 122.287 75.305C120.23 75.811 118.152 74.544 117.648 72.485C117.146 70.422 118.41 68.348 120.47 67.844C121.771 67.529 123.116 67.369 124.466 67.369C133.741 67.369 141.288 74.916 141.288 84.191C141.288 93.465 133.741 101.014 124.466 101.014C123.136 101.014 121.806 100.858 120.521 100.549C118.458 100.053 117.187 97.981 117.683 95.918C118.177 93.855 120.255 92.592 122.312 93.082C123.015 93.249 123.738 93.335 124.466 93.335C129.507 93.335 133.609 89.233 133.609 84.191C133.609 79.148 129.508 75.047 124.467 75.047z" />
    <glyph glyph-name="time"
      unicode="&#xE036;"
      horiz-adv-x="200" d=" M99.085 189.398C123.612 189.398 145.823 179.45 161.89 163.378L162.244 162.989C178.105 146.93 187.915 124.883 187.915 100.579C187.915 76.063 177.969 53.839 161.89 37.776L161.508 37.422C145.455 21.558 123.408 11.75 99.085 11.75C74.592 11.75 52.393 21.697 36.307 37.787L36.286 37.776C20.222 53.84 10.273 76.063 10.273 100.58C10.273 125.067 20.214 147.272 36.286 163.352L36.307 163.357L36.312 163.378L36.328 163.392C52.406 179.463 74.605 189.398 99.085 189.398L99.085 189.398zM137.88 107.407H105.925V161.777C105.925 165.551 102.861 168.611 99.091 168.611C95.318 168.611 92.265 165.551 92.265 161.777V100.75V100.58C92.265 96.806 95.318 93.739 99.091 93.739H137.881C141.643 93.739 144.707 96.806 144.707 100.58C144.706 104.347 141.642 107.407 137.88 107.407L137.88 107.407zM152.243 153.71C138.629 167.315 119.832 175.731 99.085 175.731C78.325 175.731 59.533 167.323 45.956 153.744L45.927 153.71C32.341 140.137 23.934 121.347 23.934 100.58C23.934 79.83 32.355 61.038 45.956 47.439L45.935 47.422L45.956 47.409C59.533 33.824 78.325 25.43 99.085 25.43C119.689 25.43 138.371 33.717 151.942 47.121L152.243 47.438C165.828 61.037 174.25 79.839 174.25 100.579C174.25 121.189 165.966 139.865 152.555 153.41L152.243 153.71z" />
    </font>
</defs>
</svg>
