<svg xmlns="http://www.w3.org/2000/svg" width="200" height="200"><path fill="#FFF" d="M100 193c-51.3 0-93-41.7-93-93S48.7 7 100 7s93 41.7 93 93-41.7 93-93 93zm0-180c-48 0-87 39-87 87s39 87 87 87 87-39 87-87-39-87-87-87z"/><path fill="#FFF" d="M159.7 95.1c-4.101.2-8.2 0-12.3.1-1 0-1.601-.3-2.2-1.1-7.3-9-14.7-18-21.9-27.1-.5-.6-.8-1.6-.8-2.4-.1-8.6 0-17.2 0-25.8V37H83.8v27.7c0 .8-.3 1.7-.8 2.3-7.2 9-14.5 18-21.7 27-.7.9-1.4 1.2-2.5 1.2-4.5 0-9-.1-13.5 0-3 0-5.1 2-5.1 4.9-.1 6.4 0 12.7 0 19.1 0 2.899 2 4.8 4.8 4.899h114.7c3.1 0 5.3-.899 6.5-3.899V99c-1.2-3-3.4-4-6.5-3.9zM93.4 46.7h19.3v19.2H93.4V46.7zm-9.6 34.5c1.3-1.6 2.5-3.1 3.8-4.6.4-.4 1.1-.8 1.6-.8h27.7c.5 0 1.199.3 1.5.7l14.699 18c.101.1.101.2.301.5H72.7c3.8-4.8 7.4-9.3 11.1-13.8zm72.5 33.2H49.7v-9.601h106.6v9.601zM132 131.8c-.1-1.8-1.1-2.8-2.5-2.7-1.4.101-2.2 1.2-2.2 3 .101 2.5.8 4.801 2.2 7 .7 1.101 1.5 2.2 1.9 3.4 1.1 3 .899 6-.9 8.8-1.6 2.4-2.9 4.9-3.2 7.9-.1 1.7.2 3 1.9 3.8h.8c1.3-.6 2-1.6 2-3 .1-2.1 1-3.9 2.1-5.6 3.601-5.601 3.601-11.101 0-16.7-1.1-1.9-1.9-3.7-2.1-5.9zm-58.1-.1c0-1.7-1.3-2.7-2.7-2.5-1.3.2-2.1 1.3-2 3 .1 2.8.9 5.3 2.5 7.5 3 4.2 2.9 8.399 0 12.6-1 1.5-1.8 3.4-2.3 5.2-.5 1.9-1 4.2 1.5 5.5h.8c1.2-.4 2.1-1.3 2.1-2.6 0-2.4 1.1-4.301 2.3-6.301 3.4-5.399 3.4-10.8-.1-16.199-1.1-2-2-3.9-2.1-6.2zm38.8-.1c-.101-1.699-1.2-2.6-2.601-2.5-1.3.101-2.1 1.2-2.1 2.9 0 2.6.9 5 2.2 7.2.899 1.6 1.899 3.2 2.3 5 .6 2.6 0 5.1-1.5 7.3-1.7 2.3-2.8 4.9-3 7.8-.1 1.601.3 2.8 1.7 3.601h.8c1.2-.4 2.1-1.2 2.1-2.5 0-2.601 1.301-4.7 2.601-6.801 3.1-5.199 3.1-10.399-.101-15.5-1.199-2-2.399-4-2.399-6.5zm-19.4.2c-.1-1.8-1.1-2.8-2.6-2.7-1.4.101-2.2 1.301-2.1 3 .1 2.601.9 5 2.3 7.2.8 1.2 1.6 2.4 2 3.7.9 2.9.6 5.8-1.2 8.4-1.6 2.399-2.8 4.899-3.1 7.8-.1 1.7.2 3 1.9 3.7h.8c1.4-.601 2-1.601 2-3.101 0-2 .9-3.7 2-5.3 3.8-5.7 3.8-11.4 0-17.1-1.1-1.699-1.9-3.499-2-5.599z"/></svg>