<svg xmlns="http://www.w3.org/2000/svg" width="200" height="200"><path d="M60.5 188.5h77.1l-37.3-91.2z"/><path d="M145.3 177.2l-3.8-6.2c24.7-15 39.4-41.2 39.4-70 0-45.1-36.7-81.8-81.8-81.8S17.3 55.9 17.3 101c0 27.8 13.9 53.4 37.2 68.6l-4 6.101C25.1 159.2 10 131.3 10 101.1 10 52 50 12 99.1 12s89.1 40 89.1 89.1c0 31.4-16.1 59.8-42.9 76.1z"/><path d="M66 149.8c-18.1-11.4-28.9-31.1-28.9-52.4 0-34.2 27.8-62 62-62s62 27.8 62 62c0 20.6-10.199 39.9-27.3 51.4l-4-6c15.1-10.2 24.2-27.2 24.2-45.4 0-30.2-24.6-54.8-54.8-54.8S44.3 67.1 44.3 97.3c0 18.9 9.6 36.2 25.6 46.3l-3.9 6.2z"/><path d="M114.8 116.9l-4-6c5.8-3.9 9.2-10.4 9.2-17.4 0-11.5-9.4-20.9-20.9-20.9-11.5 0-21 9.4-21 21 0 7 3.4 13.5 9.2 17.4l-4 6c-7.8-5.3-12.4-14-12.4-23.3 0-15.5 12.6-28.2 28.2-28.2s28.2 12.6 28.2 28.2c-.1 9.2-4.7 18-12.5 23.2z"/></svg>