<svg xmlns="http://www.w3.org/2000/svg" width="200" height="200"><path d="M161.1 58.3c-.199-13.1-5.699-17.5-19.3-17.6-13.899-.1-27.7 0-41.6 0-14.3 0-28.6.3-42.8-.1-11.6-.3-18 5.9-18.3 16.3-.7 29-.6 58-.1 86.9.2 10.3 6 17.5 17.5 17.5 29 .101 58 .2 86.9 0 11.1-.1 17.5-6.6 17.699-17.3.501-28.6.501-57.2.001-85.7zm-18.7 72.4c-.101 7.5-4.601 11.899-12.2 12-20.101.2-40.2.1-60.2 0-7.9 0-12-5-12.1-12.101-.4-20.1-.5-40.2 0-60.2.2-7.2 4.6-11.5 12.7-11.3 9.9.3 19.8.1 29.7.1 9.601 0 19.2-.1 28.8 0 9.4.1 13.2 3.1 13.4 12.2.2 19.701.2 39.501-.1 59.301zm-18.6-111c.101 7.3 0 13.6-8.5 13.6-8.399 0-8.3-6.4-8.6-12.5-.3-6.8.7-11 9.3-10.8 8.7.2 8 5.3 7.8 9.7zm13-1.1c-.1-3.2-.899-8.6 7.8-8.5 7.101 0 9.9 2.3 9.301 9.4-.5 6.2.8 13.6-8.5 13.8-8.301.1-8.601-6.3-8.601-14.7zM19.2 136.8c7.9 0 14.1.9 13.6 9-.5 8.101-7.3 7.601-13.2 8-7 .601-9.5-1.899-9.5-9.2-.1-8.6 5-8 9.1-7.8zm117.6 42c-.1-6 1-11.899 8.4-11.2 8.3.801 8.3 7.9 8.7 14.5.399 7.5-4 7.601-9.601 7.9-9.099.2-7.399-6-7.499-11.2zm-117.6-55c-5.7.9-9.2-.7-9.2-8.5 0-8 4-8.8 10.2-8.5 6.3.4 12.5 1.5 12.6 9 .1 8.4-6.8 8.1-13.6 8zM93.7 18.5c.1 8.4-.1 14.9-8.4 14.7-9.2-.2-7.7-8.1-8.6-13.9-1.2-7.3 2.5-9 9.4-9.2 8.8-.2 7.7 5.2 7.6 8.4zm87.5 105.3c-6.7.5-13.101-.8-13.4-8.1-.3-7.5 6.101-8.601 12.5-8.9 6.7-.3 9.9 1.4 9.8 9-.3 6.8-3 8.9-8.9 8zm-.3 13.1c5.5-.7 9 .6 9.1 7.8s-2.4 9.6-9.4 9.3c-6.399-.3-12.8-1.3-12.8-8.6-.1-7.4 6.3-8.9 13.1-8.5zm-87.4 44c1 6.1-1.1 9.199-8.7 9.1-7-.1-8.6-3-8.3-9.2.3-6.1.5-13 8.2-13.2 7.4-.2 9 6.1 8.8 13.3zm21.3 8.8c-8.7 1.3-8.1-4.7-8.1-10.3 0-5.9 1.3-11.9 8.1-11.801 8.601.101 8.4 7.301 8.7 13.801.5 6.6-2.2 9.3-8.7 8.3zM63.4 21.3c-.1 5.5.4 11.8-7.5 11.8-8.8 0-7.7-6.9-8-12.7-.3-6 0-10.4 8.3-10.3 9.2.1 6.8 6.2 7.2 11.2zM19.8 93.7c-4.9.3-9.8.7-9.7-7.9.1-7.7 4.3-7.8 9.8-7.6 5.9.2 12.9-.6 12.8 8-.1 7.4-6.4 7.6-12.9 7.5zm-.1-30.3c-5.5.7-9.8 0-9.6-8.2.2-8.2 5.4-6.9 10.2-6.9 5.5-.1 12-.7 12.4 6.9.4 8.4-6.3 8.4-13 8.2zm163.4-15.3c2.301-.2 6.7-.3 6.801 7.5.1 8.7-5.101 7.7-10.601 7.9-6.2.2-11.6-1.3-11.399-8.3.099-7.8 6.799-6.8 15.199-7.1zM181 78.2c4.3-.3 8.8-.4 8.8 7.4.101 7.1-3.1 8.4-9.1 8.2-6.3-.2-12.8-.8-13-8.5 0-7.7 6.8-7 13.3-7.1zM47.9 178.9c-.2-5.2 0-11.2 6.8-11.2 7.8.1 8.4 6.5 8.6 12.7.1 5.699-.5 9.399-7.9 9.5-9.1.1-7.4-5.8-7.5-11z"/><path d="M123.7 66.7c-7.9-.1-15.7 0-23.6 0-8.1 0-16.2.2-24.3-.1-6.6-.2-10.2 3.4-10.4 9.3-.4 16.4-.4 32.9 0 49.3.1 5.899 3.4 9.899 9.9 9.899 16.4.101 32.9.101 49.3 0 6.301 0 9.9-3.699 10-9.8.301-16.2.301-32.4 0-48.6-.1-7.399-3.2-9.899-10.9-9.999z"/></svg>