<?xml version="1.0" encoding="utf-8"?>
<!-- Generator: Adobe Illustrator 16.0.0, SVG Export Plug-In . SVG Version: 6.00 Build 0)  -->
<!DOCTYPE svg PUBLIC "-//W3C//DTD SVG 1.1//EN" "http://www.w3.org/Graphics/SVG/1.1/DTD/svg11.dtd">
<svg version="1.1" id="圖層_1" xmlns="http://www.w3.org/2000/svg" xmlns:xlink="http://www.w3.org/1999/xlink" x="0px" y="0px"
	 width="200px" height="200px" viewBox="0 0 200 200" enable-background="new 0 0 200 200" xml:space="preserve">
<path d="M138.143,99.906c8.401-9.046,13.571-21.331,13.571-34.26c0-28.445-23.269-51.714-51.714-51.714
	c-28.445,0-51.714,23.269-51.714,51.714S71.555,117.361,100,117.361c10.34,0,19.393-3.232,27.15-7.76
	c27.795,10.348,47.188,36.205,49.776,65.938H22.429c1.938-20.036,10.99-38.785,26.501-52.357c2.588-2.589,3.232-6.465,0.65-9.053
	c-2.588-2.588-6.464-3.232-9.052-0.645C20.491,130.934,9.5,155.503,9.5,182.004c0,3.876,2.588,6.464,6.464,6.464h168.072
	c3.876,0,6.464-2.588,6.464-6.464C190.5,146.45,169.813,114.771,138.143,99.906 M61.214,65.646
	c0-21.331,17.455-38.786,38.786-38.786s38.786,17.455,38.786,38.786S121.331,104.432,100,104.432S61.214,86.978,61.214,65.646"/>
</svg>
