<?xml version="1.0" encoding="utf-8"?>
<!-- Generator: Adobe Illustrator 16.0.0, SVG Export Plug-In . SVG Version: 6.00 Build 0)  -->
<!DOCTYPE svg PUBLIC "-//W3C//DTD SVG 1.1//EN" "http://www.w3.org/Graphics/SVG/1.1/DTD/svg11.dtd">
<svg version="1.1" id="圖層_1" xmlns="http://www.w3.org/2000/svg" xmlns:xlink="http://www.w3.org/1999/xlink" x="0px" y="0px"
	 width="200px" height="200px" viewBox="0 0 200 200" enable-background="new 0 0 200 200" xml:space="preserve">
<path d="M54.265,173.564H20.014v-56.638h34.251V173.564z M26.014,167.564h22.251v-44.638H26.014V167.564z"/>
<path d="M93.197,173.564H58.946V89.059h34.251V173.564z M64.946,167.564h22.251V95.059H64.946V167.564z"/>
<path d="M136.992,173.564h-34.248V109.96h34.248V173.564z M108.744,167.564h22.248V115.96h-22.248V167.564z"/>
<path d="M180.79,173.564h-34.248V64.672h34.248V173.564z M152.542,167.564h22.248V70.672h-22.248V167.564z"/>
<polygon points="24.789,85.628 21.239,80.792 81.431,36.618 105.551,65.439 147.034,27.228 151.099,31.641 104.988,74.115 
	80.443,44.786 "/>
<polygon points="153.807,49.715 147.807,49.715 147.807,32.437 126.921,32.437 126.921,26.437 153.807,26.437 "/>
</svg>
