<?xml version="1.0" encoding="utf-8"?>
<!-- Generator: Adobe Illustrator 16.0.0, SVG Export Plug-In . SVG Version: 6.00 Build 0)  -->
<!DOCTYPE svg PUBLIC "-//W3C//DTD SVG 1.1//EN" "http://www.w3.org/Graphics/SVG/1.1/DTD/svg11.dtd">
<svg version="1.1" id="圖層_1" xmlns="http://www.w3.org/2000/svg" xmlns:xlink="http://www.w3.org/1999/xlink" x="0px" y="0px"
	 width="200px" height="200px" viewBox="0 0 200 200" enable-background="new 0 0 200 200" xml:space="preserve">
<path  d="M122.374,26.076l8.143-13.57c0.927-1.546,0.427-3.549-1.121-4.474c-1.548-0.93-3.548-0.432-4.471,1.118
	l-8.595,14.322c-5.114-1.82-10.595-2.863-16.327-2.863c-5.732,0-11.211,1.042-16.327,2.863L75.083,9.149
	c-0.925-1.549-2.928-2.044-4.473-1.118c-1.546,0.925-2.046,2.928-1.12,4.474l8.143,13.57C61.894,34.212,51.09,50.616,51.09,69.525
	c0,1.804,1.461,3.261,3.261,3.261h91.304c1.799,0,3.261-1.457,3.261-3.261C148.913,50.619,138.114,34.216,122.374,26.076
	 M57.736,66.264c1.67-21.858,19.988-39.13,42.267-39.13c22.278,0,40.598,17.272,42.267,39.13H57.736z"/>
<path  d="M122.753,44.621h-4.296c-1.188,0-2.149,0.961-2.149,2.149v4.297c0,1.186,0.962,2.149,2.149,2.149h4.299
	c1.188,0,2.149-0.963,2.149-2.149v-4.297C124.905,45.583,123.94,44.621,122.753,44.621"/>
<path  d="M81.546,44.621h-4.301c-1.188,0-2.149,0.961-2.149,2.149v4.297c0,1.186,0.961,2.149,2.149,2.149h4.301
	c1.186,0,2.149-0.963,2.149-2.149v-4.297C83.696,45.583,82.732,44.621,81.546,44.621"/>
<path  d="M145.652,76.047H54.348c-1.799,0-3.261,1.457-3.261,3.261v65.773c0,8.687,7.073,15.75,15.763,15.75h3.802
	v19.584c0,7.178,5.85,13.024,13.043,13.024c7.193,0,13.043-5.847,13.043-13.024v-19.584h6.521v19.584
	c0,7.178,5.85,13.024,13.044,13.024c7.193,0,13.043-5.847,13.043-13.024v-19.584h3.803c8.693,0,15.763-7.063,15.763-15.75V79.308
	C148.913,77.503,147.454,76.047,145.652,76.047 M142.392,145.081c0,5.088-4.146,9.229-9.241,9.229h-7.063
	c-1.799,0-3.261,1.458-3.261,3.261v22.845c0,3.586-2.927,6.503-6.521,6.503c-3.596,0-6.522-2.917-6.522-6.503V157.57
	c0-1.803-1.461-3.261-3.261-3.261H93.479c-1.799,0-3.261,1.458-3.261,3.261v22.845c0,3.586-2.925,6.503-6.521,6.503
	c-3.597,0-6.522-2.917-6.522-6.503V157.57c0-1.803-1.461-3.261-3.261-3.261h-7.06c-5.097,0-9.244-4.141-9.244-9.229V82.568h84.783
	V145.081z"/>
<path  d="M163.587,76.047c-6.292,0-11.413,5.127-11.413,11.425v45.628c0,6.299,5.121,11.426,11.413,11.426
	c6.293,0,11.413-5.127,11.413-11.426V87.472C175,81.174,169.88,76.047,163.587,76.047 M168.479,133.101
	c0,2.7-2.194,4.904-4.892,4.904s-4.892-2.204-4.892-4.904V87.472c0-2.702,2.194-4.904,4.892-4.904s4.892,2.202,4.892,4.904V133.101z
	"/>
<path  d="M36.413,76.047C30.119,76.047,25,81.174,25,87.472v45.628c0,6.299,5.119,11.426,11.413,11.426
	s11.413-5.127,11.413-11.426V87.472C47.826,81.174,42.707,76.047,36.413,76.047 M41.304,133.101c0,2.7-2.194,4.904-4.891,4.904
	s-4.891-2.204-4.891-4.904V87.472c0-2.702,2.194-4.904,4.891-4.904s4.891,2.202,4.891,4.904V133.101z"/>
</svg>
