<?xml version="1.0" encoding="utf-8"?>
<!-- Generator: Adobe Illustrator 16.0.0, SVG Export Plug-In . SVG Version: 6.00 Build 0)  -->
<!DOCTYPE svg PUBLIC "-//W3C//DTD SVG 1.1//EN" "http://www.w3.org/Graphics/SVG/1.1/DTD/svg11.dtd">
<svg version="1.1" id="圖層_1" xmlns="http://www.w3.org/2000/svg" xmlns:xlink="http://www.w3.org/1999/xlink" x="0px" y="0px"
	 width="200px" height="200px" viewBox="0 0 200 200" enable-background="new 0 0 200 200" xml:space="preserve">
<path  d="M185.155,17.833l-33.211-2.971c-1.524-0.141-3.022,0.406-4.099,1.489L95.475,68.714
	c-20.636-5.61-43.652-0.377-59.802,15.801c-24.039,24.034-24.039,63.139,0,87.171c24.007,24.035,63.104,24.035,87.141,0
	c16.18-16.176,21.413-39.194,15.803-59.831l8.727-8.723c0.911-0.903,1.435-2.103,1.508-3.384l0.779-15.282l15.472-0.924
	c2.654-0.15,4.744-2.318,4.824-4.978l0.449-15.191l17.669-2.419c1.156-0.166,2.171-0.688,2.941-1.456
	c1.031-1.042,1.623-2.502,1.479-4.061l-2.645-32.886C189.632,20.042,187.648,18.056,185.155,17.833 M181.829,51.416l-17.158,2.356
	c-2.493,0.341-4.363,2.433-4.448,4.946l-0.44,14.841l-15.362,0.917c-2.61,0.162-4.691,2.261-4.834,4.868l-0.916,17.899l-4.018,4.019
	l-7.767,7.768c1.479,3.722,2.475,7.588,3.049,11.507c2.296,15.542-2.458,31.942-14.395,43.88c-20.019,20.018-52.596,20.018-72.595,0
	c-20.012-20.023-20.012-52.598,0-72.627c11.922-11.934,28.315-16.691,43.851-14.391c3.917,0.578,7.784,1.561,11.507,3.041
	l7.755-7.756l47.365-47.358l26.494,2.379L181.829,51.416z"/>
<path  d="M153.972,37.063l-45.822,45.824c-1.722,1.717-1.722,4.504,0,6.226c1.722,1.723,4.512,1.723,6.232,0
	l45.823-45.824c1.721-1.722,1.721-4.509,0-6.227C158.474,35.345,155.692,35.345,153.972,37.063"/>
<path  d="M55.413,122.235c-8.18,8.171-8.18,21.498,0,29.691c8.177,8.18,21.5,8.18,29.687,0
	c8.179-8.193,8.179-21.521,0-29.691C76.913,114.047,63.59,114.047,55.413,122.235 M77.826,144.645c-4.179,4.17-10.971,4.17-15.131,0
	c-4.179-4.18-4.179-10.969,0-15.135c4.16-4.176,10.952-4.176,15.131,0C81.987,133.676,81.987,140.465,77.826,144.645"/>
<g>
	<path d="M51.218,53.023h-5.122l-4.553-11.925H23.545l-4.254,11.925h-5.15l16.153-41.982h4.689L51.218,53.023z M39.971,36.87
		l-6.723-18.133c-0.181-0.505-0.389-1.426-0.623-2.764h-0.135c-0.2,1.229-0.425,2.151-0.679,2.764l-6.64,18.133H39.971z"/>
	<path d="M62.086,37.086v15.937h-4.608V11.041h11.33c4.391,0,7.823,1.094,10.299,3.279c2.475,2.187,3.713,5.258,3.713,9.216
		c0,4.119-1.454,7.443-4.363,9.973c-2.909,2.531-6.495,3.723-10.76,3.578H62.086z M62.086,15.296v17.48h5.258
		c3.451,0,6.084-0.781,7.9-2.343c1.816-1.563,2.724-3.791,2.724-6.681c0-5.638-3.326-8.456-9.974-8.456H62.086z"/>
	<path d="M95.45,53.023h-4.609V11.041h4.609V53.023z"/>
</g>
</svg>
