<?xml version="1.0" encoding="utf-8"?>
<!-- Generator: Adobe Illustrator 16.0.0, SVG Export Plug-In . SVG Version: 6.00 Build 0)  -->
<!DOCTYPE svg PUBLIC "-//W3C//DTD SVG 1.1//EN" "http://www.w3.org/Graphics/SVG/1.1/DTD/svg11.dtd">
<svg version="1.1" id="圖層_1" xmlns="http://www.w3.org/2000/svg" xmlns:xlink="http://www.w3.org/1999/xlink" x="0px" y="0px"
	 width="200px" height="200px" viewBox="0 0 200 200" enable-background="new 0 0 200 200" xml:space="preserve">
<path d="M158.819,59.506l4.808-8.025c0.552-0.907,0.257-2.095-0.659-2.643c-0.914-0.551-2.097-0.256-2.642,0.66l-5.082,8.468
	c-3.023-1.071-6.263-1.694-9.65-1.694c-3.387,0-6.627,0.623-9.651,1.694l-5.08-8.468c-0.546-0.916-1.733-1.205-2.644-0.66
	c-0.914,0.548-1.21,1.736-0.659,2.643l4.81,8.025c-9.305,4.809-15.688,14.504-15.688,25.684c0,1.065,0.858,1.927,1.927,1.927h53.971
	c1.069,0,1.927-0.861,1.927-1.927C174.506,74.011,168.123,64.32,158.819,59.506 M120.609,83.263
	c0.983-12.924,11.815-23.134,24.984-23.134s24.002,10.21,24.985,23.134H120.609z"/>
<path d="M159.042,70.47H156.5c-0.698,0-1.267,0.571-1.267,1.271v2.535c0,0.705,0.568,1.276,1.267,1.276h2.542
	c0.704,0,1.272-0.571,1.272-1.276V71.74C160.314,71.041,159.746,70.47,159.042,70.47"/>
<path d="M134.687,70.47h-2.546c-0.705,0-1.268,0.571-1.268,1.271v2.535c0,0.705,0.563,1.276,1.268,1.276h2.546
	c0.7,0,1.269-0.571,1.269-1.276V71.74C135.955,71.041,135.387,70.47,134.687,70.47"/>
<path d="M172.579,89.041h-53.976c-1.058,0-1.928,0.869-1.928,1.926v38.89c0,5.133,4.183,9.305,9.321,9.305h2.245v11.576
	c0,4.245,3.455,7.701,7.713,7.701c4.251,0,7.712-3.456,7.712-7.701v-11.576h3.854v11.576c0,4.245,3.461,7.701,7.707,7.701
	c4.257,0,7.712-3.456,7.712-7.701v-11.576h2.246c5.143,0,9.32-4.172,9.32-9.305v-38.89C174.506,89.91,173.642,89.041,172.579,89.041
	 M170.652,129.857c0,3.006-2.449,5.456-5.467,5.456h-4.172c-1.063,0-1.927,0.857-1.927,1.92v13.505c0,2.119-1.733,3.847-3.859,3.847
	c-2.12,0-3.859-1.728-3.859-3.847v-13.505c0-1.063-0.858-1.92-1.927-1.92h-7.701c-1.068,0-1.933,0.857-1.933,1.92v13.505
	c0,2.119-1.728,3.847-3.853,3.847c-2.126,0-3.86-1.728-3.86-3.847v-13.505c0-1.063-0.863-1.92-1.926-1.92h-4.172
	c-3.012,0-5.468-2.455-5.468-5.456V92.9h50.123V129.857z"/>
<path d="M183.179,89.043c-3.717,0-6.746,3.033-6.746,6.758v26.968c0,3.723,3.029,6.758,6.746,6.758c3.723,0,6.752-3.035,6.752-6.758
	V95.801C189.931,92.076,186.901,89.043,183.179,89.043 M186.071,122.77c0,1.598-1.295,2.898-2.893,2.898
	c-1.591,0-2.893-1.301-2.893-2.898V95.801c0-1.6,1.302-2.898,2.893-2.898c1.598,0,2.893,1.298,2.893,2.898V122.77z"/>
<path d="M108.003,89.043c-3.717,0-6.746,3.033-6.746,6.758v26.968c0,3.723,3.029,6.758,6.746,6.758c3.718,0,6.746-3.035,6.746-6.758
	V95.801C114.749,92.076,111.721,89.043,108.003,89.043 M110.896,122.77c0,1.598-1.295,2.898-2.893,2.898
	c-1.591,0-2.893-1.301-2.893-2.898V95.801c0-1.6,1.302-2.898,2.893-2.898c1.598,0,2.893,1.298,2.893,2.898V122.77z"/>
<path d="M70.413,51.961l-0.12-2.171l-2.148,0.233c-0.216,0.022-21.086,2.532-22.507,25.857l-0.148,2.333l2.331-0.156
	C48.059,78.041,71.691,76.159,70.413,51.961 M66.337,54.562c-0.386,14.056-11.321,17.966-16.346,19.02
	C51.901,59.921,61.813,55.761,66.337,54.562"/>
<path d="M90.515,126.907l-1.308-0.426c-7.956-2.569-13.288-9.85-13.288-18.119c0-7.354,4.149-13.931,10.85-17.167l2.006-0.96
	l-1.12-1.927c-0.478-0.815-4.939-8.102-14.351-10.509c-7.474-1.91-15.875-0.222-24.973,5.027
	c-3.854-2.333-16.659-9.079-26.843-2.322c-1.995,1.1-23.129,13.763-12.129,47.921c0.327,0.761,7.997,18.733,17.07,25.463
	c2.444,2.336,8.707,5.263,15.866,0.38c1.239-0.512,9.525-3.7,14.794,0.04c1.943,1.33,5.331,2.836,8.917,2.836
	c2.717,0,5.547-0.869,7.934-3.337c1.109-0.96,11.288-10.042,16.573-24.433l0.16-0.421L90.515,126.907z M71.191,150.744l-0.159,0.152
	c-4.513,4.729-11.344,0.211-11.594,0.035c-2.683-1.91-5.809-2.534-8.73-2.534c-5.297,0-9.958,2.051-10.259,2.187l-0.33,0.188
	c-6.204,4.332-10.455,0.523-10.907,0.092l-0.239-0.211c-8.212-5.984-15.754-23.654-15.766-23.66
	c-10.29-31.998,9.429-42.467,10.265-42.894l0.227-0.133c9.551-6.414,23.28,2.875,23.416,2.963l1.097,0.75l1.137-0.682
	c8.548-5.172,16.266-6.931,22.933-5.22c5.434,1.393,8.889,4.786,10.583,6.869c-6.877,4.22-11.06,11.574-11.06,19.716
	c0,9.366,5.627,17.688,14.186,21.307C80.728,142.536,71.293,150.658,71.191,150.744"/>
</svg>
