<?xml version="1.0" encoding="utf-8"?>
<!-- Generator: Adobe Illustrator 16.0.0, SVG Export Plug-In . SVG Version: 6.00 Build 0)  -->
<!DOCTYPE svg PUBLIC "-//W3C//DTD SVG 1.1//EN" "http://www.w3.org/Graphics/SVG/1.1/DTD/svg11.dtd">
<svg version="1.1" id="圖層_1" xmlns="http://www.w3.org/2000/svg" xmlns:xlink="http://www.w3.org/1999/xlink" x="0px" y="0px"
	 width="200px" height="200px" viewBox="0 0 200 200" enable-background="new 0 0 200 200" xml:space="preserve">
<path d="M33.031,32.17H76.33v43.298H33.031V32.17z M18.007,91.404h73.38v-73.38h-73.38V91.404z"/>
<path d="M47.403,47.42h14.585v14.585H47.403V47.42z"/>
<path d="M33.031,122.763H76.33v43.3H33.031V122.763z M18.007,181.995h73.38v-73.381h-73.38V181.995z"/>
<path d="M47.403,138.015h14.585v14.584H47.403V138.015z"/>
<path d="M137.644,167.409h14.586v14.586h-14.586V167.409z"/>
<path d="M167.039,167.409h14.586v14.586h-14.586V167.409z"/>
<path d="M123.269,32.17h43.298v43.298h-43.298V32.17L123.269,32.17z M108.247,91.404h73.378v-73.38h-73.378V91.404z"/>
<path d="M137.644,47.42h14.586v14.585h-14.586V47.42z"/>
<path d="M167.39,109.072v16.749h-15.162v-16.749h-29.746h-14.234v24.385v48.538h14.234v-48.538h15.164v16.747h29.744h14.235v-24.383
	v-16.749H167.39z"/>
</svg>
