<?xml version="1.0" encoding="utf-8"?>
<!-- Generator: Adobe Illustrator 16.0.0, SVG Export Plug-In . SVG Version: 6.00 Build 0)  -->
<!DOCTYPE svg PUBLIC "-//W3C//DTD SVG 1.1//EN" "http://www.w3.org/Graphics/SVG/1.1/DTD/svg11.dtd">
<svg version="1.1" id="圖層_1" xmlns="http://www.w3.org/2000/svg" xmlns:xlink="http://www.w3.org/1999/xlink" x="0px" y="0px"
	 width="200px" height="200px" viewBox="0 0 200 200" enable-background="new 0 0 200 200" xml:space="preserve">
<path fill="#030000" d="M70.343,90.998h58.514c2.401,0,4.354-1.938,4.354-4.354c0-2.401-1.953-4.354-4.354-4.354H70.343
	c-2.401,0-4.354,1.953-4.354,4.354C65.989,89.06,67.942,90.998,70.343,90.998 M70.343,116.041h58.514
	c2.401,0,4.354-1.951,4.354-4.353s-1.953-4.354-4.354-4.354H70.343c-2.401,0-4.354,1.952-4.354,4.354S67.942,116.041,70.343,116.041
	 M70.343,166.152h58.514c2.401,0,4.354-1.968,4.354-4.368s-1.953-4.34-4.354-4.34H70.343c-2.401,0-4.354,1.939-4.354,4.34
	S67.942,166.152,70.343,166.152 M70.343,141.101h58.514c2.401,0,4.354-1.938,4.354-4.367c0-2.402-1.953-4.34-4.354-4.34H70.343
	c-2.401,0-4.354,1.938-4.354,4.34C65.989,139.162,67.942,141.101,70.343,141.101 M145.563,29.28h-23.271V12.785
	c0-2.401-1.953-4.339-4.354-4.339H81.256c-2.394,0-4.354,1.938-4.354,4.339V29.28H53.637c-4.014,0-7.261,3.262-7.261,7.261v150.293
	c0,3.992,3.247,7.262,7.261,7.262h91.925c4.007,0,7.246-3.27,7.246-7.262V36.542C152.809,32.542,149.569,29.28,145.563,29.28
	 M85.617,17.138h27.98V29.28h-27.98V17.138z M138.316,179.574h-77.44V43.795h77.44V179.574z M70.343,65.954h58.514
	c2.401,0,4.354-1.953,4.354-4.354c0-2.401-1.953-4.339-4.354-4.339H70.343c-2.401,0-4.354,1.938-4.354,4.339
	C65.989,64,67.942,65.954,70.343,65.954"/>
</svg>
