<?xml version="1.0" encoding="utf-8"?>
<!-- Generator: Adobe Illustrator 21.1.0, SVG Export Plug-In . SVG Version: 6.00 Build 0)  -->
<svg version="1.1" id="圖層_1" xmlns="http://www.w3.org/2000/svg" xmlns:xlink="http://www.w3.org/1999/xlink" x="0px" y="0px"
	 viewBox="0 0 200 200" style="enable-background:new 0 0 200 200;" xml:space="preserve">
<g>
	<path class="st0" d="M152.5,103.9v-27c0.1-20.6-13.7-34.2-25.6-39.6c-3.4-1.6-6.9-2.8-10.5-3.6v-1.7c0-8.3-6.7-15-15-15
		s-15,6.7-15,15v2c-3.2,0.9-6.4,2-9.4,3.4c-13.1,6.1-26.4,20.6-26.6,39.6v27c0,19.2-6.8,35.6-20.1,48.9c-0.8,0.8-1.1,2-0.7,3
		c0.3,1.1,1.2,1.9,2.4,2.1l28.5,4.9c5.3,0.9,10.2,1.7,14.8,2.3c5.2,10.3,15.5,16.8,26.7,16.8c11.2,0,21.5-6.6,26.8-16.9
		c4.6-0.6,9.5-1.4,14.8-2.3l28.5-4.9c1.1-0.2,2-1,2.4-2.1c0.3-1.1,0.1-2.2-0.7-3C159.6,138.9,152.5,122.4,152.5,103.9z M92.4,31.9
		c0-5,4-9,9-9s9,4,9,9v0.5c-6-0.9-12-0.8-18,0.1V31.9z M102,175.9c-7.6,0-14.7-3.8-19.3-9.9c6.7,0.7,13,1,19.2,1
		c6.3,0,12.6-0.3,19.3-1C116.7,172.1,109.6,175.9,102,175.9z M142.5,156.8c-5.8,1-11,1.8-16,2.4c0,0,0,0,0,0
		c-2.2,0.3-4.3,0.5-6.4,0.7c0,0,0,0-0.1,0c-1.9,0.2-3.8,0.3-5.6,0.5c-0.3,0-0.7,0-1,0.1c-1.6,0.1-3.2,0.2-4.8,0.2c-0.3,0-0.6,0-1,0
		c-3.7,0.1-7.4,0.1-11.1,0c-0.3,0-0.7,0-1,0c-1.6-0.1-3.1-0.1-4.7-0.2c-0.4,0-0.8,0-1.1-0.1c-1.8-0.1-3.6-0.3-5.5-0.5
		c-0.1,0-0.1,0-0.2,0c-2.1-0.2-4.2-0.4-6.4-0.7c0,0,0,0,0,0c-5-0.6-10.3-1.4-16.1-2.4l-23-4c11.9-13.7,18-30.1,18-49v-27
		C56.5,60.6,68.1,48,79.5,42.7c3.4-1.6,6.9-2.7,10.5-3.5c0,0,0.1,0,0.1,0c7.4-1.7,15.3-1.7,22.7-0.2c0,0,0.1,0,0.1,0
		c3.9,0.8,7.8,2.1,11.5,3.7c11.1,5.1,22.2,17.6,22.1,34.2v27c0,18.1,6.5,34.9,18.9,49L142.5,156.8z"/>
	<path class="st0" d="M120.7,50.9c-11.6-5.3-25.9-5.3-37.4,0c-6.6,3-17.8,11.9-17.8,26c0,1.7,1.3,3,3,3c0,0,0,0,0,0c1.6,0,3-1.3,3-3
		c0.1-11,9.1-18.1,14.4-20.6c10-4.6,22.3-4.6,32.4,0c1.5,0.7,3.3,0,4-1.5C122.8,53.4,122.2,51.6,120.7,50.9z"/>
	<path class="st0" d="M25.8,77.8c-1.2-1.2-3.1-1.2-4.2,0C15,84.3,11.4,93,11.4,102.3s3.6,18,10.2,24.6c0.6,0.6,1.4,0.9,2.1,0.9
		s1.5-0.3,2.1-0.9c1.2-1.2,1.2-3.1,0-4.2c-5.4-5.4-8.4-12.6-8.4-20.3s3-14.9,8.4-20.3C27,80.8,27,78.9,25.8,77.8z"/>
	<path class="st0" d="M36.3,121c0.8,0,1.5-0.3,2.1-0.9c1.2-1.2,1.2-3.1,0-4.2c-7.7-7.7-7.7-20.2,0-27.8c1.2-1.2,1.2-3.1,0-4.2
		c-1.2-1.2-3.1-1.2-4.2,0c-10,10-10,26.3,0,36.3C34.8,120.7,35.6,121,36.3,121z"/>
	<path class="st0" d="M181.2,77.8c-1.2-1.2-3.1-1.2-4.2,0c-1.2,1.2-1.2,3.1,0,4.2c5.4,5.4,8.4,12.6,8.4,20.3s-3,14.9-8.4,20.3
		c-1.2,1.2-1.2,3.1,0,4.2c0.6,0.6,1.4,0.9,2.1,0.9c0.8,0,1.5-0.3,2.1-0.9c6.6-6.6,10.2-15.3,10.2-24.6S187.8,84.3,181.2,77.8z"/>
	<path class="st0" d="M164.4,83.8c-1.2,1.2-1.2,3.1,0,4.2c7.7,7.7,7.7,20.2,0,27.8c-1.2,1.2-1.2,3.1,0,4.2c0.6,0.6,1.4,0.9,2.1,0.9
		s1.5-0.3,2.1-0.9c10-10,10-26.3,0-36.3C167.4,82.6,165.5,82.6,164.4,83.8z"/>
</g>
</svg>
