<?xml version="1.0" encoding="utf-8"?>
<!-- Generator: Adobe Illustrator 16.0.0, SVG Export Plug-In . SVG Version: 6.00 Build 0)  -->
<!DOCTYPE svg PUBLIC "-//W3C//DTD SVG 1.1//EN" "http://www.w3.org/Graphics/SVG/1.1/DTD/svg11.dtd">
<svg version="1.1" id="Layer_1" xmlns="http://www.w3.org/2000/svg" xmlns:xlink="http://www.w3.org/1999/xlink" x="0px" y="0px"
	 width="200px" height="200px" viewBox="0 0 200 200" enable-background="new 0 0 200 200" xml:space="preserve">
<g>
	<path d="M120.027,113.036H78.473c-2.858,0-5.194,2.338-5.194,5.194v2.597c0,2.858,2.336,5.195,5.194,5.195h41.555
		c2.856,0,5.195-2.337,5.195-5.195v-2.597C125.223,115.374,122.884,113.036,120.027,113.036z"/>
	<path d="M78.473,87.063h23.375c2.855,0,5.194-2.336,5.194-5.194v-2.597c0-2.856-2.339-5.194-5.194-5.194H78.473
		c-2.858,0-5.194,2.338-5.194,5.194v2.597C73.278,84.728,75.614,87.063,78.473,87.063z"/>
	<path d="M99.25,10.05c-49.705,0-90,40.294-90,90c0,49.706,40.295,90,90,90c49.706,0,90-40.295,90-90
		C189.25,50.344,148.956,10.05,99.25,10.05z M151.194,114.596c0,20.517-14.546,37.398-35.323,37.398H82.627
		c-20.777,0-35.321-16.621-35.321-37.398V78.235c0-15.583,14.544-30.129,30.127-30.129h24.935c25.711,0,30.127,29.089,30.127,29.089
		c0,5.714,4.674,10.389,10.389,10.389h6.234c2.077,4.675,2.077,11.949,2.077,18.701V114.596z"/>
</g>
</svg>
