<?xml version="1.0" encoding="utf-8"?>
<!-- Generator: Adobe Illustrator 16.0.0, SVG Export Plug-In . SVG Version: 6.00 Build 0)  -->
<!DOCTYPE svg PUBLIC "-//W3C//DTD SVG 1.1//EN" "http://www.w3.org/Graphics/SVG/1.1/DTD/svg11.dtd">
<svg version="1.1" id="Layer_1" xmlns="http://www.w3.org/2000/svg" xmlns:xlink="http://www.w3.org/1999/xlink" x="0px" y="0px"
	 width="200px" height="200px" viewBox="0 0 200 200" enable-background="new 0 0 200 200" xml:space="preserve">
<g>
	<path d="M59.674,136.478c1.131,0,2.19-0.438,2.98-1.232l23.41-23.417c1.642-1.644,1.641-4.317,0-5.958
		c-0.795-0.796-1.853-1.235-2.979-1.235c-1.125,0-2.183,0.439-2.98,1.234l-20.433,20.436l-7.397-7.39
		c-0.795-0.796-1.853-1.234-2.979-1.234c-1.125,0-2.183,0.438-2.977,1.231c-0.798,0.795-1.238,1.853-1.238,2.98
		c0,1.125,0.438,2.184,1.236,2.981l10.376,10.372C57.49,136.04,58.548,136.478,59.674,136.478z"/>
	<path d="M83.086,136.349c-1.125,0-2.184,0.44-2.98,1.237l-20.433,20.43l-7.396-7.39c-0.795-0.799-1.853-1.239-2.98-1.239
		c-1.125,0-2.184,0.44-2.978,1.236c-0.798,0.796-1.237,1.854-1.237,2.98c0,1.125,0.439,2.183,1.236,2.976l10.378,10.376
		c0.8,0.795,1.856,1.233,2.977,1.233c1.126,0,2.184-0.439,2.98-1.236l23.409-23.408c0.797-0.797,1.236-1.856,1.236-2.983
		c-0.001-1.126-0.44-2.182-1.233-2.973C85.271,136.789,84.212,136.349,83.086,136.349z"/>
	<path d="M187.941,87.878l-18.275-18.277c-0.797-0.796-1.854-1.234-2.979-1.234c-1.126,0-2.185,0.438-2.98,1.234l-12.989,12.989
		V40.98c0-2.324-1.892-4.214-4.215-4.214h-21.743c-2.706-4.491-6.911-8.192-11.976-10.535c-2.236-9.794-10.967-16.824-21.048-16.824
		c-10.083,0-18.814,7.03-21.05,16.824c-5.063,2.342-9.267,6.042-11.97,10.535H32.696c-2.324,0-4.216,1.891-4.216,4.214v144.038
		c0,2.322,1.892,4.212,4.216,4.212h113.806c2.323,0,4.215-1.89,4.215-4.212v-53.957l37.226-37.225
		C189.583,92.195,189.583,89.522,187.941,87.878z M103.077,154.291l3.444-15.584l50.234-50.237l12.316,12.317l-50.219,50.218
		L103.077,154.291z M67.439,60.622h48.59c6.663,0,12.083-5.421,12.083-12.085c0-1.057-0.098-2.161-0.297-3.342h14.473V91.02
		l-42.595,42.596c-0.572,0.57-0.965,1.288-1.139,2.077l-5.113,23.149c-0.308,1.401,0.11,2.847,1.114,3.86
		c0.98,0.999,2.437,1.462,3.856,1.167l23.38-4.87c0.815-0.164,1.556-0.563,2.133-1.148l18.364-18.361v41.313H36.909V45.194h18.747
		c-0.202,1.186-0.297,2.275-0.297,3.342C55.359,55.2,60.778,60.622,67.439,60.622z M91.735,17.835
		c6.735,0,12.366,5.095,13.099,11.851l0.279,2.603l2.46,0.904c7.357,2.697,12.11,8.719,12.11,15.344
		c0,2.015-1.639,3.655-3.654,3.655h-48.59c-2.013,0-3.65-1.64-3.65-3.655c0-6.619,4.753-12.642,12.109-15.344l2.463-0.904
		l0.276-2.602C79.366,22.93,84.996,17.835,91.735,17.835z M179.001,90.858l-3.97,3.969l-12.315-12.316l3.97-3.969L179.001,90.858z"
		/>
	<path d="M49.298,86.114c-1.125,0-2.183,0.438-2.979,1.234c-0.797,0.797-1.236,1.855-1.236,2.98s0.439,2.184,1.236,2.979
		l10.379,10.375c0.8,0.794,1.856,1.231,2.976,1.231c1.125,0,2.183-0.438,2.98-1.235l23.409-23.415
		c0.796-0.797,1.235-1.855,1.235-2.98c0-1.126-0.439-2.184-1.234-2.98c-0.795-0.795-1.853-1.234-2.979-1.234
		c-1.125,0-2.183,0.438-2.98,1.233L59.673,94.74l-7.397-7.391C51.481,86.553,50.424,86.114,49.298,86.114z"/>
</g>
</svg>
