<?xml version="1.0" encoding="utf-8"?>
<!-- Generator: Adobe Illustrator 16.0.0, SVG Export Plug-In . SVG Version: 6.00 Build 0)  -->
<!DOCTYPE svg PUBLIC "-//W3C//DTD SVG 1.1//EN" "http://www.w3.org/Graphics/SVG/1.1/DTD/svg11.dtd">
<svg version="1.1" id="圖層_1" xmlns="http://www.w3.org/2000/svg" xmlns:xlink="http://www.w3.org/1999/xlink" x="0px" y="0px"
	 width="511.998px" height="512px" viewBox="0 0 511.998 512" enable-background="new 0 0 511.998 512" xml:space="preserve">
<path d="M134.532,378.086c-1.717-1.718-4.1-2.706-6.528-2.706s-4.81,0.988-6.529,2.706c-1.717,1.717-2.706,4.1-2.706,6.528
	s0.988,4.812,2.706,6.527c1.718,1.718,4.1,2.707,6.529,2.707s4.811-0.988,6.528-2.707c1.717-1.716,2.706-4.099,2.706-6.527
	S136.25,379.803,134.532,378.086"/>
<path d="M450.307,121.282c-2.91-4.189-8.665-5.224-12.853-2.313c-4.188,2.91-5.224,8.665-2.313,12.853
	c60.164,86.571,49.635,203.603-25.039,278.277c-41.162,41.162-95.889,63.831-154.101,63.831c-58.212,0-112.939-22.669-154.1-63.831
	c-41.162-41.161-63.831-95.889-63.831-154.1s22.668-112.939,63.831-154.102c75.282-75.28,192.916-85.392,279.702-24.04
	c4.166,2.943,9.928,1.952,12.871-2.211c2.943-4.165,1.954-9.927-2.211-12.871c-44.971-31.791-100.138-46.855-155.334-42.411
	c-55.833,4.493-108.424,28.811-148.087,68.473c-44.65,44.651-69.239,104.016-69.239,167.16s24.59,122.51,69.239,167.16
	c44.651,44.65,104.016,69.24,167.16,69.24c63.144,0,122.51-24.591,167.16-69.239c39.429-39.43,63.722-91.703,68.398-147.187
	C496.182,221.148,481.53,166.212,450.307,121.282"/>
<path d="M423.264,88.942l-0.175-0.176c-3.598-3.617-9.444-3.631-13.06-0.033c-3.615,3.597-3.63,9.444-0.033,13.059l0.175,0.176
	c1.805,1.814,4.175,2.721,6.546,2.721c2.355,0,4.711-0.896,6.513-2.688C426.845,98.405,426.861,92.558,423.264,88.942"/>
<path d="M256.002,65.771c-104.893,0-190.228,85.336-190.228,190.227c0,33.412,8.788,66.279,25.414,95.05
	c2.552,4.415,8.198,5.926,12.616,3.375c4.415-2.552,5.926-8.2,3.374-12.616c-15.004-25.963-22.936-55.636-22.936-85.809
	c0-27.551,6.532-53.603,18.11-76.704c4.014,9.69,11.619,17.739,21.431,22.137v134.485c0,11.398,9.273,20.671,20.672,20.671h50.439
	v19.179c0,11.397,9.273,20.671,20.67,20.671h139.209c-27.955,19.721-62.033,31.321-98.772,31.321
	c-30.074-0.001-59.662-7.884-85.566-22.795c-4.421-2.547-10.066-1.023-12.609,3.395c-2.545,4.42-1.024,10.065,3.395,12.61
	c28.702,16.524,61.477,25.259,94.78,25.259c104.892,0,190.228-85.336,190.228-190.228
	C446.229,151.108,360.894,65.771,256.002,65.771 M256.001,84.239c64.029,0,119.981,35.224,149.516,87.308
	c-7.224-6.071-16.534-9.738-26.688-9.738h-29.608c-0.895-22.124-19.162-39.848-41.502-39.848H148.733
	C178.147,98.374,215.451,84.239,256.001,84.239 M132.574,185.088c-8.919-3.375-14.912-12.05-14.912-21.584
	c0-12.723,10.352-23.075,23.075-23.075h166.98c12.152,0,22.134,9.446,23.006,21.379H211.848c-19.264,0-35.503,13.181-40.183,30.997
	c-3.254,0.501-7.538,1.457-12.544,3.29c-0.179,0.065-0.357,0.136-0.532,0.214c-6.118,2.68-11.61,6.33-16.336,10.717v-7.952
	C142.253,192.899,138.364,187.279,132.574,185.088 M144.456,338.118c-1.214,0-2.204-0.987-2.204-2.202v-43.073
	c3.683,3.41,7.824,6.373,12.357,8.772c-1.065,3.793-1.613,7.734-1.613,11.698c0,9.224,2.91,17.776,7.847,24.805H144.456z
	 M194.895,338.078c-13.04-0.716-23.43-11.55-23.43-24.765c0-4.234,1.089-8.417,3.15-12.097c1.348-2.404,1.55-5.286,0.553-7.855
	c-0.998-2.569-3.091-4.56-5.708-5.426c-14.986-4.958-25.482-18.112-27.208-33.522v-8.999c1.581-13.981,10.439-26.25,23.489-32.075
	c2.026-0.73,3.846-1.249,5.433-1.625c2.693,12.931,11.491,24.084,23.721,29.565V338.078z M386.997,224.936
	c-5.791,2.189-9.683,7.811-9.683,13.987v136.842c0,1.214-0.988,2.202-2.203,2.202H215.565c-1.215-0.001-2.202-0.988-2.202-2.203
	V238.923c0-6.176-3.89-11.797-9.679-13.986c-8.918-3.375-14.91-12.05-14.91-21.584c0-12.723,10.352-23.075,23.074-23.075h166.98
	c12.723,0,23.074,10.352,23.074,23.075C401.903,212.887,395.912,221.562,386.997,224.936 M395.783,241.279
	c14.042-6.292,23.561-20.062,24.506-35.416c4.852,15.868,7.471,32.7,7.471,50.134c0,37.145-11.855,71.57-31.977,99.701V241.279z"/>
<path d="M265.728,329.464c-3.604-3.607-9.452-3.606-13.059,0.001l-5.418,5.42c-3.606,3.606-3.605,9.453,0,13.06
	c1.802,1.804,4.166,2.704,6.529,2.704s4.727-0.902,6.529-2.705l5.419-5.42C269.335,338.917,269.334,333.07,265.728,329.464"/>
<path d="M265.729,265.186c-3.606-3.605-9.452-3.605-13.06,0l-5.418,5.419c-3.606,3.605-3.606,9.452,0,13.06
	c1.803,1.803,4.166,2.704,6.529,2.704s4.726-0.901,6.529-2.704l5.419-5.419C269.335,274.639,269.335,268.792,265.729,265.186"/>
<path d="M304.578,290.853c-3.607-3.605-9.452-3.605-13.061,0l-5.419,5.419c-3.605,3.604-3.605,9.452,0,13.06
	c1.804,1.803,4.167,2.704,6.53,2.704c2.362,0,4.726-0.901,6.529-2.704l5.419-5.419C308.185,300.305,308.185,294.458,304.578,290.853
	"/>
<path d="M336.18,246.48c-3.605-3.607-9.453-3.606-13.059,0l-5.419,5.42c-3.606,3.606-3.605,9.453,0.001,13.059
	c1.803,1.804,4.165,2.705,6.527,2.705c2.364,0,4.728-0.902,6.53-2.706l5.419-5.42C339.787,255.933,339.786,250.086,336.18,246.48"/>
<path d="M357.396,204.808c-3.604-3.605-9.451-3.605-13.058,0l-5.42,5.418c-3.605,3.605-3.606,9.452-0.001,13.059
	c1.803,1.803,4.167,2.706,6.53,2.706c2.362,0,4.727-0.902,6.528-2.705l5.419-5.418C361.001,214.262,361.002,208.415,357.396,204.808
	"/>
<path d="M263.02,207.516c-3.606-3.604-9.451-3.604-13.06,0l-5.42,5.42c-3.606,3.606-3.606,9.453,0,13.06
	c1.804,1.802,4.167,2.705,6.531,2.705c2.363,0,4.726-0.902,6.53-2.705l5.419-5.419C266.626,216.97,266.626,211.124,263.02,207.516"
	/>
<path d="M354.686,299.488c-3.604-3.607-9.453-3.605-13.059,0.001l-5.418,5.42c-3.605,3.606-3.605,9.453,0.001,13.06
	c1.803,1.803,4.166,2.705,6.528,2.705c2.363,0,4.728-0.903,6.529-2.706l5.419-5.42C358.293,308.942,358.292,303.095,354.686,299.488
	"/>
<path d="M326.696,332.345c-3.604-3.607-9.451-3.607-13.058-0.001l-5.42,5.419c-3.606,3.604-3.607,9.453-0.001,13.059
	c1.803,1.804,4.166,2.706,6.53,2.706c2.362,0,4.726-0.902,6.528-2.705l5.419-5.418C330.302,341.799,330.303,335.951,326.696,332.345
	"/>
<path d="M301.855,224.126c-3.606-3.605-9.452-3.605-13.061,0l-5.419,5.419c-3.605,3.606-3.605,9.453,0,13.061
	c1.803,1.802,4.167,2.704,6.529,2.704c2.363,0,4.728-0.902,6.53-2.704l5.42-5.42C305.462,233.58,305.462,227.732,301.855,224.126"/>
</svg>
