<?xml version="1.0" encoding="utf-8"?>
<!-- Generator: Adobe Illustrator 16.0.0, SVG Export Plug-In . SVG Version: 6.00 Build 0)  -->
<!DOCTYPE svg PUBLIC "-//W3C//DTD SVG 1.1//EN" "http://www.w3.org/Graphics/SVG/1.1/DTD/svg11.dtd">
<svg version="1.1" id="圖層_1" xmlns="http://www.w3.org/2000/svg" xmlns:xlink="http://www.w3.org/1999/xlink" x="0px" y="0px"
	 width="200px" height="200px" viewBox="0 0 200 200" enable-background="new 0 0 200 200" xml:space="preserve">
<path clip-rule="evenodd" d="M188.848,46.84c0,41.865,0,83.73,0,125.595c-1.815,3.531-4.429,6.191-8.235,7.549
	c-53.075,0-106.15,0-159.225,0c-3.808-1.357-6.421-4.018-8.236-7.549c0-41.865,0-83.73,0-125.595
	c2.643-5.711,7.077-7.861,13.361-7.73c13.447,0.281,26.905,0.09,40.358,0.078c1.421-0.001,2.711,0.306,3.294-1.893
	c1.789-6.748,6.183-11.706,12.392-14.572c4.534-2.093,9.533-3.175,14.325-4.708c2.746,0,5.491,0,8.236,0
	c2.05,0.459,4.121,0.84,6.146,1.391c9.206,2.504,16.8,7.181,20.117,16.614c0.976,2.775,2.227,3.246,4.774,3.225
	c13.111-0.105,26.227,0.148,39.332-0.135C181.771,38.974,186.205,41.129,188.848,46.84z M100.904,46.249
	c-25.046,0-50.093-0.004-75.14,0.005c-4.422,0.002-5.646,1.236-5.65,5.68c-0.013,12.581-0.005,25.161-0.004,37.741
	c0,6.177-0.04,12.351,0.022,18.527c0.025,2.471,0.649,4.549,3.817,4.545c19.1-0.025,38.199,0.012,57.298-0.098
	c0.837-0.006,2.164-1.105,2.417-1.949c1.488-4.973,5.051-8.117,10.056-8.232c4.916-0.113,9.838-0.125,14.752,0.006
	c4.438,0.119,8.977,3.408,9.578,7.436c0.419,2.803,1.798,2.857,3.923,2.854c18.069-0.047,36.141-0.025,54.21-0.027
	c4.964,0,5.702-0.73,5.704-5.752c0.009-18.183,0.006-36.369,0.002-54.553c-0.001-5.089-1.091-6.179-6.186-6.179
	C150.77,46.248,125.837,46.249,100.904,46.249z M20.109,120.266c0,0.861,0,1.965,0,3.066c0,14.518-0.008,29.033,0.004,43.551
	c0.004,4.709,1.335,6.125,6.133,6.127c49.839,0.025,99.677,0.027,149.517,0c4.791-0.004,6.117-1.422,6.121-6.137
	c0.012-14.518,0.012-29.035-0.01-43.553c-0.002-1.164-0.205-2.328-0.301-3.334c-2.286,0.109-4.072,0.268-5.859,0.268
	c-17.946,0.02-35.894,0.021-53.84-0.002c-1.909-0.002-3.355-0.117-3.783,2.596c-0.686,4.354-4.715,7.566-9.214,7.709
	c-5.251,0.17-10.516,0.164-15.768,0c-4.328-0.135-8.491-3.295-9.14-7.383c-0.431-2.719-1.648-2.949-3.857-2.941
	c-17.833,0.061-35.665,0.033-53.497,0.033C24.72,120.266,22.824,120.266,20.109,120.266z M124.355,38.995
	c-1.435-8.582-12.246-13.888-26.993-13.424c-9.079,0.286-19.78,7.385-19.606,13.424C93.211,38.995,108.674,38.995,124.355,38.995z
	 M100.817,123.611c0.342,0,0.686-0.008,1.027,0.002c10.898,0.262,9.33-0.371,9.484-9.828c0.049-2.961-1.645-4.211-4.149-4.332
	c-4.104-0.199-8.233-0.195-12.338-0.002c-2.502,0.117-4.218,1.348-4.169,4.313c0.154,9.457-1.432,10.115,9.459,9.85
	C100.359,123.607,100.588,123.611,100.817,123.611z"/>
</svg>
