<?xml version="1.0" encoding="utf-8"?>
<!-- Generator: Adobe Illustrator 21.1.0, SVG Export Plug-In . SVG Version: 6.00 Build 0)  -->
<svg version="1.1" id="圖層_1" xmlns="http://www.w3.org/2000/svg" xmlns:xlink="http://www.w3.org/1999/xlink" x="0px" y="0px"
	 viewBox="0 0 200 200" style="enable-background:new 0 0 200 200;" xml:space="preserve">
<g>
	<path class="st0" d="M175.8,62.2c0-0.4-0.1-0.9-0.3-1.3c0-0.8-0.2-1.6-0.8-2.3l-21.1-24.8v-17c0-1.1-0.5-2-1.3-2.7
		c-0.5-1.3-1.7-2.3-3.2-2.3H50.6c-1.9,0-3.4,1.5-3.4,3.4c0,0.4,0.1,0.8,0.2,1.1c0,0.1,0,0.3,0,0.4v17L26.3,58.7
		c-0.5,0.6-0.7,1.2-0.8,1.9c-0.3,0.5-0.5,1.1-0.5,1.7c0,9.9,7.1,18.3,17.1,21.9v59c0,3.3,2.7,5.9,6,5.9h103.3c3.3,0,6-2.7,6-5.9
		V84.6C168.1,81.4,175.8,72.6,175.8,62.2z M54.1,31.8V18.7H147v13.1H54.1z M150.6,142.3H48.9V85.6c1.2,0.1,2.4,0.2,3.6,0.2
		c0.8,0,1.5,0,2.2-0.1v30.9c0,2.5,2.1,4.5,4.6,4.5h50c2.5,0,4.6-2,4.6-4.5V84.2c0-0.5-0.1-0.9-0.3-1.3c4.5-2.2,8.3-5.4,10.8-9.3
		c4.7,7.3,13.7,12.3,24,12.3c0.7,0,1.4,0,2.1-0.1V142.3z M76.4,73.6c4.7,7.3,13.7,12.3,24,12.3c2.3,0,4.6-0.3,6.7-0.7v29.3H61.4
		V84.5C67.8,82.6,73.2,78.7,76.4,73.6z M148.5,79.1c-11.4,0-20.6-7.6-20.6-16.9c0-1.9-1.5-3.4-3.4-3.4c-1.9,0-3.4,1.5-3.4,3.4
		c0,9.3-9.3,16.9-20.6,16.9c-11.4,0-20.6-7.6-20.6-16.9c0-1.9-1.5-3.4-3.4-3.4c-1.9,0-3.4,1.5-3.4,3.4c0,9.3-9.3,16.9-20.6,16.9
		c-11.2,0-20.4-7.4-20.6-16.5l20.4-24.1h26.7l-3.8,9.1c-0.7,1.7,0.1,3.7,1.8,4.4c0.4,0.2,0.9,0.3,1.3,0.3c1.3,0,2.6-0.8,3.1-2.1
		l4.8-11.4c0-0.1,0-0.1,0.1-0.2h30.3l3.6,11.5c0.5,1.4,1.8,2.4,3.2,2.4c0.3,0,0.7-0.1,1-0.2c1.8-0.6,2.8-2.5,2.2-4.2l-3-9.5h25.2
		l20.2,23.8C169,71.6,159.8,79.1,148.5,79.1z"/>
	<path class="st0" d="M164.6,121.7v6.4c13.7,6,18.6,13.6,18.6,21.1c0,15.3-33.4,31.8-83.2,31.8c-49.8,0-83.2-16.4-83.2-31.8
		c0-6.8,4.6-13.9,16.4-19.6v-6.5C18.1,129.8,11,139,11,149.2c0,21.2,39.1,37.8,89,37.8s89-16.6,89-37.8
		C189,138.3,181.6,128.6,164.6,121.7z"/>
</g>
</svg>
