<?xml version="1.0" encoding="utf-8"?>
<!-- Generator: Adobe Illustrator 16.0.0, SVG Export Plug-In . SVG Version: 6.00 Build 0)  -->
<!DOCTYPE svg PUBLIC "-//W3C//DTD SVG 1.1//EN" "http://www.w3.org/Graphics/SVG/1.1/DTD/svg11.dtd">
<svg version="1.1" id="圖層_1" xmlns="http://www.w3.org/2000/svg" xmlns:xlink="http://www.w3.org/1999/xlink" x="0px" y="0px"
	 width="200px" height="200px" viewBox="0 0 200 200" enable-background="new 0 0 200 200" xml:space="preserve">
<g>
	<g>
		<path fill="#231815" d="M133.402,190.035c-27.1,0-57.83-14.547-82.196-38.916C17.487,117.406,3.701,72.92,17.673,42.951
			c2.807-6.017,9.123-10.219,15.364-10.219c3.315,0,6.353,1.206,8.545,3.399l21.782,21.746c2.187,2.179,3.392,5.205,3.392,8.516
			c0.004,4.203-1.9,8.515-5.212,11.834l-7.656,7.653c-2.522,2.522-2.763,5.497-1.824,6.448l57.948,57.944
			c0.423,0.424,1.089,0.513,1.575,0.513l0,0c1.563,0,3.431-0.9,4.871-2.339l7.59-7.596c5.922-5.92,15.374-6.775,20.335-1.834
			l21.767,21.709c2.79,2.784,3.945,6.826,3.164,11.082c-1.009,5.546-5.157,10.699-10.559,13.134
			C151.245,188.317,142.715,190.035,133.402,190.035z M33.037,42.563c-2.105,0-5.08,1.593-6.453,4.54
			c-12.068,25.883,1.209,66.708,31.573,97.063c22.565,22.564,50.692,36.037,75.241,36.037c7.917,0,15.088-1.426,21.322-4.232
			c2.893-1.301,4.556-3.918,4.928-5.928c0.131-0.747,0.165-1.754-0.44-2.362l-21.766-21.702c-0.42-0.424-1.086-0.512-1.567-0.512
			c-1.564,0-3.429,0.893-4.871,2.332l-7.593,7.594c-3.311,3.319-7.622,5.212-11.821,5.212c0,0,0,0-0.004,0
			c-3.309,0-6.338-1.198-8.524-3.385L45.115,99.27c-5.193-5.19-4.389-14.129,1.828-20.342l7.653-7.653
			c1.44-1.44,2.336-3.311,2.332-4.875c0-0.49-0.088-1.148-0.508-1.564L34.635,43.082C34.291,42.739,33.75,42.563,33.037,42.563z"/>
	</g>
	<g>
		<path fill="#231815" d="M153.079,101.193c-2.714,0-4.915-2.2-4.915-4.918c-0.004-25.767-20.964-46.722-46.73-46.731
			c-2.719,0-4.919-2.2-4.919-4.913c0-2.718,2.2-4.918,4.919-4.918l0,0c31.187,0,56.563,25.378,56.564,56.562
			C158,98.994,155.796,101.193,153.079,101.193z"/>
	</g>
	<g>
		<path fill="#231815" d="M182.395,97.722c-2.712,0-4.911-2.2-4.911-4.919c0-40.02-32.562-72.577-72.581-72.577
			c-2.719,0-4.919-2.2-4.919-4.92c0-2.711,2.2-4.912,4.919-4.912c45.437,0,82.412,36.973,82.412,82.408
			C187.314,95.521,185.114,97.722,182.395,97.722z"/>
	</g>
</g>
</svg>
