<?xml version="1.0" encoding="utf-8"?>
<!-- Generator: Adobe Illustrator 16.0.0, SVG Export Plug-In . SVG Version: 6.00 Build 0)  -->
<!DOCTYPE svg PUBLIC "-//W3C//DTD SVG 1.1//EN" "http://www.w3.org/Graphics/SVG/1.1/DTD/svg11.dtd">
<svg version="1.1" id="圖層_1" xmlns="http://www.w3.org/2000/svg" xmlns:xlink="http://www.w3.org/1999/xlink" x="0px" y="0px"
	 width="200px" height="200px" viewBox="0 0 200 200" enable-background="new 0 0 200 200" xml:space="preserve">
<path d="M170.772,155.664H29.236c-8.231,0-14.903-6.672-14.903-14.901V51.369c0-8.225,6.672-14.899,14.903-14.899
	h141.537c8.229,0,14.895,6.674,14.895,14.899v89.394C185.675,148.992,179.002,155.664,170.772,155.664 M21.788,84.892H178.22V69.996
	H21.788V84.892z M178.22,51.369c0-4.113-3.324-7.448-7.447-7.448H29.236c-4.112,0-7.448,3.334-7.448,7.448v11.179H178.22V51.369z
	 M178.22,92.337H21.788v48.426c0,4.115,3.336,7.447,7.448,7.447h141.537c4.123,0,7.447-3.332,7.447-7.447V92.337z M107.451,114.691
	H92.556c-2.06,0-3.724-1.668-3.724-3.724s1.664-3.729,3.724-3.729h14.895c2.06,0,3.725,1.673,3.725,3.729
	S109.511,114.691,107.451,114.691 M73.929,114.691H40.407c-2.06,0-3.724-1.668-3.724-3.724s1.665-3.729,3.724-3.729h33.522
	c2.06,0,3.724,1.673,3.724,3.729S75.989,114.691,73.929,114.691 M40.407,125.866h22.351c2.06,0,3.724,1.664,3.724,3.726
	c0,2.051-1.664,3.724-3.724,3.724H40.407c-2.06,0-3.724-1.673-3.724-3.724C36.683,127.53,38.348,125.866,40.407,125.866"/>
</svg>
