<?xml version="1.0" encoding="utf-8"?>
<!-- Generator: Adobe Illustrator 16.0.0, SVG Export Plug-In . SVG Version: 6.00 Build 0)  -->
<!DOCTYPE svg PUBLIC "-//W3C//DTD SVG 1.1//EN" "http://www.w3.org/Graphics/SVG/1.1/DTD/svg11.dtd">
<svg version="1.1" id="Layer_1" xmlns="http://www.w3.org/2000/svg" xmlns:xlink="http://www.w3.org/1999/xlink" x="0px" y="0px"
	 width="200px" height="200px" viewBox="0 0 200 200" enable-background="new 0 0 200 200" xml:space="preserve">
<g>
	<path d="M106.428,133.169c0-0.335-0.066-0.651-0.166-0.954c-0.019-0.708-0.261-1.387-0.726-1.936l-13.035-15.357v-10.337
		c0-0.899-0.389-1.707-1.001-2.276c-0.496-1.07-1.574-1.819-2.83-1.819H26.595c-1.722,0-3.123,1.399-3.123,3.12
		c0,0.281,0.049,0.55,0.12,0.81c-0.003,0.058-0.017,0.108-0.017,0.167v10.335l-13.036,15.36c-0.374,0.439-0.603,0.966-0.692,1.521
		c-0.204,0.415-0.329,0.875-0.329,1.367c0,6.422,4.422,11.952,10.751,14.442v36.445c0,2.604,2.13,4.721,4.748,4.721H90.03
		c2.618,0,4.747-2.117,4.747-4.721v-36.119C101.582,145.636,106.428,139.893,106.428,133.169z M88.195,142.779
		c-6.611,0-11.989-4.312-11.989-9.61c0-1.722-1.401-3.122-3.123-3.122c-1.721,0-3.121,1.4-3.121,3.122c0,5.3-5.378,9.61-11.988,9.61
		c-6.611,0-11.99-4.312-11.99-9.61c0-1.722-1.4-3.122-3.122-3.122c-1.721,0-3.121,1.4-3.121,3.122c0,5.3-5.378,9.61-11.989,9.61
		c-6.374,0-11.587-4.01-11.955-9.047L28.1,119.238h14.832l-1.805,4.314c-0.322,0.771-0.325,1.618-0.008,2.389
		c0.317,0.771,0.915,1.373,1.682,1.694c0.383,0.161,0.789,0.243,1.206,0.243c1.261,0,2.392-0.752,2.881-1.917l2.812-6.726h17.67
		l2.071,6.535c0.412,1.306,1.606,2.183,2.974,2.183c0.319,0,0.638-0.05,0.944-0.147c0.795-0.252,1.444-0.798,1.828-1.537
		c0.384-0.74,0.457-1.586,0.205-2.381l-1.474-4.65h14.059l12.181,14.352C99.879,138.693,94.628,142.779,88.195,142.779z
		 M26.512,148.969c0.411,0.024,0.821,0.055,1.239,0.055c0.137,0,0.269-0.016,0.405-0.018v18.398c0,2.129,1.753,3.859,3.908,3.859
		H63.54c2.154,0,3.907-1.73,3.907-3.859v-20.428c0-0.095-0.02-0.183-0.027-0.272c2.249-1.19,4.191-2.779,5.664-4.673
		c3.281,4.216,8.83,6.992,15.111,6.992c0.114,0,0.224-0.014,0.337-0.016v33.525h-62.02V148.969z M42.862,142.031
		c3.281,4.216,8.83,6.992,15.112,6.992c1.104,0,2.18-0.101,3.23-0.266v16.264H34.399v-17.105
		C37.856,146.732,40.808,144.671,42.862,142.031z M86.257,112.994h-56.44v-6.262h56.439L86.257,112.994L86.257,112.994z"/>
	<path d="M189.453,42.227c0-0.335-0.066-0.651-0.165-0.954c-0.019-0.709-0.261-1.387-0.726-1.936l-13.035-15.358V13.643
		c0-0.901-0.389-1.707-1.002-2.277c-0.496-1.071-1.573-1.82-2.83-1.82h-62.074c-1.723,0-3.123,1.4-3.123,3.121
		c0,0.281,0.05,0.549,0.119,0.808c-0.003,0.057-0.018,0.11-0.018,0.167v10.335l-13.036,15.36c-0.374,0.44-0.603,0.966-0.692,1.522
		c-0.204,0.415-0.329,0.875-0.329,1.367c0,6.422,4.422,11.953,10.751,14.442v36.447c0,2.603,2.13,4.72,4.748,4.72h65.013
		c2.617,0,4.748-2.117,4.748-4.72v-36.12C184.607,54.694,189.453,48.95,189.453,42.227z M171.223,51.838
		c-6.611,0-11.99-4.312-11.99-9.611c0-1.722-1.4-3.122-3.123-3.122c-1.721,0-3.121,1.4-3.121,3.122c0,5.3-5.377,9.611-11.987,9.611
		s-11.989-4.312-11.989-9.611c0-1.722-1.4-3.122-3.123-3.122c-1.721,0-3.121,1.4-3.121,3.122c0,5.3-5.377,9.611-11.988,9.611
		c-6.375,0-11.587-4.011-11.955-9.048l12.303-14.494h14.831l-1.806,4.315c-0.321,0.77-0.324,1.618-0.008,2.389
		c0.315,0.771,0.914,1.373,1.682,1.693c0.384,0.162,0.79,0.244,1.205,0.244c1.263,0,2.394-0.752,2.883-1.917l2.813-6.725h17.67
		l2.07,6.535c0.412,1.305,1.607,2.182,2.975,2.182c0.32,0,0.639-0.05,0.945-0.148c0.795-0.252,1.443-0.798,1.827-1.538
		c0.384-0.74,0.457-1.585,0.205-2.38l-1.476-4.651h14.061l12.182,14.352C182.904,47.752,177.654,51.838,171.223,51.838z
		 M109.538,58.027c0.411,0.024,0.821,0.055,1.239,0.055c0.137,0,0.27-0.015,0.404-0.018v18.4c0,2.128,1.754,3.859,3.908,3.859
		h31.477c2.154,0,3.906-1.731,3.906-3.859V56.035c0-0.093-0.02-0.181-0.027-0.273c2.25-1.191,4.191-2.779,5.664-4.672
		c3.281,4.215,8.83,6.992,15.111,6.992c0.113,0,0.225-0.013,0.338-0.015v33.525h-62.021L109.538,58.027L109.538,58.027z
		 M125.889,51.089c3.28,4.216,8.83,6.992,15.111,6.992c1.104,0,2.18-0.1,3.23-0.264V74.08h-26.806V56.975
		C120.883,55.792,123.834,53.729,125.889,51.089z M169.283,22.052h-56.439V15.79h56.439V22.052z"/>
</g>
</svg>
