<?xml version="1.0" encoding="utf-8"?>
<!-- Generator: Adobe Illustrator 16.0.0, SVG Export Plug-In . SVG Version: 6.00 Build 0)  -->
<!DOCTYPE svg PUBLIC "-//W3C//DTD SVG 1.1//EN" "http://www.w3.org/Graphics/SVG/1.1/DTD/svg11.dtd">
<svg version="1.1" id="Layer_1" xmlns="http://www.w3.org/2000/svg" xmlns:xlink="http://www.w3.org/1999/xlink" x="0px" y="0px"
	 width="200px" height="200px" viewBox="0 0 200 200" enable-background="new 0 0 200 200" xml:space="preserve">
<g>
	<path d="M53.291,129.225c0.857,0.543,1.812,0.798,2.756,0.798c1.717,0,3.398-0.855,4.382-2.414l22.949-36.385l16.241,23.278
		c0.864,1.242,2.233,2.043,3.738,2.19c1.513,0.149,3.006-0.373,4.096-1.424l23.456-22.601l17.213,16.232
		c1.241,1.172,2.988,1.651,4.663,1.288c1.672-0.37,3.054-1.543,3.691-3.132L184.08,38.05c1.06-2.654-0.228-5.665-2.885-6.728
		c-2.651-1.059-5.661,0.23-6.726,2.884l-24.78,61.945l-15.269-14.399c-2.011-1.898-5.152-1.879-7.139,0.038l-22.643,21.819
		L87.405,78.904c-0.992-1.421-2.57-2.308-4.364-2.212c-1.734,0.041-3.333,0.946-4.257,2.413l-27.11,42.981
		C50.15,124.506,50.874,127.7,53.291,129.225z"/>
	<polygon points="188.843,147.962 35.694,147.962 35.694,24.738 25.343,24.738 25.343,44.413 9.673,44.413 9.673,54.763 
		25.343,54.763 25.343,86.108 9.673,86.108 9.673,96.459 25.343,96.459 25.343,127.804 9.673,127.804 9.673,138.155 25.343,138.155 
		25.343,147.962 25.343,157.822 25.343,158.313 46.4,158.313 46.4,173.406 56.75,173.406 56.75,158.313 83.496,158.313 
		83.496,173.406 93.847,173.406 93.847,158.313 120.596,158.313 120.596,173.406 130.946,173.406 130.946,158.313 157.692,158.313 
		157.692,173.406 168.043,173.406 168.043,158.313 188.843,158.313 	"/>
</g>
</svg>
