<?xml version="1.0" encoding="utf-8"?>
<!-- Generator: Adobe Illustrator 16.0.0, SVG Export Plug-In . SVG Version: 6.00 Build 0)  -->
<!DOCTYPE svg PUBLIC "-//W3C//DTD SVG 1.1//EN" "http://www.w3.org/Graphics/SVG/1.1/DTD/svg11.dtd">
<svg version="1.1" id="圖層_1" xmlns="http://www.w3.org/2000/svg" xmlns:xlink="http://www.w3.org/1999/xlink" x="0px" y="0px"
	 width="200px" height="200px" viewBox="0 0 200 200" enable-background="new 0 0 200 200" xml:space="preserve">
<path d="M178.159,40.442c-6.148,0-11.159,5.01-11.159,11.168v48.388h-26.06c-6.156,0-11.165,5.001-11.165,11.168
	c0,6.155,5.009,11.159,11.165,11.159h18.612v29.784h-11.165c-2.063,0-3.725,1.662-3.725,3.718c0,2.062,1.662,3.724,3.725,3.724
	h29.771c2.063,0,3.725-1.662,3.725-3.724c0-2.056-1.662-3.718-3.725-3.718H167v-29.784h11.159c6.161,0,11.172-5.004,11.172-11.159
	V51.61C189.331,45.452,184.32,40.442,178.159,40.442 M181.884,111.167c0,2.049-1.668,3.717-3.725,3.717H140.94
	c-2.05,0-3.725-1.668-3.725-3.717c0-2.057,1.675-3.725,3.725-3.725h29.778c2.061,0,3.723-1.668,3.723-3.724V51.61
	c0-2.053,1.662-3.724,3.718-3.724c2.057,0,3.725,1.67,3.725,3.724V111.167z"/>
<path d="M59.059,99.999H32.999V51.61c0-6.158-5.01-11.168-11.165-11.168c-6.155,0-11.166,5.01-11.166,11.168v59.557
	c0,6.155,5.01,11.165,11.166,11.165h11.165v29.778H21.833c-2.056,0-3.718,1.662-3.718,3.718c0,2.062,1.662,3.724,3.718,3.724h29.778
	c2.062,0,3.73-1.662,3.73-3.724c0-2.056-1.668-3.718-3.73-3.718H40.446v-29.778h18.613c6.155,0,11.159-5.01,11.159-11.165
	C70.218,105.006,65.214,99.999,59.059,99.999 M59.059,114.884H21.833c-2.05,0-3.718-1.668-3.718-3.717V51.61
	c0-2.053,1.667-3.724,3.718-3.724c2.056,0,3.724,1.67,3.724,3.724v52.114c0,2.05,1.662,3.718,3.724,3.718h29.778
	c2.056,0,3.718,1.668,3.718,3.725C62.777,113.216,61.115,114.884,59.059,114.884"/>
<path d="M110.115,95.727c3.25,1.998,6.949,4.266,14.059,4.266c7.104,0,10.796-2.268,14.052-4.266
	c2.881-1.779,5.164-3.17,10.162-3.17c2.056,0,3.718-1.671,3.718-3.727V77.662c0-8.205-6.672-14.886-14.89-14.886H62.777
	c-8.211,0-14.889,6.681-14.889,14.886V88.83c0,2.056,1.668,3.727,3.724,3.727c4.986,0,7.257,1.391,10.131,3.17
	c3.25,1.998,6.943,4.266,14.034,4.266c7.103,0,10.783-2.268,14.046-4.266c2.044-1.268,3.828-2.314,6.45-2.825v59.209H81.39
	c-2.056,0-3.729,1.668-3.729,3.718c0,2.062,1.674,3.729,3.729,3.729h37.214c2.062,0,3.729-1.668,3.729-3.729
	c0-2.05-1.668-3.718-3.729-3.718H103.72V92.923C106.318,93.44,108.084,94.471,110.115,95.727 M99.954,85.106
	c-7.091,0-10.784,2.274-14.04,4.28c-2.874,1.77-5.14,3.17-10.138,3.17c-4.985,0-7.251-1.4-10.131-3.17
	c-2.634-1.622-5.54-3.416-10.316-4.047v-7.678c0-4.103,3.342-7.436,7.448-7.436h74.439c4.105,0,7.447,3.333,7.447,7.436v7.678
	c-4.782,0.631-7.699,2.425-10.334,4.047c-2.88,1.77-5.158,3.17-10.155,3.17c-5.005,0-7.281-1.4-10.162-3.17
	C110.755,87.38,107.057,85.106,99.954,85.106"/>
</svg>
