<?xml version="1.0" encoding="utf-8"?>
<!-- Generator: Adobe Illustrator 16.0.0, SVG Export Plug-In . SVG Version: 6.00 Build 0)  -->
<!DOCTYPE svg PUBLIC "-//W3C//DTD SVG 1.1//EN" "http://www.w3.org/Graphics/SVG/1.1/DTD/svg11.dtd">
<svg version="1.1" id="圖層_1" xmlns="http://www.w3.org/2000/svg" xmlns:xlink="http://www.w3.org/1999/xlink" x="0px" y="0px"
	 width="200px" height="200px" viewBox="0 0 200 200" enable-background="new 0 0 200 200" xml:space="preserve">
<path d="M167.85,48.641C160.546,39.336,149.021,34,136.231,34c-11.135,0-22.377,4.011-31.652,11.293
	C85.168,60.532,72.563,87.854,69.163,95.868c-2.975,7.009-3.985,13.082-3.05,18.509c-0.325,0.121-0.64,0.279-0.928,0.504
	l-12.43,9.76c-0.741,0.582-1.797,0.6-2.689,0.045c-6.247-3.873-14.133-3.182-19.625,1.727c-5.962,5.33-7.19,14.412-2.858,21.123
	c1.67,2.59,3.987,4.633,6.73,5.943c0.623,2.977,2.058,5.713,4.176,7.949c3.17,3.35,7.544,5.086,11.945,5.084
	c3.226,0,6.466-0.932,9.254-2.848c6.072-4.168,8.617-11.664,6.334-18.652c-0.326-1-0.057-2.021,0.683-2.604l12.573-9.869
	c0.275-0.217,0.494-0.473,0.686-0.744c3.398,1.467,7.264,2.227,11.516,2.227h0.001c1.825,0,3.743-0.139,5.702-0.41
	c0.364-0.051,36.696-5.279,58.902-22.713c9.946-7.811,16.677-18.53,18.946-30.185C177.341,68.869,174.789,57.479,167.85,48.641
	 M62.381,136.904c-3.033,2.381-4.243,6.512-3.014,10.279c1.31,4.012-0.154,8.314-3.643,10.711
	c-3.778,2.598-9.003,2.047-12.152-1.279c-1.318-1.393-2.177-3.111-2.482-4.969c-0.316-1.936-1.581-3.549-3.385-4.314
	c-1.735-0.738-3.202-1.98-4.242-3.592c-2.483-3.846-1.777-9.053,1.643-12.109c3.154-2.82,7.682-3.221,11.27-0.996
	c3.368,2.092,7.67,1.893,10.701-0.49l11.411-8.957c0.67,1.23,1.448,2.434,2.366,3.604c0.903,1.148,1.893,2.193,2.963,3.135
	L62.381,136.904z M168.161,79.375c-1.949,10.006-7.773,19.246-16.398,26.018c-20.738,16.279-55.202,21.236-55.547,21.285
	c-1.639,0.229-3.233,0.344-4.735,0.344h-0.001c-6.618,0-11.705-2.205-15.119-6.553c-4.504-5.738-4.736-12.482-0.755-21.866
	c3.237-7.624,15.201-33.596,33.296-47.803C116.95,44.48,126.655,41,136.231,41c10.626,0,20.144,4.36,26.113,11.962
	C168.009,60.178,170.073,69.558,168.161,79.375"/>
<path d="M108.474,103.291c-2.209,0-4,1.791-4,4s1.791,4,4,4s4-1.791,4-4S110.683,103.291,108.474,103.291"/>
<path d="M109.098,81.958c0-2.21-1.79-4-4-4c-2.209,0-4,1.79-4,4c0,2.209,1.791,4,4,4C107.308,85.958,109.098,84.167,109.098,81.958"
	/>
<path d="M145.807,57.958c-2.209,0-4,1.79-4,4c0,2.209,1.791,4,4,4s4-1.791,4-4C149.807,59.749,148.016,57.958,145.807,57.958"/>
<path d="M127.807,61.958c0-2.21-1.791-4-4-4s-4,1.79-4,4c0,2.209,1.791,4,4,4S127.807,64.167,127.807,61.958"/>
<path d="M145.807,77.958c-2.209,0-4,1.79-4,4c0,2.209,1.791,4,4,4s4-1.791,4-4C149.807,79.749,148.016,77.958,145.807,77.958"/>
<path d="M127.807,88.616c-2.209,0-4,1.791-4,4s1.791,4,4,4s4-1.791,4-4S130.016,88.616,127.807,88.616"/>
<path d="M87.154,103.291c-2.209,0-4,1.791-4,4s1.791,4,4,4c2.21,0,4-1.791,4-4S89.364,103.291,87.154,103.291"/>
</svg>
