<?xml version="1.0" encoding="utf-8"?>
<!-- Generator: Adobe Illustrator 16.0.0, SVG Export Plug-In . SVG Version: 6.00 Build 0)  -->
<!DOCTYPE svg PUBLIC "-//W3C//DTD SVG 1.1//EN" "http://www.w3.org/Graphics/SVG/1.1/DTD/svg11.dtd">
<svg version="1.1" id="圖層_1" xmlns="http://www.w3.org/2000/svg" xmlns:xlink="http://www.w3.org/1999/xlink" x="0px" y="0px"
	 width="200px" height="200px" viewBox="0 0 200 200" enable-background="new 0 0 200 200" xml:space="preserve">
<path fill="#040000" d="M101,21.614c-44.024,0-79.386,35.362-79.386,79.386c0,44.021,35.362,79.386,79.386,79.386
	c44.034,0,79.386-35.365,79.386-79.386C180.386,56.976,145.034,21.614,101,21.614 M101,165.952
	c-36.084,0-64.952-28.868-64.952-64.952c0-36.084,28.868-64.952,64.952-64.952c36.084,0,64.952,28.868,64.952,64.952
	C165.952,137.084,137.084,165.952,101,165.952 M120.487,81.513l-25.259,25.259L85.122,96.669c-2.886-2.886-7.217-2.886-10.103,0
	c-2.886,2.886-2.886,7.221,0,10.104l15.156,15.159c2.886,2.883,7.217,2.883,10.103,0l30.309-30.312c2.883-2.89,2.883-7.217,0-10.106
	C127.704,78.627,122.65,78.627,120.487,81.513"/>
</svg>
