<?xml version="1.0" encoding="utf-8"?>
<!-- Generator: Adobe Illustrator 16.0.0, SVG Export Plug-In . SVG Version: 6.00 Build 0)  -->
<!DOCTYPE svg PUBLIC "-//W3C//DTD SVG 1.1//EN" "http://www.w3.org/Graphics/SVG/1.1/DTD/svg11.dtd">
<svg version="1.1" id="圖層_1" xmlns="http://www.w3.org/2000/svg" xmlns:xlink="http://www.w3.org/1999/xlink" x="0px" y="0px"
	 width="200px" height="200px" viewBox="0 0 200 200" enable-background="new 0 0 200 200" xml:space="preserve">
<path d="M22.96,183.993c-2.575-1.003-4.692-2.481-5.3-5.398c-0.145-0.682-0.202-1.386-0.202-2.089
	c-0.01-27.385-0.01-54.77-0.005-82.146c0-4.638,2.821-7.474,7.508-7.518c4.558-0.042,9.111-0.042,13.667,0.005
	c1.164,0.016,2.001-0.29,2.849-1.137c15.386-15.44,30.8-30.854,46.235-46.246c0.784-0.789,1.006-1.339,0.476-2.464
	c-2.446-5.161-1.399-11.156,2.489-15.223c3.917-4.108,9.843-5.427,15.097-3.361c5.232,2.061,8.853,7.094,8.733,12.728
	c-0.036,2.05-0.781,4.116-1.412,6.107c-0.269,0.851-0.269,1.313,0.373,1.947c15.657,15.626,31.278,31.283,46.972,46.892
	c0.45,0.458,1.323,0.701,1.996,0.711c4.116,0.062,8.247,0.196,12.363-0.01c4.38-0.212,7.596,1.168,9.204,5.463v86.218
	c-0.946,2.741-2.776,4.592-5.533,5.522C126.639,183.993,74.798,183.993,22.96,183.993 M177.121,93.884H24.396
	c-0.034,0.646-0.085,1.177-0.085,1.707c0,26.622,0.005,53.242-0.031,79.872c-0.005,1.396,0.46,1.675,1.763,1.675
	c49.612-0.021,99.22-0.021,148.83-0.021c2.229,0,2.239,0,2.239-2.172c0.005-26.392,0.01-52.805,0.01-79.207V93.884z M151.423,86.72
	c-2.793-2.733-5.265-5.125-7.7-7.555c-11.624-11.608-23.242-23.225-34.83-34.856c-0.786-0.784-1.35-0.949-2.482-0.53
	c-1.846,0.672-3.867,1.309-5.791,1.244c-2.358-0.08-4.701-0.889-6.839-1.339C79.468,57.996,65.077,72.376,50.73,86.72H151.423z
	 M93.786,31.33c0.031,3.912,3.146,6.978,7.045,6.932c3.811-0.054,6.82-3.146,6.81-6.996c-0.005-3.875-3.2-7.03-7.042-6.952
	C96.787,24.393,93.76,27.516,93.786,31.33"/>
<path d="M102.273,118.903c8.765-0.021,14.06,4.478,15.053,13.258c0.336,2.958,0.155,6.091-0.45,9.008
	c-1.411,6.836-6.712,10.662-14.261,10.796c-9.285,0.166-15.179-5.325-15.523-14.612c-0.088-2.42-0.021-4.902,0.445-7.271
	C88.966,122.822,94.246,118.924,102.273,118.903 M112.289,135.439c-0.501-2.307-0.755-4.768-1.603-7.012
	c-1.36-3.609-4.364-5.036-8.113-5.078c-3.832-0.052-7.035,1.189-8.596,4.902c-1.986,4.685-1.97,9.535-0.044,14.24
	c1.551,3.796,4.793,5.088,8.682,5.037c4.043-0.053,6.965-1.862,8.222-5.45C111.55,140.011,111.793,137.776,112.289,135.439"/>
<path d="M149.995,119.41h18.237v4.343H155.27v8.78h12.11v4.385c-3.278,0-6.505-0.01-9.747,0c-2.689,0-2.451-0.31-2.451,2.399
	c0,2.12,0.052,4.24-0.016,6.34c-0.036,1.147,0.347,1.51,1.484,1.489c3.247-0.063,6.5-0.031,9.763-0.031h1.846v4.261h-18.264V119.41z
	"/>
<path d="M143.025,120.899c-0.605,1.51-1.128,2.813-1.593,3.96c-2.44-0.496-4.731-1.064-7.063-1.406
	c-1.039-0.155-2.167,0.042-3.206,0.27c-1.422,0.31-2.461,1.22-2.761,2.678c-0.342,1.624-0.141,3.227,1.339,4.23
	c1.329,0.899,2.808,1.603,4.25,2.326c1.795,0.9,3.666,1.635,5.404,2.617c2.849,1.603,4.183,4.146,4.115,7.404
	c-0.077,3.392-1.566,6.019-4.633,7.446c-5.108,2.357-10.331,1.893-15.513,0.134c-0.336-0.113-0.713-0.672-0.744-1.044
	c-0.094-1.282-0.031-2.575-0.031-3.848c2.472,0.601,4.793,1.345,7.177,1.686c1.681,0.238,3.465,0.104,5.15-0.176
	c1.701-0.278,2.932-1.375,3.242-3.205c0.315-1.852-0.284-3.382-1.893-4.323c-1.536-0.899-3.18-1.613-4.772-2.42
	c-1.546-0.775-3.165-1.427-4.603-2.379c-3.252-2.13-4.354-5.284-3.718-9.038c0.6-3.506,2.984-5.44,6.236-6.329
	C134.049,118.21,138.506,119.089,143.025,120.899"/>
<path d="M56.462,146.216c0.101,0.33,0.158,0.434,0.158,0.537c-0.052,4.488,0.9,3.889-3.7,4.695
	c-2.738,0.466-5.644,0.559-8.387,0.187c-5.517-0.766-9.054-4.116-10.574-9.483c-1.238-4.375-1.303-8.771,0.052-13.145
	c1.843-5.915,6.634-9.639,12.836-10.042c4.214-0.279,8.261,0.497,10.95,2.141c-0.572,1.293-1.156,2.617-1.81,4.105
	c-0.949-0.352-1.817-0.837-2.728-0.972c-2.288-0.311-4.644-0.899-6.867-0.59c-3.956,0.538-6.148,3.382-7.149,7.115
	c-0.884,3.247-0.822,6.547,0.016,9.804c1.117,4.354,4.273,6.93,8.847,6.919c2.244-0.011,4.496-0.568,6.735-0.899
	C55.361,146.505,55.868,146.35,56.462,146.216"/>
<polygon points="63.836,119.42 69.004,119.42 69.004,146.991 82.733,146.991 82.733,151.387 63.836,151.387 "/>
</svg>
