<?xml version="1.0" encoding="utf-8"?>
<!-- Generator: Adobe Illustrator 16.0.0, SVG Export Plug-In . SVG Version: 6.00 Build 0)  -->
<!DOCTYPE svg PUBLIC "-//W3C//DTD SVG 1.1//EN" "http://www.w3.org/Graphics/SVG/1.1/DTD/svg11.dtd">
<svg version="1.1" id="Layer_1" xmlns="http://www.w3.org/2000/svg" xmlns:xlink="http://www.w3.org/1999/xlink" x="0px" y="0px"
	 width="200px" height="200px" viewBox="0 0 200 200" enable-background="new 0 0 200 200" xml:space="preserve">
<path d="M189.933,95.099c0,34.442-26.203,62.888-59.893,66.629v-8.946c25.455-3.743,50.944-31.478,50.944-57.683
	c0-29.19-27.788-57.291-58.43-58.426c-26.185-0.97-53.938,19.468-57.683,44.917H53.168c-20.347-0.593-33.959,19.496-33.959,35.969
	c0,12.727,4.423,25.691,21.983,33.723c3.744,1.5,9.496,2.245,13.984,2.245h29.948v8.948H55.176l0,0
	c-24.703,0-44.917-20.213-44.917-44.916c0-24.704,20.214-44.919,44.917-44.919l0,0h3.743c8.987-26.199,34.434-44.917,63.636-44.917
	C159.988,27.723,189.933,57.669,189.933,95.099z M135.283,122.805c2.988-3.002,0.98-7.492-2.008-10.488l-20.45-22.458
	c-1.502-1.49-3-2.245-5.243-2.245c-2.247,0-3.745,0.755-5.243,2.245l-20.451,22.458c-2.991,2.996-4.999,7.486-2.008,10.488
	c2.997,2.994,6.47,0,6.47,0l15.752-15.759v55.43c0,4.5,0.99,7.488,5.48,7.488c4.486,0,5.479-2.988,5.479-7.488v-55.43l11.741,11.743
	C127.794,121.783,132.287,125.799,135.283,122.805z"/>
</svg>
