<?xml version="1.0" encoding="utf-8"?>
<!-- Generator: Adobe Illustrator 21.1.0, SVG Export Plug-In . SVG Version: 6.00 Build 0)  -->
<svg version="1.1" id="圖層_1" xmlns="http://www.w3.org/2000/svg" xmlns:xlink="http://www.w3.org/1999/xlink" x="0px" y="0px"
	 viewBox="0 0 200 200" style="enable-background:new 0 0 200 200;" xml:space="preserve">
<path class="st0" d="M109.1,155.1c-19.9,0-40.2,0-60.7,0c-3.6,0-6.9-0.3-10-0.9c-14.5-2.7-25.5-15.5-26-30.4
	c-0.6-15.5,9.3-28.8,24-32.4c2.7-0.7,5.5-0.9,8.1-1c0.3-19.7,7.8-33.7,22.3-41.7c2.4-1.3,5.1-2.5,8-3.5c0.3-0.1,0.6-0.2,0.9-0.3
	c0.9-0.3,1.8-0.6,2.7-0.8c1.3-0.4,2.5-0.7,3.8-1c19.7-4.2,35.4,4.2,49.1,26.4c8.1-3.3,15-3.6,20.7-1c6.1,2.8,10.6,9,13.2,18.4
	c0.1,0.1,0.2,0.2,0.3,0.2c4.7,1.9,8.9,4.5,12.5,7.7c0.6,0.5,1.2,1.1,1.8,1.8l0.2,0.2c4.2,4.3,7.1,9.6,8.4,15.1
	c0.8,3.2,1,6.5,0.8,9.8l0,0c0,0.5-0.1,0.9-0.1,1.4c-0.1,0.8-0.2,1.5-0.4,2.4c-0.2,1.1-0.5,2.2-0.8,3.3c-0.1,0.4-0.2,0.8-0.4,1.2
	l-0.2,0.8c-0.1,0.4-0.2,0.8-0.4,1.2c-0.3,0.8-0.6,1.6-0.9,2.2l-0.2,0.5c-0.1,0.2-0.2,0.4-0.3,0.6l-0.1,0.3c-0.3,0.5-0.5,1.1-0.8,1.6
	c-0.2,0.4-0.4,0.7-0.6,1c-0.3,0.5-0.7,1.2-1.2,1.9c-0.3,0.4-0.6,0.8-0.9,1.2c-0.3,0.4-0.5,0.7-0.8,1.1c-0.3,0.4-0.6,0.8-0.9,1.1
	c-0.2,0.3-0.5,0.5-0.7,0.7l-0.1,0.1c-0.7,0.8-1.5,1.5-2.2,2.2l-0.2,0.2c-0.2,0.2-0.4,0.4-0.6,0.6c-6.5,5.4-14.8,8.2-24.2,8.2
	C138.2,155.1,123.8,155.1,109.1,155.1z M91.6,51.9c-2.4,0-4.8,0.3-7.3,0.8c-1.1,0.2-2.1,0.5-3.3,0.8c-0.8,0.2-1.5,0.5-2.3,0.7
	c-0.2,0.1-0.5,0.2-0.7,0.2c-2.3,0.8-4.5,1.8-6.5,2.8c-12.2,6.7-17.8,19-17.1,37.4l0.2,4.7L50,100c-1.5,0.1-2.8,0.2-4.2,0.3
	c-2.6,0.1-5,0.3-7.1,0.8c-10,2.5-16.8,11.6-16.4,22.3c0.4,10.1,8.1,19.1,17.9,21c2.5,0.5,5.2,0.7,8.1,0.7c35.6,0.1,70.9,0,103.9,0
	c7,0,13.1-2,17.7-5.9c0.1,0,0.1-0.1,0.2-0.2c0.1-0.1,0.3-0.2,0.4-0.4c0.5-0.5,1.1-1,1.6-1.5l0.1-0.1c0.1-0.2,0.3-0.3,0.4-0.5
	c0.2-0.3,0.5-0.5,0.7-0.8c0.2-0.2,0.4-0.5,0.6-0.8c0.2-0.3,0.4-0.6,0.6-0.9c0.3-0.4,0.6-0.9,0.8-1.3c0.1-0.2,0.2-0.4,0.3-0.6l0-0.1
	c0.2-0.4,0.4-0.8,0.6-1.2l0.3-0.7c0.1-0.1,0.1-0.3,0.2-0.4c0.2-0.5,0.5-1.1,0.7-1.6c0.1-0.2,0.1-0.4,0.2-0.6l0.3-1
	c0.1-0.2,0.2-0.5,0.2-0.7c0.2-0.9,0.4-1.7,0.6-2.6c0.1-0.5,0.2-1,0.2-1.6c0-0.3,0.1-0.7,0.1-1c0.2-2.2,0-4.5-0.5-6.6
	c-0.9-3.9-3-7.5-6-10.6l-0.1-0.1c-0.5-0.5-0.9-0.9-1.3-1.2c-2.7-2.4-6-4.4-9.6-5.9c-2.3-0.9-5.2-3.4-6-6.5
	c-1.8-6.6-4.4-10.7-7.8-12.3c-3.4-1.6-8.4-0.9-14.7,2c-0.6,0.3-1.2,0.5-1.7,0.7c-0.2,0.1-0.4,0.1-0.6,0.2l-3.9,1.4l-2.1-3.6
	C114.7,60.1,104.4,51.9,91.6,51.9z M165.3,87.1C165.3,87.1,165.3,87.1,165.3,87.1C165.3,87.1,165.3,87.1,165.3,87.1z"/>
</svg>
