<?xml version="1.0" encoding="utf-8"?>
<!-- Generator: Adobe Illustrator 16.0.0, SVG Export Plug-In . SVG Version: 6.00 Build 0)  -->
<!DOCTYPE svg PUBLIC "-//W3C//DTD SVG 1.1//EN" "http://www.w3.org/Graphics/SVG/1.1/DTD/svg11.dtd">
<svg version="1.1" id="圖層_1" xmlns="http://www.w3.org/2000/svg" xmlns:xlink="http://www.w3.org/1999/xlink" x="0px" y="0px"
	 width="200px" height="200px" viewBox="0 0 200 200" enable-background="new 0 0 200 200" xml:space="preserve">
<path d="M164.458,64.255c-2.302-19.491-18.88-34.605-38.987-34.605c-13.107,0-24.71,6.424-31.84,16.298
	c0.835-0.036,1.676-0.053,2.508-0.053c29.438,0,54.698,19.842,62.21,47.471c8.416,1.862,16.147,6.073,22.386,12.311
	c0.555,0.555,1.092,1.121,1.611,1.699c4.562-4.567,7.395-10.879,7.395-17.847C189.741,75.569,178.422,64.255,164.458,64.255"/>
<path d="M148.399,104.137c-3.087-26.127-25.301-46.392-52.254-46.392c-26.957,0-49.177,20.264-52.257,46.392
	C25.17,104.137,10,119.31,10,138.019c0,18.708,15.17,33.864,33.879,33.864h104.521c18.714,0,33.882-15.156,33.882-33.864
	C182.281,119.31,167.113,104.137,148.399,104.137"/>
</svg>
