<?xml version="1.0" encoding="utf-8"?>
<!-- Generator: Adobe Illustrator 16.0.0, SVG Export Plug-In . SVG Version: 6.00 Build 0)  -->
<!DOCTYPE svg PUBLIC "-//W3C//DTD SVG 1.1//EN" "http://www.w3.org/Graphics/SVG/1.1/DTD/svg11.dtd">
<svg version="1.1" id="圖層_1" xmlns="http://www.w3.org/2000/svg" xmlns:xlink="http://www.w3.org/1999/xlink" x="0px" y="0px"
	 width="200px" height="200px" viewBox="0 0 200 200" enable-background="new 0 0 200 200" xml:space="preserve">
<path d="M81.078,89.586H19.509c-4.147,0-7.509-3.36-7.509-7.509V20.508C12,16.361,15.361,13,19.509,13h61.569
	c4.147,0,7.509,3.36,7.509,7.508v61.569C88.586,86.226,85.226,89.586,81.078,89.586 M27.018,74.569H73.57V28.018H27.018V74.569z"/>
<path d="M54.023,62.532h-7.461c-4.148,0-7.509-3.36-7.509-7.508v-7.462c0-4.147,3.361-7.508,7.509-7.508h7.461
	c4.147,0,7.509,3.361,7.509,7.508v7.462C61.532,59.171,58.171,62.532,54.023,62.532"/>
<path d="M81.078,188.697H19.509c-4.147,0-7.509-3.362-7.509-7.51v-61.568c0-4.146,3.361-7.509,7.509-7.509h61.569
	c4.147,0,7.509,3.36,7.509,7.509v61.568C88.586,185.335,85.226,188.697,81.078,188.697 M27.018,173.68H73.57v-46.551H27.018V173.68z
	"/>
<path d="M54.023,161.644h-7.461c-4.148,0-7.509-3.361-7.509-7.51v-7.462c0-4.146,3.361-7.508,7.509-7.508h7.461
	c4.147,0,7.509,3.36,7.509,7.508v7.462C61.532,158.282,58.171,161.644,54.023,161.644"/>
<path d="M180.189,89.586h-61.568c-4.148,0-7.51-3.36-7.51-7.509V20.508c0-4.147,3.36-7.508,7.51-7.508h61.568
	c4.146,0,7.509,3.36,7.509,7.508v61.569C187.697,86.226,184.336,89.586,180.189,89.586 M126.128,74.569h46.553V28.018h-46.553
	V74.569z"/>
<path d="M153.135,62.532h-7.461c-4.147,0-7.51-3.36-7.51-7.508v-7.462c0-4.147,3.36-7.508,7.51-7.508h7.461
	c4.147,0,7.509,3.361,7.509,7.508v7.462C160.644,59.171,157.282,62.532,153.135,62.532"/>
<path d="M174.182,133.136h-24.776c-4.148,0-7.509-3.361-7.509-7.51c0-4.147,3.359-7.508,7.509-7.508h24.776
	c4.148,0,7.509,3.36,7.509,7.508C181.69,129.774,178.331,133.136,174.182,133.136"/>
<path d="M124.622,133.136c-1.97,0-3.905-0.796-5.302-2.194c-1.395-1.41-2.205-3.335-2.205-5.315c0-1.968,0.811-3.906,2.205-5.316
	c1.398-1.396,3.334-2.191,5.302-2.191c1.98,0,3.917,0.795,5.316,2.191c1.396,1.41,2.191,3.335,2.191,5.316
	c0,1.98-0.796,3.919-2.191,5.315C128.54,132.34,126.603,133.136,124.622,133.136"/>
<path d="M149.399,182.691c-1.98,0-3.919-0.812-5.3-2.21c-1.396-1.382-2.207-3.319-2.207-5.3c0-1.982,0.812-3.918,2.207-5.316
	c1.397-1.397,3.333-2.191,5.3-2.191c1.981,0,3.919,0.794,5.318,2.191c1.395,1.41,2.191,3.348,2.191,5.316
	c0,1.98-0.797,3.904-2.191,5.3C153.317,181.88,151.381,182.691,149.399,182.691"/>
<path d="M124.626,182.691c-4.147,0-7.509-3.361-7.509-7.51v-24.776c0-4.148,3.36-7.51,7.509-7.51c4.149,0,7.51,3.361,7.51,7.51
	v24.776C132.136,179.33,128.775,182.691,124.626,182.691"/>
<path d="M174.182,157.913h-24.776c-4.148,0-7.509-3.36-7.509-7.51c0-4.148,3.359-7.508,7.509-7.508h24.776
	c4.148,0,7.509,3.359,7.509,7.508C181.69,154.553,178.331,157.913,174.182,157.913"/>
</svg>
