<?xml version="1.0" encoding="utf-8"?>
<!-- Generator: Adobe Illustrator 16.0.0, SVG Export Plug-In . SVG Version: 6.00 Build 0)  -->
<!DOCTYPE svg PUBLIC "-//W3C//DTD SVG 1.1//EN" "http://www.w3.org/Graphics/SVG/1.1/DTD/svg11.dtd">
<svg version="1.1" id="圖層_1" xmlns="http://www.w3.org/2000/svg" xmlns:xlink="http://www.w3.org/1999/xlink" x="0px" y="0px"
	 width="200px" height="200px" viewBox="0 0 200 200" enable-background="new 0 0 200 200" xml:space="preserve">
<path  d="M146.813,84.367H48.121c-5.83,0-10.575,4.744-10.575,10.574v7.05c0,25.152,13.895,47.964,36.256,59.533
	c1.728,0.888,3.856,0.218,4.751-1.516c0.888-1.728,0.219-3.856-1.516-4.752C57.031,144.908,44.596,124.5,44.596,101.99v-7.049
	c0-1.945,1.579-3.524,3.525-3.524h98.693c1.946,0,3.525,1.579,3.525,3.524v7.049c0,22.51-12.436,42.918-32.449,53.26
	c-1.733,0.895-2.404,3.024-1.516,4.751c0.627,1.212,1.861,1.911,3.137,1.911c0.55,0,1.101-0.128,1.614-0.396
	c22.369-11.562,36.264-34.366,36.264-59.526v-7.05C157.389,89.111,152.644,84.367,146.813,84.367"/>
<path  d="M178.275,157.033c-0.55-1.317-1.833-2.178-3.257-2.178H19.929c-1.424,0-2.707,0.86-3.257,2.178
	c-0.55,1.318-0.247,2.834,0.761,3.843l7.903,7.909c4.667,4.66,10.856,7.226,17.448,7.226H152.15c6.591,0,12.788-2.565,17.462-7.226
	l7.903-7.909C178.522,159.867,178.825,158.352,178.275,157.033 M164.621,163.802c-3.327,3.327-7.762,5.159-12.464,5.159H42.784
	c-4.702,0-9.136-1.832-12.464-5.159l-1.889-1.89H166.51L164.621,163.802z"/>
<path  d="M178.77,101.011c-9.495-6.104-24.666,0.522-26.365,1.29c-1.77,0.811-2.56,2.897-1.749,4.674
	c0.812,1.777,2.891,2.56,4.674,1.749c3.398-1.544,14.297-5.203,19.626-1.771c2.404,1.544,3.581,4.541,3.581,9.137
	c0,14.113-28.466,22.644-39.456,24.744l-2.495,0.493c-1.91,0.374-3.151,2.228-2.777,4.139c0.331,1.677,1.805,2.841,3.454,2.841
	c0.226,0,0.451-0.021,0.684-0.07l2.474-0.486c1.847-0.353,45.167-8.848,45.167-31.66C185.586,108.998,183.288,103.93,178.77,101.011
	"/>
<path  d="M124.911,54.844c5.731-7.163,5.731-18.378,0-25.541c-1.22-1.523-3.427-1.776-4.956-0.55
	c-1.522,1.22-1.77,3.433-0.55,4.956c3.631,4.533,3.631,12.196-0.007,16.743c-5.738,7.163-5.738,18.378,0,25.541
	c0.698,0.874,1.72,1.326,2.756,1.326c0.769,0,1.552-0.254,2.2-0.776c1.522-1.22,1.77-3.44,0.55-4.956
	C121.267,67.053,121.267,59.391,124.911,54.844"/>
<path  d="M103.734,54.844c5.738-7.163,5.738-18.378,0-25.541c-1.213-1.523-3.433-1.77-4.956-0.55
	c-1.523,1.22-1.77,3.44-0.55,4.956c3.638,4.533,3.638,12.196-0.007,16.743c-5.731,7.163-5.731,18.378,0,25.541
	c0.698,0.874,1.72,1.326,2.756,1.326c0.768,0,1.543-0.254,2.199-0.776c1.523-1.22,1.771-3.433,0.551-4.956
	C100.097,67.053,100.097,59.391,103.734,54.844"/>
<path  d="M82.614,54.851c5.731-7.162,5.731-18.378,0-25.541c-1.212-1.522-3.426-1.776-4.956-0.55
	c-1.516,1.212-1.762,3.433-0.55,4.949c3.63,4.533,3.63,12.196-0.007,16.743c-5.738,7.163-5.738,18.378,0,25.541
	c0.698,0.874,1.72,1.326,2.756,1.326c0.769,0,1.551-0.254,2.2-0.769c1.522-1.22,1.77-3.44,0.55-4.956
	C78.969,67.053,78.969,59.397,82.614,54.851"/>
</svg>
