<?xml version="1.0" encoding="utf-8"?>
<!-- Generator: Adobe Illustrator 16.0.0, SVG Export Plug-In . SVG Version: 6.00 Build 0)  -->
<!DOCTYPE svg PUBLIC "-//W3C//DTD SVG 1.1//EN" "http://www.w3.org/Graphics/SVG/1.1/DTD/svg11.dtd">
<svg version="1.1" id="圖層_1" xmlns="http://www.w3.org/2000/svg" xmlns:xlink="http://www.w3.org/1999/xlink" x="0px" y="0px"
	 width="200px" height="200px" viewBox="0 0 200 200" enable-background="new 0 0 200 200" xml:space="preserve">
<path  d="M151.883,190.701H48.238c-8.802,0-15.949-7.132-15.949-15.945V35.233c0-8.799,7.147-15.939,15.949-15.939
	h11.96c2.204,0,3.983,1.784,3.983,3.987c0,2.204-1.78,3.985-3.983,3.985h-11.96c-4.397,0-7.973,3.569-7.973,7.971V174.76
	c0,4.402,3.576,7.971,7.973,7.971h103.645c4.411,0,7.966-3.568,7.966-7.971V35.233c0-4.397-3.555-7.971-7.966-7.971h-11.959
	c-2.203,0-3.982-1.777-3.982-3.981c0-2.203,1.779-3.987,3.982-3.987h11.959c8.804,0,15.941,7.14,15.941,15.939v139.522
	C167.824,183.569,160.687,190.701,151.883,190.701 M143.907,39.219c0,2.203-1.789,3.992-3.983,3.992H60.198
	c-2.194,0-3.98-1.789-3.98-3.992c0-2.199,1.787-3.985,3.98-3.985c0,0,4.494-0.492,7.976-3.988l7.973-7.968
	c0,0,3.11-3.988,7.968-3.988h3.983c0-6.601,5.355-11.956,11.968-11.956c6.601,0,11.958,5.355,11.958,11.961h3.983
	c5.235,0,7.966,3.987,7.966,3.987l7.976,7.969c3.483,3.491,7.975,3.983,7.975,3.983C142.118,35.233,143.907,37.027,143.907,39.219
	 M100.057,15.302c-2.196,0-3.985,1.789-3.985,3.993h7.978C104.049,17.091,102.27,15.302,100.057,15.302 M121.44,31.25
	c0,0-2.702-3.988-7.241-3.988H85.935c-4.543,0-7.253,3.988-7.253,3.988l-3.616,3.983h49.999L121.44,31.25z"/>
<path  d="M145.8,73.938c0,2.382-2.298,4.31-5.127,4.31H59.455c-2.834,0-5.134-1.928-5.134-4.31v-0.125
	c0-2.382,2.3-4.315,5.134-4.315h81.218c2.829,0,5.127,1.933,5.127,4.315V73.938z"/>
<path  d="M145.8,98.971c0,2.382-2.298,4.317-5.127,4.317H59.455c-2.834,0-5.134-1.936-5.134-4.317v-0.125
	c0-2.387,2.3-4.315,5.134-4.315h81.218c2.829,0,5.127,1.933,5.127,4.315V98.971z"/>
<path  d="M145.8,124.003c0,2.387-2.298,4.317-5.127,4.317H59.455c-2.834,0-5.134-1.931-5.134-4.317v-0.127
	c0-2.373,2.3-4.313,5.134-4.313h81.218c2.829,0,5.127,1.939,5.127,4.313V124.003z"/>
<path  d="M126.167,171.413h-0.132c-1.516-0.047-2.919-0.819-3.766-2.081l-10.979-16.487
	c-1.422-2.151-0.848-5.057,1.313-6.488c2.143-1.436,5.042-0.852,6.474,1.295l7.325,10.998l16.225-21.516
	c1.554-2.058,4.481-2.472,6.553-0.918c2.063,1.559,2.468,4.491,0.914,6.554l-20.188,26.783
	C129.021,170.726,127.637,171.413,126.167,171.413"/>
</svg>
