<?xml version="1.0" encoding="utf-8"?>
<!-- Generator: Adobe Illustrator 21.1.0, SVG Export Plug-In . SVG Version: 6.00 Build 0)  -->
<svg version="1.1" id="圖層_1" xmlns="http://www.w3.org/2000/svg" xmlns:xlink="http://www.w3.org/1999/xlink" x="0px" y="0px"
	 viewBox="0 0 200 200" style="enable-background:new 0 0 200 200;" xml:space="preserve">
<g>
	<path class="st0" d="M77.2,77.8c-0.3-18.2,7.6-28.8,8.2-39.7c0.6-10.9-5.2-17.6-5.2-17.6c1.6,9.8-1.9,17.1-7.9,31.8
		C66.2,67,77.2,77.8,77.2,77.8z"/>
	<path class="st0" d="M99.1,67c-0.3-18.2,7.6-28.8,8.2-39.7c0.6-10.9-5.2-17.6-5.2-17.6c1.6,9.8-1.9,17.1-7.9,31.8
		C88.2,56.3,99.1,67,99.1,67z"/>
	<path class="st0" d="M123.3,70.7c-0.3-18.2,7.6-28.8,8.2-39.7c0.6-10.9-5.2-17.6-5.2-17.6c1.6,9.8-1.9,17.1-7.9,31.8
		C112.4,59.9,123.3,70.7,123.3,70.7z"/>
	<path class="st0" d="M182.9,180.8H18.6c-2.5,0-4.5,2-4.5,4.5c0,2.5,2,4.5,4.5,4.5h164.3c2.5,0,4.5-2,4.5-4.5
		C187.4,182.8,185.4,180.8,182.9,180.8z"/>
	<path class="st0" d="M102.9,100v-5.1c3.6-2,6-5.8,6-10.2c0-6.4-5.2-11.6-11.6-11.6c-6.4,0-11.6,5.2-11.6,11.6c0,5.1,3.3,9.4,7.9,11
		v4.2c-66.6,3.2-70.4,75-70.4,75h152.2C175.4,110.4,119.6,101.3,102.9,100z M85.4,121c0,0-29.5,6.5-37.7,39.9c0,0,0.6,7-4.8,7.6
		c-5.5,0.6-8.4-7.9-0.6-22.5c7.8-14.6,20.8-27.9,37.2-33.5c0,0,9.1-3,10.4,2C90,114.4,91.4,118.9,85.4,121z"/>
</g>
</svg>
