<?xml version="1.0" encoding="utf-8"?>
<!-- Generator: Adobe Illustrator 16.0.0, SVG Export Plug-In . SVG Version: 6.00 Build 0)  -->
<!DOCTYPE svg PUBLIC "-//W3C//DTD SVG 1.1//EN" "http://www.w3.org/Graphics/SVG/1.1/DTD/svg11.dtd">
<svg version="1.1" id="圖層_1" xmlns="http://www.w3.org/2000/svg" xmlns:xlink="http://www.w3.org/1999/xlink" x="0px" y="0px"
	 width="200px" height="200px" viewBox="0 0 200 200" enable-background="new 0 0 200 200" xml:space="preserve">
<path d="M102.267,29.65c18.544-11.821,37.997-15.841,58.688-8.245c35.277,12.951,46.668,58.898,22.437,88.986
	c-1.831,2.274-3.135,5.146-4.055,7.948c-2.611,7.961-8.438,11.54-16.43,12.514c-1.117,10.089-6.541,15.896-16.511,17.007
	c-5.285,14.487-8.422,17.022-18.676,16.971c-7.627,8.131-13.697,15.811-20.98,22.081c-10.15,8.736-23.502,1.912-26.381-13.2
	c-9.652-1.346-16.226-6.205-16.985-17.17c-9.814-1.361-16.424-6.196-17.233-17.16c-1.606-0.353-3.269-0.612-4.866-1.088
	c-5.983-1.779-10.988-5.52-11.397-11.696c-0.422-6.366-3.927-9.874-7.778-13.912C4.096,93.814-0.079,62.532,12.295,40.8
	C29.176,11.152,70.687,3.786,97.537,25.676C99.022,26.888,100.474,28.142,102.267,29.65 M95.64,35.452
	c-19.253-19.95-52.648-18.64-71.066,2.244C6.65,58.018,11.002,95.204,33.631,111.723c3.272-3.4,6.694-6.778,9.91-10.342
	c4.91-5.439,10.742-8.243,18.029-6.058c7.482,2.242,11.164,7.738,11.916,15.372c0.03,0.303,0.472,0.566,0.845,0.987
	c10.38,0.781,15.36,7.238,16.664,17.1c10.638,1.088,16.078,7.078,16.912,14.911c5.593,3.715,10.033,6.178,13.892,9.346
	c4.743,3.896,9.383,4.651,12.854,1.242c3.555-3.493,3.223-8.213-1.125-12.639c-7.286-7.419-14.688-14.724-22.023-22.092
	c-3.938-3.957-8.082-7.753-11.615-12.048c-1.02-1.237-0.239-3.954-0.284-5.993c1.91,0.102,4.026-0.275,5.673,0.436
	c1.659,0.719,2.885,2.482,4.245,3.846c9.931,9.939,19.847,19.897,29.771,29.844c4.563,4.572,8.913,5.056,12.578,1.416
	c3.567-3.546,3.218-8.16-1.184-12.611c-9.069-9.171-18.225-18.26-27.338-27.39c-2.175-2.179-4.771-4.11-6.325-6.671
	c-0.897-1.479-0.094-3.987-0.058-6.031c1.904,0.149,3.905-0.008,5.673,0.557c1.144,0.367,1.949,1.79,2.903,2.741
	c10.364,10.33,20.735,20.651,31.084,30.993c3.105,3.104,6.514,4.894,10.817,2.495c5.032-2.802,5.424-8.852,0.702-13.608
	c-15.735-15.851-31.552-31.619-47.357-47.398c-0.5-0.499-1.223-0.773-1.641-1.03c-7.678,7.169-14.602,14.814-22.691,20.911
	c-12.446,9.376-31.503,5.625-38.638-7.123C70.278,60.555,82.848,48.113,95.64,35.452 M71.1,74.293
	c6.984,4.609,16.646,3.671,24.042-3.475c6.372-6.154,12.706-12.362,18.743-18.836c3.776-4.049,6.676-3.945,10.519-0.022
	c13.887,14.172,28.012,28.111,42.02,42.166c3.484,3.495,6.868,7.094,10.646,11.005c11.552-15.804,14.252-32.056,7.515-49.321
	c-12.028-30.827-51.045-40.459-78.148-18.271C93.304,48.288,82.67,62.083,71.1,74.293 M80,165.065
	c0.624-0.154,2.069-0.075,2.774-0.762c5.451-5.292,11.153-10.42,15.833-16.346c1.153-1.46-0.263-6.684-2.127-8.313
	c-1.891-1.652-6.912-2.43-8.616-1.097c-5.521,4.313-10.682,9.361-14.958,14.914C69.403,158.014,73.634,164.73,80,165.065
	 M95.851,182.747c2.265-0.693,3.889-0.716,4.752-1.535c5.119-4.873,10.55-9.559,14.779-15.14c1.343-1.772,0.227-6.684-1.366-9.102
	c-2.238-3.398-6.619-3.613-9.702-0.996c-4.942,4.197-9.663,8.786-13.721,13.816c-1.413,1.754-1.491,5.706-0.525,7.937
	C91.034,179.961,94.069,181.298,95.851,182.747 M83.166,127.425c-1.809-2.168-3.26-5.401-5.606-6.3
	c-2.369-0.907-6.366-0.453-8.345,1.082c-4.654,3.616-8.709,8.074-12.667,12.497c-3.155,3.525-2.913,7.528,0.532,10.771
	c3.385,3.188,7.316,3.427,10.832,0.139c4.197-3.921,8.254-8.011,12.157-12.226C81.288,132.071,81.812,130.107,83.166,127.425
	 M44.333,131.137c2.343-0.704,3.739-0.707,4.463-1.407c5.22-5.043,10.777-9.869,15.138-15.595c1.283-1.685-0.064-6.686-1.771-9.021
	c-2.372-3.249-6.638-3.367-9.759-0.611c-4.733,4.177-9.37,8.582-13.3,13.488c-1.428,1.782-1.685,5.725-0.709,7.884
	C39.462,128.235,42.571,129.674,44.333,131.137"/>
</svg>
