<?xml version="1.0" encoding="utf-8"?>
<!-- Generator: Adobe Illustrator 16.0.0, SVG Export Plug-In . SVG Version: 6.00 Build 0)  -->
<!DOCTYPE svg PUBLIC "-//W3C//DTD SVG 1.1//EN" "http://www.w3.org/Graphics/SVG/1.1/DTD/svg11.dtd">
<svg version="1.1" id="圖層_1" xmlns="http://www.w3.org/2000/svg" xmlns:xlink="http://www.w3.org/1999/xlink" x="0px" y="0px"
	 width="200px" height="200px" viewBox="0 0 200 200" enable-background="new 0 0 200 200" xml:space="preserve">
<path d="M34.55,75.935c2.128,0,3.85-1.723,3.85-3.851v-23.1c0-2.128-1.722-3.85-3.85-3.85
	c-2.128,0-3.85,1.722-3.85,3.85v23.1C30.7,74.212,32.421,75.935,34.55,75.935"/>
<path d="M49.949,75.935c2.128,0,3.851-1.723,3.851-3.851v-23.1c0-2.128-1.722-3.85-3.851-3.85
	c-2.128,0-3.85,1.722-3.85,3.85v23.1C46.1,74.212,47.822,75.935,49.949,75.935"/>
<path d="M65.35,75.935c2.128,0,3.851-1.723,3.851-3.851v-23.1c0-2.128-1.723-3.85-3.851-3.85
	c-2.128,0-3.85,1.722-3.85,3.85v23.1C61.5,74.212,63.221,75.935,65.35,75.935"/>
<path d="M146.2,52.834c4.253,0,7.7,3.447,7.7,7.7c0,4.252-3.447,7.7-7.7,7.7c-4.252,0-7.7-3.447-7.7-7.7
	C138.5,56.281,141.948,52.834,146.2,52.834"/>
<path d="M123.101,52.834c4.253,0,7.7,3.447,7.7,7.7c0,4.252-3.447,7.7-7.7,7.7s-7.701-3.447-7.701-7.7
	C115.399,56.281,118.848,52.834,123.101,52.834"/>
<path d="M34.55,99.035c-2.128,0-3.85,1.722-3.85,3.851v23.099c0,2.128,1.722,3.851,3.85,3.851
	c2.128,0,3.85-1.723,3.85-3.851v-23.101C38.399,100.756,36.678,99.035,34.55,99.035"/>
<path d="M49.949,99.035c-2.128,0-3.85,1.722-3.85,3.851v23.099c0,2.129,1.722,3.852,3.85,3.852
	c2.128,0,3.851-1.723,3.851-3.852v-23.099C53.8,100.756,52.078,99.035,49.949,99.035"/>
<path d="M65.35,99.035c-2.128,0-3.85,1.722-3.85,3.851v23.099c0,2.129,1.722,3.852,3.85,3.852
	c2.128,0,3.851-1.723,3.851-3.852v-23.099C69.2,100.756,67.478,99.035,65.35,99.035"/>
<path d="M177.001,108.741v-9.708c0-4.621-2.088-8.725-5.321-11.55c3.233-2.825,5.321-6.928,5.321-11.55v-30.8
	c0-8.494-6.907-15.4-15.401-15.4H22.999c-8.494,0-15.4,6.907-15.4,15.4v30.8c0,4.622,2.088,8.726,5.321,11.55
	c-3.233,2.825-5.321,6.929-5.321,11.551v30.8c0,8.493,6.906,15.399,15.4,15.399h84.896c1.954,21.553,20.103,38.501,42.155,38.501
	c23.353,0,42.35-18.998,42.35-42.351C192.4,128.262,186.4,116.516,177.001,108.741 M15.299,45.134c0-4.245,3.455-7.7,7.7-7.7
	h138.602c4.243,0,7.699,3.455,7.699,7.7v30.8c0,4.245-3.456,7.7-7.699,7.7H23c-4.245,0-7.7-3.456-7.7-7.7V45.134L15.299,45.134z
	 M23,137.534c-4.245,0-7.7-3.455-7.7-7.699v-30.8c0-4.245,3.455-7.7,7.7-7.7h138.602c4.243,0,7.699,3.456,7.699,7.7v4.675
	c-5.783-2.968-12.315-4.675-19.25-4.675c-22.053,0-40.201,16.949-42.155,38.5L23,137.534L23,137.534z M150.051,176.035
	c-19.108,0-34.651-15.543-34.651-34.65s15.545-34.65,34.651-34.65s34.65,15.543,34.65,34.65S169.157,176.035,150.051,176.035"/>
<path d="M140.636,136.888c1.771-1.18,2.248-3.567,1.068-5.339c-1.181-1.774-3.573-2.249-5.34-1.066l-3.575,2.382
	c3.15-6.354,9.704-10.729,17.262-10.729c6.406,0,12.373,3.172,15.968,8.488c1.184,1.759,3.586,2.23,5.343,1.035
	c1.763-1.189,2.226-3.583,1.034-5.344c-5.023-7.44-13.378-11.881-22.345-11.881c-14.859,0-26.95,12.092-26.95,26.95
	c0,1.421,0.782,2.727,2.033,3.395c0.567,0.305,1.191,0.455,1.816,0.455c0.749,0,1.492-0.218,2.135-0.646L140.636,136.888z"/>
<path d="M174.967,137.989c-1.252-0.669-2.778-0.594-3.952,0.192l-11.55,7.699c-1.771,1.181-2.248,3.568-1.067,5.34
	c1.174,1.767,3.561,2.237,5.339,1.067l3.575-2.384c-3.15,6.354-9.704,10.73-17.261,10.73c-6.407,0-12.375-3.173-15.969-8.489
	c-1.188-1.764-3.591-2.227-5.342-1.034c-1.764,1.188-2.226,3.582-1.034,5.343c5.022,7.44,13.378,11.88,22.345,11.88
	c14.857,0,26.95-12.091,26.95-26.949C177.001,139.964,176.219,138.659,174.967,137.989"/>
</svg>
