<?xml version="1.0" encoding="utf-8"?>
<!-- Generator: Adobe Illustrator 16.0.0, SVG Export Plug-In . SVG Version: 6.00 Build 0)  -->
<!DOCTYPE svg PUBLIC "-//W3C//DTD SVG 1.1//EN" "http://www.w3.org/Graphics/SVG/1.1/DTD/svg11.dtd">
<svg version="1.1" id="Layer_1" xmlns="http://www.w3.org/2000/svg" xmlns:xlink="http://www.w3.org/1999/xlink" x="0px" y="0px"
	 width="200px" height="200px" viewBox="0 0 200 200" enable-background="new 0 0 200 200" xml:space="preserve">
<g>
	<path d="M180.688,57.676c-0.029-1.101-0.468-2.127-1.229-2.882l-26.943-26.947c-0.775-0.782-1.811-1.221-2.908-1.235l-42.467-0.727
		c-1.013,0-2.004,0.445-2.777,1.238l-18.19,18.182l-0.28-0.184C67.284,32.789,59.64,21.273,60.778,18.515l0.034-0.063
		c0.274-0.334,1.446-0.898,4.101-0.898c6.157,0,15.695,2.948,26.169,8.089l1.086,0.533l6.242-6.242l-2.085-1.054
		C84.1,12.703,72.651,9.159,64.913,9.159c-6.841,0-9.924,2.718-11.309,5.002c-2.11,3.508-2.652,9.906,6.748,20.469
		c4.812,5.407,11.505,11.094,19.354,16.446l0.417,0.285l-60.671,60.667c-0.789,0.799-1.224,1.854-1.224,2.972
		c0,1.112,0.435,2.164,1.23,2.966l69.873,69.864c0.783,0.797,1.84,1.236,2.975,1.236c1.116,0,2.166-0.436,2.957-1.226l84.917-84.909
		c0.788-0.794,1.231-1.898,1.217-3.036L180.688,57.676z M140.034,58.428l-0.055-0.538l0.658-0.087
		c0.199-0.03,0.404-0.053,0.609-0.053h0.018c2.214,0,4.292,0.862,5.853,2.431c1.561,1.561,2.421,3.641,2.421,5.857
		c0,2.217-0.86,4.296-2.421,5.857c-1.492,1.494-3.626,2.35-5.853,2.35c-2.225,0-4.361-0.858-5.853-2.341
		c-0.5-0.506-0.929-1.091-1.325-1.809l-0.234-0.409l0.439-0.177c2.135-0.858,3.744-2.164,4.784-3.885
		C140.292,63.597,140.605,61.243,140.034,58.428z M125.261,70.718c0.777,2.676,2.231,5.133,4.206,7.108
		c3.16,3.15,7.35,4.885,11.798,4.885c4.457,0,8.645-1.736,11.791-4.887c3.146-3.146,4.879-7.333,4.879-11.791
		c0-4.458-1.732-8.646-4.881-11.792c-3.16-3.151-7.347-4.886-11.793-4.886c-4.461,0.01-8.647,1.747-11.785,4.89
		c-2.064,2.059-3.552,4.636-4.302,7.448l-0.096,0.356l-0.363-0.045c-7.837-0.956-19.319-5.408-30.717-11.911l-0.473-0.269
		l15.516-15.508l38.73,0.655l24.555,24.555l0.66,38.735l-80.68,80.68l-63.945-63.945l59.021-59.033l0.285,0.171
		c13.555,8.036,27.473,13.379,37.228,14.292l0.289,0.027L125.261,70.718z"/>
	<path d="M56.231,117.413c-0.624,0.906-0.863,2.012-0.67,3.135c0.371,1.991,2.105,3.437,4.123,3.437
		c0.248,0,0.495-0.021,0.768-0.066l67.68-12.463c1.095-0.208,2.045-0.828,2.669-1.735c0.64-0.916,0.881-2.035,0.68-3.15
		c-0.36-1.991-2.096-3.437-4.126-3.437c-0.218,0-0.449,0.019-0.76,0.063l-67.676,12.472
		C57.817,115.874,56.863,116.494,56.231,117.413z"/>
	<path d="M94.092,102.091c3.681,0,7.146-1.436,9.754-4.041c2.603-2.596,4.035-6.062,4.035-9.759c0-3.686-1.435-7.148-4.04-9.749
		c-2.602-2.601-6.064-4.033-9.75-4.033c-3.688,0-7.151,1.434-9.75,4.039c-5.365,5.379-5.369,14.128-0.005,19.507
		C86.948,100.657,90.413,102.091,94.092,102.091z M94.092,82.9c1.447,0,2.808,0.56,3.824,1.568c1.016,1.024,1.576,2.384,1.576,3.833
		c0,1.44-0.561,2.796-1.572,3.814c-0.972,0.972-2.367,1.53-3.828,1.53c-1.455,0-2.847-0.558-3.818-1.529
		c-1.017-1.017-1.575-2.373-1.574-3.818c0-1.445,0.562-2.8,1.585-3.82C91.296,83.46,92.647,82.9,94.092,82.9z"/>
	<path d="M92.947,125.023c-3.69,0-7.153,1.436-9.749,4.041c-2.601,2.6-4.033,6.063-4.033,9.753c0,3.694,1.433,7.156,4.03,9.743
		c2.598,2.607,6.061,4.043,9.751,4.043c3.693,0,7.156-1.435,9.749-4.036c2.604-2.603,4.038-6.066,4.037-9.754
		c-0.002-3.686-1.435-7.147-4.036-9.749C100.09,126.459,96.627,125.023,92.947,125.023z M92.947,144.162
		c-1.452,0-2.845-0.558-3.819-1.529c-1.016-1.016-1.574-2.371-1.573-3.815c0-1.446,0.563-2.804,1.579-3.819
		c1.022-1.017,2.376-1.576,3.813-1.576c1.443,0,2.8,0.561,3.819,1.575c2.104,2.107,2.104,5.534-0.003,7.644
		C95.802,143.608,94.412,144.162,92.947,144.162z"/>
</g>
</svg>
