<?xml version="1.0" encoding="utf-8"?>
<!-- Generator: Adobe Illustrator 16.0.0, SVG Export Plug-In . SVG Version: 6.00 Build 0)  -->
<!DOCTYPE svg PUBLIC "-//W3C//DTD SVG 1.1//EN" "http://www.w3.org/Graphics/SVG/1.1/DTD/svg11.dtd">
<svg version="1.1" id="圖層_1" xmlns="http://www.w3.org/2000/svg" xmlns:xlink="http://www.w3.org/1999/xlink" x="0px" y="0px"
	 width="200px" height="200px" viewBox="0 0 200 200" enable-background="new 0 0 200 200" xml:space="preserve">
<g>
	<path d="M161.1,58.3c-0.199-13.1-5.699-17.5-19.3-17.6c-13.899-0.1-27.7,0-41.6,0c-14.3,0-28.6,0.3-42.8-0.1
		c-11.6-0.3-18,5.9-18.3,16.3c-0.7,29-0.6,58-0.1,86.9c0.2,10.3,6,17.5,17.5,17.5c29,0.101,58,0.2,86.9,0
		c11.1-0.1,17.5-6.6,17.699-17.3C161.6,115.4,161.6,86.8,161.1,58.3z M142.4,130.7c-0.101,7.5-4.601,11.899-12.2,12
		c-20.101,0.2-40.2,0.1-60.2,0c-7.9,0-12-5-12.1-12.101c-0.4-20.1-0.5-40.2,0-60.2c0.2-7.2,4.6-11.5,12.7-11.3
		c9.9,0.3,19.8,0.1,29.7,0.1c9.601,0,19.2-0.1,28.8,0c9.4,0.1,13.2,3.1,13.4,12.2C142.7,91.1,142.7,110.9,142.4,130.7z"/>
	<path d="M123.8,19.7c0.101,7.3,0,13.6-8.5,13.6c-8.399,0-8.3-6.4-8.6-12.5c-0.3-6.8,0.7-11,9.3-10.8
		C124.7,10.2,124,15.3,123.8,19.7z"/>
	<path d="M136.8,18.6c-0.1-3.2-0.899-8.6,7.8-8.5c7.101,0,9.9,2.3,9.301,9.4c-0.5,6.2,0.8,13.6-8.5,13.8
		C137.1,33.4,136.8,27,136.8,18.6z"/>
	<path d="M19.2,136.8c7.9,0,14.1,0.9,13.6,9c-0.5,8.101-7.3,7.601-13.2,8c-7,0.601-9.5-1.899-9.5-9.2C10,136,15.1,136.6,19.2,136.8z
		"/>
	<path d="M136.8,178.8c-0.1-6,1-11.899,8.4-11.2c8.3,0.801,8.3,7.9,8.7,14.5c0.399,7.5-4,7.601-9.601,7.9
		C135.2,190.2,136.9,184,136.8,178.8z"/>
	<path d="M19.2,123.8c-5.7,0.9-9.2-0.7-9.2-8.5c0-8,4-8.8,10.2-8.5c6.3,0.4,12.5,1.5,12.6,9C32.9,124.2,26,123.9,19.2,123.8z"/>
	<path d="M93.7,18.5c0.1,8.4-0.1,14.9-8.4,14.7c-9.2-0.2-7.7-8.1-8.6-13.9c-1.2-7.3,2.5-9,9.4-9.2C94.9,9.9,93.8,15.3,93.7,18.5z"/>
	<path d="M181.2,123.8c-6.7,0.5-13.101-0.8-13.4-8.1c-0.3-7.5,6.101-8.601,12.5-8.9c6.7-0.3,9.9,1.4,9.8,9
		C189.8,122.6,187.1,124.7,181.2,123.8z"/>
	<path d="M180.9,136.9c5.5-0.7,9,0.6,9.1,7.8s-2.4,9.6-9.4,9.3c-6.399-0.3-12.8-1.3-12.8-8.6C167.7,138,174.1,136.5,180.9,136.9z"/>
	<path d="M93.5,180.9c1,6.1-1.1,9.199-8.7,9.1c-7-0.1-8.6-3-8.3-9.2c0.3-6.1,0.5-13,8.2-13.2C92.1,167.4,93.7,173.7,93.5,180.9z"/>
	<path d="M114.8,189.7c-8.7,1.3-8.1-4.7-8.1-10.3c0-5.9,1.3-11.9,8.1-11.801c8.601,0.101,8.4,7.301,8.7,13.801
		C124,188,121.3,190.7,114.8,189.7z"/>
	<path d="M63.4,21.3c-0.1,5.5,0.4,11.8-7.5,11.8c-8.8,0-7.7-6.9-8-12.7c-0.3-6,0-10.4,8.3-10.3C65.4,10.2,63,16.3,63.4,21.3z"/>
	<path d="M19.8,93.7c-4.9,0.3-9.8,0.7-9.7-7.9c0.1-7.7,4.3-7.8,9.8-7.6c5.9,0.2,12.9-0.6,12.8,8C32.6,93.6,26.3,93.8,19.8,93.7z"/>
	<path d="M19.7,63.4c-5.5,0.7-9.8,0-9.6-8.2c0.2-8.2,5.4-6.9,10.2-6.9c5.5-0.1,12-0.7,12.4,6.9C33.1,63.6,26.4,63.6,19.7,63.4z"/>
	<path d="M183.1,48.1c2.301-0.2,6.7-0.3,6.801,7.5c0.1,8.7-5.101,7.7-10.601,7.9c-6.2,0.2-11.6-1.3-11.399-8.3
		C168,47.4,174.7,48.4,183.1,48.1z"/>
	<path d="M181,78.2c4.3-0.3,8.8-0.4,8.8,7.4c0.101,7.1-3.1,8.4-9.1,8.2c-6.3-0.2-12.8-0.8-13-8.5C167.7,77.6,174.5,78.3,181,78.2z"
		/>
	<path d="M47.9,178.9c-0.2-5.2,0-11.2,6.8-11.2c7.8,0.1,8.4,6.5,8.6,12.7c0.1,5.699-0.5,9.399-7.9,9.5C46.3,190,48,184.1,47.9,178.9
		z"/>
	<path d="M123.7,66.7c-7.9-0.1-15.7,0-23.6,0c-8.1,0-16.2,0.2-24.3-0.1c-6.6-0.2-10.2,3.4-10.4,9.3c-0.4,16.4-0.4,32.9,0,49.3
		c0.1,5.899,3.4,9.899,9.9,9.899c16.4,0.101,32.9,0.101,49.3,0c6.301,0,9.9-3.699,10-9.8c0.301-16.2,0.301-32.4,0-48.6
		C134.5,69.3,131.4,66.8,123.7,66.7z"/>
</g>
</svg>
