<?xml version="1.0" encoding="utf-8"?>
<!-- Generator: Adobe Illustrator 16.0.0, SVG Export Plug-In . SVG Version: 6.00 Build 0)  -->
<!DOCTYPE svg PUBLIC "-//W3C//DTD SVG 1.1//EN" "http://www.w3.org/Graphics/SVG/1.1/DTD/svg11.dtd">
<svg version="1.1" id="圖層_1" xmlns="http://www.w3.org/2000/svg" xmlns:xlink="http://www.w3.org/1999/xlink" x="0px" y="0px"
	 width="200px" height="200px" viewBox="0 0 200 200" enable-background="new 0 0 200 200" xml:space="preserve">
<path d="M50.411,106.436c5.218-2.85,7.845-6.661,7.845-11.436c0-3.367-1.258-6.401-3.812-9.066
	c-3.109-3.257-7.216-4.922-12.323-4.922c-2.998,0-5.699,0.555-8.104,1.702c-2.405,1.11-4.292,2.665-5.662,4.626
	c-1.332,1.961-2.368,4.589-3.034,7.882l9.622,1.629c0.259-2.368,1.036-4.182,2.294-5.44c1.258-1.221,2.775-1.851,4.552-1.851
	c1.813,0,3.256,0.556,4.33,1.63c1.073,1.072,1.628,2.553,1.628,4.366c0,2.146-0.74,3.886-2.221,5.181
	c-1.48,1.295-3.626,1.925-6.476,1.851l-1.147,8.511c1.851-0.518,3.441-0.776,4.811-0.776c2.035,0,3.737,0.776,5.181,2.294
	c1.406,1.518,2.109,3.627,2.109,6.254c0,2.775-0.74,4.996-2.22,6.625c-1.48,1.627-3.293,2.441-5.44,2.441
	c-1.999,0-3.701-0.665-5.144-2.035c-1.406-1.369-2.294-3.33-2.59-5.921L24.506,121.2c0.518,4.59,2.406,8.29,5.662,11.14
	c3.257,2.85,7.327,4.256,12.249,4.256c5.218,0,9.548-1.703,13.026-5.069c3.479-3.368,5.255-7.439,5.255-12.213
	c0-3.294-0.925-6.105-2.813-8.438C56.036,108.618,53.557,107.102,50.411,106.436"/>
<path d="M84.864,81.049c-5.292,0-9.4,1.851-12.323,5.588c-3.553,4.515-5.366,11.879-5.366,22.13
	c0,10.436,1.628,17.726,4.885,21.797c3.257,4.07,7.512,6.105,12.805,6.105c5.292,0,9.399-1.85,12.323-5.588
	c3.553-4.514,5.366-11.915,5.366-22.203c0-10.325-1.776-17.727-5.329-22.167C94.264,82.937,90.156,81.049,84.864,81.049
	 M90.563,122.46c-0.555,2.071-1.295,3.515-2.294,4.328c-0.999,0.814-2.109,1.223-3.368,1.223s-2.368-0.408-3.367-1.185
	c-0.962-0.778-1.777-2.369-2.443-4.774c-0.629-2.405-0.962-6.771-0.962-13.174s0.37-10.917,1.073-13.618
	c0.555-2.073,1.295-3.516,2.294-4.33c0.999-0.814,2.109-1.222,3.368-1.222c1.258,0,2.368,0.407,3.367,1.222
	c0.962,0.814,1.776,2.405,2.442,4.811c0.629,2.405,0.962,6.772,0.962,13.174C91.636,115.243,91.266,119.795,90.563,122.46"/>
<path d="M151.895,130.202h-2.16h-1.402h-2.159c-2.144,0-3.888-1.743-3.888-3.886v-3.328
	c0-2.144,1.744-3.887,3.888-3.887h6.339c1.803,0,3.27,1.466,3.27,3.269c0,1.723,1.396,3.12,3.12,3.12
	c1.723,0,3.119-1.397,3.119-3.12c0-5.243-4.266-9.509-9.509-9.509h-0.358v-3.799c0-1.723-1.396-3.12-3.12-3.12
	c-1.723,0-3.119,1.397-3.119,3.12v3.805c-5.465,0.139-9.868,4.623-9.868,10.121v3.328c0,5.583,4.543,10.126,10.127,10.126h2.16
	h1.401h2.16c2.144,0,3.887,1.743,3.887,3.887v3.328c0,2.143-1.743,3.887-3.887,3.887h-6.34c-1.803,0-3.27-1.467-3.27-3.27
	c0-1.723-1.396-3.119-3.12-3.119c-1.723,0-3.119,1.396-3.119,3.119c0,5.244,4.266,9.51,9.509,9.51h0.359v3.799
	c0,1.723,1.396,3.12,3.119,3.12c1.724,0,3.12-1.397,3.12-3.12v-3.806c5.464-0.139,9.867-4.623,9.867-10.12v-3.328
	C162.021,134.745,157.479,130.202,151.895,130.202"/>
<path d="M149.033,91.04c-23.364,0-42.373,19.009-42.373,42.373s19.009,42.373,42.373,42.373
	c23.365,0,42.373-19.008,42.373-42.373C191.406,110.049,172.398,91.04,149.033,91.04 M149.033,169.547
	c-19.924,0-36.133-16.21-36.133-36.134s16.209-36.133,36.133-36.133s36.133,16.209,36.133,36.133S168.957,169.547,149.033,169.547"
	/>
<path d="M108.881,157.652H16.328V60.029h165.899v36.563h7.697V56.181V25.576c0-2.146-1.739-3.849-3.849-3.849
	h-37.857V11.699c0-2.146-1.739-3.849-3.849-3.849c-2.146,0-3.849,1.739-3.849,3.849v10.029H57.998V11.699
	c0-2.146-1.74-3.849-3.849-3.849c-2.11,0-3.849,1.739-3.849,3.849v10.029H12.442c-2.146,0-3.849,1.739-3.849,3.849v30.604v105.32
	c0,2.146,1.739,3.849,3.849,3.849h96.438V157.652z M16.328,29.425L16.328,29.425H50.3v9.844c0,2.146,1.739,3.849,3.849,3.849
	c2.109,0,3.849-1.739,3.849-3.849v-9.844h82.487v9.844c0,2.146,1.739,3.849,3.849,3.849c2.146,0,3.849-1.739,3.849-3.849v-9.844
	h33.973v22.907H16.328V29.425z"/>
</svg>
