<?xml version="1.0" encoding="utf-8"?>
<!-- Generator: Adobe Illustrator 16.0.0, SVG Export Plug-In . SVG Version: 6.00 Build 0)  -->
<!DOCTYPE svg PUBLIC "-//W3C//DTD SVG 1.1//EN" "http://www.w3.org/Graphics/SVG/1.1/DTD/svg11.dtd">
<svg version="1.1" id="Layer_1" xmlns="http://www.w3.org/2000/svg" xmlns:xlink="http://www.w3.org/1999/xlink" x="0px" y="0px"
	 width="200px" height="200px" viewBox="0 0 200 200" enable-background="new 0 0 200 200" xml:space="preserve">
<path d="M69.796,88.65H58.561c-3.095,0-5.618,2.523-5.618,5.618v11.235c0,3.095,2.523,5.618,5.618,5.618h11.236
	c3.094,0,5.618-2.523,5.618-5.618V94.269C75.414,91.174,72.89,88.65,69.796,88.65z"/>
<path d="M105.504,88.65H94.268c-3.095,0-5.618,2.523-5.618,5.618v11.235c0,3.095,2.523,5.618,5.618,5.618h11.236
	c3.096,0,5.618-2.523,5.618-5.618V94.269C111.122,91.174,108.6,88.65,105.504,88.65z"/>
<path d="M141.211,88.65h-11.234c-3.095,0-5.619,2.523-5.619,5.618v11.235c0,3.095,2.524,5.618,5.619,5.618h11.234
	c3.096,0,5.618-2.523,5.618-5.618V94.269C146.829,91.174,144.307,88.65,141.211,88.65z"/>
<path d="M69.796,124.357H58.561c-3.095,0-5.618,2.523-5.618,5.617v11.236c0,3.094,2.523,5.617,5.618,5.617h11.236
	c3.094,0,5.618-2.523,5.618-5.617v-11.236C75.414,126.882,72.89,124.357,69.796,124.357z"/>
<path d="M105.504,124.357H94.268c-3.095,0-5.618,2.523-5.618,5.617v11.236c0,3.094,2.523,5.617,5.618,5.617h11.236
	c3.096,0,5.618-2.523,5.618-5.617v-11.236C111.122,126.882,108.6,124.357,105.504,124.357z"/>
<path d="M141.211,124.357h-11.234c-3.095,0-5.619,2.523-5.619,5.617v11.236c0,3.094,2.524,5.617,5.619,5.617h11.234
	c3.096,0,5.618-2.523,5.618-5.617v-11.236C146.829,126.882,144.307,124.357,141.211,124.357z"/>
<path d="M185.773,54.943c-0.002-16.38-13.329-29.707-29.709-29.707h-15.235v-9.618c0-0.892-0.726-1.618-1.618-1.618h-11.234
	c-0.893,0-1.619,0.726-1.619,1.618v9.618H73.414v-9.618c0-0.892-0.726-1.618-1.618-1.618H60.561c-0.892,0-1.618,0.726-1.618,1.618
	v9.618H43.707C27.327,25.236,14,38.563,14,54.943v101.122c0,16.381,13.327,29.707,29.708,29.707h112.358
	c16.381,0,29.707-13.326,29.707-29.707V54.943z M171.299,156.064c0.001,4.008-1.598,7.816-4.503,10.725
	c-2.906,2.908-6.717,4.511-10.729,4.511H43.707c-8.259,0-15.236-6.977-15.236-15.235V54.943c0-8.259,6.977-15.236,15.236-15.236
	h15.235v9.618c0,0.892,0.726,1.618,1.618,1.618h11.236c0.892,0,1.618-0.726,1.618-1.618v-9.618h52.943v9.618
	c0,0.892,0.726,1.618,1.617,1.618h11.235c0.893,0,1.618-0.726,1.618-1.618v-9.618h15.236c8.258,0,15.234,6.977,15.234,15.236
	V156.064z"/>
</svg>
