<?xml version="1.0" encoding="utf-8"?>
<!-- Generator: Adobe Illustrator 21.1.0, SVG Export Plug-In . SVG Version: 6.00 Build 0)  -->
<svg version="1.1" id="圖層_1" xmlns="http://www.w3.org/2000/svg" xmlns:xlink="http://www.w3.org/1999/xlink" x="0px" y="0px"
	 viewBox="0 0 200 200" style="enable-background:new 0 0 200 200;" xml:space="preserve">
<g id="JGZlFb_1_">
	<g>
		<path class="st0" d="M69.6,67.1c1.5,0,3.1-0.3,4.5,0.1c1.1,0.3,2.7,1.1,2.9,1.9c0.5,2.1-1.2,2.4-2.9,2.3c-0.6,0-1.1,0-1.9,0
			c-0.5,1.3-0.9,2.4-1.4,3.6c5,2,6.8,4.3,6.2,9.6c-0.4,3.8-1.4,7.6-3,11c-3.8,7.8-8.2,15.4-12.3,22.9c2.3,4.4,4.7,9,7.3,13.6
			c0.4,0.7,1.6,1.1,2.5,1.3c1,0.2,2.1,0.1,3.1,0.1c11.4,0,22.9,0,34.8,0c0-4.7,0.2-9.2,0-13.7c-0.6-10.2,3.5-17.3,13.4-20.9
			c-5.4-0.9-7.2-2.5-7-5.7c0.2-3.3,2.3-4.5,7.6-4.5c17.1,0,34.1,0,51.2,0c4.3,0,6.4,1.4,6.6,4.5c0.2,3.2-1.8,4.9-6.3,5.3
			c-0.2,0-0.4,0.2-0.8,0.4c9.9,3.5,14,10.7,13.4,20.9c-0.1,2,0,4,0,6c0,7.2-0.4,7.6-7.3,9.5c2.1,8.5,1,16.4-5.1,23.1
			c-4.4,4.8-10,7.2-16.5,7.4c-14,0.4-23.3-10.4-23.2-27.3c-5.7,0-11.3,0-17,0c-17.7,0-35.5-0.1-53.2,0.1c-2.6,0-3.9-0.5-4.6-3.2
			c-1.6-6.4-5.6-11.1-11.1-14.6c-2.5,2-0.9,2.9,0.7,4.2c7.6,6.5,10.2,14.7,7.6,24.2c-2.4,9.1-10.3,15.6-19.7,16.5
			c-9.7,0.8-17.4-3.1-22.3-11.6c-4.7-8.2-4.3-16.7,1.2-24.5c5.7-7.9,13.6-11,23.3-9.3c3,0.5,3,0.5,3.9-2.2c-8.9-2.8-17-1.5-24.4,4
			c-0.6,0.4-1.1,0.9-1.6,1.3c-2.3,1.8-4.6,1.9-6.5-0.4c-1.8-2.2-1.2-4.4,0.8-6.2c7.3-6.4,15.8-9.5,25.4-8.8
			c3.4,0.2,6.9,1.1,10.6,1.8c5-10.6,10.1-21.3,15.3-32.1C57.1,77.3,51.3,71,53.6,63c1.5-5.1,7.9-7.9,12.5-5.4
			c1.3,0.7,2.3,2.6,2.8,4.1C69.6,63.3,69.4,65.1,69.6,67.1z M38.6,131.3c-4.8-2.2-11.3,0.8-13.9,6.2c-2.8,5.9-0.4,13.1,5.4,16.2
			c5.9,3.2,13.2,0.9,16.6-5c2.4-4.2,1.9-12.6-3.6-15.3c-1.5,3.1-2.8,6.4-4.6,9.4c-0.6,1.1-2.4,1.5-3.6,2.2c-0.3-1.4-1.1-3-0.7-4.2
			C35.4,137.5,37.1,134.4,38.6,131.3z M155.3,138.5C155.3,138.5,155.3,138.5,155.3,138.5c-2,0-4,0.2-5.9,0c-2.5-0.2-3.2,1.2-3.3,3.4
			c-0.2,4.5,1.5,8.2,5.2,10.9c4.5,3.3,11.1,3,15.2-0.7c4.4-3.9,5.6-10.4,2.7-15.2c-0.6-0.9-1.8-1.7-2.9-1.9
			c-0.6-0.1-1.4,1.2-2.2,1.8c-1,0.7-2,1.5-3.1,1.7C159,138.7,157.1,138.5,155.3,138.5z"/>
		<path class="st0" d="M184.3,74.7c-23.9,0-47.5,0-71.6,0c0-8.5,2.7-15.8,7.9-22.2c4.8-5.9,10.9-9.7,18.1-11.9
			c1.3-0.4,2.5-1.7,3.2-2.9c1.5-2.7,3.5-4.4,6.6-4.4c3.1,0,5.1,1.7,6.6,4.4c0.7,1.2,2,2.5,3.2,2.9C173.8,45,185.3,59.9,184.3,74.7z
			 M121.7,72c2.2-7.6,4.2-14.6,6.1-21.3c-4.6,5.9-7.3,13.1-8.3,21.1C120.6,71.9,121.5,72,121.7,72z M144.1,38.1
			c0.2,0.4,0.5,0.8,0.7,1.2c2.6,0,5.2,0,7.8,0c0.2-0.3,0.4-0.7,0.5-1c-1.5-0.9-3-2.4-4.5-2.5C147.2,35.8,145.6,37.3,144.1,38.1z"/>
		<path class="st0" d="M190.8,78.2c-2.7,6.5-4.2,7.5-10,7.5c-22,0-43.9,0-65.9,0c-3.1,0-7.4-3.1-7.9-6c-0.1-0.5,0.7-1.6,1.3-1.8
			c0.8-0.3,1.8-0.1,2.8-0.1c25,0,50,0,75,0C187.5,77.9,188.9,78.1,190.8,78.2z"/>
	</g>
</g>
</svg>
