<?xml version="1.0" encoding="utf-8"?>
<!-- Generator: Adobe Illustrator 16.0.0, SVG Export Plug-In . SVG Version: 6.00 Build 0)  -->
<!DOCTYPE svg PUBLIC "-//W3C//DTD SVG 1.1//EN" "http://www.w3.org/Graphics/SVG/1.1/DTD/svg11.dtd">
<svg version="1.1" id="圖層_1" xmlns="http://www.w3.org/2000/svg" xmlns:xlink="http://www.w3.org/1999/xlink" x="0px" y="0px"
	 width="200px" height="200px" viewBox="0 0 200 200" enable-background="new 0 0 200 200" xml:space="preserve">
<path d="M194.082,149.423c-1.611,3.489-2.68,7.387-4.935,10.394c-7.978,10.635-23.045,11.788-32.772,2.867
	c-9.616-8.816-9.808-23.553-0.421-32.694c0.89-0.865,1.805-1.706,2.811-2.656c-0.956-1.911-1.869-3.738-3.008-6.018
	c-7.979,5.31-12.488,12.354-13.467,21.567c-0.642,6.037-0.744,6.282-6.72,6.284c-17.266,0.01-34.53,0.021-51.794-0.017
	c-2.225-0.005-3.617,0.106-4.421,2.95c-3.439,12.16-15.154,18.733-27.301,15.744c-11.41-2.811-18.356-14.124-16.19-26.354
	c0.093-0.523,0.074-1.067,0.105-1.58c-9.541-2.256-12.223-7.128-7.5-15.748c3.398-6.203,8.325-11.566,12.598-17.343
	c-2.747,0-6.482,0-10.216,0c-9.005,0-10.418-1.08-12.292-9.646C14.108,96.63,8.566,98.45,6,92.58V43.26
	c2.08-3.155,4.903-4.314,8.764-4.259c13.644,0.197,27.293,0.065,40.94,0.083c6.196,0.007,8.161,1.996,8.168,8.257
	c0.016,14.06,0.005,28.12,0.005,42.223c11.166-3.235,22.405-1.41,33.536-1.497c4.833-0.038,8.383,3.882,8.871,8.419
	c0.457,4.253-2.289,8.331-6.721,9.906c-0.907,0.323-1.871,0.49-3.097,0.802c0,4.399-0.195,8.849,0.053,13.273
	c0.276,4.952,3.828,9.285,8.452,9.471c9.139,0.371,18.301,0.109,27.938,0.109c0-10.015-0.005-19.722,0.001-29.429
	c0.005-6.756,0.598-7.881,6.52-12.028c-2.63-5.204-5.193-10.542-8.06-15.713c-0.534-0.967-2.223-1.509-3.481-1.801
	c-1.323-0.307-2.903,0.283-4.128-0.176c-1.452-0.542-2.642-1.785-3.946-2.723c1.239-1.04,2.383-2.821,3.734-2.997
	c8.098-1.051,11.188,0.779,14.94,8.162c0.501,0.986,1.045,1.953,1.869,3.487c3.312-6.029,8.872-5.415,14.128-5.007
	c1.313,0.101,3.391,2.043,3.539,3.323c0.463,3.985,0.428,8.084,0.013,12.08c-0.127,1.221-1.939,2.907-3.258,3.224
	c-2.229,0.534-4.678,0.146-7.601,0.146c3.582,7.235,6.858,14.073,10.429,20.756c0.387,0.721,2.592,0.988,3.756,0.691
	c7.631-1.949,15.196-1.962,22.531,0.912c1.466,0.572,3.384,3.033,3.157,4.264c-0.498,2.699-2.877,2.16-5.037,1.344
	c-6.741-2.551-13.518-2.494-20.344-0.241c1.624,6.271,1.642,6.284,7.31,5.43c10.347-1.559,21.323,5.813,24.227,16.258
	c0.255,0.92,0.581,1.819,0.875,2.727V149.423z M57.813,58.545h-45.53v32.105h45.53V58.545z M57.004,133.442c0-0.021,0-0.039,0-0.059
	c7.085,0,14.17-0.051,21.255,0.022c3.238,0.033,5.183-1.512,5.225-4.618c0.104-7.995-4.497-18.858-14.612-21.378
	c-13.522-3.365-32.541,7.947-36.167,21.683c-0.849,3.219,0.364,4.381,3.459,4.361C43.111,133.413,50.058,133.442,57.004,133.442
	 M188.122,146.153c0.04-8.82-7.554-16.5-16.443-16.633c-8.791-0.127-16.57,7.475-16.723,16.342
	c-0.153,9.021,7.597,16.848,16.646,16.813C180.485,162.641,188.08,155.044,188.122,146.153 M137.243,136.458
	c-0.588-0.238-0.717-0.338-0.845-0.338c-9.472-0.021-18.942-0.032-28.414-0.051c-10.807-0.02-17.419-6.573-17.511-17.376
	c-0.032-3.855-0.005-7.709-0.005-11.539h-8.503c2.178,4.574,4.953,8.973,6.416,13.77c3.137,10.29,0.641,15.152-8.711,19.007
	c-0.461,3.162,1.539,3.271,3.857,3.266c16.576-0.038,33.153-0.017,49.727-0.038c0.936-0.001,1.871-0.224,2.809-0.343
	C136.476,140.596,136.853,138.565,137.243,136.458 M50.437,139.392c-1.4,0-2.395,0.15-3.328-0.025
	c-4.374-0.826-5.491,1.73-5.842,5.335c-0.817,8.4,5.497,16.342,14.24,17.81c7.995,1.342,16.189-4.265,18.214-12.462
	c2.079-8.418,0.251-10.923-7.751-10.598c-0.212,0.008-0.416,0.244-0.622,0.373c2.819,6.031,2.315,10.376-1.567,13.589
	c-3.229,2.673-8.257,2.782-11.605,0.253C47.982,150.499,47.364,146.103,50.437,139.392 M12.062,51.986h45.614v-6.618H12.062V51.986z
	 M152.577,114.878c-3.213-6.401-6.732-13.414-10.252-20.426c-0.496-0.083-0.993-0.166-1.489-0.248
	c-0.66,1.799-1.854,3.587-1.891,5.397c-0.19,9.573-0.097,19.153-0.071,28.73c0.001,0.685,0.24,1.368,0.251,1.429
	C143.397,125.034,147.726,120.247,152.577,114.878 M83.741,100.905c4.025,0,8.09,0.314,12.062-0.153
	c1.602-0.189,3.002-2.088,4.494-3.209c-1.391-1.223-2.739-3.445-4.178-3.505c-8.176-0.341-16.383-0.341-24.562-0.006
	c-1.477,0.061-2.868,2.221-4.298,3.412c1.467,1.154,2.837,3.111,4.421,3.303C75.649,101.226,79.714,100.904,83.741,100.905
	 M60.903,97.025c-11.1,0-21.822-0.053-32.541,0.081c-1.082,0.013-2.15,1.152-3.224,1.769c0.871,0.676,1.734,1.929,2.612,1.939
	c11.266,0.133,22.534,0.087,34.022,0.087C61.461,99.512,61.223,98.45,60.903,97.025 M152.144,76.734
	c-2.564,1.073-4.637,1.594-6.206,2.78c-0.568,0.43-0.401,3.182,0.253,3.607c1.614,1.049,3.705,1.364,5.953,2.086V76.734z
	 M62.842,146.388c-2.355-1.772-3.656-3.514-4.845-3.438c-1.239,0.079-3.223,1.849-3.299,2.984c-0.074,1.104,1.73,3.088,2.953,3.304
	C58.822,149.444,60.306,147.874,62.842,146.388"/>
<path d="M171.676,136.757c5.405,0.068,9.306,4.133,9.214,9.602c-0.092,5.392-4.214,9.254-9.711,9.099
	c-5.217-0.146-9.033-4.124-9.012-9.391C162.189,140.66,166.248,136.688,171.676,136.757 M176.565,146.292
	c-2.387-1.729-3.724-3.447-4.899-3.343c-1.241,0.109-3.179,1.915-3.236,3.06c-0.055,1.095,1.8,3.03,3.032,3.225
	C172.626,149.42,174.074,147.823,176.565,146.292"/>
</svg>
