<?xml version="1.0" encoding="utf-8"?>
<!-- Generator: Adobe Illustrator 16.0.0, SVG Export Plug-In . SVG Version: 6.00 Build 0)  -->
<!DOCTYPE svg PUBLIC "-//W3C//DTD SVG 1.1//EN" "http://www.w3.org/Graphics/SVG/1.1/DTD/svg11.dtd">
<svg version="1.1" id="圖層_1" xmlns="http://www.w3.org/2000/svg" xmlns:xlink="http://www.w3.org/1999/xlink" x="0px" y="0px"
	 width="200px" height="200px" viewBox="0 0 200 200" enable-background="new 0 0 200 200" xml:space="preserve">
<path d="M100.166,12.996C52.102,12.996,13,52.104,13,100.164c0,48.066,39.102,87.171,87.166,87.171
	c48.069,0,87.168-39.104,87.168-87.171C187.334,52.104,148.235,12.996,100.166,12.996 M37.573,80.308
	c-0.318,1.337-1.511,2.229-2.818,2.229c-0.225,0-0.454-0.024-0.682-0.081c-1.563-0.375-2.524-1.944-2.148-3.5
	c2.752-11.431,8.589-21.862,16.878-30.148c8.295-8.295,18.717-14.129,30.149-16.878c1.556-0.375,3.133,0.586,3.5,2.148
	c0.375,1.556-0.583,3.119-2.139,3.5c-10.392,2.5-19.868,7.803-27.4,15.334C45.381,60.44,40.073,69.916,37.573,80.308 M48.773,86.296
	c-0.216,0-0.438-0.024-0.658-0.072c-1.565-0.363-2.542-1.926-2.172-3.491c2.091-8.977,6.63-17.152,13.135-23.65
	c6.493-6.504,14.676-11.044,23.653-13.138c1.556-0.381,3.125,0.61,3.488,2.172c0.363,1.556-0.61,3.127-2.172,3.482
	c-7.919,1.854-15.13,5.853-20.865,11.588c-5.735,5.729-9.74,12.946-11.579,20.865C51.288,85.392,50.095,86.296,48.773,86.296
	 M65.637,87.768c-0.3,1.358-1.508,2.28-2.836,2.28c-0.21,0-0.418-0.024-0.628-0.06c-1.568-0.352-2.56-1.896-2.214-3.458
	C62.852,73.284,73.28,62.853,86.52,59.963c1.562-0.34,3.112,0.646,3.458,2.214c0.345,1.563-0.646,3.113-2.214,3.458
	C76.738,68.054,68.049,76.742,65.637,87.768 M76.687,100.164c0-12.94,10.537-23.473,23.479-23.473
	c12.948,0,23.481,10.533,23.481,23.473c0,12.951-10.533,23.479-23.481,23.479C87.223,123.643,76.687,113.115,76.687,100.164
	 M113.187,140.443c-1.34,0-2.542-0.926-2.836-2.283c-0.343-1.563,0.655-3.112,2.217-3.461c11.026-2.416,19.721-11.104,22.13-22.124
	c0.343-1.574,1.888-2.56,3.455-2.224c1.574,0.337,2.561,1.887,2.218,3.461c-2.896,13.243-13.321,23.675-26.559,26.57
	C113.602,140.419,113.396,140.443,113.187,140.443 M116.942,154.468c-1.316,0-2.512-0.901-2.83-2.247
	c-0.367-1.563,0.612-3.125,2.169-3.485c7.919-1.851,15.13-5.853,20.868-11.585c5.732-5.732,9.74-12.942,11.579-20.862
	c0.366-1.562,1.922-2.56,3.484-2.163c1.563,0.36,2.536,1.923,2.176,3.485c-2.092,8.977-6.634,17.148-13.129,23.65
	c-6.508,6.501-14.686,11.044-23.663,13.135C117.381,154.443,117.164,154.468,116.942,154.468 M151.534,151.535
	c-8.298,8.292-18.717,14.133-30.151,16.873c-0.229,0.06-0.463,0.084-0.686,0.084c-1.31,0-2.493-0.901-2.824-2.224
	c-0.372-1.563,0.589-3.137,2.151-3.509c10.39-2.5,19.865-7.8,27.406-15.334c7.528-7.535,12.834-17.017,15.321-27.4
	c0.379-1.562,1.947-2.523,3.51-2.15c1.556,0.384,2.523,1.959,2.145,3.509C165.66,132.824,159.826,143.243,151.534,151.535"/>
</svg>
