<?xml version="1.0" encoding="utf-8"?>
<!-- Generator: Adobe Illustrator 21.1.0, SVG Export Plug-In . SVG Version: 6.00 Build 0)  -->
<svg version="1.1" id="圖層_1" xmlns="http://www.w3.org/2000/svg" xmlns:xlink="http://www.w3.org/1999/xlink" x="0px" y="0px"
	 viewBox="0 0 200 200" style="enable-background:new 0 0 200 200;" xml:space="preserve">
<g>
	<path class="st0" d="M10.8,135.5c7.9-1.2,15.8-2.5,24-3.8c2.7,14.6,5.3,28.8,8,43.5c-10.9,2.1-21.4,4.1-32,6.2
		C10.8,166.1,10.8,150.8,10.8,135.5z"/>
	<path class="st0" d="M44.4,165.9c-1.8-11.2-3.5-22.3-5.3-33.9c10-3,19-8.4,30-8c7.9,0.3,15.9-0.4,23.8-0.8c2.7-0.1,5.1,0.3,5.7,3.5
		c0.6,3.4-1.4,4.7-4.3,5.4c-6.8,1.7-13.6,3.5-20.3,5.8c13,0.4,26,4.8,38.7-2.1c5.7-3,11.9-4.9,18-7.2c1.5-0.6,3.2-1.6,4.6-1.4
		c1.9,0.3,4.6,1.2,5.2,2.6c0.6,1.4-0.3,4.7-1.6,5.6c-11.7,7.8-23.6,15.5-35.7,22.7c-2.9,1.7-7.1,2-10.6,2
		c-10.9,0.2-21.8,0.2-32.7-0.3C53.8,159.7,48.3,159.9,44.4,165.9z"/>
	<path class="st0" d="M190.8,106.6c0,4.1,0,7.7,0,11.7c-46.6,0-93.1,0-140,0c0-3.7,0-7.6,0-11.7C97.3,106.6,143.9,106.6,190.8,106.6
		z"/>
	<path class="st0" d="M173.7,69.7c-9.2-18.4-24.1-29.4-44.1-33.3c1.4-1.8,2.3-4.1,2.3-6.6c0-5.9-4.8-10.7-10.7-10.7
		c-5.9,0-10.7,4.8-10.7,10.7c0,2.2,0.7,4.3,1.8,6c0,0.2,0.1,0.4,0.1,0.5C97.3,38.7,84.3,46,74.5,58.7c-9.9,12.7-14,27.2-13.1,43.5
		c3.7,0,6.9,0,10.5,0c2.2-28.1,12.4-50.8,40.9-61c-21.4,14.6-30.6,35.5-31.7,61.1c32.9,0,65.6,0,98.8,0
		C180.7,90.7,178.7,79.8,173.7,69.7z"/>
</g>
</svg>
