<?xml version="1.0" encoding="utf-8"?>
<!-- Generator: Adobe Illustrator 16.0.0, SVG Export Plug-In . SVG Version: 6.00 Build 0)  -->
<!DOCTYPE svg PUBLIC "-//W3C//DTD SVG 1.1//EN" "http://www.w3.org/Graphics/SVG/1.1/DTD/svg11.dtd">
<svg version="1.1" id="圖層_1" xmlns="http://www.w3.org/2000/svg" xmlns:xlink="http://www.w3.org/1999/xlink" x="0px" y="0px"
	 width="200px" height="200px" viewBox="0 0 200 200" enable-background="new 0 0 200 200" xml:space="preserve">
<g>
	<path d="M49.762,86.192c-11.726,0-20.173-4.663-21.521-11.879c-0.015-0.079-0.028-0.157-0.04-0.233
		c-1.468-2.843-2.234-5.872-2.277-9.006c-0.033-2.496,0.415-4.986,1.312-7.36l-0.375-0.717c-0.709-1.355-1.081-2.809-1.104-4.322
		c-0.075-5.944,5.415-10.847,12.237-10.937l0.186-0.001c1.998,0,3.952,0.426,5.726,1.24c0.189-0.058,0.383-0.114,0.58-0.17
		c5.083-12.708,17.046-21.302,30.535-21.939L73.169,9.407l3.505-0.154c0.201-0.016,0.404-0.029,0.61-0.029
		c10.155,0,18.925,8.142,21.232,19.525c7.335,6.045,11.846,14.649,12.679,24.083h0.14l0.008,22.94H77.853
		c-4.352,4.557-11.588,8.112-19.707,9.628C55.326,85.926,52.506,86.192,49.762,86.192z M33.989,69.737l0.107,2.918
		c0.007,0.195,0.017,0.416,0.043,0.556c0.755,4.045,7.325,6.98,15.623,6.98c2.375,0,4.826-0.232,7.283-0.69
		c7.304-1.364,13.876-4.675,17.151-8.64l0.9-1.09h30.248l-0.008-13.923c-0.052-9.124-4.207-17.536-11.4-23.081l-0.942-0.726
		l-0.188-1.174c-1.262-7.855-6.33-13.843-12.564-15.303l1.871,11.588l-4.274-0.265c-0.399-0.028-0.8-0.059-1.208-0.059
		c-12.127,0-22.998,7.828-27.049,19.478l-0.542,1.557l-1.604,0.377c-1.063,0.25-1.971,0.513-2.775,0.804l-1.338,0.482l-1.22-0.73
		c-1.16-0.694-2.517-1.061-3.922-1.061l-0.106,0c-3.449,0.046-6.338,2.26-6.317,4.839l5.298-0.07l-2.881,4.652
		c-1.528,2.468-2.285,5.104-2.249,7.835c0.023,1.627,0.327,3.221,0.906,4.755L33.989,69.737z"/>
</g>
<g>
	<path d="M171.145,187.772h-104.8l-0.77-1.845c-1.09-2.61-1.642-5.375-1.642-8.215c0-11.772,9.578-21.351,21.352-21.351
		c4.354,0,8.508,1.298,12.078,3.765h0.144c-0.419-1.96-0.631-3.947-0.631-5.943c0-7.74,3.085-14.882,8.182-20.127
		c-6.528,3.536-11.121,10.17-11.815,18.106l-0.415,4.738l-19-11.204l-21.042,42.075H12.69l-0.768-1.851
		c-1.087-2.621-1.639-5.383-1.639-8.209c0-11.696,9.455-21.226,21.125-21.35l28.763-74.355h53.204l54.31,55.954
		c7.335-5.283,11.647-13.621,11.647-22.735c0-0.8-0.042-1.646-0.13-2.588l5.546-1.845c3.289,5.371,5.028,11.512,5.028,17.757
		c0,10.695-5.054,20.77-13.58,27.204L171.145,187.772z M70.476,181.772h95.542l4.646-29.444l1.049-0.731
		c7.555-5.263,12.064-13.878,12.064-23.046c0-0.896-0.044-1.789-0.13-2.677c-2.495,7.63-7.663,14.199-14.835,18.527l-2.041,1.232
		l-55.933-57.626H64.284l-28.876,74.648l-2.267-0.22c-9.176-0.892-16.858,6.313-16.857,15.276c0,1.38,0.183,2.738,0.545,4.06h32.247
		l22.26-44.509l16.683,9.838c3.15-12.7,14.483-21.799,28-21.799c1.763,0,3.588,0.176,5.426,0.522l0.006,5.896
		c-10.764,2.054-18.575,11.501-18.575,22.463c0,2.671,0.482,5.33,1.434,7.902l1.495,4.041h-10.43l-0.806-0.616
		c-2.698-2.06-5.908-3.148-9.284-3.148c-8.465,0-15.352,6.887-15.352,15.351C69.932,179.098,70.114,180.457,70.476,181.772z"/>
</g>
</svg>
