<?xml version="1.0" encoding="utf-8"?>
<!-- Generator: Adobe Illustrator 21.1.0, SVG Export Plug-In . SVG Version: 6.00 Build 0)  -->
<svg version="1.1" id="圖層_1" xmlns="http://www.w3.org/2000/svg" xmlns:xlink="http://www.w3.org/1999/xlink" x="0px" y="0px"
	 viewBox="0 0 200 200" style="enable-background:new 0 0 200 200;" xml:space="preserve">
<g>
	<g>
		<g>
			<path d="M148.1,10H51.9c-2,0-3.6,1.6-3.6,3.6v172.8c0,2,1.6,3.6,3.6,3.6h96.1c2,0,3.6-1.6,3.6-3.6V13.6
				C151.7,11.6,150,10,148.1,10z M144.5,182.8h-89V17.2h89L144.5,182.8L144.5,182.8z"/>
		</g>
	</g>
	<g>
		<g>
			<path d="M91.8,26.5H68.1c-2,0-3.6,1.6-3.6,3.6v69.2c0,2,1.6,3.6,3.6,3.6h23.7c2,0,3.6-1.6,3.6-3.6V30.1
				C95.3,28.1,93.7,26.5,91.8,26.5z M88.2,95.7H71.7v-62h16.5V95.7z"/>
		</g>
	</g>
	<g>
		<g>
			<path d="M131.9,26.5h-23.7c-2,0-3.6,1.6-3.6,3.6v69.2c0,2,1.6,3.6,3.6,3.6h23.7c2,0,3.6-1.6,3.6-3.6V30.1
				C135.5,28.1,133.9,26.5,131.9,26.5z M128.3,95.7h-16.5v-62h16.5L128.3,95.7L128.3,95.7z"/>
		</g>
	</g>
	<g>
		<g>
			<path d="M71.1,109.7c-5,0-9.1,4.1-9.1,9.1s4.1,9.1,9.1,9.1c5,0,9.1-4.1,9.1-9.1S76.2,109.7,71.1,109.7z M71.1,120.8
				c-1.1,0-2-0.9-2-2s0.9-2,2-2c1.1,0,2,0.9,2,2S72.2,120.8,71.1,120.8z"/>
		</g>
	</g>
	<g>
		<g>
			<path d="M131.9,140.2c-2,0-3.6,1.6-3.6,3.6v28.7c0,2,1.6,3.6,3.6,3.6c2,0,3.6-1.6,3.6-3.6v-28.7
				C135.5,141.8,133.9,140.2,131.9,140.2z"/>
		</g>
	</g>
	<g>
		<g>
			<path d="M131.9,127.3c-2,0-3.6,1.6-3.6,3.6v1.8c0,2,1.6,3.6,3.6,3.6c2,0,3.6-1.6,3.6-3.6v-1.8
				C135.5,128.9,133.9,127.3,131.9,127.3z"/>
		</g>
	</g>
</g>
</svg>
