<?xml version="1.0" encoding="utf-8"?>
<!-- Generator: Adobe Illustrator 16.0.0, SVG Export Plug-In . SVG Version: 6.00 Build 0)  -->
<!DOCTYPE svg PUBLIC "-//W3C//DTD SVG 1.1//EN" "http://www.w3.org/Graphics/SVG/1.1/DTD/svg11.dtd">
<svg version="1.1" id="Layer_1" xmlns="http://www.w3.org/2000/svg" xmlns:xlink="http://www.w3.org/1999/xlink" x="0px" y="0px"
	 width="200px" height="200px" viewBox="0 0 200 200" enable-background="new 0 0 200 200" xml:space="preserve">
<path d="M53.53,97.502c-3.266-3.267-3.266-8.178,0-11.444c3.275-3.273,8.179-3.273,11.453,0l26.985,26.985V18.176
	c0-4.903,3.275-8.178,8.178-8.178c4.911,0,8.178,3.274,8.178,8.178v94.867l26.986-26.985c3.273-3.273,8.177-3.273,11.452,0
	c3.273,3.267,3.273,8.178,0,11.444l-40.89,40.89c-1.637,1.637-4.089,2.452-5.727,2.452c-1.636,0-4.089-0.815-5.726-2.452
	L53.53,97.502z M181.924,124.488c-4.903,0-8.177,3.273-8.177,8.178v32.711c0,4.912-3.267,8.177-8.179,8.177H34.724
	c-4.904,0-8.179-3.265-8.179-8.177v-32.711c0-4.904-3.266-8.178-8.178-8.178c-4.903,0-8.178,3.273-8.178,8.178v32.711
	c0,3.274,0.823,6.548,1.637,9.814c1.638,3.273,3.275,5.726,4.904,8.179c2.459,2.451,4.912,4.089,8.178,4.911
	c3.273,1.629,6.549,1.629,9.816,1.629h130.844c3.274,0,6.54-0.813,9.815-1.629c3.273-1.638,5.727-3.274,7.362-4.911
	c2.451-2.453,4.091-4.905,4.904-8.179c1.636-3.267,1.636-6.54,1.636-9.814v-32.711C190.102,127.762,186.837,124.488,181.924,124.488
	z"/>
</svg>
