<?xml version="1.0" encoding="utf-8"?>
<!-- Generator: Adobe Illustrator 16.0.0, SVG Export Plug-In . SVG Version: 6.00 Build 0)  -->
<!DOCTYPE svg PUBLIC "-//W3C//DTD SVG 1.1//EN" "http://www.w3.org/Graphics/SVG/1.1/DTD/svg11.dtd">
<svg version="1.1" id="圖層_1" xmlns="http://www.w3.org/2000/svg" xmlns:xlink="http://www.w3.org/1999/xlink" x="0px" y="0px"
	 width="200px" height="200px" viewBox="0 0 200 200" enable-background="new 0 0 200 200" xml:space="preserve">
<path d="M100.53,145.88c11.267,0,20.433-9.166,20.433-20.433s-9.166-20.433-20.433-20.433c-11.268,0-20.434,9.166-20.434,20.433
	S89.262,145.88,100.53,145.88 M100.53,112.015c7.407,0,13.433,6.025,13.433,13.433s-6.025,13.433-13.433,13.433
	s-13.434-6.025-13.434-13.433S93.123,112.015,100.53,112.015"/>
<path d="M150.56,60.399h-15.78h-1.647v-7.587c0-1.932-1.567-3.5-3.5-3.5h-25.077l3.634-25.922l24.79-5.472
	c1.888-0.417,3.079-2.286,2.663-4.173c-0.418-1.887-2.281-3.077-4.173-2.663l-27.163,5.997c-0.021,0.005-0.039,0.014-0.061,0.019
	c-0.146,0.035-0.285,0.087-0.424,0.14c-0.078,0.029-0.157,0.053-0.232,0.087c-0.128,0.059-0.246,0.135-0.366,0.209
	c-0.074,0.046-0.151,0.085-0.221,0.136c-0.111,0.082-0.211,0.176-0.312,0.27c-0.063,0.059-0.132,0.111-0.19,0.175
	c-0.092,0.099-0.17,0.211-0.25,0.32c-0.053,0.072-0.111,0.139-0.158,0.214c-0.063,0.103-0.112,0.215-0.166,0.325
	c-0.047,0.097-0.099,0.191-0.137,0.292c-0.035,0.094-0.057,0.194-0.084,0.291c-0.036,0.128-0.073,0.255-0.095,0.388
	c-0.003,0.022-0.013,0.043-0.016,0.065l-4.107,29.302h-26.06c-1.932,0-3.5,1.568-3.5,3.5v7.587h-1.647H50.5
	c-1.932,0-3.5,1.567-3.5,3.5v12.253c0,1.933,1.568,3.5,3.5,3.5h6.053l10.34,107.557c0.173,1.795,1.681,3.165,3.484,3.165h60.306
	c1.804,0,3.312-1.37,3.484-3.165l10.34-107.557h6.053c1.933,0,3.5-1.567,3.5-3.5V63.899C154.06,61.966,152.492,60.399,150.56,60.399
	 M74.928,56.313h51.204v4.087H74.928V56.313z M127.503,183.374H73.557L63.584,79.652h73.89L127.503,183.374z M147.06,72.652h-5.732
	H59.732H54v-5.253h12.281H70.3h60.46h4.02h12.28V72.652z"/>
</svg>
