<?xml version="1.0" encoding="utf-8"?>
<!-- Generator: Adobe Illustrator 16.0.0, SVG Export Plug-In . SVG Version: 6.00 Build 0)  -->
<!DOCTYPE svg PUBLIC "-//W3C//DTD SVG 1.1//EN" "http://www.w3.org/Graphics/SVG/1.1/DTD/svg11.dtd">
<svg version="1.1" id="圖層_1" xmlns="http://www.w3.org/2000/svg" xmlns:xlink="http://www.w3.org/1999/xlink" x="0px" y="0px"
	 width="200px" height="200px" viewBox="0 0 200 200" enable-background="new 0 0 200 200" xml:space="preserve">
<path fill-rule="evenodd" clip-rule="evenodd" d="M86.238,49.081h52.273v-5.507H86.238V49.081z M94.35,155.313l-17.195-17.198
	h73.995v26.716c0,7.297-5.973,13.27-13.271,13.27H98.595C101.898,170.584,100.485,161.446,94.35,155.313 M66.808,127.77V64.677
	c0-7.042,4.725-13.031,11.161-14.95v-6.153H74.76c-2.351,0-4.282-1.923-4.282-4.28V12.997c0-2.356,1.931-4.284,4.282-4.284h75.228
	c2.354,0,4.282,1.928,4.282,4.284v26.297c0,2.356-1.928,4.28-4.282,4.28h-3.212v6.153c6.436,1.919,11.163,7.908,11.163,14.95
	v103.978c0,8.579-7.021,15.596-15.595,15.596H94.412l-0.062,0.057c-7.974,7.974-21.021,7.974-28.994,0L32.318,151.27
	c-7.975-7.978-7.975-21.02,0-28.993c7.973-7.974,21.02-7.974,28.993,0L66.808,127.77z M74.096,142.595l-0.501-0.485l-6.787-6.606
	l-6.582-6.405c-6.779-6.774-16.215-9.349-23.316-2.246c-7.101,7.1-4.239,15.977,2.672,22.888l13.864,13.501l13.361-13.358
	l6.787-6.787L74.096,142.595z M73.595,89.854h77.554V68.497c0-10.734-7.889-13.267-15.862-13.267H90.049
	c-8.148,0-16.454,2.052-16.454,13.267V89.854z M110.894,12.005c-0.277,0-0.507,0.228-0.507,0.504v27.272
	c0,0.276,0.229,0.504,0.507,0.504h3.114c0.277,0,0.504-0.228,0.504-0.504V12.509c0-0.276-0.227-0.504-0.504-0.504H110.894z
	 M124.959,12.005c-0.277,0-0.504,0.228-0.504,0.504v27.272c0,0.276,0.227,0.504,0.504,0.504h3.114c0.277,0,0.508-0.228,0.508-0.504
	V12.509c0-0.276-0.23-0.504-0.508-0.504H124.959z M139.639,12.005c-0.277,0-0.504,0.228-0.504,0.504v27.272
	c0,0.276,0.227,0.504,0.504,0.504h3.114c0.277,0,0.508-0.228,0.508-0.504V12.509c0-0.276-0.23-0.504-0.508-0.504H139.639z
	 M81.995,12.005c-0.28,0-0.511,0.228-0.511,0.504v27.272c0,0.276,0.23,0.504,0.511,0.504h3.11c0.278,0,0.508-0.228,0.508-0.504
	V12.509c0-0.276-0.229-0.504-0.508-0.504H81.995z M96.671,12.005c-0.278,0-0.504,0.228-0.504,0.504v27.272
	c0,0.276,0.226,0.504,0.504,0.504h3.113c0.278,0,0.508-0.228,0.508-0.504V12.509c0-0.276-0.229-0.504-0.508-0.504H96.671z"/>
</svg>
