<?xml version="1.0" encoding="utf-8"?>
<!-- Generator: Adobe Illustrator 16.0.0, SVG Export Plug-In . SVG Version: 6.00 Build 0)  -->
<!DOCTYPE svg PUBLIC "-//W3C//DTD SVG 1.1//EN" "http://www.w3.org/Graphics/SVG/1.1/DTD/svg11.dtd">
<svg version="1.1" id="圖層_1" xmlns="http://www.w3.org/2000/svg" xmlns:xlink="http://www.w3.org/1999/xlink" x="0px" y="0px"
	 width="200px" height="200px" viewBox="0 0 200 200" enable-background="new 0 0 200 200" xml:space="preserve">
<path d="M6.958,18.846c1.021-2.063,1.812-4.287,3.118-6.148c1.774-2.527,4.504-3.779,7.552-4.215
	c0.976-0.14,1.978-0.133,2.966-0.134c26.504-0.005,53.009,0.004,79.513-0.015c3.162-0.002,6.058,0.638,8.588,2.661
	c3.104,2.479,4.725,5.691,4.741,9.627c0.043,11.196,0.014,22.392,0.008,33.588c0,0.143-0.052,0.285-0.101,0.528h-8.411V28.091
	H15.625v140.546h89.201v-24.795h8.552c0.026,0.529,0.072,1.01,0.072,1.491c0.006,11.046,0.02,22.094,0.003,33.142
	c-0.009,6.565-3.551,11.363-9.515,12.82c-1.186,0.291-2.452,0.34-3.682,0.341c-26.604,0.017-53.207-0.006-79.81,0.031
	c-3.564,0.005-6.734-0.84-9.42-3.261c-1.66-1.496-2.751-3.337-3.448-5.438c-0.202-0.608-0.414-1.213-0.621-1.819
	C6.958,127.048,6.958,72.946,6.958,18.846 M66.422,179.348c0.025-3.422-2.788-6.227-6.226-6.204
	c-3.451,0.02-6.083,2.667-6.108,6.138c-0.025,3.384,2.675,6.183,6.035,6.254C63.458,185.606,66.398,182.72,66.422,179.348
	 M60.294,20.188c0-0.003,0-0.007,0-0.011c4.205,0,8.409,0,12.614,0c0.999-0.001,1.863-0.32,1.839-1.453
	c-0.023-1.056-0.8-1.516-1.827-1.53c-0.297-0.004-0.594-0.006-0.891-0.006c-7.864,0-15.73-0.002-23.595,0.004
	c-0.541,0-1.104-0.019-1.618,0.118c-0.963,0.255-1.504,1.393-0.889,2.075c0.417,0.462,1.249,0.759,1.902,0.77
	C51.984,20.221,56.139,20.188,60.294,20.188"/>
<path d="M193.041,54.517c-9.559-0.017-19.118-0.018-28.677-0.071c-1.233-0.007-1.156,0.873-1.313,1.58
	c-1.486,6.665-2.938,13.338-4.414,20.006c-3.091,13.965-6.195,27.927-9.283,41.891c-1.238,5.605-2.466,11.214-3.646,16.832
	c-0.21,0.999-0.597,1.353-1.662,1.351c-28.631-0.03-57.262-0.03-85.892-0.003c-1.021,0-1.469-0.262-1.698-1.311
	c-2.09-9.573-4.239-19.135-6.371-28.698c-2.908-13.042-5.821-26.083-8.724-39.125c-0.287-1.288-0.522-2.587-0.8-3.971h99.536
	c-0.859,3.341-1.666,6.542-2.534,9.727c-0.072,0.268-0.524,0.527-0.847,0.61c-0.42,0.106-0.885,0.033-1.33,0.033
	c-26.551,0-53.102,0-79.652,0.006c-0.672,0-1.344,0.065-2.193,0.11c0.729,3.255,1.422,6.329,2.105,9.405
	c3.045,13.719,6.106,27.436,9.1,41.165c0.275,1.262,0.734,1.669,2.035,1.668c22.835-0.042,45.671-0.037,68.506-0.013
	c1.136,0.001,1.774-0.182,2.051-1.477c2.063-9.628,4.208-19.238,6.328-28.855c3.48-15.803,6.959-31.606,10.445-47.408
	c0.872-3.952,0.885-3.949,4.913-3.949c10.748,0,21.498-0.001,32.246,0.004c0.592,0,1.182,0.059,1.772,0.09V54.517z"/>
<path d="M117.781,150.02c0.008-5.4,4.254-9.636,9.717-9.688c5.266-0.051,9.743,4.385,9.773,9.684
	c0.031,5.353-4.452,9.803-9.84,9.766C122.05,159.743,117.776,155.421,117.781,150.02"/>
<path d="M66.646,150.23c-0.162-5.374,4.027-9.728,9.514-9.89c5.295-0.156,9.708,4.036,9.875,9.377
	c0.172,5.505-4.012,9.929-9.514,10.061C71.133,159.908,66.811,155.729,66.646,150.23"/>
</svg>
