<?xml version="1.0" encoding="utf-8"?>
<!-- Generator: Adobe Illustrator 16.0.0, SVG Export Plug-In . SVG Version: 6.00 Build 0)  -->
<!DOCTYPE svg PUBLIC "-//W3C//DTD SVG 1.1//EN" "http://www.w3.org/Graphics/SVG/1.1/DTD/svg11.dtd">
<svg version="1.1" id="圖層_1" xmlns="http://www.w3.org/2000/svg" xmlns:xlink="http://www.w3.org/1999/xlink" x="0px" y="0px"
	 width="200px" height="200px" viewBox="0 0 200 200" enable-background="new 0 0 200 200" xml:space="preserve">
<path d="M182.532,91.462c-11.646,0-21.667,7.038-26.066,17.076h-2.394V91.462h-5.691v-2.846
	c0-1.574-1.275-2.846-2.846-2.846s-2.846,1.271-2.846,2.846v2.846h-5.692v17.076h-2.846V91.462h-5.692v-2.846
	c0-1.574-1.275-2.846-2.846-2.846s-2.846,1.271-2.846,2.846v2.846h-5.692v17.076h-2.846v-14.23h-8.538V72.244
	c4.23,3.123,9.108,4.824,14.23,4.824s9.999-1.701,14.229-4.824v4.989c0,1.575,1.275,2.846,2.846,2.846s2.846-1.271,2.846-2.846
	v-4.989c4.23,3.123,9.107,4.824,14.229,4.824s10-1.701,14.23-4.824v4.989c0,1.575,1.275,2.846,2.846,2.846s2.846-1.271,2.846-2.846
	V65.849c0-0.13-0.014-0.261-0.014-0.396c-0.003-0.02,0-0.036-0.003-0.057c-0.37-24.235-30.469-43.998-68.035-45.033
	c-0.089-0.006-0.161-0.049-0.251-0.049v-2.846c0-1.574-1.275-2.846-2.846-2.846S100,15.894,100,17.468v2.846
	c-0.087,0-0.163,0.043-0.25,0.051C62.186,21.4,32.088,41.161,31.714,65.396c-0.003,0.021,0,0.037-0.003,0.057
	c0,0.135-0.014,0.266-0.014,0.396v11.384c0,1.575,1.275,2.846,2.846,2.846s2.846-1.271,2.846-2.846v-4.989
	c4.229,3.123,9.107,4.824,14.229,4.824s10.001-1.701,14.229-4.824v4.989c0,1.575,1.276,2.846,2.846,2.846s2.846-1.271,2.846-2.846
	v-4.989c4.229,3.123,9.108,4.824,14.23,4.824S95.771,75.366,100,72.244v22.064h-8.538v14.23H51.619v-2.847H40.235v-8.537h17.076
	c1.57,0,2.846-1.271,2.846-2.846c0-1.574-1.275-2.846-2.846-2.846H17.468c-1.57,0-2.846,1.271-2.846,2.846
	c0,1.575,1.276,2.846,2.846,2.846h17.076v8.537H23.16v36.998h22.768v1.014c-3.552,4.397-5.692,9.98-5.692,16.062
	c0,7.034,2.852,13.412,7.459,18.046c0.02,0.019,0.025,0.05,0.046,0.066c0.02,0.017,0.044,0.024,0.068,0.044
	c4.63,4.605,11.007,7.457,18.04,7.457c7.033,0,13.41-2.852,18.043-7.457c0.021-0.02,0.049-0.024,0.068-0.044
	c0.021-0.02,0.027-0.048,0.046-0.066c1.928-1.938,3.524-4.191,4.755-6.662h62.872c-0.242,0.917-0.406,1.859-0.406,2.846
	c0,6.278,5.105,11.384,11.384,11.384s11.384-5.105,11.384-11.384s-5.105-11.384-11.384-11.384c-0.986,0-1.929,0.164-2.846,0.403
	v-43.092c0-12.554,10.214-22.768,22.768-22.768c1.57,0,2.846-1.271,2.846-2.846C185.378,92.734,184.103,91.462,182.532,91.462
	 M119.922,71.373c-5.295,0-10.303-2.419-14.23-6.79V26.606c15.792,3.111,27.909,18.878,28.41,38.034
	C130.177,68.977,125.188,71.373,119.922,71.373 M168.252,64.637c-3.918,4.337-8.91,6.735-14.18,6.735
	c-5.319,0-10.353-2.441-14.29-6.855c-0.393-15.417-7.496-28.923-18.107-36.825C148.009,32.518,167.388,47.182,168.252,64.637
	 M51.619,71.373c-5.271,0-10.259-2.398-14.178-6.735c0.862-17.455,20.243-32.12,46.576-36.944
	c-10.612,7.901-17.715,21.408-18.108,36.825C61.973,68.931,56.938,71.373,51.619,71.373 M85.771,71.373
	c-5.268,0-10.257-2.398-14.178-6.733C72.089,45.484,84.208,29.717,100,26.606v37.977C96.073,68.953,91.063,71.373,85.771,71.373
	 M142.689,97.154h5.691v11.384h-5.691V97.154z M122.768,97.154h5.691v11.384h-5.691V97.154z M97.154,100h11.384v8.538H97.154V100z
	 M55.624,142.7c0.093-0.056,0.185-0.114,0.278-0.167c0.516-0.3,1.048-0.572,1.585-0.822c0.082-0.039,0.163-0.084,0.245-0.12
	c0.562-0.253,1.135-0.472,1.716-0.672c0.071-0.025,0.139-0.053,0.211-0.078c0.592-0.194,1.195-0.355,1.804-0.495
	c0.068-0.014,0.136-0.036,0.204-0.053c0.439-0.094,0.885-0.149,1.333-0.217v8.305c0,1.573,1.274,2.846,2.846,2.846
	c1.57,0,2.846-1.272,2.846-2.846v-8.31c3.367,0.483,6.458,1.809,9.062,3.763l-5.872,5.87c-1.113,1.114-1.113,2.912,0,4.024
	c0.555,0.556,1.283,0.833,2.012,0.833c0.729,0,1.457-0.277,2.012-0.833l5.871-5.87c1.953,2.604,3.275,5.694,3.762,9.061h-8.307
	c-1.57,0-2.846,1.272-2.846,2.846s1.275,2.846,2.846,2.846h8.31c-0.008,0.048-0.014,0.101-0.022,0.147
	c-0.043,0.292-0.078,0.581-0.133,0.867c-0.094,0.464-0.217,0.926-0.342,1.387c-0.04,0.153-0.071,0.306-0.117,0.453
	c-0.154,0.509-0.336,1.015-0.532,1.512c-0.046,0.119-0.083,0.242-0.13,0.358l-0.106,0.262c-0.626,1.459-1.437,2.82-2.379,4.074
	l-5.871-5.87c-1.113-1.111-2.911-1.111-4.024,0c-1.113,1.112-1.113,2.91,0,4.024l5.871,5.87c-2.604,1.953-5.694,3.279-9.062,3.763
	v-8.31c0-1.573-1.276-2.846-2.846-2.846s-2.846,1.272-2.846,2.846v8.31c-3.367-0.483-6.458-1.81-9.062-3.763l5.871-5.87
	c1.113-1.114,1.113-2.912,0-4.024c-1.113-1.111-2.914-1.111-4.024,0l-5.871,5.87c-1.953-2.604-3.278-5.694-3.762-9.061h8.31
	c1.57,0,2.846-1.272,2.846-2.846s-1.276-2.846-2.846-2.846h-8.31c0.483-3.366,1.809-6.456,3.762-9.061l5.871,5.87
	c0.556,0.556,1.284,0.833,2.012,0.833c0.729,0,1.458-0.277,2.012-0.833c1.113-1.112,1.113-2.91,0-4.024l-5.871-5.87
	c0.076-0.062,0.154-0.117,0.233-0.175C54.645,143.314,55.128,142.997,55.624,142.7 M28.852,111.384h17.076v25.613H28.852V111.384z
	 M90.851,165.271c0.147-0.673,0.259-1.362,0.353-2.06c0.031-0.229,0.079-0.456,0.104-0.684c0.097-0.906,0.154-1.829,0.154-2.763
	c0-7.034-2.852-13.413-7.459-18.046c-0.02-0.02-0.025-0.05-0.046-0.066c-0.02-0.017-0.044-0.025-0.068-0.045
	c-4.63-4.604-11.007-7.456-18.04-7.456c-1.164,0-2.302,0.105-3.424,0.256c-0.25,0.033-0.5,0.074-0.75,0.113
	c-2.308,0.381-4.508,1.064-6.566,2.021c-0.154,0.072-0.307,0.147-0.458,0.223c-1.048,0.512-2.066,1.072-3.028,1.718v-24.252h39.843
	h22.768h2.846h17.076H137h17.075v51.227H90.819C90.833,165.396,90.835,165.331,90.851,165.271 M168.303,173.994
	c0,3.138-2.555,5.692-5.692,5.692s-5.691-2.555-5.691-5.692c0-1.403,0.527-2.677,1.378-3.669l0.108-0.119
	c0.134-0.147,0.272-0.286,0.417-0.417l0.119-0.108c0.992-0.851,2.266-1.378,3.669-1.378
	C165.748,168.303,168.303,170.856,168.303,173.994"/>
<path  d="M57.311,129.463l3.321-0.559c1.725-0.298,3.481-0.445,5.216-0.445c16.16,0,29.863,12.604,31.197,28.696
	l0.217,2.609h51.118v-39.843h-91.07V129.463z M91.462,125.613h17.076h17.075h17.076c-1.57,0-2.847,1.275-2.847,2.846
	s1.276,2.847,2.847,2.847v11.384c-1.57,0-2.847,1.275-2.847,2.846s1.276,2.846,2.847,2.846v5.691h-5.692
	c0-1.57-1.275-2.846-2.846-2.846s-2.846,1.275-2.846,2.846h-11.384c0-1.57-1.276-2.846-2.847-2.846s-2.846,1.275-2.846,2.846
	h-11.822c-2.013-12.9-10.788-23.584-22.423-28.459H91.462z"/>
<path  d="M65.849,156.919c1.57,0,2.846,1.272,2.846,2.846s-1.276,2.846-2.846,2.846s-2.846-1.272-2.846-2.846
	S64.278,156.919,65.849,156.919"/>
<path  d="M134.151,134.151c1.573,0,2.846,1.272,2.846,2.846s-1.272,2.846-2.846,2.846s-2.846-1.272-2.846-2.846
	S132.578,134.151,134.151,134.151"/>
<path  d="M117.075,134.151c1.573,0,2.847,1.272,2.847,2.846s-1.273,2.846-2.847,2.846
	c-1.572,0-2.846-1.272-2.846-2.846S115.503,134.151,117.075,134.151"/>
<path  d="M125.613,125.613c1.573,0,2.846,1.273,2.846,2.846c0,1.573-1.272,2.847-2.846,2.847
	s-2.846-1.273-2.846-2.847C122.768,126.887,124.04,125.613,125.613,125.613"/>
<path  d="M125.613,142.689c1.573,0,2.846,1.272,2.846,2.846s-1.272,2.846-2.846,2.846s-2.846-1.272-2.846-2.846
	S124.04,142.689,125.613,142.689"/>
<path  d="M100,134.151c1.57,0,2.846,1.272,2.846,2.846s-1.275,2.846-2.846,2.846s-2.846-1.272-2.846-2.846
	S98.43,134.151,100,134.151"/>
<path  d="M91.462,125.613c1.57,0,2.846,1.273,2.846,2.846c0,1.573-1.276,2.847-2.846,2.847
	c-1.57,0-2.846-1.273-2.846-2.847C88.616,126.887,89.892,125.613,91.462,125.613"/>
<path  d="M108.538,125.613c1.573,0,2.846,1.273,2.846,2.846c0,1.573-1.272,2.847-2.846,2.847
	s-2.847-1.273-2.847-2.847C105.691,126.887,106.965,125.613,108.538,125.613"/>
<path  d="M108.538,142.689c1.573,0,2.846,1.272,2.846,2.846s-1.272,2.846-2.846,2.846s-2.847-1.272-2.847-2.846
	S106.965,142.689,108.538,142.689"/>
</svg>
