<?xml version="1.0" encoding="utf-8"?>
<!-- Generator: Adobe Illustrator 16.0.0, SVG Export Plug-In . SVG Version: 6.00 Build 0)  -->
<!DOCTYPE svg PUBLIC "-//W3C//DTD SVG 1.1//EN" "http://www.w3.org/Graphics/SVG/1.1/DTD/svg11.dtd">
<svg version="1.1" id="圖層_1" xmlns="http://www.w3.org/2000/svg" xmlns:xlink="http://www.w3.org/1999/xlink" x="0px" y="0px"
	 width="200px" height="200px" viewBox="0 0 200 200" enable-background="new 0 0 200 200" xml:space="preserve">
<path d="M131.258,70.108l-25.47,25.583c-3.478,3.477-8.502,3.477-11.886,0.091L68.249,70.109c-2.005-1.999-5.25-1.999-7.256,0
	c-1.999,1.999-1.999,5.251,0,7.256l25.125,25.006c3.286,3.271,7.777,5.488,13.631,5.488c5.583,0,10.444-2.31,13.724-5.582
	l25.041-24.912c1.996-2.005,1.996-5.257,0-7.257C136.508,68.103,133.264,68.103,131.258,70.108z"/>
<path d="M123.172,107.475c-2.001-2-5.238-2-7.244,0c-2.006,2.004-2.006,5.25,0,7.248l15.33,15.342
	c1.006,0.992,2.314,1.492,3.624,1.492c1.315,0,2.624-0.5,3.632-1.492c1.996-2.006,1.996-5.25,0-7.256L123.172,107.475z"/>
<path d="M76.328,107.475l-15.336,15.336c-1.999,2.006-1.999,5.25,0,7.256c1.006,0.992,2.314,1.492,3.625,1.492
	c1.316,0,2.625-0.5,3.631-1.492l15.329-15.344c1.999-1.998,1.999-5.244,0.001-7.248C81.571,105.475,78.333,105.475,76.328,107.475z"
	/>
<path d="M99.749,10C50,10,9.666,50.326,9.666,100.083S50,190.167,99.749,190.167c49.75,0,90.083-40.326,90.083-90.083
	S149.498,10,99.749,10z M146.593,129.572c0,4.728-3.844,8.57-8.573,8.57H61.485c-4.737,0-8.579-3.844-8.579-8.57v-58.97
	c0-4.735,3.842-8.579,8.579-8.579h76.535c4.729,0,8.573,3.844,8.573,8.58V129.572z"/>
</svg>
