<?xml version="1.0" encoding="utf-8"?>
<!-- Generator: Adobe Illustrator 21.1.0, SVG Export Plug-In . SVG Version: 6.00 Build 0)  -->
<svg version="1.1" id="圖層_1" xmlns="http://www.w3.org/2000/svg" xmlns:xlink="http://www.w3.org/1999/xlink" x="0px" y="0px"
	 viewBox="0 0 200 200" style="enable-background:new 0 0 200 200;" xml:space="preserve">
<g>
	<rect x="25.7" y="51.4" width="15" height="7.8"/>
	<rect x="25.7" y="66.3" width="15" height="7.8"/>
	<path d="M190.5,115.2c0-6.3-5.1-11.3-11.3-11.3h-14.8V68.4c0-19.7-16-35.7-35.7-35.7S93,48.7,93,68.4v86.1
		c0,15.4-12.5,27.9-27.9,27.9s-27.9-12.5-27.9-27.9V96.2c10.6-1.8,18.7-11,18.8-22.2V29H44.6V10.2H21.8V29H10.6V74
		c0,11.1,8.1,20.3,18.7,22.2v58.3c0,19.7,16,35.7,35.7,35.7s35.7-16,35.7-35.7V68.4c0-15.4,12.5-27.9,27.9-27.9s27.9,12.5,27.9,27.9
		v35.5h-14.9c-6.3,0-11.3,5.1-11.3,11.3v52.6h11.2v22.5h37.7v-22.5h11.2V115.2z M29.6,18h7.2v10.9h-7.2V18z M18.4,74V36.7h29.7V74
		c-0.1,8.2-6.7,14.8-14.9,14.8S18.4,82.2,18.4,74z M171.6,182.4h-22.2v-14.7h22.2V182.4z M182.7,160h-3.4h-37.7h-3.5v-44.8
		c0-2,1.6-3.6,3.6-3.6h37.4c2,0,3.6,1.6,3.6,3.6V160z"/>
	<rect x="149.2" y="122.5" width="22.5" height="7.8"/>
	<rect x="149.2" y="137.5" width="22.5" height="7.8"/>
</g>
</svg>
