<?xml version="1.0" encoding="utf-8"?>
<!-- Generator: Adobe Illustrator 16.0.0, SVG Export Plug-In . SVG Version: 6.00 Build 0)  -->
<!DOCTYPE svg PUBLIC "-//W3C//DTD SVG 1.1//EN" "http://www.w3.org/Graphics/SVG/1.1/DTD/svg11.dtd">
<svg version="1.1" id="Layer_1" xmlns="http://www.w3.org/2000/svg" xmlns:xlink="http://www.w3.org/1999/xlink" x="0px" y="0px"
	 width="200px" height="200px" viewBox="0 0 200 200" enable-background="new 0 0 200 200" xml:space="preserve">
<g>
	<g>
		<path d="M147.126,43.633h-1.894v9.709h1.894c2.257,0,4.161,1.908,4.161,4.162v119.139c0,2.257-1.904,4.161-4.161,4.161H53.87
			c-2.256,0-4.161-1.904-4.161-4.161V57.504c0-2.254,1.905-4.162,4.161-4.162h1.894v-9.709H53.87C46.241,43.633,40,49.875,40,57.504
			v119.139c0,7.629,6.242,13.871,13.871,13.871h93.256c7.629,0,13.871-6.242,13.871-13.871V57.504
			C160.997,49.875,154.755,43.633,147.126,43.633z"/>
	</g>
	<g>
		<g>
			<rect x="64.434" y="122.551" width="16.645" height="9.71"/>
		</g>
		<g>
			<rect x="92.175" y="122.551" width="16.645" height="9.71"/>
		</g>
		<g>
			<rect x="119.917" y="122.551" width="16.646" height="9.71"/>
		</g>
	</g>
	<g>
		<g>
			<rect x="64.434" y="141.971" width="16.645" height="9.71"/>
		</g>
		<g>
			<rect x="92.175" y="141.971" width="16.645" height="9.71"/>
		</g>
		<g>
			<rect x="119.917" y="141.971" width="16.646" height="9.71"/>
		</g>
	</g>
	<g>
		<g>
			<rect x="64.434" y="161.39" width="16.645" height="9.71"/>
		</g>
		<g>
			<rect x="92.175" y="161.39" width="16.645" height="9.71"/>
		</g>
		<g>
			<rect x="119.917" y="161.39" width="16.646" height="9.71"/>
		</g>
	</g>
	<g>
		<path d="M64.434,82.512v27.187h72.129V82.512H64.434z M126.855,99.989H74.146v-7.768h52.709V99.989z"/>
	</g>
	<path d="M138.741,62.773h-2.035V9.581H87.02l-0.103-0.119l-0.134,0.119h-0.102l-5.838,5.202L64.225,29.345l0.124,0.141L64.29,29.54
		v33.233h-2.038c-2.681,0-4.854,2.173-4.854,4.855s2.174,4.855,4.854,4.855h76.489c2.682,0,4.854-2.173,4.854-4.855
		S141.423,62.773,138.741,62.773z M88.602,20.897v12.538h-14.31L88.602,20.897z M74,43.145h24.312V19.291h28.685v43.46H74V43.145z"
		/>
</g>
</svg>
