<?xml version="1.0" encoding="utf-8"?>
<!-- Generator: Adobe Illustrator 16.0.0, SVG Export Plug-In . SVG Version: 6.00 Build 0)  -->
<!DOCTYPE svg PUBLIC "-//W3C//DTD SVG 1.1//EN" "http://www.w3.org/Graphics/SVG/1.1/DTD/svg11.dtd">
<svg version="1.1" id="Layer_1" xmlns="http://www.w3.org/2000/svg" xmlns:xlink="http://www.w3.org/1999/xlink" x="0px" y="0px"
	 width="200px" height="200px" viewBox="0 0 200 200" enable-background="new 0 0 200 200" xml:space="preserve">
<path d="M98.989,9.813c-49.506,0-89.58,40.133-89.58,89.637c0,43.94,35.777,80.501,73.428,88.155V122.37H59.529V91.891h23.308
	V72.055c0-23.321,15.797-36.019,36.586-36.019c9.968,0,15.109,0.744,22.58,1.077V61.41h-17.705
	c-11.315,0-12.774,5.455-12.774,13.343V91.89h26.316l-3.52,30.479h-22.797v65.929c44.822-5.807,77.429-43.371,77.429-88.849
	C188.952,49.944,148.488,9.813,98.989,9.813z"/>
</svg>
