<?xml version="1.0" encoding="utf-8"?>
<!-- Generator: Adobe Illustrator 16.0.0, SVG Export Plug-In . SVG Version: 6.00 Build 0)  -->
<!DOCTYPE svg PUBLIC "-//W3C//DTD SVG 1.1//EN" "http://www.w3.org/Graphics/SVG/1.1/DTD/svg11.dtd">
<svg version="1.1" id="圖層_1" xmlns="http://www.w3.org/2000/svg" xmlns:xlink="http://www.w3.org/1999/xlink" x="0px" y="0px"
	 width="200px" height="200px" viewBox="0 0 200 200" enable-background="new 0 0 200 200" xml:space="preserve">
<g>
	<path d="M117.6,121.1c-10.5-10.5-21-21-31.7-31.7c0.1-0.2,0.4-0.8,0.8-1.2C105.3,69.4,124,50.7,142.8,32c7.2-7.1,17-8.7,25.8-4.6
		c8.301,3.9,13.9,12.5,12.801,21.8c-0.5,4.6-2.101,9.9-5.2,13.1C157.1,82.1,137.5,101.4,118.1,120.8
		C118,121,117.6,121.1,117.6,121.1z M112.1,98.9c1.4-1.1,2.101-1.5,2.601-2.1c16.6-16.6,33.2-33.1,49.7-49.7
		c0.6-0.6,1.399-1.2,1.6-1.9c0.2-1.2,0.5-3-0.1-3.5c-0.9-0.7-2.7-1-3.9-0.6c-1.1,0.3-2.1,1.6-3,2.5c-15.9,15.9-31.7,31.7-47.6,47.6
		c-1,1-1.9,2.2-3.301,3.8C109.4,96.3,110.6,97.4,112.1,98.9z M103.7,90.7c1.399-1,2.1-1.4,2.7-1.9c15.3-15.3,30.699-30.6,46-45.9
		c0.6-0.6,1.5-1.2,1.5-1.9c0-1.3,0-3-0.801-3.9c-0.5-0.6-2.399-0.4-3.5,0c-1,0.4-1.8,1.5-2.6,2.3c-14.6,14.6-29.2,29.2-43.8,43.8
		c-1,1-1.8,2.2-2.9,3.4C101.6,88.2,102.6,89.4,103.7,90.7z M120.2,107c1.3-1,1.8-1.3,2.3-1.8c15.3-15.3,30.6-30.6,45.9-45.9
		c0.6-0.6,1.5-1.2,1.6-1.9c0.2-1.3,0.4-3.2-0.3-3.9c-0.8-0.7-2.7-0.6-3.9-0.2c-1.1,0.4-2,1.7-3,2.6C148.1,70.6,133.4,85.3,118.7,100
		c-0.8,0.8-1.4,1.7-2.4,2.9C117.7,104.4,118.8,105.6,120.2,107z"/>
	<path d="M20.7,48.7c4.8,5.1,8.9,9.7,13.2,14c7.8,7.8,18.6,8,25.8,0.7c7.2-7.3,7-17.5-0.7-25.4c-3.9-4.1-8-7.9-12.1-12
		c9.9-5.1,27.2,0.8,35.9,12c10.7,14,10.1,33.3-1.5,46.5c-11.4,12.9-31.1,15.8-46,6.7C21.2,82.5,14.6,64.8,20.7,48.7z"/>
	<path d="M109.6,139.1c9.2-9.1,18.4-18.199,27.5-27.199c9.801,9.699,20.101,19.3,29.801,29.6c7.1,7.5,6.199,19.4-1,26.7
		c-7.101,7.1-19,8.399-26.301,1.6C129.2,160,119.6,149.4,109.6,139.1z M161.3,154.9c0-4.801-4.2-9-8.899-8.9
		c-4.4,0.1-8.601,4.3-8.7,8.7c-0.101,4.6,4.2,9.1,8.8,9.1C157.2,164,161.3,159.8,161.3,154.9z"/>
	<path d="M61.2,135c8.8-9,17.5-17.7,26.3-26.6c3.3,3.5,6.5,6.8,10.1,10.6c-8.8,8.6-17.6,17.4-26.4,26c2.5,4.6,1.6,8.2-2.8,11
		c-10.5,6.7-21.2,13.2-32.5,20.1c-1.6-2.1-3.2-4.199-5.2-6.899c6.4-10.3,13.2-21.5,20.2-32.5C53.2,133.1,56.8,132.7,61.2,135z"/>
</g>
</svg>
