<?xml version="1.0" encoding="utf-8"?>
<!-- Generator: Adobe Illustrator 16.0.0, SVG Export Plug-In . SVG Version: 6.00 Build 0)  -->
<!DOCTYPE svg PUBLIC "-//W3C//DTD SVG 1.1//EN" "http://www.w3.org/Graphics/SVG/1.1/DTD/svg11.dtd">
<svg version="1.1" id="Layer_1" xmlns="http://www.w3.org/2000/svg" xmlns:xlink="http://www.w3.org/1999/xlink" x="0px" y="0px"
	 width="200px" height="200px" viewBox="0 0 200 200" enable-background="new 0 0 200 200" xml:space="preserve">
<path d="M176.841,30.06c0-10.997-8.949-19.939-19.94-19.939h-9.971c-5.505,0-9.97,4.464-9.97,9.97v72.392l-2.151-1.25
	c-1.548-0.906-3.281-1.354-5.013-1.354c-1.685,0-3.365,0.423-4.878,1.275l-2.911,1.636V20.09c0-5.506-4.466-9.97-9.97-9.97H42.249
	c-10.995,0-19.94,8.942-19.94,19.939v139.576c0,10.997,8.945,19.939,19.94,19.939H156.9c10.991,0,19.94-8.942,19.94-19.939V30.06z
	 M166.87,154.682H47.233v9.97H166.87v4.984c0,5.507-4.459,9.971-9.97,9.971H42.249c-5.502,0-9.971-4.464-9.971-9.971v-29.909h9.971
	v-9.969h-9.971v-29.91h9.971v-9.97h-9.971V59.969h9.971V50h-9.971V30.06c0-5.506,4.469-9.97,9.971-9.97h69.788v89.728l17.759-9.97
	l17.134,9.97V20.09h9.971c5.511,0,9.97,4.464,9.97,9.97V154.682z"/>
</svg>
