<?xml version="1.0" encoding="utf-8"?>
<!-- Generator: Adobe Illustrator 16.0.0, SVG Export Plug-In . SVG Version: 6.00 Build 0)  -->
<!DOCTYPE svg PUBLIC "-//W3C//DTD SVG 1.1//EN" "http://www.w3.org/Graphics/SVG/1.1/DTD/svg11.dtd">
<svg version="1.1" id="圖層_1" xmlns="http://www.w3.org/2000/svg" xmlns:xlink="http://www.w3.org/1999/xlink" x="0px" y="0px"
	 width="200px" height="200px" viewBox="0 0 200 200" enable-background="new 0 0 200 200" xml:space="preserve">
<path  d="M178.596,98.969h-9.116c0.155-1.765,0.679-3.48,1.588-5.003l4.998-8.375c0.98-1.644,1.002-3.703,0.057-5.368
	c-0.945-1.66-2.716-2.692-4.621-2.692h-69.596c0.075-0.505,0.126-1.014,0.126-1.531c0-5.911-4.808-10.719-10.719-10.719
	c-5.912,0-10.719,4.808-10.719,10.719c0,0.518,0.052,1.026,0.125,1.531H29.497c-1.905,0-3.674,1.032-4.618,2.692
	c-0.95,1.666-0.929,3.725,0.058,5.371l4.995,8.368c0.909,1.527,1.436,3.242,1.59,5.007h-9.118c-5.064,0-9.188,4.121-9.188,9.188
	s4.123,9.188,9.188,9.188h9.188v20.822c0,10.471,8.48,18.991,18.902,18.991h4.582c1.026,1.624,2.385,3.392,4.027,5.503
	c0.794,1.021,1.66,2.139,2.591,3.371l1.847,2.443l2.443-1.849c4.839-3.654,7.819-6.388,8.848-9.469H93.98
	c0.153,0.197,0.287,0.374,0.444,0.577c1.228,1.589,2.578,3.32,4.021,5.234l1.845,2.443l2.447-1.849
	c3.116-2.354,5.712-4.444,7.776-6.406h17.298c1.026,1.624,2.387,3.392,4.026,5.503c0.792,1.021,1.659,2.136,2.59,3.371l1.845,2.443
	l2.444-1.849c4.842-3.654,7.823-6.388,8.853-9.469h2.942c10.417,0,18.896-8.521,18.896-18.991v-20.822h9.188
	c5.066,0,9.188-4.121,9.188-9.188S183.662,98.969,178.596,98.969 M86.718,76c0-2.533,2.061-4.594,4.594-4.594
	s4.594,2.061,4.594,4.594c0,0.576-0.114,1.09-0.275,1.531h-8.637C86.832,77.09,86.718,76.575,86.718,76 M22.404,111.219
	c-1.689,0-3.063-1.372-3.063-3.063c0-1.689,1.373-3.063,3.063-3.063h9.188v6.125H22.404z M64.69,159.87
	c-0.257-0.329-0.505-0.652-0.748-0.963c-2.024-2.611-3.632-4.692-4.357-6.197c-0.064-0.132-0.125-0.26-0.181-0.389
	c-0.076-0.188-0.134-0.368-0.175-0.532c-0.064-0.299-0.039-0.631,0.083-1.005c0.052-0.152,0.107-0.305,0.203-0.473
	c0.073-0.138,0.159-0.284,0.266-0.437c0.187-0.267,0.41-0.541,0.67-0.834c0.067-0.075,0.114-0.141,0.187-0.219
	c0.383-0.404,0.818-0.828,1.296-1.256c0.474-0.428,1.016-0.892,1.649-1.406c0.257,0.329,0.506,0.652,0.748,0.96
	c1.271,1.643,2.411,3.11,3.255,4.354c0.003,0.007,0.006,0.013,0.009,0.016c0.412,0.601,0.745,1.151,0.999,1.642
	c0.015,0.03,0.027,0.06,0.043,0.087c0.232,0.467,0.38,0.873,0.437,1.229c0.025,0.161,0.046,0.319,0.028,0.46
	C68.937,156.138,66.949,158.031,64.69,159.87 M102.513,133.677c0.183,0.236,0.341,0.442,0.521,0.67
	c3.448,4.456,5.607,7.372,6.58,9.609c0.032,0.072,0.068,0.146,0.096,0.216c0.122,0.302,0.227,0.592,0.305,0.87
	c0.012,0.036,0.018,0.074,0.027,0.11c0.215,0.819,0.232,1.559,0.074,2.276c-0.036,0.141-0.06,0.281-0.113,0.425
	c-0.024,0.077-0.057,0.155-0.084,0.233c-0.386,0.933-1.101,1.946-2.078,3.038c-0.246,0.264-0.497,0.532-0.778,0.813l-0.619,0.631
	c-1.363,1.311-3.044,2.722-4.982,4.244c-0.771-0.999-1.501-1.944-2.201-2.841c-0.236-0.303-0.442-0.571-0.67-0.864l-0.689-0.892
	c-0.425-0.551-0.824-1.074-1.216-1.588c-0.106-0.141-0.214-0.284-0.318-0.419c-0.349-0.464-0.679-0.909-0.998-1.346
	c-0.125-0.168-0.245-0.338-0.365-0.503c-0.307-0.425-0.594-0.834-0.864-1.238c-0.088-0.128-0.167-0.254-0.254-0.38
	c-0.275-0.415-0.535-0.819-0.766-1.208c-0.045-0.077-0.085-0.149-0.128-0.228c-0.241-0.412-0.462-0.816-0.649-1.199
	c-0.012-0.026-0.021-0.054-0.033-0.08c-0.607-1.28-0.888-2.393-0.759-3.365c0.348-2.604,3.686-5.847,8.769-9.837
	C101.083,131.831,101.816,132.776,102.513,133.677 M137.418,159.87c-0.254-0.329-0.505-0.652-0.747-0.963
	c-2.034-2.626-3.652-4.72-4.37-6.224c-0.057-0.117-0.11-0.233-0.158-0.348c-0.09-0.215-0.158-0.424-0.2-0.612
	c-0.048-0.275-0.009-0.581,0.099-0.919c0.054-0.158,0.11-0.316,0.209-0.493c0.072-0.135,0.159-0.278,0.261-0.428
	c0.188-0.269,0.412-0.547,0.676-0.84c0.068-0.072,0.11-0.135,0.186-0.213c0.383-0.406,0.819-0.831,1.301-1.262
	c0.47-0.425,1.014-0.889,1.647-1.4c0.15,0.191,0.29,0.374,0.434,0.56c0.105,0.135,0.213,0.272,0.314,0.4
	c0.087,0.117,0.171,0.222,0.26,0.336c0.458,0.595,0.9,1.163,1.313,1.707c0.084,0.111,0.171,0.225,0.254,0.332
	c0.512,0.679,0.976,1.313,1.376,1.902c0.027,0.039,0.054,0.081,0.081,0.119c0.395,0.584,0.724,1.119,0.972,1.598
	c0.018,0.039,0.036,0.074,0.054,0.11c0.23,0.464,0.377,0.867,0.437,1.221c0.024,0.161,0.045,0.323,0.027,0.46
	C141.668,156.138,139.683,158.031,137.418,159.87 M163.282,138.166c0,7.094-5.729,12.866-12.776,12.866h-3.395
	c-0.023-0.054-0.063-0.116-0.087-0.17c-0.209-0.449-0.448-0.903-0.721-1.37c-0.077-0.132-0.158-0.27-0.242-0.4
	c-0.266-0.431-0.553-0.874-0.87-1.328c-0.104-0.149-0.206-0.303-0.317-0.458c-0.341-0.476-0.705-0.975-1.091-1.486
	c-0.108-0.144-0.21-0.284-0.32-0.431c-0.344-0.451-0.715-0.933-1.089-1.414c-0.161-0.213-0.305-0.398-0.476-0.619
	c-0.793-1.018-1.657-2.133-2.587-3.365l-1.849-2.435l-2.443,1.849c-2.987,2.255-5.512,4.324-7.178,6.49
	c-0.126,0.164-0.272,0.329-0.386,0.493c-0.149,0.212-0.267,0.431-0.397,0.649c-0.146,0.242-0.3,0.481-0.422,0.727
	c-0.117,0.233-0.203,0.473-0.299,0.709c-0.087,0.224-0.18,0.448-0.246,0.679c-0.077,0.257-0.128,0.523-0.179,0.789
	c-0.024,0.126-0.066,0.249-0.087,0.374c-0.015,0.11-0.003,0.216-0.012,0.323c-0.013,0.135-0.051,0.26-0.055,0.395h-10.446
	c0.212-0.431,0.386-0.861,0.532-1.286c0.024-0.077,0.042-0.152,0.065-0.227c0.171-0.533,0.287-1.06,0.368-1.583
	c0.006-0.054,0.027-0.099,0.033-0.149c0.003-0.035,0-0.068,0.003-0.102c0.068-0.577,0.093-1.151,0.057-1.729
	c-0.009-0.18-0.036-0.362-0.054-0.541c-0.036-0.332-0.093-0.661-0.158-0.993c-0.596-3.015-2.471-6.089-5.282-9.876
	c-0.364-0.496-0.741-0.999-1.137-1.516c-0.299-0.393-0.612-0.808-0.93-1.218c-0.329-0.431-0.673-0.87-1.02-1.319
	c-0.153-0.194-0.287-0.373-0.443-0.574c-1.229-1.588-2.578-3.319-4.022-5.233l-1.842-2.443l-2.444,1.849
	c-1.036,0.78-2.013,1.534-2.936,2.264c-6.44,5.1-10.05,9.002-10.648,13.516c-0.018,0.146-0.003,0.29-0.015,0.437
	c-0.038,0.4-0.052,0.802-0.041,1.199c0.006,0.251,0.025,0.502,0.052,0.754c0.038,0.361,0.099,0.727,0.175,1.088
	c0.067,0.317,0.144,0.644,0.239,0.964c0.115,0.395,0.248,0.792,0.404,1.189c0.104,0.264,0.22,0.53,0.339,0.796
	c0.166,0.365,0.35,0.735,0.546,1.106c0.149,0.284,0.3,0.571,0.468,0.861c0.286,0.494,0.595,0.996,0.926,1.508
	c0.173,0.269,0.36,0.547,0.55,0.828c0.099,0.146,0.187,0.287,0.292,0.434H74.386c-0.031-0.071-0.081-0.146-0.113-0.218
	c-0.199-0.425-0.426-0.855-0.687-1.298c-0.085-0.147-0.178-0.3-0.272-0.449c-0.257-0.419-0.54-0.847-0.842-1.283
	c-0.107-0.158-0.215-0.316-0.33-0.476c-0.362-0.508-0.754-1.04-1.171-1.591c-0.062-0.078-0.12-0.158-0.181-0.242
	c-0.508-0.667-1.044-1.361-1.623-2.105c-0.085-0.11-0.181-0.233-0.266-0.344c-0.727-0.934-1.489-1.917-2.325-3.024l-1.844-2.449
	l-2.443,1.849c-2.986,2.258-5.515,4.327-7.181,6.493c-0.126,0.161-0.271,0.326-0.383,0.49c-0.151,0.212-0.271,0.434-0.402,0.655
	c-0.146,0.239-0.299,0.479-0.419,0.721c-0.116,0.233-0.202,0.473-0.297,0.712c-0.088,0.224-0.178,0.448-0.245,0.676
	c-0.077,0.257-0.129,0.523-0.178,0.789c-0.024,0.126-0.067,0.249-0.085,0.374c-0.015,0.11-0.003,0.216-0.012,0.323
	c-0.015,0.132-0.055,0.26-0.058,0.395h-2.533c-7.046,0-12.777-5.772-12.777-12.866v-20.822V99.998v-1.029h-0.07
	c-0.166-2.87-0.979-5.669-2.46-8.144l-4.275-7.169h52.788h15.223h71.162l-4.274,7.172c-1.478,2.475-2.291,5.271-2.458,8.141h-0.069
	v1.029v17.346V138.166z M178.596,111.219h-9.188v-6.125h9.188c1.689,0,3.063,1.373,3.063,3.063
	C181.658,109.847,180.285,111.219,178.596,111.219"/>
<path  d="M109.688,46.905c5.91,0,10.719-4.808,10.719-10.719s-4.809-10.719-10.719-10.719
	c-5.909,0-10.719,4.808-10.719,10.719S103.778,46.905,109.688,46.905 M109.688,31.592c2.533,0,4.594,2.061,4.594,4.594
	s-2.061,4.594-4.594,4.594s-4.594-2.061-4.594-4.594S107.154,31.592,109.688,31.592"/>
<path  d="M144.907,56.093c3.38,0,6.125,2.744,6.125,6.125c0,3.381-2.745,6.125-6.125,6.125s-6.125-2.744-6.125-6.125
	C138.782,58.837,141.527,56.093,144.907,56.093"/>
<path  d="M59.155,62.218c0,1.301-0.401,2.545-1.164,3.595c-0.993,1.37-0.689,3.284,0.682,4.275
	c0.543,0.396,1.174,0.582,1.796,0.582c0.948,0,1.883-0.439,2.484-1.264c1.521-2.101,2.327-4.585,2.327-7.188v-0.11
	c0-1.693-1.368-3.007-3.063-3.007S59.155,60.523,59.155,62.218"/>
<path  d="M53.03,56.093c1.286,0,2.511,0.392,3.547,1.13c0.542,0.383,1.161,0.57,1.775,0.57
	c0.958,0,1.899-0.447,2.497-1.283c0.979-1.378,0.661-3.29-0.715-4.275c-2.079-1.484-4.539-2.267-7.104-2.267h-0.079
	c-1.694,0-3.021,1.368-3.021,3.063S51.336,56.093,53.03,56.093"/>
<path  d="M43.842,65.308c1.694,0,3.063-1.397,3.063-3.09c0-1.288,0.395-2.521,1.146-3.571
	c0.982-1.376,0.667-3.287-0.708-4.272c-1.379-0.984-3.287-0.668-4.275,0.71c-1.496,2.095-2.288,4.56-2.288,7.133v0.054
	C40.78,63.963,42.148,65.308,43.842,65.308"/>
<path  d="M45.178,67.884c-0.987,1.373-0.68,3.287,0.695,4.275c2.095,1.51,4.569,2.309,7.157,2.309h0.027
	c1.694,0,3.047-1.368,3.047-3.063c0-1.693-1.38-3.063-3.074-3.063c-1.295,0-2.53-0.398-3.577-1.155
	C48.081,66.2,46.16,66.513,45.178,67.884"/>
<path  d="M138.782,169.408H59.155c-1.694,0-3.063,1.369-3.063,3.063c0,1.692,1.368,3.063,3.063,3.063h79.627
	c1.692,0,3.063-1.37,3.063-3.063C141.845,170.777,140.475,169.408,138.782,169.408"/>
<path  d="M154.095,92.844H74.695c-1.694,0-3.063,1.368-3.063,3.063s1.368,3.063,3.063,3.063h79.399
	c1.693,0,3.063-1.368,3.063-3.063S155.788,92.844,154.095,92.844"/>
<path  d="M61.688,92.844H46.905c-1.693,0-3.063,1.368-3.063,3.063s1.37,3.063,3.063,3.063h14.783
	c1.693,0,3.063-1.368,3.063-3.063S63.381,92.844,61.688,92.844"/>
</svg>
