<?xml version="1.0" encoding="utf-8"?>
<!-- Generator: Adobe Illustrator 16.0.0, SVG Export Plug-In . SVG Version: 6.00 Build 0)  -->
<!DOCTYPE svg PUBLIC "-//W3C//DTD SVG 1.1//EN" "http://www.w3.org/Graphics/SVG/1.1/DTD/svg11.dtd">
<svg version="1.1" id="Layer_1" xmlns="http://www.w3.org/2000/svg" xmlns:xlink="http://www.w3.org/1999/xlink" x="0px" y="0px"
	 width="200px" height="200px" viewBox="0 0 200 200" enable-background="new 0 0 200 200" xml:space="preserve">
<g>
	<g>
		<g>
			<path d="M99.453,189.326c-49.578,0-89.912-40.333-89.912-89.912C9.541,49.836,49.875,9.5,99.453,9.5
				c49.577,0,89.912,40.336,89.912,89.914C189.365,148.993,149.03,189.326,99.453,189.326z M99.453,22.511
				c-42.403,0-76.901,34.5-76.901,76.903s34.498,76.9,76.901,76.9c42.404,0,76.902-34.497,76.902-76.9S141.857,22.511,99.453,22.511
				z"/>
		</g>
	</g>
	<g>
		<path d="M131.439,78.702c0,3.266-0.48,6.186-1.438,8.755c-0.959,2.571-2.329,4.943-4.116,7.123
			c-1.787,2.179-4.703,4.75-8.756,7.709l-5.227,3.854c-3.137,2.268-5.469,4.649-6.992,7.152c-1.522,2.507-2.31,5.24-2.35,8.204
			H91.122c0.087-3.009,0.554-5.645,1.405-7.905c0.85-2.268,1.949-4.272,3.299-6.015c1.352-1.743,2.877-3.303,4.574-4.674
			c1.7-1.373,3.419-2.679,5.162-3.92c1.742-1.242,3.45-2.478,5.13-3.722c1.675-1.242,3.169-2.624,4.475-4.153
			c1.308-1.523,2.362-3.242,3.17-5.158c0.804-1.919,1.207-4.16,1.207-6.733c0-4.963-1.688-8.885-5.063-11.762
			c-3.379-2.875-8.115-4.312-14.212-4.312c-6.098,0-10.936,1.525-14.507,4.573c-3.571,3.05-5.664,7.23-6.271,12.544l-12.023-0.783
			c1.132-8.626,4.53-15.247,10.194-19.865c5.662-4.617,13.156-6.926,22.478-6.926c9.712,0,17.36,2.297,22.936,6.893
			C128.648,64.186,131.439,70.555,131.439,78.702z M90.601,146.131v-13.134h12.74v13.134H90.601z"/>
	</g>
</g>
</svg>
