<?xml version="1.0" encoding="utf-8"?>
<!-- Generator: Adobe Illustrator 16.0.0, SVG Export Plug-In . SVG Version: 6.00 Build 0)  -->
<!DOCTYPE svg PUBLIC "-//W3C//DTD SVG 1.1//EN" "http://www.w3.org/Graphics/SVG/1.1/DTD/svg11.dtd">
<svg version="1.1" id="圖層_1" xmlns="http://www.w3.org/2000/svg" xmlns:xlink="http://www.w3.org/1999/xlink" x="0px" y="0px"
	 width="200px" height="200px" viewBox="0 0 200 200" enable-background="new 0 0 200 200" xml:space="preserve">
<path clip-rule="evenodd" d="M156.007,175.944c-1.478,0-2.953,0-4.43,0c-0.271-0.114-0.531-0.291-0.813-0.334
	c-7.321-1.122-12.854-4.915-16.466-11.34c-1.264-2.247-2.045-4.768-3.049-7.173c-7.081-0.356-7.081-0.356-11.175-2.916
	c-2.39,2.307-5.417,2.834-8.615,2.833c-10.452-0.003-20.903,0-31.354,0c-0.718,0-1.437,0-2.113,0
	c-1.685,7.629-5.708,13.243-12.564,16.521c-2.38,1.138-5.072,1.624-7.621,2.408c-1.477,0-2.954,0-4.43,0
	c-0.213-0.104-0.417-0.276-0.64-0.305c-6.295-0.794-11.439-3.753-15.058-8.867c-2.033-2.872-3.305-6.284-5.074-9.759
	c-4.215,0-8.941-0.009-13.668,0.002c-3.388,0.008-6.365-0.984-8.852-3.377c-1.974-1.9-2.952-4.28-3.591-6.859
	c0-33.717,0-67.434,0-101.151c0.833-3.639,2.514-6.701,6.041-8.35c1.234-0.577,2.614-0.842,3.927-1.249c32.486,0,64.974,0,97.461,0
	c0.15,0.095,0.292,0.25,0.453,0.275c4.79,0.737,7.74,3.582,8.813,8.18c0.479,2.049,0.33,4.259,0.354,6.396
	c0.046,4.099,0.013,8.2,0.013,12.094c2.367-0.128,4.555-0.339,6.742-0.35c8.175-0.041,16.36,0.229,24.523-0.092
	c6.838-0.269,12.164,2.365,16.599,7.199c2.149,2.345,4.063,4.912,6.006,7.44c3.215,4.186,6.313,8.461,9.555,12.625
	c4.233,5.436,7.454,11.319,8.528,18.222c0,12.92,0,25.842,0,38.762c-2.786,10.261-9.318,10.776-18.711,10.126
	c-0.089-0.504-0.183-1.021-0.288-1.616c-1.121,7.93-4.821,14.079-11.928,17.739C161.926,174.396,158.876,174.995,156.007,175.944z
	 M33.25,149.571c0.227-0.907,0.379-1.621,0.584-2.319c2.896-9.856,11.532-16.685,21.992-16.615
	c10.455,0.069,19.167,7.163,21.764,17.342c0.325,1.274,0.764,1.658,2.051,1.652c10.641-0.05,21.281-0.018,31.921-0.036
	c3.586-0.006,4.578-1.038,4.578-4.609c0.002-32.167,0.002-64.333,0.002-96.5c0-4.021-0.963-4.981-5-4.981
	c-30.691-0.001-61.382-0.001-92.073,0c-4.112,0.001-5.15,1.028-5.15,5.092c-0.001,20.358-0.001,40.716-0.001,61.073
	c0,11.625-0.006,23.25,0.005,34.874c0.003,2.995,1.467,4.898,4.248,4.984C23.141,149.681,28.119,149.571,33.25,149.571z
	 M176.801,149.577c2.079,0,3.981,0.012,5.886-0.003c3.803-0.029,5.391-1.609,5.393-5.381c0.007-8.92,0.003-17.84,0.003-26.76
	c0-0.646,0-1.293,0-2.035c-1.043,0-1.778,0-2.513,0c-11.751,0-23.501,0.021-35.251-0.01c-5.924-0.015-11.173-4.988-11.327-10.863
	c-0.138-5.286-0.008-10.579-0.039-15.869c-0.034-5.921,5.628-11.029,11.404-10.936c5.351,0.086,10.704,0.021,16.056,0.015
	c0.586-0.001,1.171-0.049,2.169-0.094c-1.032-1.169-1.754-2.152-2.635-2.96c-2.541-2.329-5.085-4.686-8.876-4.682
	c-9.597,0.011-19.194-0.033-28.79,0.054c-1.069,0.009-2.245,0.543-3.169,1.144c-1.537,1-1.439,2.726-1.439,4.337
	c0,22.824-0.002,45.647,0.005,68.47c0,0.675,0.02,1.356,0.121,2.021c0.279,1.842,1.382,2.99,3.185,3.339
	c1.015,0.196,2.085,0.088,3.115,0.227c1.183,0.159,1.627-0.448,1.854-1.466c2.415-10.839,13.169-18.613,24.583-17.322
	c9.898,1.119,18.907,9.813,19.818,19.736c0.021,0.225,0.063,0.448,0.137,0.963C176.614,150.725,176.693,150.245,176.801,149.577z
	 M188.193,108.003c-0.95-2.473-1.413-4.78-2.615-6.602c-3.505-5.312-7.288-10.44-11.021-15.599
	c-0.284-0.392-1.023-0.636-1.553-0.639c-7.434-0.04-14.867-0.045-22.301-0.018c-2.698,0.011-4.308,1.657-4.325,4.381
	c-0.028,4.485-0.019,8.97-0.006,13.455c0.01,3.378,1.677,5.018,5.096,5.019c10.26,0.005,20.52,0.002,30.779,0.002
	C184.022,108.003,185.798,108.003,188.193,108.003z M169.021,154.092c0.668-8.174-5.825-15.31-14.563-16.005
	c-7.732-0.614-15.171,6.041-15.698,14.358c-0.49,7.728,5.354,15.403,14.422,15.988C161.222,168.953,168.727,162.354,169.021,154.092
	z M70.739,153.226c-0.001-8.271-6.797-15.119-15.06-15.173c-8.214-0.053-15.228,6.977-15.218,15.253
	c0.01,8.159,6.949,15.135,15.114,15.192C63.816,168.556,70.741,161.581,70.739,153.226z"/>
</svg>
