<?xml version="1.0" encoding="utf-8"?>
<!-- Generator: Adobe Illustrator 16.0.0, SVG Export Plug-In . SVG Version: 6.00 Build 0)  -->
<!DOCTYPE svg PUBLIC "-//W3C//DTD SVG 1.1//EN" "http://www.w3.org/Graphics/SVG/1.1/DTD/svg11.dtd">
<svg version="1.1" id="圖層_1" xmlns="http://www.w3.org/2000/svg" xmlns:xlink="http://www.w3.org/1999/xlink" x="0px" y="0px"
	 width="200px" height="200px" viewBox="0 0 200 200" enable-background="new 0 0 200 200" xml:space="preserve">
<g>
	<polygon points="60.5,188.5 137.6,188.5 100.3,97.3 	"/>
	<g>
		<path d="M145.3,177.2l-3.8-6.2c24.7-15,39.4-41.2,39.4-70c0-45.1-36.7-81.8-81.8-81.8S17.3,55.9,17.3,101
			c0,27.8,13.9,53.4,37.2,68.6l-4,6.101C25.1,159.2,10,131.3,10,101.1C10,52,50,12,99.1,12s89.1,40,89.1,89.1
			C188.2,132.5,172.1,160.9,145.3,177.2z"/>
	</g>
	<g>
		<path d="M66,149.8C47.9,138.4,37.1,118.7,37.1,97.4c0-34.2,27.8-62,62-62c34.2,0,62,27.8,62,62c0,20.6-10.199,39.9-27.3,51.4l-4-6
			C144.9,132.6,154,115.6,154,97.4c0-30.2-24.6-54.8-54.8-54.8S44.3,67.1,44.3,97.3c0,18.9,9.6,36.2,25.6,46.3L66,149.8z"/>
	</g>
	<g>
		<path d="M114.8,116.9l-4-6c5.8-3.9,9.2-10.4,9.2-17.4c0-11.5-9.4-20.9-20.9-20.9c-11.5,0-21,9.4-21,21c0,7,3.4,13.5,9.2,17.4l-4,6
			c-7.8-5.3-12.4-14-12.4-23.3c0-15.5,12.6-28.2,28.2-28.2s28.2,12.6,28.2,28.2C127.2,102.9,122.6,111.7,114.8,116.9z"/>
	</g>
</g>
</svg>
