<?xml version="1.0" encoding="utf-8"?>
<!-- Generator: Adobe Illustrator 16.0.0, SVG Export Plug-In . SVG Version: 6.00 Build 0)  -->
<!DOCTYPE svg PUBLIC "-//W3C//DTD SVG 1.1//EN" "http://www.w3.org/Graphics/SVG/1.1/DTD/svg11.dtd">
<svg version="1.1" id="圖層_1" xmlns="http://www.w3.org/2000/svg" xmlns:xlink="http://www.w3.org/1999/xlink" x="0px" y="0px"
	 width="200px" height="200px" viewBox="0 0 200 200" enable-background="new 0 0 200 200" xml:space="preserve">
<path d="M176.213,49.747c-0.109-0.398-0.282-0.786-0.552-1.134l-17.8-22.887c-2.684-3.455-8.016-6.059-12.395-6.059H52.935
	c-4.38,0-9.711,2.605-12.391,6.059L22.742,48.613c-0.271,0.348-0.447,0.735-0.548,1.134c-1.939,1.699-3.19,4.16-3.19,6.934v120.288
	c0,5.106,4.155,9.254,9.256,9.254h141.882c5.106,0,9.254-4.147,9.254-9.254V56.681C179.396,53.906,178.146,51.445,176.213,49.747
	 M145.467,25.833c2.441,0,6.025,1.756,7.523,3.684l13.933,17.908h-52.305V25.833H145.467z M108.458,25.833v55.519
	c0,1.705-1.389,3.085-3.088,3.085H93.033c-1.704,0-3.082-1.381-3.082-3.085V25.833H108.458z M45.416,29.511
	c1.491-1.922,5.076-3.678,7.52-3.678h30.843v21.592H31.483L45.416,29.511z M173.229,176.967c0,1.704-1.383,3.088-3.087,3.088H28.259
	c-1.699,0-3.085-1.383-3.085-3.088V56.681c0-1.704,1.386-3.084,3.085-3.084h55.519v27.755c0,5.107,4.147,9.256,9.255,9.256h12.337
	c5.101,0,9.248-4.148,9.248-9.256V53.596h55.523c1.704,0,3.087,1.38,3.087,3.084V176.967L173.229,176.967z"/>
<path d="M154.724,161.55H96.115c-1.705,0-3.088,1.377-3.088,3.08c0,1.705,1.381,3.088,3.088,3.088h58.609
	c1.698,0,3.081-1.383,3.081-3.088C157.805,162.927,156.422,161.55,154.724,161.55"/>
<path d="M144.562,113.104c-1.2-1.205-3.156-1.205-4.355,0l-12.343,12.336c-1.205,1.205-1.205,3.156,0,4.361
	c1.205,1.204,3.156,1.204,4.361,0l7.073-7.074v26.487c0,1.702,1.378,3.08,3.088,3.08c1.704,0,3.081-1.377,3.081-3.08v-26.487
	l7.07,7.074c0.602,0.597,1.394,0.907,2.187,0.907c0.786,0,1.571-0.311,2.179-0.907c1.205-1.205,1.205-3.156,0-4.361L144.562,113.104
	z"/>
<path d="M98.294,129.801l7.076-7.074v26.487c0,1.702,1.376,3.087,3.088,3.087c1.703,0,3.08-1.384,3.08-3.087v-26.487l7.071,7.074
	c0.606,0.603,1.393,0.901,2.179,0.901c0.792,0,1.583-0.299,2.181-0.901c1.205-1.205,1.205-3.156,0-4.361l-12.331-12.336
	c-1.205-1.205-3.162-1.205-4.367,0l-12.337,12.336c-1.205,1.205-1.205,3.156,0,4.361C95.139,131.005,97.097,131.005,98.294,129.801"
	/>
</svg>
