<?xml version="1.0" encoding="utf-8"?>
<!-- Generator: Adobe Illustrator 16.0.0, SVG Export Plug-In . SVG Version: 6.00 Build 0)  -->
<!DOCTYPE svg PUBLIC "-//W3C//DTD SVG 1.1//EN" "http://www.w3.org/Graphics/SVG/1.1/DTD/svg11.dtd">
<svg version="1.1" id="Layer_1" xmlns="http://www.w3.org/2000/svg" xmlns:xlink="http://www.w3.org/1999/xlink" x="0px" y="0px"
	 width="200px" height="200px" viewBox="0 0 200 200" enable-background="new 0 0 200 200" xml:space="preserve">
<g>
	<path d="M182.887,42.811c-0.168-0.465-0.404-0.896-0.705-1.285l-18.86-24.247c-3.146-4.055-9.159-6.997-14.299-6.997H50.978
		c-5.14,0-11.15,2.94-14.295,6.992L17.816,41.528c-0.301,0.388-0.536,0.817-0.704,1.282c-2.27,2.141-3.563,5.094-3.563,8.167
		v127.457c0,6.223,5.063,11.284,11.283,11.284h150.335c6.223,0,11.284-5.062,11.284-11.284V50.978
		C186.451,47.904,185.157,44.951,182.887,42.811z M117.819,39.694v-19.92h31.203c2.129,0,5.497,1.648,6.802,3.329l12.904,16.591
		H117.819z M108.325,77.123c0,0.986-0.802,1.789-1.788,1.789H93.464c-0.987,0-1.79-0.803-1.79-1.789V19.774h16.651V77.123z
		 M93.464,88.406h13.073c6.221,0,11.282-5.063,11.282-11.283V49.188h57.348c0.987,0,1.79,0.803,1.79,1.79v127.457
		c0,0.988-0.803,1.79-1.79,1.79H24.832c-0.986,0-1.789-0.802-1.789-1.79V50.978c0-0.987,0.803-1.79,1.789-1.79H82.18v27.936
		C82.18,83.344,87.242,88.406,93.464,88.406z M44.179,23.1c1.303-1.679,4.671-3.325,6.799-3.325H82.18v19.92H31.271L44.179,23.1z"/>
	<path d="M96.731,170.109h62.095c2.617,0,4.747-2.129,4.747-4.746c0-2.618-2.13-4.748-4.747-4.748H96.731
		c-2.617,0-4.746,2.13-4.746,4.748C91.985,167.98,94.114,170.109,96.731,170.109z"/>
	<path d="M132.683,130.892c1.267,0,2.458-0.493,3.355-1.391l4.969-4.969v24.49c0,2.617,2.13,4.746,4.747,4.746
		c2.618,0,4.747-2.129,4.747-4.746v-24.49l4.97,4.969c0.896,0.896,2.089,1.39,3.355,1.39c1.27,0,2.46-0.493,3.356-1.39
		c0.897-0.896,1.391-2.089,1.391-3.355c0-1.269-0.494-2.461-1.391-3.356l-13.072-13.073c-0.896-0.897-2.089-1.391-3.356-1.391
		s-2.459,0.493-3.356,1.391l-13.071,13.072c-0.896,0.896-1.391,2.089-1.391,3.357c0,1.267,0.493,2.459,1.391,3.356
		C130.222,130.398,131.414,130.892,132.683,130.892z"/>
	<path d="M96.732,130.892c1.267,0,2.459-0.493,3.355-1.391l4.971-4.969v24.49c0,2.617,2.129,4.746,4.745,4.746
		c2.617,0,4.748-2.129,4.748-4.746v-24.49l4.97,4.969c0.896,0.896,2.088,1.39,3.356,1.39c1.268,0,2.459-0.493,3.355-1.39
		c0.897-0.896,1.39-2.089,1.39-3.355c0-1.269-0.493-2.461-1.39-3.356l-13.072-13.073c-0.896-0.896-2.089-1.391-3.357-1.391
		c-1.267,0-2.459,0.493-3.355,1.391l-13.072,13.072c-0.897,0.896-1.391,2.089-1.391,3.357c0,1.267,0.493,2.459,1.391,3.355
		C94.272,130.398,95.464,130.892,96.732,130.892z"/>
</g>
</svg>
