<?xml version="1.0" encoding="utf-8"?>
<!-- Generator: Adobe Illustrator 16.0.0, SVG Export Plug-In . SVG Version: 6.00 Build 0)  -->
<!DOCTYPE svg PUBLIC "-//W3C//DTD SVG 1.1//EN" "http://www.w3.org/Graphics/SVG/1.1/DTD/svg11.dtd">
<svg version="1.1" id="Layer_1" xmlns="http://www.w3.org/2000/svg" xmlns:xlink="http://www.w3.org/1999/xlink" x="0px" y="0px"
	 width="200px" height="200px" viewBox="0 0 200 200" enable-background="new 0 0 200 200" xml:space="preserve">
<g>
	<g>
		<path d="M20.3,64.9c0-4.8,0-9.6,0-14.4c0.7-3,1.4-6.1,2.2-9.1c3.9-14.7,11.8-20.8,26.9-20.8c29.5,0,59,0,88.5,0
			c15.6,0,21.699,6,21.699,21.8c0,31.5,0,63,0,94.6c0,2.1,0,4.2,0,6.5c7.301,0,13.7,0,20.101,0c0,3.7,0,7.4,0,11.1
			c-0.8,2.4-1.5,4.801-2.3,7.2c-3.801,11.3-11.101,17.3-22.2,17.4c-33.9,0.2-67.8,0.1-101.8,0.1c-6.1,0-10.2-3.2-12-8.8
			c-0.9-2.9-1.2-6.1-1.2-9.2c-0.1-30-0.1-60.1-0.1-90.1c0-2,0-3.9,0-6.2C33.1,64.9,26.7,64.9,20.3,64.9z M48.6,30.6
			c0.5,7.3,1.3,14.1,1.4,20.8c0.1,36,0,71.9,0.2,107.9c0,3.3,1.7,6.5,2.6,9.8c2.1-3.199,5.1-6.1,6.1-9.6c1.4-4.8,1.2-10,1.8-15.8
			c29.6,0,59.1,0,89,0c0-2.7,0-4.7,0-6.7c0-27.5,0-55,0-82.4c0-5.2,0.1-10.3-0.101-15.5c-0.199-4.7-1.899-8.5-7.399-8.5
			C110.9,30.6,79.5,30.6,48.6,30.6z M67,169c1.1,0.2,2.2,0.5,3.2,0.5c28,0,56,0.1,84,0c8.899-0.1,14.1-6,14.3-15.5
			c-32.7,0-65.4,0-98.2,0C69.2,159.1,68.1,163.9,67,169z M39,34.6c-0.7,0-1.5-0.1-2.2-0.1C31.9,40.1,31,47,30.4,54.4
			c3.4,0,6.4,0,10.1,0C40,47.4,39.5,41,39,34.6z"/>
		<path d="M139.3,118.1c0,3.101,0,5.801,0,8.9c-24.2,0-48.2,0-72.7,0c0-2.8,0-5.6,0-8.9C90.6,118.1,114.6,118.1,139.3,118.1z"/>
		<path d="M138.7,52.1c0,3.2,0,6,0,9.2c-10.101,0-20,0-30.2,0c0-3.1,0-5.9,0-9.2C118.5,52.1,128.3,52.1,138.7,52.1z"/>
		<path d="M108.6,83.3c0-3,0-5.8,0-9.1c10,0,19.9,0,30.101,0c0,3.1,0,5.9,0,9.1C128.6,83.3,118.8,83.3,108.6,83.3z"/>
		<path d="M108.5,104.4c0-2.9,0-5.8,0-9c10,0,19.8,0,30,0c0,2.9,0,5.7,0,9C128.8,104.4,118.8,104.4,108.5,104.4z"/>
	</g>
	<g>
		<path d="M83.7,99.4v6.6h-5.6v-6.6c-8.5-0.9-13.6-5-15.4-12.2l9.7-2.2c1.1,4.1,4.1,6.2,9.1,6.2c2.4,0,4.2-0.5,5.4-1.4
			c1.2-0.9,1.8-2,1.8-3.3s-0.5-2.3-1.6-3.1c-1.1-0.7-3.1-1.4-6.2-2c-6.7-1.4-11-3.2-12.9-5.6c-2-2.3-3-5-3-8.1
			c0-3.7,1.2-6.8,3.7-9.4c2.4-2.6,5.6-4.1,9.5-4.6v-5.6h5.6v5.5C91,54.3,95.8,57.7,98,64l-8.9,3c-1.2-3.5-3.7-5.3-7.6-5.3
			c-4.1,0-6.2,1.3-6.2,4c0,1.1,0.4,2,1.2,2.7c0.8,0.7,2.5,1.4,5.2,1.9c4.5,0.9,7.9,1.8,10,2.8c2.1,0.9,3.9,2.5,5.3,4.5
			s2.2,4.4,2.2,7c0,3.6-1.3,6.8-3.8,9.7C92.8,97.2,88.9,98.9,83.7,99.4z"/>
	</g>
</g>
</svg>
