<?xml version="1.0" encoding="utf-8"?>
<!-- Generator: Adobe Illustrator 21.1.0, SVG Export Plug-In . SVG Version: 6.00 Build 0)  -->
<svg version="1.1" id="圖層_1" xmlns="http://www.w3.org/2000/svg" xmlns:xlink="http://www.w3.org/1999/xlink" x="0px" y="0px"
	 viewBox="0 0 200 200" style="enable-background:new 0 0 200 200;" xml:space="preserve">
<path class="st0" d="M165.5,10H34.5C20.6,10,10,20.6,10,34.5v130.9c0,13.9,10.6,24.5,24.5,24.5h130.9c13.9,0,24.5-10.6,24.5-24.5
	V34.5C190,20.6,179.4,10,165.5,10z M173.6,165.5c0,4.9-3.3,8.2-8.2,8.2H62.4l70.4-70.4l40.9,40.9V165.5z M173.6,121.3l-40.9-40.9
	l-93.3,93.3h-4.9c-4.9,0-8.2-3.3-8.2-8.2V34.5c0-4.9,3.3-8.2,8.2-8.2h130.9c4.9,0,8.2,3.3,8.2,8.2V121.3z M67.3,42.7
	c-13.9,0-24.5,10.6-24.5,24.5s10.6,24.5,24.5,24.5s24.5-10.6,24.5-24.5S81.2,42.7,67.3,42.7z M67.3,75.5c-4.9,0-8.2-3.3-8.2-8.2
	s3.3-8.2,8.2-8.2s8.2,3.3,8.2,8.2S72.2,75.5,67.3,75.5z"/>
</svg>
