<?xml version="1.0" encoding="utf-8"?>
<!-- Generator: Adobe Illustrator 16.0.0, SVG Export Plug-In . SVG Version: 6.00 Build 0)  -->
<!DOCTYPE svg PUBLIC "-//W3C//DTD SVG 1.1//EN" "http://www.w3.org/Graphics/SVG/1.1/DTD/svg11.dtd">
<svg version="1.1" id="圖層_1" xmlns="http://www.w3.org/2000/svg" xmlns:xlink="http://www.w3.org/1999/xlink" x="0px" y="0px"
	 width="200px" height="200px" viewBox="0 0 200 200" enable-background="new 0 0 200 200" xml:space="preserve">
<path fill="none" stroke="#000000" stroke-width="8" stroke-miterlimit="10" d="M101.248,181.73
	c-0.388-0.002-0.776-0.059-1.148-0.168c-2.665-0.793-65.281-20.006-65.281-73.302V39.944c0-2.238,1.807-4.055,4.044-4.069h0.194
	c11.963,0.565,26.311-1.861,40.604-6.892c6.625-2.31,13.054-5.15,19.223-8.495c1.21-0.656,2.669-0.656,3.88,0
	c6.169,3.354,12.601,6.207,19.231,8.525c14.563,5.128,29.735,7.63,41.709,6.842c1.125-0.084,2.233,0.312,3.051,1.087
	c0.811,0.767,1.272,1.835,1.273,2.95v68.362c0,51.725-62.83,72.421-65.504,73.275C102.115,181.668,101.683,181.737,101.248,181.73z"
	/>
<path d="M93.396,121.171c-1.019,0.002-2-0.381-2.747-1.072l-21.293-19.686c-1.804-1.34-2.179-3.89-0.84-5.692
	c1.341-1.806,3.89-2.181,5.694-0.84c0.234,0.174,0.448,0.373,0.641,0.59l18.53,17.147l40.351-37.36
	c1.478-1.693,4.047-1.869,5.74-0.392c1.693,1.477,1.87,4.047,0.391,5.742c-0.188,0.219-0.404,0.417-0.64,0.591l-43.096,39.908
	C95.38,120.79,94.406,121.168,93.396,121.171"/>
</svg>
