<?xml version="1.0" encoding="utf-8"?>
<!-- Generator: Adobe Illustrator 21.1.0, SVG Export Plug-In . SVG Version: 6.00 Build 0)  -->
<svg version="1.1" id="圖層_1" xmlns="http://www.w3.org/2000/svg" xmlns:xlink="http://www.w3.org/1999/xlink" x="0px" y="0px"
	 viewBox="0 0 200 200" style="enable-background:new 0 0 200 200;" xml:space="preserve">
<g>
	<path d="M148.1,10.3H53c-6.8,0-12.4,5.6-12.4,12.4v155.1c0,6.8,5.6,12.4,12.4,12.4h95.1c6.8,0,12.4-5.6,12.4-12.4V22.8
		C160.5,15.9,155,10.3,148.1,10.3z M142.4,168.5h-38.1v-10.6h38.1V168.5z M148.5,135.6c0,6.6-5.4,12-12,12h-72c-6.6,0-12-5.4-12-12
		v-96c0-6.6,5.4-12,12-12h72c6.6,0,12,5.4,12,12V135.6z"/>
	<g>
		<path d="M78.9,68.1h-12c-3.3,0-6-2.7-6-6v-12c0-3.3,2.7-6,6-6h12c3.3,0,6,2.7,6,6v12C84.9,65.4,82.2,68.1,78.9,68.1z"/>
		<path d="M110.3,68.1h-12c-3.3,0-6-2.7-6-6v-12c0-3.3,2.7-6,6-6h12c3.3,0,6,2.7,6,6v12C116.3,65.4,113.6,68.1,110.3,68.1z"/>
		<path d="M78.9,99.6h-12c-3.3,0-6-2.7-6-6v-12c0-3.3,2.7-6,6-6h12c3.3,0,6,2.7,6,6v12C84.9,96.9,82.2,99.6,78.9,99.6z"/>
		<path d="M110.3,99.6h-12c-3.3,0-6-2.7-6-6v-12c0-3.3,2.7-6,6-6h12c3.3,0,6,2.7,6,6v12C116.3,96.9,113.6,99.6,110.3,99.6z"/>
		<path d="M78.9,131.2h-12c-3.3,0-6-2.7-6-6v-12c0-3.3,2.7-6,6-6h12c3.3,0,6,2.7,6,6v12C84.9,128.5,82.2,131.2,78.9,131.2z"/>
		<path d="M110.3,131.2h-12c-3.3,0-6-2.7-6-6v-12c0-3.3,2.7-6,6-6h12c3.3,0,6,2.7,6,6v12C116.3,128.5,113.6,131.2,110.3,131.2z"/>
	</g>
	<rect x="128.9" y="44.1" width="8.5" height="87"/>
</g>
</svg>
