<?xml version="1.0" encoding="utf-8"?>
<!-- Generator: Adobe Illustrator 16.0.0, SVG Export Plug-In . SVG Version: 6.00 Build 0)  -->
<!DOCTYPE svg PUBLIC "-//W3C//DTD SVG 1.1//EN" "http://www.w3.org/Graphics/SVG/1.1/DTD/svg11.dtd">
<svg version="1.1" id="Layer_1" xmlns="http://www.w3.org/2000/svg" xmlns:xlink="http://www.w3.org/1999/xlink" x="0px" y="0px"
	 width="200px" height="200px" viewBox="0 0 200 200" enable-background="new 0 0 200 200" xml:space="preserve">
<path d="M99.977,10.268c-49.491,0-89.755,40.264-89.755,89.755s40.264,89.754,89.755,89.754c49.492,0,89.754-40.263,89.754-89.754
	S149.469,10.268,99.977,10.268z M128.022,98.389c3.719,3.224,10.376,3.459,13.103,2.543c2.725-0.866,13.3,0.47,14.361,0.733
	c1.074,0.287,6.471,12.815,7.404,15.906c0.929,3.067,5.726,6.893,4.218,10.51c-1.479,3.592-2.502,8.912-0.706,9.463
	c0.629,0.209,1.809-0.657,3.079-1.863c-12.95,26.134-39.826,44.19-70.906,44.19c-43.648,0-79.157-35.51-79.157-79.171
	c0-17.585,5.845-33.833,15.606-46.989c1.179,9.119,5.071,27.125,6.907,28.697c2.226,1.94,1.139,8.937,4.86,12.16
	c2.807,2.433,7.708,6.443,9.947,8.268c-0.069,2.832,1.212,9.029,1.414,11.985c0.263,3.826,4.443,3.197,12.147,8.908
	c7.758,5.741,4.455,13.313,4.783,18.161c0.366,4.85,0.867,22.726,2.634,27.832c1.743,5.136,7.522,7.497,7.522,7.497
	s-1.31-3.724-1.729-9.647c-0.406-5.896,1.691-5.371,8.361-10.01c6.644-4.664,14.951-30.688,16.445-33.937
	c1.548-3.273,4.612-3.852,3.67-7.288c-0.945-3.403-5.022-2.068-11.769-3.667c-6.762-1.626-11.95-6.158-17.559-11.349
	c-5.568-5.188-13.404-7.076-16.367-4.429c-2.464,2.225-7.197,3.869-8.656,4.339c-0.293-2.191-0.859-5.45-1.881-8.447
	c-1.794-5.135-0.052-5.609-1.533-6.892c-1.506-1.259-3.682,2.384-7.574,1.597c-3.905-0.76-3.944-11.216,2.083-14.806
	c6.027-3.564,11.047,7.941,11.047,7.941s3.146,0.129,3.802-5.504c0.537-4.64,14.217-21.387,22.786-29.301
	c1.795-1.703,7.13-0.235,8.308-0.917c0.827-0.499-7.809-8.701-7.376-9.461c2.084-3.749-0.106-9.487-1.679-12.736
	c4.232-0.708,8.544-1.154,12.958-1.154c7.338,0,14.402,1.075,21.15,2.962c0.119,2.7,0.8,5.426,4.243,6.447
	c5.729,1.679,4.824,3.853,9.976,2.436c2.095-0.576,3.745-0.785,4.991-0.655c0.707,0.418,1.4,0.811,2.084,1.257
	c0.155,0.576,0.104,1.364-0.248,2.412c-0.943,2.766,0.196,1.811,0.424,1.596c-0.088,0.087-0.346,0.359-0.923,1.025
	c-2.596,2.96-6.905,6.446-1.572,7.784c5.344,1.362,3.81-3.827,8.583-5.217c1.873-0.549,2.606-0.654,3.066-0.628
	c1.021,0.89,2.031,1.782,3.012,2.725c0.552,1.598,0.592,3.826,4.444,4.665c4.784,5.398,8.806,11.454,11.989,18.004
	c-0.144,0.051-0.207,0.104-0.366,0.129c-7.916,1.939-6.747,3.617-13.786,2.7c-7.061-0.864-11.609-6.133-16.379-4.402
	c0,0-1.979,1.521-4.81,1.021c-2.803-0.498-3.695,1.993-4.927,4.535c-1.192,2.542-6.33,3.956-6.028,8.124
	C123.774,82.637,124.312,95.139,128.022,98.389z"/>
</svg>
