<?xml version="1.0" encoding="utf-8"?>
<!-- Generator: Adobe Illustrator 16.0.0, SVG Export Plug-In . SVG Version: 6.00 Build 0)  -->
<!DOCTYPE svg PUBLIC "-//W3C//DTD SVG 1.1//EN" "http://www.w3.org/Graphics/SVG/1.1/DTD/svg11.dtd">
<svg version="1.1" id="Layer_1" xmlns="http://www.w3.org/2000/svg" xmlns:xlink="http://www.w3.org/1999/xlink" x="0px" y="0px"
	 width="200px" height="200px" viewBox="0 0 200 200" enable-background="new 0 0 200 200" xml:space="preserve">
<g>
	<g>
		<path d="M103.23,39.634H78.989c-1.357,1.198-2.342,2.014-2.958,2.443h23.721l-0.297,6.955h2.958v3.599h-3.106l-0.294,3.392h1.812
			v3.495H98.75c-0.396,1.946-1.302,3.297-2.718,4.056c-1.422,0.757-4.14,1.136-8.162,1.136l-1.22-3.665
			c0.863,0.046,1.64,0.067,2.333,0.067c2.293,0,3.591-0.532,3.886-1.595H71.032l1.224-6.887h-4.998v-3.599h5.515l0.445-5.087
			c-1.333,0.905-2.59,1.571-3.774,2.002l-3.331-4.139c4.439-1.992,8.585-5.08,12.433-9.266l5.959,1.255
			c-0.345,0.543-0.877,1.143-1.59,1.799h20.316V39.634z M89.981,86.766c-4.638,2.76-10.856,5.169-18.652,7.226l-3.774-4.68
			c6.663-1.337,12.522-3.327,17.577-5.974L89.981,86.766z M129.836,80.625l-5.218,2.984c-0.396-0.34-1.382-1.38-2.961-3.121
			l-18.502,1.391v6.821c0,1.65-0.569,2.973-1.703,3.969c-1.138,0.996-4.502,1.527-10.103,1.595l-1.888-4.953
			c3.704,0.043,5.787-0.109,6.257-0.46c0.467-0.351,0.7-0.888,0.7-1.612v-5.022L72.107,82.93l-0.928-4.24
			c7.033-0.859,14.485-2.759,22.353-5.7c-5.896,0.453-11.398,0.712-16.504,0.779l-1.222-3.629
			c9.451-0.859,17.627-3.427,24.536-7.703l5.477,2.41c-2.862,1.694-6.278,3.233-10.25,4.615l8.067-0.307
			c5.131-2.17,8.819-3.766,11.066-4.785l5.959,3.054c-12.164,5.204-21.614,8.754-28.35,10.655c8.81-0.249,17.045-0.757,24.719-1.526
			c-1.602-1.221-2.712-2.014-3.329-2.375l5.294-2.919C123.088,73.861,126.703,76.983,129.836,80.625z M84.356,56.023
			c-0.642-0.453-1.703-1.076-3.183-1.866l2.441-1.526h-5.218l-0.553,3.392H84.356z M84.763,49.032
			c-0.963-0.791-1.875-1.447-2.737-1.967l2.257-1.392h-5.146l-0.295,3.358H84.763z M93.386,52.631H86.43
			c0.764,0.451,1.775,1.074,3.032,1.866l-2.292,1.526h6.067L93.386,52.631z M93.757,45.674h-6.959
			c0.911,0.52,1.875,1.246,2.889,2.172l-1.668,1.186h5.662L93.757,45.674z M133.314,59.077l-3.18,4.683
			c-4.74-1.129-9.057-3.03-12.954-5.701c-3.526,2.239-7.219,3.902-11.063,4.989l-3.556-4.582c3.281-0.769,6.636-2.091,10.066-3.969
			c-1.728-1.787-3.342-3.959-4.848-6.517l5.069-2.237c1.604,2.396,3.071,4.23,4.403,5.495c2.467-2.532,4.084-5.451,4.847-8.754
			H111.11c-1.901,2.263-3.971,4.163-6.216,5.701l-3.702-4.036c3.998-2.807,7.328-6.651,9.995-11.537l5.771,1.458
			c-0.788,1.447-1.495,2.635-2.108,3.562h17.095v4.852h-3.999c-1.427,5.386-3.552,9.389-6.36,12.013
			C124.47,56.328,128.382,57.855,133.314,59.077z M132.279,89.82l-3.887,4.445c-6.563-3.054-12.952-5.329-19.166-6.821l3.698-4.174
			C120.302,85.193,126.751,87.377,132.279,89.82z"/>
	</g>
	<g>
		<path d="M42.448,115.241H32.195c1.555,2.217,2.641,4.206,3.257,5.971l-6.292,1.528c-0.912-1.858-2.405-4.357-4.478-7.499h-2.479
			c-2.22,2.761-4.749,5.214-7.587,7.362l-5.143-3.766c4.737-3.484,8.979-8.371,12.73-14.659l6.07,2.239
			c-0.815,1.448-1.506,2.533-2.071,3.257h16.245V115.241z M20.391,165.834h-6.512v-33.936l6.512,0.071V165.834z M31.677,128.846
			l-5.069,3.973c-2.812-2.718-6.206-5.272-10.177-7.671l4.996-4.07C25.745,123.836,29.161,126.428,31.677,128.846z M58.951,159.012
			H27.792v-25.585h31.158V159.012z M73.124,160.201c0,1.923-0.634,3.293-1.905,4.103c-1.271,0.817-3.263,1.223-5.977,1.223
			c-0.864,0-1.8-0.044-2.813-0.137l-2.405-5.835c1.456,0.158,2.726,0.239,3.814,0.239c1.304,0,2.121-0.104,2.44-0.294
			c0.32-0.194,0.481-0.511,0.481-0.961v-29.963H34.157v-5.293h38.966V160.201z M52.513,143.779v-5.128H34.304v5.128H52.513z
			 M52.513,153.72v-4.99H34.304v4.99H52.513z M76.012,115.241H63.578c1.108,1.626,2.169,3.425,3.182,5.396l-6.587,1.593
			c-0.89-2.104-2.233-4.434-4.033-6.988h-3.553c-2.047,2.555-4.416,4.94-7.104,7.159l-5.478-3.358
			c5.13-3.983,9.228-8.889,12.287-14.728l6.292,1.527c-0.52,1.223-1.261,2.499-2.223,3.833h19.651V115.241z"/>
	</g>
	<g>
		<path d="M152.015,162.134h-9.77l-5.367-13.676h-22.94l-5.107,13.676h-9.768l21.61-52.56h9.879L152.015,162.134z M134.4,141.709
			l-7.991-20.734c-0.3-0.745-0.596-2.069-0.89-3.971h-0.26c-0.223,1.563-0.529,2.862-0.925,3.903l-7.955,20.802H134.4z"/>
		<path d="M159.971,127.117c4.171-2.263,8.994-3.395,14.47-3.395c10.335,0,15.504,4.899,15.504,14.692v23.719h-8.438v-5.7h-0.184
			c-2.787,4.39-6.933,6.582-12.436,6.582c-4.018,0-7.176-0.994-9.484-2.986c-2.307-1.988-3.468-4.669-3.468-8.041
			c0-7.058,4.58-11.173,13.731-12.354l11.881-1.489c0-5.588-2.678-8.383-8.035-8.383c-4.905,0-9.423,1.461-13.542,4.377V127.117z
			 M172.518,144.693c-2.961,0.363-5.047,1.053-6.266,2.069c-1.224,1.02-1.839,2.511-1.839,4.48c0,1.65,0.651,2.994,1.961,4.046
			c1.307,1.053,2.986,1.585,5.03,1.585c2.914,0,5.33-0.948,7.254-2.838c1.925-1.89,2.89-4.265,2.89-7.137v-3.327L172.518,144.693z"
			/>
	</g>
</g>
</svg>
