<?xml version="1.0" encoding="utf-8"?>
<!-- Generator: Adobe Illustrator 16.0.0, SVG Export Plug-In . SVG Version: 6.00 Build 0)  -->
<!DOCTYPE svg PUBLIC "-//W3C//DTD SVG 1.1//EN" "http://www.w3.org/Graphics/SVG/1.1/DTD/svg11.dtd">
<svg version="1.1" id="Layer_1" xmlns="http://www.w3.org/2000/svg" xmlns:xlink="http://www.w3.org/1999/xlink" x="0px" y="0px"
	 width="200px" height="200px" viewBox="0 0 200 200" enable-background="new 0 0 200 200" xml:space="preserve">
<path fill="#0C0C0C" d="M151.368,189.479H49.93c-8.617,0-15.612-6.99-15.612-15.603V25.61c0-8.616,6.995-15.604,15.612-15.604
	h74.017c0,0,0.017,0,0.033,0h0.075c0.008,0,0.008,0,0.008,0c1.242,0,2.304,0.621,3.021,1.539l38.358,38.346
	c0.905,0.716,1.538,1.778,1.538,3.033l0,0v0.083c0,0,0,0.008,0,0.017v120.853C166.979,182.488,159.984,189.479,151.368,189.479z
	 M127.955,23.199v25.82h25.824L127.955,23.199z M159.17,56.821h-35.107c-2.165,0-3.9-1.749-3.9-3.897V17.808H49.93
	c-4.313,0-7.81,3.494-7.81,7.802v148.266c0,4.304,3.498,7.802,7.81,7.802h101.438c4.313,0,7.802-3.494,7.802-7.802V56.821z
	 M135.765,158.268H65.533c-2.156,0-3.901-1.753-3.901-3.904c0-2.156,1.745-3.901,3.901-3.901h70.231
	c2.156,0,3.901,1.745,3.901,3.901C139.666,156.519,137.921,158.268,135.765,158.268z M135.765,127.054H65.533
	c-2.156,0-3.901-1.75-3.901-3.901c0-2.156,1.745-3.901,3.901-3.901h70.231c2.156,0,3.901,1.745,3.901,3.901
	C139.666,125.304,137.921,127.054,135.765,127.054z M135.765,95.838H65.533c-2.156,0-3.901-1.745-3.901-3.901
	c0-2.16,1.745-3.905,3.901-3.905h70.231c2.156,0,3.901,1.745,3.901,3.905C139.666,94.093,137.921,95.838,135.765,95.838z"/>
</svg>
