<?xml version="1.0" encoding="utf-8"?>
<!-- Generator: Adobe Illustrator 16.0.0, SVG Export Plug-In . SVG Version: 6.00 Build 0)  -->
<!DOCTYPE svg PUBLIC "-//W3C//DTD SVG 1.1//EN" "http://www.w3.org/Graphics/SVG/1.1/DTD/svg11.dtd">
<svg version="1.1" id="圖層_1" xmlns="http://www.w3.org/2000/svg" xmlns:xlink="http://www.w3.org/1999/xlink" x="0px" y="0px"
	 width="200px" height="200px" viewBox="0 0 200 200" enable-background="new 0 0 200 200" xml:space="preserve">
<path fill="#040000" d="M181.584,169.187H20.416c-3.72,0-6.199-2.481-6.199-6.198V63.807c0-3.72,2.479-6.199,6.199-6.199
	c3.72,0,6.199,2.479,6.199,6.199v92.982h148.771V45.211H20.416c-3.72,0-6.199-2.479-6.199-6.199c0-3.72,2.479-6.199,6.199-6.199
	h161.168c3.717,0,6.199,2.479,6.199,6.199v123.976C187.783,166.705,185.301,169.187,181.584,169.187"/>
<path fill="#040000" d="M101,119.597c-1.858,0-3.1-0.618-4.34-1.858l-49.59-49.591c-2.479-2.482-2.479-6.199,0-8.681
	c2.482-2.479,6.199-2.479,8.681,0l45.25,45.25l45.25-45.25c2.482-2.479,6.199-2.479,8.681,0c2.476,2.482,2.476,6.199,0,8.681
	l-49.59,49.591C104.1,118.979,102.858,119.597,101,119.597"/>
<path fill="#040000" d="M150.591,144.392c-1.858,0-3.1-0.617-4.341-1.858l-18.597-18.597c-2.476-2.481-2.476-6.198,0-8.681
	c2.482-2.476,6.199-2.476,8.681,0l18.597,18.597c2.476,2.481,2.476,6.198,0,8.681C153.689,143.774,152.449,144.392,150.591,144.392"
	/>
<path fill="#040000" d="M51.41,144.392c-1.858,0-3.1-0.617-4.34-1.858c-2.479-2.482-2.479-6.199,0-8.681l18.596-18.597
	c2.482-2.476,6.199-2.476,8.681,0c2.479,2.482,2.479,6.199,0,8.681L55.75,142.533C54.509,143.774,53.268,144.392,51.41,144.392"/>
</svg>
