<?xml version="1.0" encoding="utf-8"?>
<!-- Generator: Adobe Illustrator 16.0.0, SVG Export Plug-In . SVG Version: 6.00 Build 0)  -->
<!DOCTYPE svg PUBLIC "-//W3C//DTD SVG 1.1//EN" "http://www.w3.org/Graphics/SVG/1.1/DTD/svg11.dtd">
<svg version="1.1" id="圖層_1" xmlns="http://www.w3.org/2000/svg" xmlns:xlink="http://www.w3.org/1999/xlink" x="0px" y="0px"
	 width="200px" height="200px" viewBox="0 0 200 200" enable-background="new 0 0 200 200" xml:space="preserve">
<g>
	<path d="M188.593,37.308c-30.762,26.381-59.36,50.905-88.555,75.941C71.147,88.496,42.386,63.853,11.84,37.681
		c4.724-1.24,7.76-2.724,10.803-2.732c51.579-0.142,103.16-0.136,154.741-0.02C180.363,34.938,183.339,36.154,188.593,37.308z"/>
	<path d="M100.067,125.678c7.712-6.686,14.842-12.869,22.542-19.545c21.429,18.359,42.74,36.62,65.854,56.424
		c-5.136,1.162-8.306,2.496-11.479,2.504c-51.241,0.133-102.482,0.129-153.723,0.01c-3.211-0.008-6.417-1.228-11.851-2.338
		C34.401,143,55.501,124.886,77.275,106.198C84.636,112.486,91.96,118.746,100.067,125.678z"/>
	<path d="M127.988,101.032c21.229-18.46,41.443-36.037,62.582-54.417c0,36.039,0,71.007,0,107.503
		C169.561,136.297,149.116,118.953,127.988,101.032z"/>
	<path d="M72.006,101.004c-20.911,17.786-41.27,35.102-62.576,53.225c0-36.162,0-71.146,0-107.572
		C30.482,64.94,50.945,82.711,72.006,101.004z"/>
</g>
</svg>
