<?xml version="1.0" encoding="utf-8"?>
<!-- Generator: Adobe Illustrator 16.0.0, SVG Export Plug-In . SVG Version: 6.00 Build 0)  -->
<!DOCTYPE svg PUBLIC "-//W3C//DTD SVG 1.1//EN" "http://www.w3.org/Graphics/SVG/1.1/DTD/svg11.dtd">
<svg version="1.1" id="圖層_1" xmlns="http://www.w3.org/2000/svg" xmlns:xlink="http://www.w3.org/1999/xlink" x="0px" y="0px"
	 width="200px" height="200px" viewBox="0 0 200 200" enable-background="new 0 0 200 200" xml:space="preserve">
<path  d="M48.279,50.113c2.301,0,4.166,1.865,4.166,4.166s-1.865,4.166-4.166,4.166c-2.301,0-4.166-1.865-4.166-4.166
	S45.979,50.113,48.279,50.113"/>
<path  d="M140.221,50.113c2.302,0,4.166,1.865,4.166,4.166s-1.864,4.166-4.166,4.166
	c-2.301,0-4.166-1.865-4.166-4.166S137.92,50.113,140.221,50.113"/>
<path  d="M48.279,142.055c2.301,0,4.166,1.865,4.166,4.166s-1.865,4.166-4.166,4.166
	c-2.301,0-4.166-1.865-4.166-4.166S45.979,142.055,48.279,142.055"/>
<path  d="M140.221,142.055c2.302,0,4.166,1.865,4.166,4.166s-1.864,4.166-4.166,4.166
	c-2.301,0-4.166-1.865-4.166-4.166S137.92,142.055,140.221,142.055"/>
<path  d="M182.025,91.882c2.299,0,4.166-1.868,4.166-4.166s-1.867-4.166-4.166-4.166h-20.902v-16.7h20.902
	c2.299,0,4.166-1.868,4.166-4.166c0-2.299-1.867-4.167-4.166-4.167h-20.902v-4.238c0-11.528-9.373-20.902-20.902-20.902h-4.166
	V12.475c0-2.298-1.868-4.166-4.166-4.166s-4.166,1.868-4.166,4.166v20.902h-16.7V12.475c0-2.298-1.867-4.166-4.166-4.166
	s-4.166,1.868-4.166,4.166v20.902H85.99V12.475c0-2.298-1.868-4.166-4.166-4.166c-2.299,0-4.167,1.868-4.167,4.166v20.902h-16.7
	V12.475c0-2.298-1.867-4.166-4.166-4.166s-4.166,1.868-4.166,4.166v20.902H48.28c-11.529,0-20.903,9.374-20.903,20.902v4.166H6.475
	c-2.298,0-4.166,1.868-4.166,4.167c0,2.298,1.867,4.166,4.166,4.166h20.902v16.701H6.475c-2.298,0-4.166,1.867-4.166,4.167
	c0,2.298,1.867,4.166,4.166,4.166h20.902v16.701H6.475c-2.298,0-4.166,1.867-4.166,4.165c0,2.299,1.867,4.166,4.166,4.166h20.902
	v16.701H6.475c-2.298,0-4.166,1.867-4.166,4.166s1.867,4.166,4.166,4.166h20.902v4.346c0,11.528,9.374,20.902,20.903,20.902h4.166
	v20.902c0,2.299,1.867,4.166,4.167,4.166c2.298,0,4.166-1.867,4.166-4.166v-20.902h16.7v20.902c0,2.299,1.868,4.166,4.167,4.166
	c2.298,0,4.166-1.867,4.166-4.166v-20.902h16.7v20.902c0,2.299,1.867,4.166,4.165,4.166c2.3,0,4.167-1.867,4.167-4.166v-20.902h16.7
	v20.902c0,2.299,1.867,4.166,4.166,4.166s4.166-1.867,4.166-4.166v-20.902h4.346c11.529,0,20.902-9.374,20.902-20.902v-4.166h20.902
	c2.299,0,4.166-1.868,4.166-4.166s-1.867-4.167-4.166-4.167h-25.068c-2.299,0-4.166,1.869-4.166,4.167v8.332
	c0,6.896-5.639,12.534-12.534,12.534H48.28c-6.896,0-12.535-5.639-12.535-12.534V54.279c0-6.896,5.638-12.534,12.535-12.534h91.941
	c6.896,0,12.534,5.639,12.534,12.534v66.873c0,2.298,1.868,4.166,4.167,4.166c2.298,0,4.166-1.868,4.166-4.166v-4.166h20.901
	c2.299,0,4.166-1.867,4.166-4.166s-1.867-4.166-4.166-4.166h-20.901v-16.7L182.025,91.882z"/>
<path  d="M81.716,75.182c-6.896,0-12.534,5.639-12.534,12.534c0,5.459,3.519,10.056,8.368,11.781v34.19H65.016
	c-2.298,0-4.166-1.868-4.166-4.166V70.979c0-2.299,1.868-4.166,4.166-4.166h25.068c2.299,0,4.166-1.868,4.166-4.167
	c0-2.298-1.867-4.166-4.166-4.166H65.016c-6.896,0-12.534,5.639-12.534,12.534v58.505c0,6.896,5.639,12.534,12.534,12.534h16.7
	c2.299,0,4.167-1.868,4.167-4.166V99.497c4.848-1.725,8.368-6.322,8.368-11.781C94.25,80.784,88.611,75.182,81.716,75.182
	 M81.716,91.882c-2.298,0-4.166-1.868-4.166-4.166s1.868-4.166,4.166-4.166c2.299,0,4.167,1.868,4.167,4.166
	S84.015,91.882,81.716,91.882"/>
<path  d="M123.485,58.445h-16.701c-2.298,0-4.166,1.868-4.166,4.167v38.392c-4.848,1.724-8.368,6.321-8.368,11.78
	c0,6.896,5.639,12.534,12.534,12.534s12.535-5.639,12.535-12.534c0-5.459-3.521-10.057-8.368-11.78v-34.19h12.534
	c2.298,0,4.165,1.867,4.165,4.166v58.505c0,2.299-1.867,4.166-4.165,4.166H98.416c-2.298,0-4.166,1.867-4.166,4.166
	s1.868,4.166,4.166,4.166h25.069c6.895,0,12.533-5.639,12.533-12.534V70.979C136.055,64.084,130.416,58.445,123.485,58.445
	 M106.784,116.95c-2.298,0-4.166-1.867-4.166-4.166s1.868-4.166,4.166-4.166c2.299,0,4.167,1.867,4.167,4.166
	S109.083,116.95,106.784,116.95"/>
</svg>
