<?xml version="1.0" encoding="utf-8"?>
<!-- Generator: Adobe Illustrator 16.0.0, SVG Export Plug-In . SVG Version: 6.00 Build 0)  -->
<!DOCTYPE svg PUBLIC "-//W3C//DTD SVG 1.1//EN" "http://www.w3.org/Graphics/SVG/1.1/DTD/svg11.dtd">
<svg version="1.1" id="Layer_1" xmlns="http://www.w3.org/2000/svg" xmlns:xlink="http://www.w3.org/1999/xlink" x="0px" y="0px"
	 width="200px" height="200px" viewBox="0 0 200 200" enable-background="new 0 0 200 200" xml:space="preserve">
<g>
	<path d="M152.459,140.84c-6.68,0-12.092,5.389-12.092,12.039c0,6.646,5.412,12.028,12.092,12.028
		c6.669,0,12.081-5.383,12.081-12.028C164.54,146.229,159.128,140.84,152.459,140.84z M152.459,155.187
		c-1.307,0-2.369-1.036-2.369-2.308c0-1.277,1.063-2.316,2.369-2.316c1.301,0,2.358,1.039,2.358,2.316
		C154.817,154.15,153.76,155.187,152.459,155.187z"/>
	<path d="M178.405,141.837l-36.547-36.527c0.864-0.452,1.689-0.998,2.411-1.724l38.944-39.229c0.166-0.171,0.332-0.352,0.484-0.532
		c4.966-5.806,5.568-16.036,5.137-21.162c-0.503-6.029-2.507-10.548-5.962-13.439c-5.156-4.31-13.288-4.951-17.679-4.951
		c-5.43,0-12.864,0.959-17.439,5.535l-38.504,40.036c-0.479,0.499-0.887,1.045-1.248,1.629l-6.836-6.84l0.267-11.127
		c0.009-0.432-0.011-0.869-0.059-1.296c-1.21-10.979-3.759-20.042-12.275-28.558c-6.333-6.337-14.203-10.633-23.388-12.76
		c-0.095-0.024-0.19-0.042-0.288-0.062c-3.121-0.626-6.247-0.945-9.292-0.945c-6.049,0-11.851,1.196-17.739,3.646
		c-2.974,1.239-5.141,3.874-5.785,7.03c-0.646,3.156,0.316,6.432,2.566,8.734l20.984,21.514c0.605,0.797,1.019,1.414,1.301,1.879
		l-7.216,6.527c-0.05,0.042-0.1,0.09-0.15,0.138c-0.299-0.218-0.664-0.527-1.08-0.945c-0.116-0.114-0.235-0.228-0.356-0.337
		L28.127,39.482c-1.811-1.633-4.144-2.511-6.525-2.511c-0.89,0-1.787,0.119-2.665,0.375c-3.229,0.916-5.751,3.437-6.679,6.66
		l-0.444,1.538c-1.975,6.788-3.681,12.66-1.02,22.159c2.316,9.902,6.195,17.118,12.174,22.658
		c7.764,8.283,17.281,10.167,25.609,11.274c2.231,0.318,5.407,0.513,8.619,0.513c0.79,0,1.704-0.01,2.67-0.048l10.147,9.827
		c-0.575,0.379-1.116,0.807-1.605,1.31l-17.996,18.451l-8.229,1.563c-2.594,0.493-4.875,2.021-6.321,4.229l-19.239,29.408
		c-2.445,3.735-2.027,8.663,1.011,11.933l6.955,7.491c1.896,2.047,4.5,3.109,7.13,3.109c1.811,0,3.636-0.503,5.252-1.547
		l29.939-19.245c2.374-1.528,3.969-4.011,4.367-6.803l1.147-8.026l18.312-18.348c0.609-0.612,1.084-1.296,1.5-2.012l45.958,44.493
		c0.561,0.546,1.183,1.016,1.856,1.409c5.577,3.262,11.198,4.914,16.709,4.914c10.732,0,20.218-6.428,24.736-16.767
		c4.026-9.204,2.92-19.164-2.824-25.373C178.581,142.022,178.496,141.933,178.405,141.837z M154.628,36.682
		c1.833-1.828,6.151-2.688,10.566-2.688c4.623,0,9.348,0.94,11.44,2.688c4.092,3.422,2.877,17.084-0.323,20.824l-38.943,39.229
		l-21.111-20.151L154.628,36.682z M63.257,149.219l-1.604,11.231l-29.939,19.249l-6.955-7.491l19.24-29.407l11.236-2.137
		l20.132-20.639l8.488,8.559L63.257,149.219z M156.759,174.534c-3.518,0-7.485-1.063-11.806-3.584L63.457,92.046
		c-1.53,0.256-3.85,0.38-6.261,0.38c-2.635,0-5.381-0.147-7.334-0.428c-8.018-1.067-14.678-2.663-20.033-8.539
		c-5.34-4.818-8.018-11.232-9.617-18.181c-2.146-7.491-0.759-11.099,1.391-18.584l20.531,18.584
		c2.685,2.691,5.602,4.234,8.397,4.234c2.209,0,4.344-0.958,6.233-3.085l9.067-8.198c3.74-4.272,1.434-8.986-2.313-13.8
		L42.133,22.507c4.362-1.818,8.972-2.901,13.999-2.901c2.364,0,4.821,0.242,7.386,0.755c6.95,1.609,13.363,4.813,18.708,10.164
		c6.418,6.418,8.426,13.125,9.484,22.748l-0.366,15.29l80.186,80.153C178.382,156.126,171.432,174.534,156.759,174.534z"/>
</g>
</svg>
