<?xml version="1.0" encoding="utf-8"?>
<!-- Generator: Adobe Illustrator 16.0.0, SVG Export Plug-In . SVG Version: 6.00 Build 0)  -->
<!DOCTYPE svg PUBLIC "-//W3C//DTD SVG 1.1//EN" "http://www.w3.org/Graphics/SVG/1.1/DTD/svg11.dtd">
<svg version="1.1" id="圖層_1" xmlns="http://www.w3.org/2000/svg" xmlns:xlink="http://www.w3.org/1999/xlink" x="0px" y="0px"
	 width="200px" height="200px" viewBox="0 0 200 200" enable-background="new 0 0 200 200" xml:space="preserve">
<path d="M173.027,10.759H37.253c-9.13,0-16.56,7.433-16.56,16.56v16.554h6.623V27.319c0-5.477,4.46-9.934,9.938-9.934h26.494v165.58
	H37.253c-5.477,0-9.938-4.46-9.938-9.938v-19.862h6.623c1.83,0,3.314-1.49,3.314-3.32c0-1.823-1.485-3.309-3.314-3.309H14.073
	c-1.836,0-3.312,1.485-3.312,3.309c0,1.83,1.476,3.32,3.312,3.32h6.62v19.862c0,9.131,7.43,16.561,16.56,16.561h135.774
	c9.137,0,16.561-7.43,16.561-16.561V27.319C189.588,18.192,182.164,10.759,173.027,10.759 M123.354,17.385h33.12v52.536
	l-14.44-12.029c-1.232-1.029-3.02-1.029-4.239,0l-14.44,12.029V17.385z M182.965,173.027c0,5.478-4.46,9.938-9.938,9.938H70.368
	V17.385h46.363v59.608c0,1.282,0.739,2.455,1.91,2.998c1.151,0.542,2.538,0.373,3.523-0.456l17.749-14.792l17.743,14.792
	c0.61,0.505,1.368,0.77,2.126,0.77c0.474,0,0.955-0.099,1.404-0.314c1.158-0.542,1.91-1.716,1.91-2.998V17.385h9.931
	c5.478,0,9.938,4.458,9.938,9.934V173.027z"/>
<path d="M14.07,57.125h6.626v82.788h6.623V57.125h6.62c1.827,0,3.311-1.485,3.311-3.312c0-1.83-1.484-3.314-3.311-3.314H14.07
	c-1.83,0-3.312,1.485-3.312,3.314C10.759,55.64,12.24,57.125,14.07,57.125"/>
</svg>
