<?xml version="1.0" encoding="utf-8"?>
<!-- Generator: Adobe Illustrator 16.0.0, SVG Export Plug-In . SVG Version: 6.00 Build 0)  -->
<!DOCTYPE svg PUBLIC "-//W3C//DTD SVG 1.1//EN" "http://www.w3.org/Graphics/SVG/1.1/DTD/svg11.dtd">
<svg version="1.1" id="圖層_1" xmlns="http://www.w3.org/2000/svg" xmlns:xlink="http://www.w3.org/1999/xlink" x="0px" y="0px"
	 width="200px" height="200px" viewBox="0 0 200 200" enable-background="new 0 0 200 200" xml:space="preserve">
<path d="M66.22,46.458c0-4.088-0.114-7.282,0.023-10.465c0.313-7.32,4.492-11.77,11.727-11.858
	c14.701-0.181,29.408-0.18,44.108,0.006c7.261,0.093,11.428,4.562,11.677,11.858c0.108,3.184,0.019,6.376,0.019,10.46
	c7.188,0,13.944,0,20.703,0c8.661,0,17.323-0.109,25.983,0.031c9.095,0.147,13.377,4.379,13.397,13.39
	c0.069,33.637,0.07,67.274,0.002,100.91c-0.021,9.07-4.344,13.308-13.387,13.314c-53.578,0.031-107.154,0.03-160.731,0.002
	c-9.32-0.007-13.176-3.932-13.18-13.202C6.549,127.267,6.55,93.631,6.561,59.995c0.003-9.681,3.7-13.452,13.563-13.512
	C35.204,46.389,50.283,46.458,66.22,46.458 M13.797,84.011c0,26.457,0.011,52.009-0.01,77.561c-0.005,5.019,3.383,5.136,7.036,5.135
	c52.761-0.019,105.52-0.07,158.279,0.07c5.63,0.016,7.297-2.158,7.251-7.534c-0.196-23.357-0.078-46.718-0.106-70.077
	c-0.001-1.54-0.277-3.078-0.476-5.122c-6.141,0.91-12.986-3.173-16.916,5.09c-0.72,1.51-4.154,2.174-6.42,2.404
	c-3.786,0.388-7.641,0.057-11.466,0.125c-4.161,0.073-7.349-1.188-9.358-5.228c-0.595-1.195-2.692-2.32-4.107-2.327
	c-25.968-0.138-51.936-0.101-78.11-0.101c-1.839,6.651-6.609,8.175-12.658,7.68c-2.6-0.212-5.235-0.106-7.85-0.022
	c-4.36,0.143-7.851-0.985-9.891-5.347c-0.508-1.087-2.293-2.096-3.571-2.202C21.859,83.817,18.251,84.011,13.797,84.011
	 M14.383,76.342c6.556-0.3,13.671,2.742,17.386-5.533c0.374-0.836,2.052-1.5,3.146-1.529c5.833-0.158,11.695-0.386,17.496,0.074
	c1.826,0.146,4.307,1.977,5.056,3.671c1.463,3.311,3.726,3.489,6.682,3.479c22.361-0.068,44.722-0.017,67.084-0.054
	c4.785-0.007,10.043,1.464,12.6-5.014c0.535-1.353,3.75-2.056,5.819-2.303c3.179-0.378,6.438-0.002,9.657-0.127
	c5.061-0.196,9.75,0.068,11.936,5.855c0.292,0.771,1.807,1.477,2.784,1.519c3.941,0.171,7.893,0.07,12.239,0.07
	c0-5.082,0.003-9.288-0.002-13.495c-0.008-8.776-0.053-8.835-8.678-8.836c-48.348-0.006-96.697-0.162-145.044,0.069
	c-22.265,0.106-18.421-4.199-18.7,19.84C13.837,74.592,14.098,75.159,14.383,76.342 M74.183,46.091h51.916
	c0.096-1.899,0.228-3.464,0.243-5.031c0.105-9.482,0.041-9.544-9.283-9.546c-10.479-0.002-20.96,0.001-31.44,0.001
	c-12.436,0-12.478,0.04-11.91,12.373C73.734,44.459,73.947,45.022,74.183,46.091 M163.521,76.879h-14.365v6.593h14.365V76.879z
	 M51.047,76.939H36.422v6.66h14.625V76.939z"/>
<polygon points="92.455,99.309 107.217,99.309 107.217,113.814 122.23,113.814 122.23,128.949 107.564,128.949 107.564,143.681 
	92.819,143.681 92.819,129.361 77.856,129.361 77.856,114.195 92.455,114.195 "/>
</svg>
