<?xml version="1.0" encoding="utf-8"?>
<!-- Generator: Adobe Illustrator 16.0.0, SVG Export Plug-In . SVG Version: 6.00 Build 0)  -->
<!DOCTYPE svg PUBLIC "-//W3C//DTD SVG 1.1//EN" "http://www.w3.org/Graphics/SVG/1.1/DTD/svg11.dtd">
<svg version="1.1" id="圖層_1" xmlns="http://www.w3.org/2000/svg" xmlns:xlink="http://www.w3.org/1999/xlink" x="0px" y="0px"
	 width="200px" height="200px" viewBox="0 0 200 200" enable-background="new 0 0 200 200" xml:space="preserve">
<path d="M178.512,166.176c-3.448-11.342-31.317-26.688-44.267-32.342c-0.884-0.389-1.885-0.371-2.755,0.055l-31.41,15.181
	l-28.16-15.118c-0.84-0.457-1.841-0.52-2.749-0.167c-11.275,4.386-44.217,19.795-47.51,32.533
	c-2.354,9.089-3.293,13.55-3.336,13.734c-0.043,0.229-0.068,0.445-0.068,0.674c0,4.467,2.249,6.586,4.127,7.568
	c2.774,1.458,6.104,1.328,9.526,1.261c0.729-0.014,1.482-0.02,2.242-0.02h131.699c0.988,0,1.971,0.031,2.916,0.063
	c0.964,0.037,1.896,0.068,2.779,0.068c2.527,0,10.2,0,10.2-8.501C181.748,177.711,181.434,175.796,178.512,166.176 M171.548,183.08
	c-0.808,0-1.661-0.031-2.544-0.063c-1.026-0.036-2.082-0.067-3.151-0.067H34.153c-0.796,0-1.587-0.013-2.366,0
	c-0.704,0.006-1.396,0-2.063,0h-0.025c-0.902,0-3.237,0.018-4.263-0.519c-0.198-0.106-0.538-0.254-0.587-1.391
	c0.266-1.217,1.242-5.579,3.182-13.079c1.927-7.427,25.349-20.728,42.128-27.48l28.284,15.179c0.927,0.501,2.044,0.525,2.99,0.068
	l31.551-15.247c18.541,8.328,37.379,21.537,39.226,27.61c2.812,9.249,2.953,10.589,2.953,13.073
	C175.163,182.678,175.163,183.08,171.548,183.08"/>
<path d="M65.434,95.091c1.779,4.441,3.805,7.624,5.931,10.965c0.606,0.945,1.211,1.909,1.834,2.917
	c2.132,3.502,4.3,6.128,6.716,8.123c-0.173,3.244-0.567,7.229-1.297,10.194c-0.432,1.761,0.649,3.547,2.41,3.991
	c1.761,0.427,3.553-0.654,3.979-2.422c0.989-4.004,1.452-9.472,1.558-13.258c0.025-1.113-0.507-2.163-1.416-2.799
	c-2.255-1.551-4.257-3.861-6.333-7.26c-0.643-1.05-1.272-2.038-1.891-3.021c-2.285-3.583-4.256-6.685-5.931-11.332
	c-0.432-1.223-1.699-2.076-2.984-2.186c-0.314-0.025-1.192-0.544-1.655-1.397c-3.318-6.092-4.745-15.407-4.127-17.316
	c0.081-0.057,0.458-0.18,1.254-0.167c0.939,0.068,1.798-0.322,2.435-0.976c0.643-0.643,0.988-1.532,0.958-2.435
	c-0.698-18.893,6.259-29.05,12.208-34.239c1.093-0.958,1.439-2.514,0.846-3.836c-0.043-0.086-0.093-0.167-0.136-0.26
	c2.806-1.884,7.525-1.76,7.587-1.748l0.186-3.287l2.706-1.866c-0.216-0.5,0.222-1.693,0.846-2.793
	c1.866,1.557,4.362,2.669,6.698,3.318c6.765,1.872,11.664,3.812,14.709,5.146c14.038,5.561,21.673,19.98,20.945,39.577
	c-0.025,0.877,0.296,1.736,0.9,2.385c0.606,0.631,1.446,1.014,2.33,1.025c0.605,0.013,0.914,0.13,0.896,0.068
	c0.711,2.008-0.717,11.349-4.033,17.441c-0.477,0.859-1.323,1.396-1.651,1.445c-1.204,0.161-2.217,0.977-2.638,2.114
	c-1.698,4.603-3.769,7.846-5.961,11.281c-0.675,1.037-1.342,2.095-2.021,3.206c-1.989,3.281-3.806,5.486-5.709,6.956
	c-0.815,0.631-1.285,1.601-1.278,2.632c0.018,2.997,0.266,8.792,1.674,13.964c0.401,1.458,1.729,2.421,3.176,2.421
	c0.283,0,0.575-0.036,0.865-0.11c1.754-0.482,2.793-2.292,2.31-4.048c-1.025-3.75-1.327-8.1-1.408-10.742
	c2.058-1.879,3.992-4.351,6-7.65c0.648-1.067,1.303-2.074,1.939-3.082c2.057-3.219,4.183-6.549,6.005-11.028
	c1.811-0.815,3.454-2.33,4.473-4.201c3.837-7.036,6.048-18.318,4.473-22.778c-0.636-1.805-1.933-3.126-3.707-3.843
	c-0.03-20.863-9.304-36.877-25.032-43.11c-3.127-1.378-8.359-3.436-15.496-5.413c-3.144-0.865-4.659-2.298-4.807-2.563
	c-0.148-0.878-0.643-1.668-1.384-2.175c-0.729-0.507-1.644-0.699-2.514-0.52c-2.88,0.575-5.394,4.417-6.382,6.87
	c-0.407,1.02-0.667,2.021-0.779,2.972c-4.355,0.605-10.453,2.706-12.146,8.853c-0.192,0.55-0.248,1.149-0.155,1.724
	c-5.702,6.388-11.152,16.773-11.176,33.188c-1.996,0.667-3.435,2.039-4.121,3.992c-1.581,4.448,0.625,15.729,4.461,22.767
	C61.671,92.774,63.469,94.343,65.434,95.091"/>
</svg>
