<?xml version="1.0" encoding="utf-8"?>
<!-- Generator: Adobe Illustrator 21.1.0, SVG Export Plug-In . SVG Version: 6.00 Build 0)  -->
<svg version="1.1" id="圖層_1" xmlns="http://www.w3.org/2000/svg" xmlns:xlink="http://www.w3.org/1999/xlink" x="0px" y="0px"
	 viewBox="0 0 200 200" style="enable-background:new 0 0 200 200;" xml:space="preserve">
<g>
	<path d="M168.8,80.4c-0.7-0.6-1.8-1.3-2.3-2.2c-6-11.5-11.9-23.1-18-34.6c-1.4-2.6-0.5-3.8,2.1-4.3c7-1.5,14.1-3,21.1-4.6
		c2.5-0.6,3.7,0.3,4.6,2.6c4.4,11.5,9,23,13.5,34.5c0.7,1.7,1.4,3.5-1,4.1C182.4,77.5,175.8,78.8,168.8,80.4z M172.1,77
		c1.5-2,3.3-3.4,3.1-4.4c-0.3-1.3-2.1-2.3-3.2-3.4c-1,1.1-2.8,2.1-2.9,3.3C169,73.7,170.6,74.9,172.1,77z"/>
	<path d="M147.4,48.5c-1.6-3.3-3.3-4.4-6.8-3.3c-2.6,0.7-5.4,0.7-8,1.3c-0.6,0.1-1.1,0.2-1.5,0.1c-3.7,0.5-8.5,1.2-14.4,2.1
		c-10.8,1.5-18.7,8.3-22.6,12.4c-0.9,1.1-1.9,2.2-2.8,3.3l0,0l0,0c-3.3,4-6.7,7.9-10,11.9c-3,3.5-6.1,7-8.9,10.7
		c-2.8,3.7-6,6.7-10.4,8.2c-1.6,0.5-3.1,1.4-4.4,2.4c-2.5,1.9-4.2,4.3-3.2,7.6c1,3.5,3.3,6,7.1,6.2c7,0.3,13.4-1.6,18.9-6.2
		c5.2-4.4,10.6-8.5,15.9-12.8c5.5,5.8,8.9,15.7,19.9,9.6c6.7,8.5,12.1,7.6,27.6-4.4c6.4-12,9.7-13.3,9.7-13.3c2.8-2,5.5-4.2,8.6-6.7
		C157.1,67.8,152,58.3,147.4,48.5z M112.7,99.3c-2.5,0.9-4.5,0.9-6.3-1.1c-2.4-2.7-4.6-5.4-7.6-8.9c5.8-2.2,10.6-4.3,15.6-5.7
		c4.8-1.4,7.1,1.2,5.4,5.8C118.4,93.2,117.4,97.5,112.7,99.3z M140.5,94.1c-2.1,3.4-6,6-9.5,8.2c-1.8,1.2-4.7,1.2-7,0.9
		c-2.7-0.3-4.5-2-3.2-5.2c1-2.4,1.9-4.8,2.7-7.2c2.6-8-1.9-13.2-9.9-11c-8.1,2.2-15.9,5-22.2,11.1c-4.7,4.5-10,8.6-15.5,12
		c-3.5,2.2-7.9,3.1-12,3.9c-1.4,0.3-3.3-1.6-4.9-2.5c1-1.3,1.7-3.4,3-3.9c6.8-2.7,11.4-7.8,15.5-13.5c2.3-3.1,5.1-5.8,7.6-8.7
		c2.7-3.1,5.4-6.2,7.8-9.5c6.1-8.4,13-15.1,24.2-16c8.6-0.7,17-2.6,25.9-4c4.8,9.3,9.6,18.4,14.4,27.8C150.2,81,144.9,87,140.5,94.1
		z"/>
	<path d="M137.3,105.8c-4.4,2.8-8.1,4.5-11.5,4.9c-0.5,1.7-1.8,3.1-3.4,4.6l-35.2,31.5c-1.4,1.4-3.4,2.3-5.5,2.3
		c-2.9,0-4.6-1.5-6.7-3.9L25.1,88.7c-1.3-1.4-2.1-3.2-2.1-5.3c0-2.3,1-4.4,2.7-5.9l35.8-30.3c1.4-1.4,3.4-2.3,5.5-2.3
		c2.3,0,4.4,1,5.8,2.6l0,0l14.8,16.1l3.9-4.7c0.4-0.5,0.9-1,1.5-1.5l-20.2-22l0,0C71.3,34,69.3,33,66.9,33c-2.1,0-4.1,0.9-5.5,2.3
		L13.1,76.4c-1.6,1.4-2.7,3.5-2.7,5.9c0,2,0.8,3.9,2.1,5.3l67.1,75.4c2.1,2.3,3.9,3.9,6.7,3.9c2.2,0,4.1-0.9,5.5-2.3l47.7-42.4
		c2.3-2.1,3.7-3.8,3.7-6.7c0-2.3-1-4.3-2.5-5.7L137.3,105.8z M110.9,141.2c-2.6,0-4.6-2.1-4.6-4.6c0-2.6,2.1-4.6,4.6-4.6
		c2.6,0,4.6,2.1,4.6,4.6C115.6,139.1,113.5,141.2,110.9,141.2z"/>
</g>
</svg>
