<?xml version="1.0" encoding="utf-8"?>
<!-- Generator: Adobe Illustrator 21.1.0, SVG Export Plug-In . SVG Version: 6.00 Build 0)  -->
<svg version="1.1" id="圖層_1" xmlns="http://www.w3.org/2000/svg" xmlns:xlink="http://www.w3.org/1999/xlink" x="0px" y="0px"
	 viewBox="0 0 200 200" style="enable-background:new 0 0 200 200;" xml:space="preserve">
<g>
	<g>
		<g>
			<path class="st0" d="M92.6,18.7h-0.4c-1.5,0-2.6,1.2-2.6,2.6c0,1.5,1.2,2.6,2.6,2.6h0.4c1.5,0,2.6-1.2,2.6-2.6
				S94.1,18.7,92.6,18.7z"/>
		</g>
	</g>
	<g>
		<g>
			<path class="st0" d="M106.7,18.7h-0.4c-1.5,0-2.6,1.2-2.6,2.6c0,1.5,1.2,2.6,2.6,2.6h0.4c1.5,0,2.6-1.2,2.6-2.6
				S108.2,18.7,106.7,18.7z"/>
		</g>
	</g>
	<g>
		<g>
			<path class="st0" d="M78.5,18.7h-0.4c-1.5,0-2.6,1.2-2.6,2.6c0,1.5,1.2,2.6,2.6,2.6h0.4c1.5,0,2.6-1.2,2.6-2.6S80,18.7,78.5,18.7
				z"/>
		</g>
	</g>
	<g>
		<g>
			<path class="st0" d="M97.9,173.6H86.6c-1.5,0-2.6,1.2-2.6,2.6c0,1.5,1.2,2.6,2.6,2.6h11.3c1.5,0,2.6-1.2,2.6-2.6
				C100.5,174.8,99.4,173.6,97.9,173.6z"/>
		</g>
	</g>
	<g>
		<g>
			<path class="st0" d="M159.9,69c1.5,0,2.6-1.2,2.6-2.6V52.3c0-6.1-5-11.1-11.1-11.1h-5.8V24.1c0-7.7-6.2-13.9-13.9-13.9H52.8
				c-7.7,0-13.9,6.2-13.9,13.9v152.2c0,7.7,6.2,13.9,13.9,13.9h78.9c7.7,0,13.9-6.2,13.9-13.9v-50.9h5.8c6.1,0,11.1-5,11.1-11.1v-35
				c0-1.5-1.2-2.6-2.6-2.6c-1.5,0-2.6,1.2-2.6,2.6v35c0,3.2-2.6,5.8-5.8,5.8H95.1c-0.6,0-1.2,0.2-1.7,0.6L78,133.9V52.3
				c0-3.2,2.6-5.8,5.8-5.8h67.6c3.2,0,5.8,2.6,5.8,5.8v14.1C157.2,67.8,158.4,69,159.9,69z M140.3,176.3c0,4.8-3.9,8.6-8.6,8.6H52.8
				c-4.8,0-8.6-3.9-8.6-8.6v-8.6h96.2V176.3z M140.3,41.2H83.8c-6.1,0-11.1,5-11.1,11.1v87.4c0,2.2,2.7,3.4,4.4,2l19-16.3h44.3v37
				H44.2v-130h96.2V41.2z M140.3,27.1H44.2v-3c0-4.8,3.9-8.6,8.6-8.6h78.9c4.8,0,8.6,3.9,8.6,8.6V27.1z"/>
		</g>
	</g>
	<g>
		<g>
			<path class="st0" d="M138.7,83.5l12-12c1-1,1-2.7,0-3.7c-1-1-2.7-1-3.7,0l-8.1,8.1l-2.2-2.2l8.1-8.1c1-1,1-2.7,0-3.7
				c-1-1-2.7-1-3.7,0l-8.1,8.1l-2.2-2.2l8.1-8.1c1-1,1-2.7,0-3.7c-1-1-2.7-1-3.7,0l-10,10c0,0,0,0,0,0l0,0l-2,2
				c-2.2,2.2-2.9,5.3-2.1,8.1l-3,3l-5.8-5.4c0.2-1.2,0.2-2.4,0-3.6c-0.5-3.2-2.1-6.4-4.6-8.9c-5.4-5.4-13.4-6.3-17.7-2
				c-4.3,4.3-3.4,12.3,2,17.7c3.1,3.1,7,4.7,10.7,4.7c0.6,0,1.2-0.1,1.8-0.2l5.4,5.8L97.6,99.2c-2.7,2.7-2.7,7,0,9.7
				c2.6,2.6,7.1,2.6,9.7,0l11.8-11.8l10.5,11.3c2.6,2.7,7.1,2.7,9.8,0.1c2.7-2.7,2.7-7,0-9.7c0,0,0,0-0.1-0.1L128,88.3l2.6-2.6
				C133.4,86.4,136.6,85.7,138.7,83.5z M105.8,75c-2.2,2.2-6.9,1.3-10.2-2c-3.3-3.3-4.2-8-2-10.2c0.8-0.8,2-1.2,3.3-1.2
				c2.2,0,4.8,1.1,6.9,3.2v0c1.7,1.7,2.8,3.8,3.1,5.9C107.1,71.7,107.1,73.6,105.8,75z M109.3,78.9c0.1-0.1,0.1-0.1,0.2-0.2
				c0.1-0.1,0.1-0.1,0.2-0.2l4.5,4.2l-0.7,0.7L109.3,78.9z M135.7,102.6c0.6,0.6,0.6,1.6,0,2.2s-1.6,0.6-2.2,0l-10.6-11.4l1.4-1.4
				L135.7,102.6z M128.1,80.7l-24.5,24.5c-0.6,0.6-1.6,0.6-2.2,0.1c-0.7-0.6-0.7-1.7-0.1-2.3l24.5-24.5c0.9-0.9,1-2.2,0.4-3.2
				c-0.7-1.2-0.5-2.7,0.5-3.6l0.1-0.1l8.2,8.2l-0.1,0.1c-1,1-2.5,1.2-3.6,0.5C130.3,79.6,129,79.8,128.1,80.7z"/>
		</g>
	</g>
</g>
</svg>
