<?xml version="1.0" encoding="utf-8"?>
<!-- Generator: Adobe Illustrator 16.0.0, SVG Export Plug-In . SVG Version: 6.00 Build 0)  -->
<!DOCTYPE svg PUBLIC "-//W3C//DTD SVG 1.1//EN" "http://www.w3.org/Graphics/SVG/1.1/DTD/svg11.dtd">
<svg version="1.1" id="圖層_1" xmlns="http://www.w3.org/2000/svg" xmlns:xlink="http://www.w3.org/1999/xlink" x="0px" y="0px"
	 width="200px" height="200px" viewBox="0 0 200 200" enable-background="new 0 0 200 200" xml:space="preserve">
<path fill="#040000" d="M93.823,113.798c-1.584,0-2.642-0.526-3.689-1.589L67.939,90.017c-1.063-1.058-1.584-2.113-1.584-3.7
	c0-1.584,0.521-2.642,1.584-3.697l12.673-12.682c4.237-4.229,4.237-10.568,0-14.797L65.818,40.347c-3.7-3.7-10.568-3.7-14.794,0
	l-0.521,0.529c-0.537,0.526-15.332,11.095-12.689,32.76c0.526,2.642-1.579,5.284-4.758,5.813c-3.168,0.529-5.284-1.584-5.81-4.755
	c-3.164-26.421,14.273-40.16,16.915-42.273c7.926-7.397,21.658-7.397,29.063,0.529l14.789,14.794c7.926,7.926,7.926,21.137,0,29.592
	l-8.984,8.981l18.494,18.491c2.121,2.116,2.121,5.284,0,7.4C96.465,113.271,95.417,113.798,93.823,113.798"/>
<path fill="#040000" d="M68.466,139.692c-1.584,0-2.642-0.536-3.7-1.589c-13.21-13.211-22.721-25.895-29.063-37.518
	c-1.584-2.642-0.526-5.813,2.116-6.869c2.642-1.586,5.811-0.529,6.868,2.113c5.821,11.095,14.794,22.726,26.958,34.873
	c2.105,2.116,2.105,5.284,0,7.4C71.107,139.166,69.519,139.692,68.466,139.692"/>
<path fill="#040000" d="M132.928,175.103c-20.605,0-43.857-12.685-68.693-37.525c-2.116-2.105-2.116-5.284,0-7.39
	c2.116-2.116,5.284-2.116,7.399,0c23.779,23.778,46.499,35.926,64.994,33.81c16.384-1.589,24.31-12.674,24.31-13.21
	c0-0.526,0.531-0.526,0.531-0.526c2.111-2.116,3.169-4.758,3.169-7.399c0-2.643-1.053-5.284-3.169-7.39l-14.799-14.8
	c-2.111-2.116-4.753-3.179-7.396-3.179c-2.642,0-5.284,1.063-7.395,3.179l-12.679,12.674c-2.115,2.115-5.284,2.115-7.399,0
	l-22.194-22.189c-2.116-2.105-2.116-5.284,0-7.39c2.116-2.115,5.284-2.115,7.399,0l18.494,18.494l8.984-8.989
	c3.695-3.694,8.979-6.336,14.795-6.336c5.815,0,10.568,2.115,14.794,6.336l14.8,14.8c3.695,3.695,6.337,8.979,6.337,14.8
	c0,5.284-2.11,10.568-5.811,14.263c-2.115,2.643-12.157,15.326-31.705,17.442C136.102,175.103,134.517,175.103,132.928,175.103"/>
</svg>
