<?xml version="1.0" encoding="utf-8"?>
<!-- Generator: Adobe Illustrator 16.0.0, SVG Export Plug-In . SVG Version: 6.00 Build 0)  -->
<!DOCTYPE svg PUBLIC "-//W3C//DTD SVG 1.1//EN" "http://www.w3.org/Graphics/SVG/1.1/DTD/svg11.dtd">
<svg version="1.1" id="圖層_1" xmlns="http://www.w3.org/2000/svg" xmlns:xlink="http://www.w3.org/1999/xlink" x="0px" y="0px"
	 width="200px" height="200px" viewBox="0 0 200 200" enable-background="new 0 0 200 200" xml:space="preserve">
<path d="M105.921,124.456H95.191c-3.902,0-7.062-3.16-7.062-7.062c0-3.902,3.16-7.063,7.062-7.063h18.884
	c2.575,0,4.682-2.106,4.682-4.682s-2.106-4.682-4.682-4.682h-8.856v-6.516c0-2.575-2.107-4.682-4.682-4.682
	c-2.575,0-4.682,2.107-4.682,4.682v6.516h-0.663c-9.052,0-16.426,7.374-16.426,16.426c0,9.052,7.374,16.426,16.426,16.426h10.729
	c3.901,0,7.063,3.16,7.063,7.062c0,3.902-3.161,7.063-7.063,7.063H86.686c-2.575,0-4.682,2.106-4.682,4.682s2.107,4.683,4.682,4.683
	h9.208v6.672c0,2.574,2.107,4.682,4.682,4.682c2.575,0,4.682-2.107,4.682-4.682v-6.672h0.78h0.117
	c8.974-0.117,16.191-7.452,16.191-16.427C122.347,131.83,114.973,124.456,105.921,124.456"/>
<path d="M170.923,113.844c-4.916-11.314-11.705-22.278-20.289-32.54c-10.379-12.485-20.718-20.835-25.985-24.697
	l19.898-36.91c0.976-1.833,0.664-4.097-0.858-5.54c-5.149-5.033-10.612-7.491-16.699-7.491c-5.579,0-10.689,2.107-15.138,3.979
	c-3.512,1.444-6.828,2.848-9.521,2.848c-0.819,0-1.521-0.117-2.224-0.39c-9.286-3.395-16.426-5.501-23.332-5.501
	c-8.74,0-16.192,3.512-23.488,11.003c-1.521,1.561-1.756,4.019-0.546,5.853L74.2,56.879c-5.306,3.94-15.451,12.212-25.634,24.424
	c-8.545,10.262-15.373,21.226-20.289,32.54c-6.165,14.241-9.286,29.106-9.286,44.167c0,20.016,16.309,36.324,36.325,36.324h88.567
	c20.016,0,36.325-16.309,36.325-36.324C180.209,142.95,177.087,128.085,170.923,113.844 M62.729,22.506
	c4.526-3.902,8.856-5.619,14.046-5.619c5.54,0,11.783,1.873,20.094,4.955c1.716,0.625,3.55,0.937,5.423,0.937
	c4.565,0,8.936-1.795,13.109-3.55c4.02-1.678,7.843-3.278,11.55-3.278c1.794,0,4.33,0.313,7.529,2.575l-18.728,34.803H83.135
	L62.729,22.506z M143.884,184.971H55.316c-14.866,0-26.961-12.095-26.961-26.96c0-25.01,9.169-48.732,27.195-70.503
	C66.943,73.734,78.531,65.19,82.042,62.693h35.038c3.55,2.458,15.099,11.042,26.492,24.814
	c18.064,21.771,27.194,45.455,27.194,70.503C170.845,172.876,158.749,184.971,143.884,184.971"/>
</svg>
