<?xml version="1.0" encoding="utf-8"?>
<!-- Generator: Adobe Illustrator 16.0.0, SVG Export Plug-In . SVG Version: 6.00 Build 0)  -->
<!DOCTYPE svg PUBLIC "-//W3C//DTD SVG 1.1//EN" "http://www.w3.org/Graphics/SVG/1.1/DTD/svg11.dtd">
<svg version="1.1" id="圖層_1" xmlns="http://www.w3.org/2000/svg" xmlns:xlink="http://www.w3.org/1999/xlink" x="0px" y="0px"
	 width="200px" height="200px" viewBox="0 0 200 200" enable-background="new 0 0 200 200" xml:space="preserve">
<path  d="M6,101.405c0,52.132,42.367,94.5,94.5,94.5c52.133,0,94.5-42.368,94.5-94.5s-42.458-94.41-94.589-94.41
	C48.279,6.995,6,49.363,6,101.405 M181.475,101.405c0,44.695-36.367,81.064-81.064,81.064s-80.974-36.369-80.974-81.064
	c0-44.697,36.277-80.974,80.974-80.974S181.475,56.708,181.475,101.405"/>
<path  d="M94.409,48.467v10.48c-3.762,0.896-7.345,2.508-10.659,4.926c-8.957,6.628-12.988,15.854-10.839,24.543
	c2.15,8.42,9.764,14.511,19.975,15.943c23.11,3.225,26.873,6.718,25.887,14.78c-0.538,4.3-3.046,7.435-7.345,9.227
	c-7.346,3.046-20.155,1.701-32.157-7.884l-8.42,10.481c7.255,5.822,15.406,9.673,23.468,11.375v11.914h13.436v-11.107
	c3.046-0.358,6.002-1.075,8.688-2.15c8.868-3.582,14.512-10.838,15.677-19.976c1.254-10.39-2.777-18.362-11.734-23.198
	c-6.897-3.763-16.124-5.196-25.618-6.539c-4.747-0.627-8.062-2.866-8.868-6.001c-0.806-3.314,1.344-7.166,5.733-10.48
	c4.658-3.494,10.211-3.941,16.929-1.523c5.643,2.061,9.853,5.464,9.942,5.553l4.301-5.195l4.299-5.106
	c-0.538-0.447-5.912-4.837-13.526-7.703c-1.97-0.717-3.94-1.344-5.822-1.702v-10.57L94.409,48.467z"/>
</svg>
