<?xml version="1.0" encoding="utf-8"?>
<!-- Generator: Adobe Illustrator 16.0.0, SVG Export Plug-In . SVG Version: 6.00 Build 0)  -->
<!DOCTYPE svg PUBLIC "-//W3C//DTD SVG 1.1//EN" "http://www.w3.org/Graphics/SVG/1.1/DTD/svg11.dtd">
<svg version="1.1" id="Layer_1" xmlns="http://www.w3.org/2000/svg" xmlns:xlink="http://www.w3.org/1999/xlink" x="0px" y="0px"
	 width="200px" height="200px" viewBox="0 0 200 200" enable-background="new 0 0 200 200" xml:space="preserve">
<g>
	<path d="M105.304,94.287V79.976c3.959,0.297,9.929,0.38,11.284,3.501c1.542,3.428,3.658,4.778,6.358,4.778h5.604
		c1.254,0,4.823-0.932,4.823-5.612c0-11.031-16.012-16.746-28.069-16.843V59.25c0-1.776-1.254-3.125-2.896-3.125h-3.861
		c-1.644,0-2.897,1.35-2.897,3.125v6.647c-20.555,0.829-29.347,7.389-29.347,19.248c0,13.922,16.224,18.813,29.347,21.935v18.411
		h-0.391c-4.823,0-11.196-3.958-12.737-7.495c-1.546-3.438-3.673-4.786-6.374-4.786h-5.592c-1.253,0-4.828,0.94-4.828,5.621
		c0,11.124,18.023,18.71,30.18,18.71H95.65v4.726c0,1.775,1.252,3.127,2.897,3.127h3.861c1.644,0,2.896-1.352,2.896-3.127v-4.831
		c20.653-0.723,29.811-9.144,29.811-21.107C135.116,102.282,118.426,97.397,105.304,94.287z M95.317,79.976v14.311
		c0,0.859,0.113,1.702,0.316,2.502c-13.527-3.428-19.345-6.955-19.345-11.646c0-2.752,0-8.47,19.764-9.271
		c0.049,0,0.097,0,0.146-0.004C95.623,77.147,95.317,78.54,95.317,79.976z M105.444,127.433c0.128-0.624,0.19-1.271,0.19-1.939
		v-18.415c0-0.862-0.11-1.699-0.316-2.507c13.854,3.493,19.807,7.053,19.807,11.759
		C125.126,123.156,118.505,126.893,105.444,127.433z"/>
	<path d="M100.461,10.655c-49.56,0-89.883,40.319-89.883,89.884s40.323,89.883,89.883,89.883s89.883-40.318,89.883-89.883
		S150.021,10.655,100.461,10.655z M100.461,180.436c-44.123,0-79.896-35.773-79.896-79.896s35.773-79.896,79.896-79.896
		c44.124,0,79.897,35.773,79.897,79.896S144.585,180.436,100.461,180.436z"/>
	<path d="M100.461,30.629c-38.606,0-69.909,31.301-69.909,69.91c0,38.607,31.303,69.909,69.909,69.909
		c38.608,0,69.91-31.303,69.91-69.909S139.069,30.629,100.461,30.629z M100.461,160.461c-33.043,0-59.922-26.879-59.922-59.922
		c0-33.044,26.879-59.923,59.922-59.923c33.042,0,59.922,26.879,59.922,59.923C160.384,133.582,133.504,160.461,100.461,160.461z"/>
</g>
</svg>
