<?xml version="1.0" encoding="utf-8"?>
<!-- Generator: Adobe Illustrator 21.1.0, SVG Export Plug-In . SVG Version: 6.00 Build 0)  -->
<svg version="1.1" id="圖層_1" xmlns="http://www.w3.org/2000/svg" xmlns:xlink="http://www.w3.org/1999/xlink" x="0px" y="0px"
	 viewBox="0 0 200 200" style="enable-background:new 0 0 200 200;" xml:space="preserve">
<g>
	<g>
		<g>
			<g>
				<polygon class="st0" points="190.2,29.8 29.2,29.8 29.2,41.3 180.7,41.3 180.7,146.8 190.2,146.8 				"/>
				<path class="st0" d="M10.2,53v117h161V53H10.2z M161.7,158.3H19.7V64.6h142.1V158.3z"/>
			</g>
		</g>
	</g>
	<g>
		<path class="st0" d="M100.1,141.6H89l-4.3-11.3h-20l-4.1,11.3H49.8l19.5-50H80L100.1,141.6z M81.5,121.8l-6.9-18.6l-6.8,18.6H81.5
			z"/>
		<path class="st0" d="M147.3,117.1c0,4.2-0.5,7.8-1.5,10.8c-1,3-2.6,5.7-4.8,8.1c-1.7,1.9-3.9,3.3-6.6,4.2c-2.7,0.9-6,1.4-10,1.4
			h-18.9v-50h18.4c4.2,0,7.4,0.3,9.7,1c4,1.2,7.2,3.7,9.6,7.4c1.4,2.3,2.5,5,3.2,8C147,110.9,147.3,113.9,147.3,117.1z M136.9,116.6
			c0-7.5-1.6-12.3-4.8-14.5c-2-1.4-6.1-2.1-12.2-2.1h-4.5v33.1h7.5c4.8,0,8.1-0.7,9.8-2.2C135.6,128.7,136.9,123.9,136.9,116.6z"/>
	</g>
</g>
</svg>
