<?xml version="1.0" encoding="utf-8"?>
<!-- Generator: Adobe Illustrator 16.0.0, SVG Export Plug-In . SVG Version: 6.00 Build 0)  -->
<!DOCTYPE svg PUBLIC "-//W3C//DTD SVG 1.1//EN" "http://www.w3.org/Graphics/SVG/1.1/DTD/svg11.dtd">
<svg version="1.1" id="圖層_1" xmlns="http://www.w3.org/2000/svg" xmlns:xlink="http://www.w3.org/1999/xlink" x="0px" y="0px"
	 width="200px" height="200px" viewBox="0 0 200 200" enable-background="new 0 0 200 200" xml:space="preserve">
<path  d="M52.185,144.246H28.404c-1.462,0-2.64,1.184-2.64,2.641c0,1.46,1.178,2.645,2.64,2.645h23.781
	c1.459,0,2.642-1.185,2.642-2.645C54.827,145.43,53.644,144.246,52.185,144.246"/>
<path  d="M86.535,144.246H62.754c-1.462,0-2.64,1.184-2.64,2.641c0,1.46,1.178,2.645,2.64,2.645h23.781
	c1.458,0,2.642-1.185,2.642-2.645C89.177,145.43,87.994,144.246,86.535,144.246"/>
<path d="M31.047,157.457h-2.642c-1.462,0-2.644,1.185-2.644,2.641c0,1.461,1.182,2.645,2.644,2.645h2.642
	c1.459,0,2.642-1.184,2.642-2.645C33.689,158.642,32.506,157.457,31.047,157.457"/>
<path d="M46.901,157.457h-5.285c-1.46,0-2.642,1.185-2.642,2.641c0,1.461,1.182,2.645,2.642,2.645h5.285
	c1.461,0,2.642-1.184,2.642-2.645C49.542,158.642,48.362,157.457,46.901,157.457"/>
<path d="M60.112,157.457H57.47c-1.462,0-2.643,1.185-2.643,2.641c0,1.461,1.181,2.645,2.643,2.645h2.642
	c1.458,0,2.642-1.184,2.642-2.645C62.754,158.642,61.571,157.457,60.112,157.457"/>
<path d="M75.965,157.457H70.68c-1.46,0-2.642,1.185-2.642,2.641c0,1.461,1.181,2.645,2.642,2.645h5.285
	c1.462,0,2.642-1.184,2.642-2.645C78.607,158.642,77.427,157.457,75.965,157.457"/>
<path d="M84.658,158.223c-0.477,0.501-0.766,1.19-0.766,1.875c0,0.689,0.29,1.374,0.766,1.877
	c0.501,0.477,1.192,0.768,1.879,0.768c0.684,0,1.37-0.291,1.874-0.768c0.475-0.503,0.766-1.188,0.766-1.877
	c0-0.685-0.291-1.374-0.766-1.875C87.405,157.246,85.606,157.246,84.658,158.223"/>
<path d="M136.738,133.678c-3.372,0-6.524,0.92-9.249,2.502c-2.725-1.582-5.878-2.502-9.249-2.502
	c-10.196,0-18.495,8.297-18.495,18.495s8.299,18.495,18.495,18.495c3.371,0,6.524-0.924,9.249-2.502
	c2.725,1.578,5.877,2.502,9.249,2.502c10.192,0,18.494-8.297,18.494-18.495S146.931,133.678,136.738,133.678 M131.451,152.173
	c0,3.685-1.52,7.011-3.962,9.411c-2.439-2.4-3.963-5.727-3.963-9.411c0-3.683,1.523-7.013,3.963-9.412
	C129.932,145.16,131.451,148.49,131.451,152.173 M105.031,152.173c0-7.283,5.925-13.211,13.209-13.211
	c1.668,0,3.25,0.343,4.722,0.91c-2.923,3.271-4.722,7.576-4.722,12.301c0,4.723,1.799,9.028,4.722,12.301
	c-1.472,0.566-3.054,0.91-4.722,0.91C110.956,165.384,105.031,159.458,105.031,152.173 M136.738,165.384
	c-1.669,0-3.25-0.344-4.723-0.91c2.924-3.272,4.723-7.578,4.723-12.301c0-4.725-1.799-9.029-4.723-12.301
	c1.473-0.567,3.054-0.91,4.723-0.91c7.28,0,13.211,5.928,13.211,13.211C149.949,159.458,144.019,165.384,136.738,165.384"/>
<path d="M31.721,125.751h15.853h3.938h15.853c3.286,0,5.96-2.675,5.96-5.958V98.656v-3.938
	c0-3.286-2.674-5.96-5.96-5.96H47.574H31.721c-3.286,0-5.957,2.674-5.957,5.96v25.074C25.764,123.076,28.435,125.751,31.721,125.751
	 M41.614,109.896H31.046v-5.286h10.568V109.896z M31.046,119.793v-4.612h10.568v4.612c0,0.229,0.046,0.448,0.069,0.674h-9.962
	C31.347,120.467,31.046,120.164,31.046,119.793 M68.04,109.896H57.472v-4.61c0-0.373,0.3-0.676,0.671-0.676h9.222
	c0.231,0,0.45-0.041,0.675-0.065V109.896z M67.365,120.467h-9.962c0.026-0.226,0.069-0.445,0.069-0.674v-4.612H68.04v4.612
	C68.04,120.164,67.739,120.467,67.365,120.467 M67.365,94.043c0.374,0,0.675,0.301,0.675,0.675v3.938
	c0,0.368-0.301,0.671-0.675,0.671h-9.222c-3.283,0-5.958,2.675-5.958,5.959v14.507c0,0.371-0.301,0.674-0.673,0.674h-3.938
	c-0.372,0-0.673-0.303-0.673-0.674V94.719c0-0.374,0.301-0.675,0.673-0.675H67.365z M31.721,94.043h9.962
	c-0.023,0.226-0.069,0.444-0.069,0.675v4.608H31.046v-4.608C31.046,94.345,31.347,94.043,31.721,94.043"/>
<path d="M111.988,36.329h-1.341h-0.87h-1.341c-1.333,0-2.417-1.083-2.417-2.414v-2.07
	c0-1.331,1.084-2.413,2.417-2.413h3.935c1.123,0,2.03,0.913,2.03,2.03c0,1.07,0.87,1.939,1.939,1.939
	c1.07,0,1.938-0.869,1.938-1.939c0-3.255-2.648-5.905-5.908-5.905h-0.222v-2.358c0-1.071-0.866-1.94-1.938-1.94
	c-1.069,0-1.938,0.869-1.938,1.94v2.361c-3.393,0.085-6.129,2.872-6.129,6.285v2.07c0,3.468,2.823,6.288,6.293,6.288h1.341h0.87
	h1.341c1.333,0,2.413,1.082,2.413,2.413v2.07c0,1.332-1.08,2.413-2.413,2.413h-3.938c-1.12,0-2.031-0.911-2.031-2.033
	c0-1.07-0.866-1.937-1.936-1.937c-1.07,0-1.94,0.867-1.94,1.937c0,3.258,2.65,5.908,5.907,5.908h0.222v2.363
	c0,1.07,0.869,1.935,1.938,1.935c1.072,0,1.938-0.865,1.938-1.935v-2.366c3.396-0.085,6.13-2.872,6.13-6.286v-2.07
	C118.279,39.15,115.456,36.329,111.988,36.329"/>
<path d="M110.211,12.002c-14.51,0-26.319,11.808-26.319,26.322c0,14.51,11.81,26.318,26.319,26.318
	c14.515,0,26.321-11.805,26.321-26.318C136.532,23.81,124.726,12.002,110.211,12.002 M110.211,60.767
	c-12.373,0-22.442-10.069-22.442-22.442c0-12.377,10.069-22.447,22.442-22.447c12.378,0,22.445,10.07,22.445,22.447
	C132.656,50.698,122.589,60.767,110.211,60.767"/>
<path d="M167.456,79.896h-1.342h-0.869h-1.343c-1.33,0-2.413-1.082-2.413-2.414v-2.067
	c0-1.331,1.081-2.416,2.413-2.416h3.939c1.119,0,2.03,0.913,2.03,2.03c0,1.07,0.867,1.94,1.938,1.94c1.069,0,1.938-0.87,1.938-1.94
	c0-3.255-2.65-5.905-5.906-5.905h-0.223v-2.358c0-1.07-0.87-1.94-1.938-1.94c-1.072,0-1.939,0.87-1.939,1.94v2.364
	c-3.395,0.085-6.129,2.869-6.129,6.285v2.067c0,3.468,2.822,6.288,6.289,6.288h1.343h0.869h1.345c1.33,0,2.413,1.085,2.413,2.413
	v2.07c0,1.332-1.083,2.413-2.413,2.413h-3.939c-1.118,0-2.03-0.911-2.03-2.03c0-1.07-0.869-1.94-1.938-1.94
	c-1.072,0-1.938,0.87-1.938,1.94c0,3.256,2.65,5.905,5.906,5.905h0.223v2.363c0,1.068,0.867,1.935,1.939,1.935
	c1.067,0,1.938-0.866,1.938-1.935v-2.366c3.393-0.084,6.129-2.872,6.129-6.285v-2.07C173.748,82.72,170.926,79.896,167.456,79.896"
	/>
<path d="M165.682,55.573c-14.515,0-26.32,11.804-26.32,26.319c0,14.513,11.806,26.319,26.32,26.319
	c14.511,0,26.318-11.806,26.318-26.319C192,67.377,180.192,55.573,165.682,55.573 M165.682,104.335
	c-12.378,0-22.447-10.07-22.447-22.443c0-12.377,10.069-22.447,22.447-22.447c12.373,0,22.442,10.069,22.442,22.447
	C188.124,94.265,178.055,104.335,165.682,104.335"/>
<path d="M163.161,112.453v60.283c0,3.23-2.627,5.86-5.859,5.86H21.052c-3.23,0-5.857-2.63-5.857-5.86V78.764
	c0-3.229,2.627-5.858,5.857-5.858h115.48v-5.285H21.052c-6.143,0-11.143,5-11.143,11.143v93.973c0,6.146,5,11.143,11.143,11.143
	h136.25c6.144,0,11.143-4.997,11.143-11.143v-60.283H163.161z"/>
</svg>
