<?xml version="1.0" encoding="utf-8"?>
<!-- Generator: Adobe Illustrator 16.0.0, SVG Export Plug-In . SVG Version: 6.00 Build 0)  -->
<!DOCTYPE svg PUBLIC "-//W3C//DTD SVG 1.1//EN" "http://www.w3.org/Graphics/SVG/1.1/DTD/svg11.dtd">
<svg version="1.1" id="Layer_1" xmlns="http://www.w3.org/2000/svg" xmlns:xlink="http://www.w3.org/1999/xlink" x="0px" y="0px"
	 width="200px" height="200px" viewBox="0 0 200 200" enable-background="new 0 0 200 200" xml:space="preserve">
<g>
	<path d="M189.558,32.601c0,6.167-4.996,11.165-11.165,11.165H22.098c-6.17,0-11.164-4.998-11.164-11.165v0.239
		c0-6.172,4.993-11.165,11.164-11.165h156.294c6.169,0,11.165,4.993,11.165,11.165V32.601z"/>
	<path d="M189.558,99.589c0,6.171-4.996,11.167-11.165,11.167H22.098c-6.17,0-11.164-4.996-11.164-11.167v0.236
		c0-6.175,4.993-11.173,11.164-11.173h156.294c6.169,0,11.165,4.997,11.165,11.173V99.589z"/>
	<path d="M189.558,166.565c0,6.178-4.996,11.17-11.165,11.17H22.098c-6.17,0-11.164-4.994-11.164-11.17v0.248
		c0-6.168,4.993-11.164,11.164-11.164h156.294c6.169,0,11.165,4.996,11.165,11.164V166.565z"/>
</g>
</svg>
