<?xml version="1.0" encoding="utf-8"?>
<!-- Generator: Adobe Illustrator 16.0.0, SVG Export Plug-In . SVG Version: 6.00 Build 0)  -->
<!DOCTYPE svg PUBLIC "-//W3C//DTD SVG 1.1//EN" "http://www.w3.org/Graphics/SVG/1.1/DTD/svg11.dtd">
<svg version="1.1" id="Layer_1" xmlns="http://www.w3.org/2000/svg" xmlns:xlink="http://www.w3.org/1999/xlink" x="0px" y="0px"
	 width="200px" height="200px" viewBox="0 0 200 200" enable-background="new 0 0 200 200" xml:space="preserve">
<path d="M178.931,55.754H21.146c-5.771,0-10.449,4.678-10.449,10.449v66.874c0,5.771,4.678,10.449,10.449,10.449h157.785
	c5.771,0,10.449-4.678,10.449-10.449V66.203C189.38,60.432,184.702,55.754,178.931,55.754z M67.598,120.517H55.434L39.799,97.592
	v22.923H27.667V78.763h12.045l15.722,23.099V78.763h12.164V120.517z M111.347,120.517H76.142V78.763h34.579v8.916H89.072v6.635
	h20.082v8.518H89.072v8.23h22.275V120.517z M163.208,120.517h-12.651l-7.324-26.289l-7.295,26.289h-12.653l-9.288-41.753h12.253
	l4.414,23.375l6.458-23.375h12.213l6.472,23.343l4.418-23.343h12.19L163.208,120.517z"/>
</svg>
