<?xml version="1.0" encoding="utf-8"?>
<!-- Generator: Adobe Illustrator 21.1.0, SVG Export Plug-In . SVG Version: 6.00 Build 0)  -->
<svg version="1.1" id="圖層_1" xmlns="http://www.w3.org/2000/svg" xmlns:xlink="http://www.w3.org/1999/xlink" x="0px" y="0px"
	 viewBox="0 0 200 200" style="enable-background:new 0 0 200 200;" xml:space="preserve">
<path class="st0" d="M186,148.8c-0.5-3.1-2.4-5.8-6.1-8.3l-37.5-25.7c-1.9-1.3-4.2-2-6.5-2c-3.6,0-7,1.7-9.1,4.6l-9.7,13.8
	c-0.8,1.1-0.9,2.4-1,3.7c-3.7,0.5-14.5,0.2-32.2-17.5c-0.3-0.3-0.6-0.6-0.9-0.9l78.4-91.3l-5-4.2l-78,90.8
	C65,97.4,58.7,86.8,59.6,79.9c0.2-0.1,0.3-0.3,0.5-0.4c0.9-0.2,1.7-0.6,2.4-1.1L76,68.2c4.8-3.6,5.7-10.7,2.1-15.7L51.2,15.8
	C46,8.8,39.9,8,33.4,13.7c-4.1,3.5-11,12.1-13.8,17.2c-1.6,2.8-2.2,5.6-1.9,8.5c-1,4.1-3.2,16.3,0.4,33.2
	c4.8,22.6,17.7,44.4,38.4,64.7l-41.6,48.5l4.9,4.2l41.4-48.2c34,31.2,63.5,36,78.4,36h0c9.1,0,15.4-1.7,18.3-2.9
	c2.7,0.1,5.4-0.6,8-2.2c5.1-3,13.4-10.1,16.8-14.4C185.4,154.9,186.5,151.8,186,148.8z M23.9,40.4c0.1-0.4,0.1-0.8,0.1-1.3
	c-0.2-1.7,0.1-3.3,1.1-5.1c2.5-4.5,8.9-12.5,12.4-15.5c1.6-1.4,3.1-2.2,4.2-2.2c0.5,0,1.9,0,4.3,3.3l26.9,36.7
	c1.6,2.3,1.3,5.4-0.8,6.9L58.8,73.3c-0.1,0-0.1,0.1-0.2,0.1c-3.5-2.7-8.3-6.8-9.8-9.1c-1-1.5-2.9-1.9-4.4-0.9
	c-1.5,1-1.9,2.9-0.9,4.4c2,3.1,7,7.3,10.2,9.8c-2.3,9.4,4.1,21.7,20.6,39l-13.6,15.9C13.7,86.1,22.7,44.9,23.9,40.4z M177.7,154.2
	c-2.9,3.7-10.7,10.3-15.1,12.9c-0.6,0.4-1.2,0.6-1.8,0.8c-4.3-1.9-11.8-5.8-14.1-8.6c-1.1-1.4-3.1-1.6-4.5-0.5
	c-1.4,1.1-1.6,3.1-0.5,4.5c2,2.5,5.8,5,9.3,6.9c-2.8,0.6-6.6,1.1-11.6,1.1h0c-14,0-41.8-4.6-74.3-34.5l13.5-15.7
	c0.2,0.2,0.4,0.4,0.6,0.6c16.1,16.1,27.9,19.5,34.9,19.5c3.1,0,5.4-0.7,6.5-1.3c0.8-0.5,1.4-1.3,1.6-2.3c0.1-0.4,0.1-1.1,0.1-1.7
	c0-0.4,0-1,0.1-1.4l9.5-13.5c1.4-2,4.7-2.5,6.9-1l37.5,25.7c2.1,1.4,3.2,2.7,3.4,3.9C179.9,150.9,179.3,152.4,177.7,154.2z"/>
</svg>
