<?xml version="1.0" encoding="utf-8"?>
<!-- Generator: Adobe Illustrator 16.0.0, SVG Export Plug-In . SVG Version: 6.00 Build 0)  -->
<!DOCTYPE svg PUBLIC "-//W3C//DTD SVG 1.1//EN" "http://www.w3.org/Graphics/SVG/1.1/DTD/svg11.dtd">
<svg version="1.1" id="圖層_1" xmlns="http://www.w3.org/2000/svg" xmlns:xlink="http://www.w3.org/1999/xlink" x="0px" y="0px"
	 width="200px" height="200px" viewBox="0 0 200 200" enable-background="new 0 0 200 200" xml:space="preserve">
<path  d="M184.364,89.043H100V19.352h-7.336v69.692H77.993V23.02h-7.336v66.023H55.984V26.688h-7.335v62.355H15.637
	c-2.025,0-3.668,1.643-3.668,3.668c0.001,31.455,16.779,60.518,44.016,76.25v15.45c0,2.025,1.643,3.668,3.668,3.668h80.696
	c2.025,0,3.668-1.643,3.668-3.668v-15.45c27.237-15.731,44.015-44.795,44.016-76.25C188.032,90.686,186.39,89.043,184.364,89.043
	 M179.941,103.715h-10.249v7.336h8.891c-0.58,2.485-1.275,4.933-2.083,7.336h-14.145v-11.004c0-2.026-1.642-3.668-3.668-3.668
	H136.68c-2.025,0-3.668,1.642-3.668,3.668v14.672c0,2.026,1.643,3.668,3.668,3.668h11.004v-7.335h-7.336v-7.336h14.672v11.004
	c0,2.026,1.643,3.668,3.669,3.668h14.942c-7.119,15.869-19.292,29.28-35.04,37.86c-1.178,0.644-1.911,1.878-1.91,3.221v13.938H63.32
	v-11.004h62.356v-7.336H59.653v0.203c-14.9-8.605-26.437-21.604-33.287-36.884h3.943v-7.335h-6.813
	c-0.807-2.403-1.501-4.852-2.082-7.336h16.229v11.004c0,2.026,1.643,3.668,3.668,3.668h22.008c2.025,0,3.668-1.642,3.668-3.668
	v-14.672c0-2.026-1.643-3.669-3.668-3.669H52.317v7.337h7.336v7.335H44.98v-11.004c0-2.025-1.642-3.668-3.668-3.668H20.058
	c-0.333-2.42-0.56-4.867-0.673-7.335h161.23C180.502,98.848,180.274,101.295,179.941,103.715"/>
<path  d="M122.008,103.715h-11.004v7.337h7.336v7.335h-14.672v-11.004c0-2.025-1.642-3.668-3.667-3.668H77.993
	c-2.026,0-3.668,1.643-3.668,3.668v14.673c0,2.025,1.643,3.667,3.668,3.667h11.004v-7.335h-7.336v-7.336h14.672v11.004
	c0,2.026,1.643,3.668,3.668,3.668h22.008c2.025,0,3.668-1.642,3.668-3.668v-14.672C125.677,105.357,124.034,103.715,122.008,103.715
	"/>
<rect x="59.653" y="23.021"  width="7.335" height="62.354"/>
<rect x="81.661" y="19.352"  width="7.336" height="66.023"/>
<rect x="103.523" y="15.664" transform="matrix(-0.9959 0.091 -0.091 -0.9959 289.2534 25.4773)"  width="81.045" height="7.338"/>
<rect x="103.519" y="26.654" transform="matrix(-0.9959 0.091 -0.091 -0.9959 290.2446 47.412)"  width="81.045" height="7.338"/>
<rect x="11.969" y="11.992" fill="none" width="176.063" height="176.087"/>
</svg>
