<?xml version="1.0" encoding="utf-8"?>
<!-- Generator: Adobe Illustrator 16.0.0, SVG Export Plug-In . SVG Version: 6.00 Build 0)  -->
<!DOCTYPE svg PUBLIC "-//W3C//DTD SVG 1.1//EN" "http://www.w3.org/Graphics/SVG/1.1/DTD/svg11.dtd">
<svg version="1.1" id="Layer_1" xmlns="http://www.w3.org/2000/svg" xmlns:xlink="http://www.w3.org/1999/xlink" x="0px" y="0px"
	 width="200px" height="200px" viewBox="0 0 200 200" enable-background="new 0 0 200 200" xml:space="preserve">
<g>
	<path d="M117.542,142.263c-12.395-6.979-27.125-6.979-38.751,0c-3.875,2.321-4.648,6.97-3.099,10.845
		c2.326,3.875,6.974,5.425,10.849,3.103c6.978-4.656,16.28-4.656,23.25,0c3.106,1.554,6.978,1.554,9.304-1.554
		c0.772-0.769,0.772-0.769,1.554-1.549C122.193,149.232,121.421,144.584,117.542,142.263z"/>
	<path d="M142.347,120.556c3.099,2.33,7.75,2.33,10.076-0.772c0,0,0,0,0.772-0.772c2.326-3.106,2.326-8.531-0.772-11.626
		c-10.562-8.503-22.582-14.163-35.06-16.985l24.575-24.574c11.812,5.005,22.982,12.136,32.964,21.404
		c3.09,3.103,7.75,2.322,10.841,0c2.326-4.647,2.326-10.074-0.765-12.398c-9.487-8.746-19.884-15.813-30.833-21.213l35.262-35.261
		l-8.01-8.012L142.98,48.759c-28.137-10.678-58.986-10.955-87.088-0.821L18.301,10.345l-8.012,8.012l34.294,34.294
		c-11.586,5.513-22.542,12.906-32.445,22.181c-3.099,3.094-3.099,7.75-0.776,11.625c3.104,3.095,7.75,3.875,10.853,0.772
		c10.493-9.745,22.303-17.125,34.789-22.158l24.931,24.931c-13.367,2.732-26.192,8.758-37.242,18.151
		c-3.101,3.106-3.875,7.751-0.777,11.63c3.101,3.871,7.75,3.871,10.851,0.772c9.383-7.962,20.229-12.99,31.46-15.11l-74.95,74.03
		l8.012,8.013l80.556-79.571l79.578,79.571l8.01-8.013l-73.344-73.341C124.174,108.557,133.858,113.354,142.347,120.556z
		 M68.973,61.02c20.03-5.533,41.221-5.341,61.172,0.575l-26.845,26.842c-2.334-0.128-4.669-0.158-7.003-0.091L68.973,61.02z"/>
</g>
</svg>
