<?xml version="1.0" encoding="utf-8"?>
<!-- Generator: Adobe Illustrator 16.0.0, SVG Export Plug-In . SVG Version: 6.00 Build 0)  -->
<!DOCTYPE svg PUBLIC "-//W3C//DTD SVG 1.1//EN" "http://www.w3.org/Graphics/SVG/1.1/DTD/svg11.dtd">
<svg version="1.1" id="圖層_1" xmlns="http://www.w3.org/2000/svg" xmlns:xlink="http://www.w3.org/1999/xlink" x="0px" y="0px"
	 width="200px" height="200px" viewBox="0 0 200 200" enable-background="new 0 0 200 200" xml:space="preserve">
<path d="M155.149,79.995c-3.913,0-7.455,1.411-10.308,3.672c-1.414-7.762-8.198-13.669-16.366-13.669
	c-4.794,0-9.092,2.065-12.144,5.331c-2.84-5.138-8.248-8.67-14.524-8.67c-3.765,0-7.206,1.309-9.997,3.417V26.663
	c0-9.197-7.479-16.67-16.67-16.67s-16.665,7.473-16.665,16.67v92.425L33.886,96.55c-6.723-6.152-16.931-6.406-22.773-0.57
	c-5.743,5.74-5.935,16.168-0.428,23.262l30.302,38.947c4.583,5.895,12.608,14.986,17.892,20.271l1.147,1.141
	c5.83,5.836,16.856,10.406,25.111,10.406h16.67c1.842,0,3.337-1.494,3.337-3.336c0-1.836-1.495-3.33-3.337-3.33h-16.67
	c-6.475,0-15.821-3.871-20.404-8.453l-1.141-1.139c-5.117-5.125-12.9-13.941-17.34-19.65l-30.295-38.953
	c-3.46-4.447-3.517-11.064-0.124-14.457c3.287-3.293,9.495-2.939,13.551,0.775l29.092,26.668V130c0,1.842,1.489,3.334,3.331,3.334
	s3.336-1.492,3.336-3.334V26.663c0-5.52,4.484-10.01,9.998-10.01c5.52,0,9.997,4.49,9.997,10.01v56.666v10.01v9.994
	c0,1.842,1.495,3.337,3.336,3.337c1.842,0,3.337-1.495,3.337-3.337v-9.994v-10.01c0-5.51,4.483-10,9.997-10s10.004,4.49,10.004,10
	v3.34v9.998v10.003c0,1.842,1.494,3.333,3.336,3.333s3.331-1.491,3.331-3.333V96.666v-9.998c0-5.517,4.483-10,9.997-10
	c5.52,0,10.003,4.484,10.003,10v9.998v6.667v6.67c0,1.842,1.495,3.334,3.337,3.334s3.33-1.492,3.33-3.334v-6.67v-6.667
	c0-5.514,4.484-9.998,10.004-9.998c5.514,0,10.003,4.484,10.003,9.998V130v3.334v30.006c0,11.027-8.229,20.002-18.332,20.002
	h-21.675c-1.836,0-3.337,1.494-3.337,3.33c0,1.842,1.501,3.336,3.337,3.336h21.675c13.78,0,24.999-11.963,24.999-26.668v-30.006V130
	V96.666C171.819,87.477,164.341,79.995,155.149,79.995"/>
</svg>
