<?xml version="1.0" encoding="utf-8"?>
<!-- Generator: Adobe Illustrator 16.0.0, SVG Export Plug-In . SVG Version: 6.00 Build 0)  -->
<!DOCTYPE svg PUBLIC "-//W3C//DTD SVG 1.1//EN" "http://www.w3.org/Graphics/SVG/1.1/DTD/svg11.dtd">
<svg version="1.1" id="圖層_1" xmlns="http://www.w3.org/2000/svg" xmlns:xlink="http://www.w3.org/1999/xlink" x="0px" y="0px"
	 width="200px" height="200px" viewBox="0 0 200 200" enable-background="new 0 0 200 200" xml:space="preserve">
<path d="M184.635,53.444c0-8.612-7.007-15.612-15.622-15.612h-32.541l-5.328-9.333l-0.541-0.96
	c-2.838-5.154-6.381-11.575-14.684-11.575H84.684c-8.715,0-12.464,7.217-15.21,12.506l-5.343,9.362H31.58
	c-8.608,0-15.619,7-15.619,15.612v40.611c0,3.546,1.192,7.015,3.127,10.038v64.924c0,8.608,7.007,15.616,15.619,15.616h131.182
	c8.616,0,15.623-7.008,15.623-15.616v-64.924c1.936-3.023,3.123-6.492,3.123-10.038V53.444z M75.027,31.326
	c2.949-5.67,5.069-9.113,9.657-9.113h31.235c4.403,0,6.282,3.017,9.22,8.345l4.148,7.274H71.316L75.027,31.326z M22.211,53.444
	c0-5.165,4.208-9.366,9.369-9.366h137.433c5.172,0,9.376,4.201,9.376,9.366v40.611c0,5.449-4.468,11.169-9.761,12.485l-49.593,12.4
	v-6.14c0.007-5.094-4.162-9.299-9.362-9.377H90.884c-5.154,0.071-9.337,4.283-9.323,9.37v6.146l-49.6-12.4
	c-5.282-1.316-9.75-7.036-9.75-12.485V53.444z M112.789,112.795v15.615c0,2.134-1.914,4.809-3.749,5.286
	c-5.713,1.43-11.81,1.423-17.452,0.014c-1.875-0.491-3.781-3.166-3.781-5.293v-15.63c-0.007-1.664,1.444-3.095,3.123-3.116h18.686
	C111.345,109.692,112.796,111.13,112.789,112.795 M165.889,178.388H34.707c-5.172,0-9.373-4.205-9.373-9.37v-58.671
	c1.59,1.004,3.297,1.801,5.115,2.256l50.347,12.592c0.256,0.064,0.505,0.036,0.765,0.036v3.187
	c0.011,5.037,3.799,10.116,8.484,11.34c3.347,0.84,6.801,1.26,10.258,1.26c3.451,0,6.901-0.42,10.288-1.267
	c4.646-1.217,8.438-6.296,8.444-11.333v-3.13c0.249,0,0.505-0.028,0.754-0.093l50.361-12.592c1.814-0.455,3.529-1.252,5.115-2.256
	v58.671C175.266,174.183,171.062,178.388,165.889,178.388"/>
<path d="M184.635,53.444c0-8.612-7.007-15.612-15.622-15.612h-32.541l-5.328-9.333l-0.541-0.96
	c-2.838-5.154-6.381-11.575-14.684-11.575H84.684c-8.715,0-12.464,7.217-15.21,12.506l-5.343,9.362H31.58
	c-8.608,0-15.619,7-15.619,15.612v40.611c0,3.546,1.192,7.015,3.127,10.038v64.924c0,8.608,7.007,15.616,15.619,15.616h131.182
	c8.616,0,15.623-7.008,15.623-15.616v-64.924c1.936-3.023,3.123-6.492,3.123-10.038V53.444z M75.027,31.326
	c2.949-5.67,5.069-9.113,9.657-9.113h31.235c4.403,0,6.282,3.017,9.22,8.345l4.148,7.274H71.316L75.027,31.326z M22.211,53.444
	c0-5.165,4.208-9.366,9.369-9.366h137.433c5.172,0,9.376,4.201,9.376,9.366v40.611c0,5.449-4.468,11.169-9.761,12.485l-49.593,12.4
	v-6.14c0.007-5.094-4.162-9.299-9.362-9.377H90.884c-5.154,0.071-9.337,4.283-9.323,9.37v6.146l-49.6-12.4
	c-5.282-1.316-9.75-7.036-9.75-12.485V53.444z M112.789,112.795v15.615c0,2.134-1.914,4.809-3.749,5.286
	c-5.713,1.43-11.81,1.423-17.452,0.014c-1.875-0.491-3.781-3.166-3.781-5.293v-15.63c-0.007-1.664,1.444-3.095,3.123-3.116h18.686
	C111.345,109.692,112.796,111.13,112.789,112.795z M165.889,178.388H34.707c-5.172,0-9.373-4.205-9.373-9.37v-58.671
	c1.59,1.004,3.297,1.801,5.115,2.256l50.347,12.592c0.256,0.064,0.505,0.036,0.765,0.036v3.187
	c0.011,5.037,3.799,10.116,8.484,11.34c3.347,0.84,6.801,1.26,10.258,1.26c3.451,0,6.901-0.42,10.288-1.267
	c4.646-1.217,8.438-6.296,8.444-11.333v-3.13c0.249,0,0.505-0.028,0.754-0.093l50.361-12.592c1.814-0.455,3.529-1.252,5.115-2.256
	v58.671C175.266,174.183,171.062,178.388,165.889,178.388z"/>
</svg>
