<?xml version="1.0" encoding="utf-8"?>
<!-- Generator: Adobe Illustrator 16.0.0, SVG Export Plug-In . SVG Version: 6.00 Build 0)  -->
<!DOCTYPE svg PUBLIC "-//W3C//DTD SVG 1.1//EN" "http://www.w3.org/Graphics/SVG/1.1/DTD/svg11.dtd">
<svg version="1.1" id="圖層_1" xmlns="http://www.w3.org/2000/svg" xmlns:xlink="http://www.w3.org/1999/xlink" x="0px" y="0px"
	 width="200px" height="200px" viewBox="0 0 200 200" enable-background="new 0 0 200 200" xml:space="preserve">
<path fill="#040000" d="M170.276,84.663h-18.894V67.657c0-27.704-22.67-50.383-50.383-50.383c-27.71,0-50.383,22.679-50.383,50.383
	v17.005H31.724c-3.779,0-6.298,2.525-6.298,6.298c0,3.776,2.519,6.298,6.298,6.298h132.255v75.568H38.021v-56.681
	c0-3.776-2.519-6.298-6.298-6.298s-6.298,2.521-6.298,6.298v62.979c0,3.776,2.519,6.298,6.298,6.298h138.553
	c3.776,0,6.298-2.521,6.298-6.298V90.96C176.574,87.188,174.053,84.663,170.276,84.663 M63.213,67.657
	c0-20.782,17.005-37.787,37.787-37.787c20.781,0,37.787,17.005,37.787,37.787v17.005H63.213V67.657z"/>
<path fill="#040000" d="M126.191,135.039c0-13.85-11.335-25.191-25.191-25.191s-25.191,11.342-25.191,25.191
	c0,13.863,11.335,25.191,25.191,25.191S126.191,148.902,126.191,135.039 M88.404,135.039c0-6.925,5.667-12.596,12.596-12.596
	c6.925,0,12.596,5.671,12.596,12.596c0,6.926-5.671,12.596-12.596,12.596C94.072,147.635,88.404,141.965,88.404,135.039"/>
</svg>
