<?xml version="1.0" encoding="utf-8"?>
<!-- Generator: Adobe Illustrator 16.0.0, SVG Export Plug-In . SVG Version: 6.00 Build 0)  -->
<!DOCTYPE svg PUBLIC "-//W3C//DTD SVG 1.1//EN" "http://www.w3.org/Graphics/SVG/1.1/DTD/svg11.dtd">
<svg version="1.1" id="圖層_1" xmlns="http://www.w3.org/2000/svg" xmlns:xlink="http://www.w3.org/1999/xlink" x="0px" y="0px"
	 width="200px" height="200px" viewBox="0 0 200 200" enable-background="new 0 0 200 200" xml:space="preserve">
<path d="M3.993,49.297c1.42-2.68,3.503-3.221,6.46-2.651c7.104,1.367,14.27,2.428,21.422,3.544c2.389,0.373,3.977,1.486,4.444,4.389
	c3.845-0.399,7.682-0.58,11.438-1.228c10.604-1.83,21.204-3.704,31.751-5.831c15.355-3.096,29.48,0.313,43.039,7.45
	c8.176,4.304,15.911,9.264,23.301,14.796c0.728,0.545,1.841,0.806,2.776,0.811c12.06,0.053,24.12,0.033,36.181,0.037
	c7.001,0.002,11.046,3.134,12.809,9.885c0.061,0.227,0.255,0.419,0.387,0.627v67.448c-0.172,0.456-0.391,0.9-0.507,1.371
	c-1.341,5.403-5.965,9.128-11.555,9.13c-35.161,0.018-70.323,0.02-105.485-0.005c-6.3-0.005-11.519-5.271-11.553-11.631
	c-0.052-9.595-0.043-19.189,0.015-28.784c0.008-1.394-0.421-2.375-1.417-3.301c-3.307-3.071-7.347-4.449-11.624-5.548
	c-3.815-0.979-7.527-2.382-11.243-3.713c-0.934-0.334-1.59-0.412-2.603-0.064c-1.815,0.625-3.785,0.85-5.709,1.097
	c-8.929,1.15-17.872,2.194-26.793,3.404c-2.664,0.361-4.311-0.726-5.532-2.879V49.297z M76.616,124.854c0,1.182,0,1.869,0,2.558
	c0.001,6.313,0.004,12.626,0.003,18.939c0,3.569,1.44,5.004,5.063,5.004c34.532,0.001,69.065-0.001,103.598-0.004
	c3.144,0,4.842-1.625,4.845-4.721c0.017-14.015-0.012-28.03,0.045-42.045c0.006-1.569-0.445-2.019-2.022-2.017
	c-30.493,0.045-60.985,0.034-91.478,0.039c-0.593,0-1.187,0.062-2.221,0.119c2.382,3.343,4.657,6.273,6.636,9.393
	c1.775,2.798,3.629,5.659,4.725,8.75c1.784,5.024-0.407,9.921-5.203,12.191c-1.999,0.946-4.294,1.449-6.509,1.717
	c-4.29,0.518-7.605-1.859-10.782-4.289C81.132,128.819,79.098,126.954,76.616,124.854 M37.683,62.13
	c0,0.526-0.043,0.839,0.006,1.137c1.751,10.558,3.492,21.117,5.313,31.663c0.122,0.707,0.74,1.459,1.332,1.933
	c3.418,2.726,7.351,4.448,11.627,5.18c7.173,1.226,13.466,3.998,18.55,9.367c3.467,3.662,7.059,7.212,10.734,10.665
	c1.781,1.672,3.795,3.139,5.858,4.457c1.853,1.184,5.684,0.604,6.889-0.939c1.461-1.871,0.299-3.645-0.657-5.228
	c-1.269-2.102-2.76-4.071-4.181-6.079c-4.19-5.922-8.559-11.736-11.208-18.584c-1.129-2.92-1.818-5.945-1.091-9.061
	c2.212-9.472,10.443-15.994,20.165-16.021c9.851-0.026,19.702-0.005,29.553-0.013c0.701,0,1.402-0.065,2.104-0.1
	c-0.427-0.806-0.901-1.203-1.426-1.514c-3.743-2.218-7.46-4.486-11.254-6.614c-12.685-7.113-26.007-10.013-40.577-7.098
	C65.672,58.033,51.981,61.283,37.683,62.13 M139.786,94.863v-0.013c15.968,0,31.934-0.028,47.901,0.039
	c1.834,0.007,2.602-0.345,2.485-2.369c-0.176-3.082-0.03-6.183-0.041-9.274c-0.013-3.275-1.619-4.899-4.861-4.899
	c-28.084-0.004-56.169-0.009-84.254,0.019c-1.243,0.001-2.517,0.192-3.725,0.498c-5.47,1.384-10.888,8.432-8.23,13.933
	c0.698,1.444,1.326,2.112,3.013,2.105C107.979,94.838,123.882,94.863,139.786,94.863 M35.87,99.384
	c-0.261-1.582-0.474-2.874-0.689-4.165c-1.986-11.919-4.009-23.832-5.914-35.764c-0.236-1.477-0.851-2.036-2.193-2.244
	c-3.108-0.481-6.204-1.042-9.309-1.541c-1.886-0.303-3.78-0.552-5.744-0.835v47.532C20.048,101.365,27.883,100.384,35.87,99.384"/>
<path d="M169.412,143.386c-2.177-0.876-4.417-1.627-6.503-2.682c-0.945-0.479-1.485-0.753-2.471-0.062
	c-4.157,2.917-9.305,3.023-13.319,0.416c-4.072-2.646-6.313-7.549-5.354-12.07c1.097-5.175,4.218-8.503,9.442-9.649
	c3.31-0.725,6.412-0.043,9.132,1.963c0.991,0.73,1.609,0.661,2.604-0.017c4.272-2.913,8.72-2.989,13.139-0.336
	c3.971,2.383,6.299,7.41,5.437,11.86c-0.973,5.015-3.919,8.346-8.907,9.75c-0.301,0.085-0.607,0.177-0.917,0.207
	c-0.69,0.066-1.384,0.096-2.076,0.139C169.549,143.065,169.48,143.226,169.412,143.386 M173.865,131.001
	c0.006-2.377-1.764-4.133-4.18-4.146c-2.345-0.013-4.252,1.869-4.219,4.161c0.034,2.312,1.958,4.221,4.24,4.206
	C172.069,135.206,173.86,133.389,173.865,131.001 M149.373,130.923c-0.032,2.376,1.752,4.271,4.068,4.32
	c2.244,0.049,4.252-1.879,4.32-4.147c0.07-2.299-1.786-4.203-4.139-4.245C151.224,126.808,149.404,128.551,149.373,130.923"/>
</svg>
