<?xml version="1.0" encoding="utf-8"?>
<!-- Generator: Adobe Illustrator 16.0.0, SVG Export Plug-In . SVG Version: 6.00 Build 0)  -->
<!DOCTYPE svg PUBLIC "-//W3C//DTD SVG 1.1//EN" "http://www.w3.org/Graphics/SVG/1.1/DTD/svg11.dtd">
<svg version="1.1" id="圖層_1" xmlns="http://www.w3.org/2000/svg" xmlns:xlink="http://www.w3.org/1999/xlink" x="0px" y="0px"
	 width="200px" height="200px" viewBox="0 0 200 200" enable-background="new 0 0 200 200" xml:space="preserve">
<path d="M175.525,60.439H73.182c-3.352,0-6.145,2.681-6.145,6.145v71.282c0,3.353,2.793,6.146,6.145,6.146h102.343
	c3.353,0,6.146-2.681,6.146-6.146V66.472C181.67,63.12,178.877,60.439,175.525,60.439 M174.408,77.645H74.188V67.589h100.22V77.645z
	 M74.187,136.749V92.84h100.221v44.021L74.187,136.749z M156.979,124.459c0,2.904-2.457,5.363-5.362,5.363
	c-2.904,0-5.363-2.459-5.363-5.363s2.459-5.363,5.363-5.363C154.521,119.096,156.979,121.441,156.979,124.459 M168.15,124.459
	c0,2.904-2.457,5.363-5.362,5.363c-2.904,0-5.363-2.459-5.363-5.363s2.459-5.363,5.363-5.363
	C165.805,119.096,168.15,121.441,168.15,124.459"/>
<path d="M117.982,148.592v7.167h-85.6V39.266h85.602v14.357h9.723V37.879c0-15.598-12.764-28.379-28.362-28.379h-48.33
	c-15.603,0-28.361,12.781-28.361,28.379v124.244c0,15.605,12.758,28.377,28.361,28.377h48.329c15.599,0,28.362-12.771,28.362-28.377
	v-13.531H117.982z M89.78,20.849c2.166,0,3.924,1.755,3.924,3.927c0,2.167-1.758,3.921-3.924,3.921c-2.174,0-3.92-1.753-3.92-3.921
	C85.86,22.604,87.605,20.849,89.78,20.849 M75.174,20.849c2.167,0,3.927,1.755,3.927,3.927c0,2.167-1.76,3.921-3.927,3.921
	c-2.162,0-3.919-1.753-3.919-3.921C71.255,22.604,73.012,20.849,75.174,20.849 M60.575,20.849c2.166,0,3.922,1.755,3.922,3.927
	c0,2.167-1.757,3.921-3.922,3.921c-2.167,0-3.922-1.753-3.922-3.921C56.652,22.604,58.407,20.849,60.575,20.849 M88.786,175.689
	H61.57c-2.508,0-4.541-1.701-4.541-3.799c0-2.104,2.032-3.804,4.541-3.804h27.216c2.507,0,4.54,1.7,4.54,3.804
	C93.326,173.988,91.293,175.689,88.786,175.689"/>
</svg>
