<?xml version="1.0" encoding="utf-8"?>
<!-- Generator: Adobe Illustrator 21.1.0, SVG Export Plug-In . SVG Version: 6.00 Build 0)  -->
<svg version="1.1" id="圖層_1" xmlns="http://www.w3.org/2000/svg" xmlns:xlink="http://www.w3.org/1999/xlink" x="0px" y="0px"
	 viewBox="0 0 200 200" style="enable-background:new 0 0 200 200;" xml:space="preserve">

<g>
	<path class="st0" d="M67.8,126.1l0-7.6l-0.7-0.1c-10.1-1-17.8-5.4-19.9-11.2l8.4-2.1c1.4,1.8,5.6,3.9,11.3,4.7l0.9,0.1V96.8
		l-0.6-0.1c-7.8-1.3-12.2-3.2-14.2-4.2l-0.3-0.2c-4-2.7-6.1-6.1-6.1-9.8c0-7.4,8.5-13.3,20.6-14.6l0.7-0.1v-7.4h8.5l0,7.4l0.7,0.1
		c9.1,1,16.2,4.8,18.8,9.9l-8.2,2.9c-1.6-1.6-5.2-3.5-10.4-4.3l-0.9-0.1l0,13.8l0.6,0.1c5.6,1,10.2,2.3,13.3,3.8
		c1.4,0.7,2.4,1.3,3.2,2c0.3,0.3,0.5,0.5,0.8,0.8c1.9,2.1,2.8,4.5,2.8,7c0,7.2-8.2,13.2-20,14.5l-0.7,0.1l0,7.6L67.8,126.1z
		 M76.3,110l0.9-0.1c6.7-1,11.3-3.9,11.3-5.9c0-2-4.6-4.9-11.3-5.9l-0.9-0.1V110z M66.9,76.5c-7.4,1-11.9,4.1-11.9,6
		c0,1.8,4.5,5,11.9,6l0.9,0.1V76.4L66.9,76.5z"/>
	<g>
		<path class="st0" d="M109.3,10H34.2c-7.9,0-14.3,6.4-14.3,14.3v151.4c0,7.9,6.4,14.3,14.3,14.3h75.1c7.9,0,14.3-6.4,14.3-14.3
			V24.3C123.6,16.4,117.2,10,109.3,10z M113.6,143.2H29.9V44.9h83.7V143.2z M34.2,20h75.1c2.3,0,4.3,2,4.3,4.3v10.6H29.9V24.3
			C29.9,22,31.8,20,34.2,20z M109.3,180H34.2c-2.3,0-4.3-2-4.3-4.3v-22.5h83.7v22.5C113.6,178,111.6,180,109.3,180z"/>
		<circle class="st0" cx="71.7" cy="166" r="6.4"/>
	</g>
	<path class="st0" d="M170.2,70.3h-40.9v7.8h40.9c1.1,0,2.1,1,2.1,2.1v9.9h-43v7.8h43v27.2c0,1.1-1,2.1-2.1,2.1h-40.9v7.8h40.9
		c5.5,0,9.9-4.4,9.9-9.9V80.2C180.1,74.8,175.7,70.3,170.2,70.3z"/>
</g>
</svg>
