<?xml version="1.0" encoding="utf-8"?>
<!-- Generator: Adobe Illustrator 16.0.0, SVG Export Plug-In . SVG Version: 6.00 Build 0)  -->
<!DOCTYPE svg PUBLIC "-//W3C//DTD SVG 1.1//EN" "http://www.w3.org/Graphics/SVG/1.1/DTD/svg11.dtd">
<svg version="1.1" id="Layer_1" xmlns="http://www.w3.org/2000/svg" xmlns:xlink="http://www.w3.org/1999/xlink" x="0px" y="0px"
	 width="200px" height="200px" viewBox="0 0 200 200" enable-background="new 0 0 200 200" xml:space="preserve">
<g>
	<path d="M96.07,126.039l-0.005-7.548l-0.69-0.069c-10.038-1.019-17.706-5.356-19.862-11.151l8.402-2.057
		c1.425,1.801,5.579,3.906,11.282,4.667l0.871,0.117V96.789l-0.646-0.103c-7.801-1.252-12.198-3.145-14.124-4.163l-0.326-0.173
		c-3.987-2.694-6.095-6.081-6.095-9.794c0.003-7.328,8.433-13.298,20.497-14.514l0.693-0.069v-7.358h8.436v7.411l0.686,0.078
		c9.028,1.032,16.114,4.798,18.764,9.907l-8.166,2.881c-1.563-1.623-5.216-3.465-10.397-4.244l-0.886-0.134l0.006,13.788
		l0.636,0.113c5.588,0.999,10.169,2.299,13.235,3.763c1.387,0.668,2.433,1.322,3.195,2.001c0.278,0.26,0.523,0.521,0.751,0.766
		c1.848,2.109,2.789,4.449,2.789,6.946c0,7.175-8.193,13.125-19.927,14.464l-0.686,0.078v7.608L96.07,126.039z M104.504,109.923
		l0.886-0.137c6.652-1.013,11.289-3.919,11.289-5.895c0.01-1.965-4.62-4.859-11.289-5.863l-0.886-0.134V109.923z M95.197,76.579
		c-7.351,0.979-11.875,4.136-11.887,5.967c0.003,1.834,4.525,4.984,11.887,5.961l0.871,0.117V76.462L95.197,76.579z"/>
	<g>
		<path d="M137.445,10.312H62.555c-7.838,0-14.249,6.412-14.249,14.249v150.879c0,7.836,6.411,14.249,14.249,14.249h74.891
			c7.837,0,14.249-6.413,14.249-14.249V24.561C151.694,16.724,145.282,10.312,137.445,10.312z M141.721,143.078H58.28V45.089h83.44
			V143.078z M62.555,20.286h74.891c2.315,0,4.275,1.956,4.275,4.274v10.554H58.28V24.561C58.28,22.242,60.237,20.286,62.555,20.286z
			 M137.445,179.714H62.555c-2.317,0-4.274-1.96-4.274-4.274v-22.388h83.44v22.388C141.721,177.754,139.761,179.714,137.445,179.714
			z"/>
		<circle cx="99.998" cy="165.776" r="6.412"/>
	</g>
</g>
</svg>
