<?xml version="1.0" encoding="utf-8"?>
<!-- Generator: Adobe Illustrator 21.1.0, SVG Export Plug-In . SVG Version: 6.00 Build 0)  -->
<svg version="1.1" id="圖層_1" xmlns="http://www.w3.org/2000/svg" xmlns:xlink="http://www.w3.org/1999/xlink" x="0px" y="0px"
	 viewBox="0 0 200 200" style="enable-background:new 0 0 200 200;" xml:space="preserve">
<path class="st0" d="M152.5,10h-105C34.8,10,25,19.8,25,32.5v135c0,12.7,9.8,22.5,22.5,22.5h105c12.8,0,22.5-9.8,22.5-22.5v-135
	C175,19.8,165.3,10,152.5,10z M160,167.5c0,4.5-3,7.5-7.5,7.5h-105c-4.5,0-7.5-3-7.5-7.5v-135c0-4.5,3-7.5,7.5-7.5h105
	c4.5,0,7.5,3,7.5,7.5V167.5z M130,137.5H70c-4.5,0-7.5,3-7.5,7.5s3,7.5,7.5,7.5h60c4.5,0,7.5-3,7.5-7.5S134.5,137.5,130,137.5z
	 M130,107.5H70c-4.5,0-7.5,3-7.5,7.5s3,7.5,7.5,7.5h60c4.5,0,7.5-3,7.5-7.5S134.5,107.5,130,107.5z M130,77.5H70
	c-4.5,0-7.5,3-7.5,7.5s3,7.5,7.5,7.5h60c4.5,0,7.5-3,7.5-7.5S134.5,77.5,130,77.5z M70,62.5h30c4.5,0,7.5-3,7.5-7.5s-3-7.5-7.5-7.5
	H70c-4.5,0-7.5,3-7.5,7.5S65.5,62.5,70,62.5z"/>
</svg>
