<?xml version="1.0" encoding="utf-8"?>
<!-- Generator: Adobe Illustrator 16.0.0, SVG Export Plug-In . SVG Version: 6.00 Build 0)  -->
<!DOCTYPE svg PUBLIC "-//W3C//DTD SVG 1.1//EN" "http://www.w3.org/Graphics/SVG/1.1/DTD/svg11.dtd">
<svg version="1.1" id="圖層_1" xmlns="http://www.w3.org/2000/svg" xmlns:xlink="http://www.w3.org/1999/xlink" x="0px" y="0px"
	 width="200px" height="200px" viewBox="0 0 200 200" enable-background="new 0 0 200 200" xml:space="preserve">
<path d="M183.643,119.647c0.956-1.915,1.786-3.574,2.604-5.214c5.067,1.352,8.21,5.832,7.698,10.868
	c-0.486,4.803-2.409,8.811-6.685,11.333c-3.619,2.134-7.31,2.1-10.675-0.523c-1.896-1.478-3.577-3.25-5.249-4.992
	c-1.181-1.232-2.184-2.635-3.267-3.962c-0.236,0.178-0.473,0.354-0.71,0.531c-0.285,1.382-0.563,2.767-0.857,4.146
	c-1.573,7.387-4.84,13.981-9.669,19.737c-5.704,6.799-8.16,14.626-8.084,23.388c0.044,4.896,0.009,9.794,0.009,14.867
	c-0.726,0.04-1.398,0.11-2.071,0.11c-8.371,0.01-16.743-0.021-25.113,0.04c-1.345,0.01-2.137-0.385-2.812-1.572
	c-2.052-3.604-4.268-7.117-6.336-10.714c-0.601-1.046-1.247-1.338-2.473-1.285c-6.069,0.259-12.146,0.329-18.215,0.588
	c-0.771,0.034-1.803,0.602-2.213,1.241c-2.164,3.375-4.124,6.881-6.265,10.271c-0.404,0.641-1.307,1.366-1.986,1.373
	c-8.232,0.088-16.465,0.049-24.697,0.036c-0.198-0.001-0.395-0.09-0.831-0.196c-0.036-0.678-0.105-1.405-0.107-2.133
	c-0.01-4.013-0.04-8.025,0.006-12.038c0.067-5.923-2.557-10.35-7.428-13.537c-4.372-2.861-9.279-4.313-14.378-5.019
	c-3.826-0.53-7.703-0.787-11.566-0.939c-5.176-0.204-8.066-2.767-8.646-7.887c-0.848-7.489-1.761-14.971-2.619-22.459
	c-0.566-4.944,2.638-8.599,7.667-8.728c2.766-0.07,5.535-0.007,8.301-0.061c1.75-0.035,3.043-0.683,3.411-2.637
	c1.581-8.413,5.251-15.834,10.877-22.409c-0.355-0.311-0.639-0.588-0.951-0.828c-4.027-3.079-4.583-7.271-0.98-10.833
	c2.07-2.048,4.619-3.794,7.248-5.063c7.779-3.752,16.006-5.07,24.636-3.841c1.557,0.222,3.27-0.271,4.852-0.668
	c22.213-5.583,43.559-3.717,63.563,7.88c12.105,7.018,21.115,16.938,25.596,30.445c1.058,3.188,1.375,6.616,2.176,9.898
	c0.188,0.773,0.849,1.526,1.477,2.081c2.265,2,4.635,3.88,6.911,5.868c1.506,1.315,2.813,2.878,4.401,4.073
	c1.83,1.376,3.865,1.232,5.114-0.657c1.166-1.766,1.956-3.926,2.317-6.015c0.165-0.956-0.979-2.252-1.753-3.215
	C185.393,120.402,184.496,120.142,183.643,119.647 M63.146,182.377c4.994,0,9.688,0.038,14.378-0.056
	c0.501-0.01,1.132-0.701,1.457-1.229c2.212-3.592,4.395-7.203,6.502-10.856c0.608-1.056,1.288-1.423,2.498-1.254
	c8.64,1.209,17.247,0.954,25.8-0.779c1.116-0.228,1.764,0.071,2.344,1.081c1.962,3.419,4.155,6.71,5.995,10.19
	c1.17,2.215,2.551,3.291,5.156,2.972c2.112-0.261,4.282-0.053,6.427-0.053c2.467,0,4.933,0,7.655,0c0-3.118,0.018-5.94-0.003-8.763
	c-0.071-9.928,3.018-18.631,9.354-26.387c15.243-18.657,10.581-40.329-4.559-54.483c-14.602-13.651-32.433-18.398-52.014-17.45
	c-4.228,0.205-8.426,0.988-12.755,1.519c2.426,5.556,2.845,7.396,1.995,11.784c-1.653,8.537-5.907,15.891-11.193,22.593
	c-3.045,3.861-8.655,2.581-10.522-2.021c-0.494-1.217-0.979-2.44-1.535-3.628c-2.058-4.396-4.934-8.038-9.362-10.31
	c-1.251-0.642-2.01-0.556-2.965,0.594c-4.887,5.883-8.729,12.233-10.211,19.892c-0.883,4.563-3.972,7.271-8.514,7.925
	c-2.777,0.399-5.642,0.202-8.467,0.262c-0.851,0.018-1.703,0.003-2.738,0.003c0.95,7.884,1.915,15.349,2.704,22.833
	c0.184,1.746,0.893,2.147,2.467,2.174c6.805,0.108,13.502,1.001,20.06,2.905c3.441,1,7.715-2.167,7.963-5.707
	c0.139-1.985,1.142-3.379,3.14-3.906c1.813-0.479,3.75,0.282,4.64,1.906c0.967,1.766,0.756,3.451-0.564,4.994
	c-1.914,2.239-3.816,4.489-5.771,6.79c0.206,0.151,0.469,0.361,0.748,0.548c6.841,4.555,10.119,10.941,9.9,19.153
	C63.098,177.746,63.146,179.881,63.146,182.377 M67.827,107.05c3.863-5.767,7.604-11.305,9.277-17.907
	c0.352-1.388,0.468-2.87,0.464-4.308c-0.009-2.98-1.443-5.189-4.175-6.36c-1.442-0.618-3.012-1.112-4.564-1.271
	c-7.949-0.815-15.379,1.038-22.402,4.7c-0.786,0.41-1.514,0.984-2.162,1.596c-1.543,1.454-1.448,2.177,0.418,3.051
	c0.996,0.466,2.054,0.847,3.124,1.098c7.59,1.783,13.156,6.147,16.765,13.032C65.625,102.692,66.64,104.725,67.827,107.05"/>
<path d="M69.176,33.24C69.167,18.192,81.219,6.044,96.271,5.928c15.027-0.115,27.348,12.15,27.38,27.26
	c0.033,15.087-12.206,27.312-27.328,27.296C81.319,60.468,69.186,48.291,69.176,33.24 M96.438,12.377
	c-11.654,0.012-20.964,9.333-20.927,20.955c0.037,11.491,9.402,20.753,20.956,20.726c11.53-0.028,20.811-9.328,20.818-20.863
	C117.293,21.701,107.945,12.366,96.438,12.377"/>
<path d="M128.218,194.548c-0.738,0.649-1.227,1.08-1.715,1.51c-0.349-0.431-1.04-0.926-0.975-1.278
	c0.119-0.633,0.692-1.179,1.075-1.762C127.04,193.431,127.477,193.845,128.218,194.548"/>
<path d="M45.824,120.813c-2.39-0.023-4.35-2.021-4.284-4.365c0.067-2.362,2.106-4.286,4.464-4.209
	c2.31,0.075,4.142,1.971,4.144,4.286C50.149,118.95,48.247,120.837,45.824,120.813"/>
<path d="M99.552,46.472h-5.067V28.26c-1.221-0.086-2.225-0.157-3.411-0.24v-5.027h8.479V46.472z"/>
</svg>
