<?xml version="1.0" encoding="utf-8"?>
<!-- Generator: Adobe Illustrator 16.0.0, SVG Export Plug-In . SVG Version: 6.00 Build 0)  -->
<!DOCTYPE svg PUBLIC "-//W3C//DTD SVG 1.1//EN" "http://www.w3.org/Graphics/SVG/1.1/DTD/svg11.dtd">
<svg version="1.1" id="圖層_1" xmlns="http://www.w3.org/2000/svg" xmlns:xlink="http://www.w3.org/1999/xlink" x="0px" y="0px"
	 width="200px" height="200px" viewBox="0 0 200 200" enable-background="new 0 0 200 200" xml:space="preserve">
<path  d="M190.978,13.992c-0.939-0.927-2.328-1.236-3.57-0.792L44.63,64.109c-4.961-3.033-11.252-3.744-17.022-1.354
	c-9.579,3.968-14.145,14.989-10.177,24.568c9.356,22.587,22.866,42.806,40.153,60.094c17.288,17.287,37.505,30.797,60.093,40.152
	c2.347,0.972,4.777,1.432,7.172,1.432c7.382,0,14.401-4.375,17.396-11.608c2.016-4.866,1.825-10.104-0.103-14.603l49.672-145.239
	C192.241,16.302,191.916,14.919,190.978,13.992 M66.249,63.699l15.132-5.395c1.776,1.893,2.643,4.499,2.295,7.134
	c-0.306,2.32-1.497,4.383-3.354,5.808c-1.856,1.424-4.155,2.04-6.477,1.735c-2.32-0.305-4.383-1.496-5.808-3.353
	C66.725,67.918,66.1,65.831,66.249,63.699 M135.893,174.762c-2.517,6.077-9.509,8.973-15.584,6.455
	c-44.015-18.23-78.294-52.512-96.525-96.525c-1.22-2.943-1.22-6.186,0-9.129c1.219-2.943,3.511-5.236,6.455-6.456
	c2.943-1.219,6.186-1.219,9.129,0c2.943,1.219,5.236,3.512,6.456,6.456c7.803,18.84,19.071,35.704,33.491,50.123
	c14.42,14.42,31.284,25.688,50.124,33.492C135.514,161.694,138.411,168.686,135.893,174.762 M166.434,70.52
	c-0.312-0.007-0.622-0.025-0.935-0.066c-2.319-0.306-4.382-1.497-5.807-3.353s-2.04-4.157-1.735-6.477
	c0.63-4.79,5.039-8.173,9.831-7.543c1.478,0.194,2.866,0.768,4.049,1.64L166.434,70.52z M174.122,48.036
	c-1.675-0.912-3.515-1.52-5.438-1.772c-8.55-1.129-16.419,4.913-17.544,13.462c-0.545,4.141,0.555,8.246,3.098,11.56
	c2.449,3.191,5.954,5.277,9.911,5.913l-6.833,19.979l-7.857-6.029c-1.506-1.155-3.664-0.872-4.82,0.635
	c-1.154,1.506-0.871,3.664,0.636,4.82l9.695,7.439l-17.77,51.959c-1.491-1.295-3.207-2.379-5.13-3.177
	c-36.431-15.09-64.805-43.463-79.894-79.893c-0.524-1.267-1.176-2.443-1.928-3.526l9.206-3.283c0.322,2.773,1.386,5.419,3.13,7.692
	c2.542,3.313,6.224,5.438,10.364,5.983c0.694,0.091,1.386,0.137,2.074,0.137c3.42,0,6.728-1.117,9.486-3.233
	c3.314-2.543,5.439-6.224,5.984-10.366c0.489-3.717-0.378-7.4-2.326-10.45l42.73-15.235l1.619,3.91
	c0.549,1.324,1.828,2.123,3.178,2.123c0.438,0,0.884-0.084,1.314-0.263c1.753-0.727,2.586-2.738,1.859-4.492l-1.486-3.59
	l45.622-16.267L174.122,48.036z"/>
<path  d="M53.124,105.221c-0.01-0.017-0.039-0.061-0.05-0.076c-1.053-1.579-3.183-2.002-4.762-0.951
	c-1.577,1.05-2.004,3.181-0.961,4.761c0.658,1.011,1.76,1.563,2.885,1.563c0.637,0,1.281-0.178,1.855-0.547
	C53.688,108.944,54.15,106.817,53.124,105.221"/>
<path  d="M47.896,96.68c-3.35-5.873-6.361-12.02-8.95-18.269c-0.726-1.754-2.739-2.586-4.491-1.86
	c-1.754,0.727-2.587,2.738-1.86,4.491c2.698,6.515,5.837,12.922,9.329,19.044c0.634,1.111,1.794,1.735,2.989,1.735
	c0.577,0,1.163-0.146,1.7-0.452C48.262,100.429,48.836,98.329,47.896,96.68"/>
<path  d="M123.57,56.996c-0.682-0.09-1.373-0.135-2.057-0.135c-7.81,0-14.468,5.846-15.487,13.597
	c-1.127,8.549,4.913,16.419,13.461,17.544c0.682,0.09,1.373,0.135,2.057,0.135c7.809,0,14.468-5.845,15.487-13.597
	C138.157,65.991,132.118,58.121,123.57,56.996 M130.216,73.642c-0.572,4.344-4.301,7.62-8.672,7.62
	c-0.385,0-0.774-0.025-1.159-0.076c-4.789-0.631-8.173-5.041-7.543-9.831c0.572-4.344,4.301-7.619,8.672-7.619
	c0.385,0,0.774,0.025,1.159,0.076C127.462,64.443,130.846,68.853,130.216,73.642"/>
<path  d="M122.676,99.754c-0.682-0.09-1.373-0.135-2.058-0.135c-7.809,0-14.467,5.845-15.487,13.597
	c-0.545,4.141,0.555,8.246,3.097,11.561c2.544,3.314,6.224,5.438,10.365,5.984c0.681,0.09,1.373,0.135,2.056,0.135
	c7.809,0,14.468-5.846,15.489-13.598C137.263,108.75,131.224,100.88,122.676,99.754 M129.322,116.4
	c-0.573,4.345-4.301,7.619-8.674,7.619c-0.383,0-0.773-0.025-1.157-0.075c-2.32-0.306-4.383-1.497-5.808-3.354
	c-1.426-1.856-2.041-4.156-1.736-6.478c0.572-4.344,4.3-7.619,8.671-7.619c0.385,0,0.774,0.025,1.159,0.076
	C126.568,107.2,129.952,111.611,129.322,116.4"/>
<path  d="M100.003,85.513l-10.565-1.391c-1.881-0.25-3.609,1.076-3.857,2.958s1.077,3.609,2.959,3.857l10.565,1.392
	c0.153,0.02,0.304,0.03,0.454,0.03c1.698,0,3.176-1.26,3.403-2.989C103.21,87.488,101.886,85.761,100.003,85.513"/>
<path  d="M94.646,110.881l-0.933-7.089c-0.249-1.883-1.975-3.208-3.857-2.96c-1.883,0.248-3.208,1.975-2.959,3.857
	l0.933,7.089c0.228,1.729,1.705,2.988,3.404,2.988c0.149,0,0.301-0.009,0.453-0.029C93.569,114.49,94.894,112.763,94.646,110.881"/>
</svg>
