<?xml version="1.0" encoding="utf-8"?>
<!-- Generator: Adobe Illustrator 16.0.0, SVG Export Plug-In . SVG Version: 6.00 Build 0)  -->
<!DOCTYPE svg PUBLIC "-//W3C//DTD SVG 1.1//EN" "http://www.w3.org/Graphics/SVG/1.1/DTD/svg11.dtd">
<svg version="1.1" id="圖層_1" xmlns="http://www.w3.org/2000/svg" xmlns:xlink="http://www.w3.org/1999/xlink" x="0px" y="0px"
	 width="200px" height="200px" viewBox="0 0 200 200" enable-background="new 0 0 200 200" xml:space="preserve">
<path fill="#040000" d="M101.379,193.981c-51.28,0-93-41.722-93-93c0-51.28,41.72-93,93-93c51.279,0,93,41.72,93,93
	C194.379,152.26,152.658,193.981,101.379,193.981 M101.379,19.98c-44.664,0-81,36.336-81,81c0,44.663,36.336,81,81,81
	c44.663,0,81-36.337,81-81C182.379,56.316,146.042,19.98,101.379,19.98"/>
<polygon fill="#040000" points="77.124,139.123 77.124,64.613 145.634,101.869 "/>
</svg>
