<?xml version="1.0" encoding="utf-8"?>
<!-- Generator: Adobe Illustrator 16.0.0, SVG Export Plug-In . SVG Version: 6.00 Build 0)  -->
<!DOCTYPE svg PUBLIC "-//W3C//DTD SVG 1.1//EN" "http://www.w3.org/Graphics/SVG/1.1/DTD/svg11.dtd">
<svg version="1.1" id="圖層_1" xmlns="http://www.w3.org/2000/svg" xmlns:xlink="http://www.w3.org/1999/xlink" x="0px" y="0px"
	 width="200px" height="200px" viewBox="0 0 200 200" enable-background="new 0 0 200 200" xml:space="preserve">
<path d="M100,193.001c-51.28,0-93-41.721-93-93c0-51.28,41.72-93,93-93c51.28,0,93,41.72,93,93
	C193,151.28,151.28,193.001,100,193.001 M100,19c-44.664,0-81,36.336-81,81c0,44.663,36.336,81,81,81c44.663,0,81-36.337,81-81
	C181,55.336,144.663,19,100,19"/>
<polygon points="75.745,138.143 75.745,63.633 144.255,100.888 "/>
</svg>
