<?xml version="1.0" encoding="utf-8"?>
<!-- Generator: Adobe Illustrator 16.0.0, SVG Export Plug-In . SVG Version: 6.00 Build 0)  -->
<!DOCTYPE svg PUBLIC "-//W3C//DTD SVG 1.1//EN" "http://www.w3.org/Graphics/SVG/1.1/DTD/svg11.dtd">
<svg version="1.1" id="Layer_1" xmlns="http://www.w3.org/2000/svg" xmlns:xlink="http://www.w3.org/1999/xlink" x="0px" y="0px"
	 width="200px" height="200px" viewBox="0 0 200 200" enable-background="new 0 0 200 200" xml:space="preserve">
<g>
	<path d="M103.001,159.47c-0.78-0.039-1.563-0.031-2.346-0.022c-0.328,0.004-0.655,0.007-0.983,0.007l-1.162-0.009
		c-0.839-0.01-1.677-0.02-2.508,0.009c-4.023,0.135-6.202,2.262-6.135,5.989c0.06,3.693,2.276,5.951,6.081,6.195
		c1.313,0.086,2.492,0.127,3.605,0.127c1.224,0,2.346-0.049,3.43-0.151c3.792-0.359,5.928-2.693,5.859-6.404
		C108.782,161.688,106.707,159.649,103.001,159.47z"/>
	<path d="M111.85,111.573h-5.302c-1.923,0-3.487,1.563-3.487,3.486v0.737c0,1.92,1.564,3.481,3.487,3.481h5.302
		c1.922,0,3.485-1.562,3.485-3.481v-0.737C115.335,113.137,113.771,111.573,111.85,111.573z"/>
	<path d="M128.661,111.573h-5.291c-1.923,0-3.487,1.563-3.487,3.486v0.737c0,1.92,1.564,3.481,3.487,3.481h5.291
		c1.923,0,3.487-1.562,3.487-3.481v-0.737C132.148,113.137,130.584,111.573,128.661,111.573z"/>
	<path d="M146.334,111.573h-5.311c-1.918,0-3.478,1.563-3.478,3.486v0.737c0,1.92,1.56,3.481,3.478,3.481h5.311
		c1.923,0,3.486-1.562,3.486-3.481v-0.737C149.82,113.137,148.257,111.573,146.334,111.573z"/>
	<path d="M111.85,122.399h-5.302c-1.923,0-3.487,1.562-3.487,3.48v0.738c0,1.922,1.564,3.485,3.487,3.485h5.302
		c1.922,0,3.485-1.563,3.485-3.485v-0.738C115.335,123.961,113.771,122.399,111.85,122.399z"/>
	<path d="M128.661,122.399h-5.291c-1.923,0-3.487,1.562-3.487,3.48v0.738c0,1.922,1.564,3.485,3.487,3.485h5.291
		c1.923,0,3.487-1.563,3.487-3.485v-0.738C132.148,123.961,130.584,122.399,128.661,122.399z"/>
	<path d="M146.334,122.399h-5.311c-1.918,0-3.478,1.562-3.478,3.48v0.738c0,1.922,1.56,3.485,3.478,3.485h5.311
		c1.923,0,3.486-1.563,3.486-3.485v-0.738C149.82,123.961,148.257,122.399,146.334,122.399z"/>
	<path d="M108.769,106.421h34.994c3.846,0,6.975-3.128,6.975-6.974v-8.458c0-3.843-3.129-6.969-6.975-6.969h-34.994
		c-3.846,0-6.975,3.126-6.975,6.969v8.458C101.794,103.293,104.923,106.421,108.769,106.421z M109.77,98.451v-6.466h33.002v6.466
		H109.77z"/>
	<path d="M174.508,141.814h-0.029c-2.777-28.729-9.662-65.583-11.387-69.888c-2.075-5.21-6.498-7.029-6.995-7.219
		c-0.46-0.176-0.94-0.265-1.428-0.265h-24.42V44.874h24.798c3.846,0,6.975-3.126,6.975-6.969V15.842
		c0-3.843-3.129-6.969-6.975-6.969H99.479c-3.84,0-6.964,3.126-6.964,6.969v22.063c0,3.843,3.124,6.969,6.964,6.969h22.805v19.569
		H88.12c1.186-1.947,2-2.951,2.013-2.966c0.957-1.187,1.152-2.843,0.498-4.219c-0.655-1.378-2.064-2.27-3.59-2.27H64.143
		c-0.981,0-1.925,0.363-2.659,1.021c-2.82,2.532-5.301,5.369-7.379,8.434h-9.921c-6.495,0-9.623,3.995-10.304,7.334
		c-7.444,18.933-9.32,57.779-9.733,70.041c-3.749,0.111-6.764,3.193-6.764,6.967v33.276c0,3.842,3.128,6.968,6.974,6.968h150.152
		c3.84,0,6.963-3.126,6.963-6.968v-33.276C181.471,144.941,178.348,141.814,174.508,141.814z M154.047,16.843v20.065H100.47V16.843
		H154.047z M41.415,74.39c0.154-0.365,0.238-0.566,0.249-0.92c0.167-0.671,1.085-1.057,2.52-1.057h5.644
		c-5.672,13.728-3.807,27.97-2.031,35.678h-1.732c-2.198,0-3.987,1.786-3.987,3.982s1.789,3.982,3.987,3.982h40.59
		c2.199,0,3.988-1.786,3.988-3.982s-1.789-3.982-3.988-3.982h-4.928c-3.393-15.536-0.569-27.916,2.48-35.678h69.487
		c0.496,0.329,1.466,1.111,2.005,2.465c1.115,2.847,7.932,37.924,10.773,66.937H32.122C32.561,129.701,34.469,91.657,41.415,74.39z
		 M65.714,62.958h14.098c-4.305,8.082-10.341,24.049-6.232,45.133H56.013C54.154,100.893,49.98,78.231,65.714,62.958z
		 M173.505,149.78v31.282H25.348V149.78h2.498l0.118,0.019h142.895c0.054,0,0.106-0.007,0.151-0.019H173.505z"/>
</g>
</svg>
