<?xml version="1.0" encoding="utf-8"?>
<!-- Generator: Adobe Illustrator 16.0.0, SVG Export Plug-In . SVG Version: 6.00 Build 0)  -->
<!DOCTYPE svg PUBLIC "-//W3C//DTD SVG 1.1//EN" "http://www.w3.org/Graphics/SVG/1.1/DTD/svg11.dtd">
<svg version="1.1" id="圖層_1" xmlns="http://www.w3.org/2000/svg" xmlns:xlink="http://www.w3.org/1999/xlink" x="0px" y="0px"
	 width="200px" height="200px" viewBox="0 0 200 200" enable-background="new 0 0 200 200" xml:space="preserve">
<path d="M130.108,25.554h-18.715V14.101h-34.36v11.453H58.318c-5.466,0-9.918,4.452-9.918,9.918v140.51
	c0,5.47,4.452,9.918,9.918,9.918h71.787c5.473,0,9.921-4.448,9.921-9.918V35.472C140.026,30.005,135.578,25.554,130.108,25.554
	 M82.76,19.827h22.907v5.727H82.76V19.827z M134.3,175.981c0,2.313-1.882,4.191-4.191,4.191h-71.79c-2.31,0-4.191-1.879-4.191-4.191
	V35.472c0-2.312,1.882-4.191,4.191-4.191h18.715h34.36h18.715c2.31,0,4.191,1.879,4.191,4.191V175.981z"/>
<path d="M105.667,63.084c0.062-1.208-0.607-2.352-1.733-2.88l-2.232-0.915l-1.415,1.748l-31.261,50.416h16.598
	l0.005,36.891c-0.064,1.18,0.576,2.329,1.661,2.871l2.276,1.007l1.449-1.822l27.975-53.263h-13.323V63.084z M109.523,102.863
	l-18.168,34.661l-0.005-31.798H79.313L99.94,72.432v30.431H109.523z"/>
</svg>
