<?xml version="1.0" encoding="utf-8"?>
<!-- Generator: Adobe Illustrator 16.0.0, SVG Export Plug-In . SVG Version: 6.00 Build 0)  -->
<!DOCTYPE svg PUBLIC "-//W3C//DTD SVG 1.1//EN" "http://www.w3.org/Graphics/SVG/1.1/DTD/svg11.dtd">
<svg version="1.1" id="圖層_1" xmlns="http://www.w3.org/2000/svg" xmlns:xlink="http://www.w3.org/1999/xlink" x="0px" y="0px"
	 width="200px" height="200px" viewBox="0 0 200 200" enable-background="new 0 0 200 200" xml:space="preserve">
<path d="M48.667,143.824c0-3.542-2.869-6.414-6.418-6.414c-3.542,0-6.412,2.872-6.412,6.414s2.87,6.414,6.412,6.414
	C45.798,150.238,48.667,147.366,48.667,143.824"/>
<path d="M147.721,173.197h27.096c7.846,0,14.261-6.414,14.261-14.258V90.506c0-7.847-6.415-14.257-14.261-14.257h-14.822v9.977
	h14.822c2.319,0,4.273,1.962,4.273,4.28v68.434c0,2.319-1.954,4.281-4.273,4.281H25.063c-2.319,0-4.273-1.962-4.273-4.281V90.506
	c0-2.317,1.954-4.28,4.273-4.28h14.951v-9.977H25.063c-7.84,0-14.261,6.41-14.261,14.257v68.434c0,7.846,6.421,14.26,14.261,14.26
	h27.096 M62.135,173.197h75.608"/>
<path d="M160.799,106.9h-12.363V25.5H51.452v81.4H39.091v9.978h121.708V106.9z M138.45,106.764H61.426V35.477h77.024V106.764z"/>
<path d="M120.699,77.345h-41.52c-2.75,0-4.989,2.234-4.989,4.988c0,2.76,2.239,4.995,4.989,4.995h41.52
	c2.761,0,4.996-2.234,4.996-4.995C125.695,79.579,123.46,77.345,120.699,77.345"/>
<path d="M120.699,54.917h-41.52c-2.75,0-4.989,2.226-4.989,4.988c0,2.75,2.239,4.991,4.989,4.991h41.52
	c2.761,0,4.996-2.241,4.996-4.991C125.695,57.144,123.46,54.917,120.699,54.917"/>
</svg>
