<?xml version="1.0" encoding="utf-8"?>
<!-- Generator: Adobe Illustrator 16.0.0, SVG Export Plug-In . SVG Version: 6.00 Build 0)  -->
<!DOCTYPE svg PUBLIC "-//W3C//DTD SVG 1.1//EN" "http://www.w3.org/Graphics/SVG/1.1/DTD/svg11.dtd">
<svg version="1.1" id="圖層_1" xmlns="http://www.w3.org/2000/svg" xmlns:xlink="http://www.w3.org/1999/xlink" x="0px" y="0px"
	 width="200px" height="200px" viewBox="0 0 200 200" enable-background="new 0 0 200 200" xml:space="preserve">
<path d="M143.715,52.316c0,3.799,2.548,6.876,5.701,6.876c3.147,0,5.695-3.077,5.695-6.876c0-3.797-2.548-6.876-5.695-6.876
	C146.263,45.439,143.715,48.519,143.715,52.316"/>
<path d="M55.733,20.826H31.662C24.698,20.826,19,27.702,19,36.111v73.368c0,8.412,5.698,15.291,12.662,15.291h13.169v-10.703H31.662
	c-2.06,0-3.797-2.105-3.797-4.588V36.111c0-2.482,1.737-4.587,3.797-4.587H164.68c2.063,0,3.791,2.105,3.791,4.587v73.368
	c0,2.482-1.729,4.588-3.791,4.588h-13.278v10.703h13.278c6.967,0,12.667-6.879,12.667-15.291V36.111
	c0-8.409-5.7-15.285-12.667-15.285h-24.068 M131.752,20.826H64.593"/>
<path d="M44.114,91.902h10.981v87.272h86.143V91.902h10.981V81.209H44.114V91.902z M63.965,92.052h68.414v76.431H63.965V92.052z"/>
<path d="M79.731,123.592h36.882c2.444,0,4.43-2.4,4.43-5.347c0-2.962-1.985-5.356-4.43-5.356H79.731
	c-2.45,0-4.435,2.395-4.435,5.356C75.296,121.191,77.281,123.592,79.731,123.592"/>
<path d="M79.731,147.633h36.882c2.444,0,4.43-2.385,4.43-5.346c0-2.947-1.985-5.352-4.43-5.352H79.731
	c-2.45,0-4.435,2.404-4.435,5.352C75.296,145.248,77.281,147.633,79.731,147.633"/>
</svg>
