<?xml version="1.0" encoding="utf-8"?>
<!-- Generator: Adobe Illustrator 16.0.0, SVG Export Plug-In . SVG Version: 6.00 Build 0)  -->
<!DOCTYPE svg PUBLIC "-//W3C//DTD SVG 1.1//EN" "http://www.w3.org/Graphics/SVG/1.1/DTD/svg11.dtd">
<svg version="1.1" id="圖層_1" xmlns="http://www.w3.org/2000/svg" xmlns:xlink="http://www.w3.org/1999/xlink" x="0px" y="0px"
	 width="200px" height="200px" viewBox="0 0 200 200" enable-background="new 0 0 200 200" xml:space="preserve">
<path d="M51.242,139.072c0-3.441-2.787-6.232-6.236-6.232c-3.441,0-6.228,2.791-6.228,6.232s2.787,6.231,6.228,6.231
	C48.455,145.304,51.242,142.514,51.242,139.072"/>
<path d="M147.486,167.612h26.326c7.623,0,13.854-6.231,13.854-13.854V87.267c0-7.625-6.231-13.854-13.854-13.854
	h-14.403v9.694h14.403c2.254,0,4.152,1.907,4.152,4.161v66.491c0,2.254-1.898,4.161-4.152,4.161H28.308
	c-2.253,0-4.152-1.907-4.152-4.161V87.267c0-2.254,1.899-4.161,4.152-4.161h14.524v-9.694H28.308
	c-7.618,0-13.854,6.229-13.854,13.854v66.491c0,7.623,6.236,13.854,13.854,13.854h26.327 M64.329,167.612h73.464"/>
<path d="M160.193,103.197h-12.013V24.103H53.949v79.094H41.936v9.693h118.257V103.197z M138.479,103.063H63.643
	V33.797h74.836V103.063z"/>
<path d="M121.231,74.479H80.889c-2.674,0-4.847,2.173-4.847,4.847c0,2.682,2.173,4.855,4.847,4.855h40.342
	c2.683,0,4.854-2.173,4.854-4.855C126.086,76.652,123.914,74.479,121.231,74.479"/>
<path d="M121.231,52.688H80.889c-2.674,0-4.847,2.161-4.847,4.847c0,2.67,2.173,4.851,4.847,4.851h40.342
	c2.683,0,4.854-2.181,4.854-4.851C126.086,54.849,123.914,52.688,121.231,52.688"/>
</svg>
