<?xml version="1.0" encoding="utf-8"?>
<!-- Generator: Adobe Illustrator 16.0.0, SVG Export Plug-In . SVG Version: 6.00 Build 0)  -->
<!DOCTYPE svg PUBLIC "-//W3C//DTD SVG 1.1//EN" "http://www.w3.org/Graphics/SVG/1.1/DTD/svg11.dtd">
<svg version="1.1" id="圖層_1" xmlns="http://www.w3.org/2000/svg" xmlns:xlink="http://www.w3.org/1999/xlink" x="0px" y="0px"
	 width="200px" height="200px" viewBox="0 0 200 200" enable-background="new 0 0 200 200" xml:space="preserve">
<g>
	<path d="M59.5,86.5h81c4.4,0,8-3.6,8-8V18c0-4.4-3.6-8-8-8h-81c-4.4,0-8,3.6-8,8v60.5C51.5,82.9,55.1,86.5,59.5,86.5z"/>
	<path d="M140,157.1H59.9c-4.7,0-8.5,3.801-8.5,8.5v15.9c0,4.7,3.8,8.5,8.5,8.5h80.2c4.601,0,8.4-3.8,8.4-8.5v-15.9
		C148.5,160.9,144.7,157.1,140,157.1z"/>
	<path d="M170.3,36.9c-9.1,0-16.5,7.4-16.5,16.5v31.8c-2.3,4.9-7.1,6.2-16.8,6.2c-20.3,0.1-40.5,0-60.8,0c-19.8,0-27.2,0-29.9-8v-30
		c0-9.1-7.4-16.5-16.5-16.5c-9.1,0-16.5,7.4-16.5,16.5v116.2c0,9.101,7.4,16.5,16.5,16.5c9.1,0,16.5-7.399,16.5-16.5V158.4
		c2.9-6.5,7.7-6.9,15-6.9c25,0.1,50,0,75,0c10.2,0,15.3,1.5,17.601,6.8v11.2c0,9.1,7.399,16.5,16.5,16.5c9.1,0,16.5-7.4,16.5-16.5
		V53.4C186.8,44.3,179.4,36.9,170.3,36.9z"/>
</g>
</svg>
