<?xml version="1.0" encoding="utf-8"?>
<!-- Generator: Adobe Illustrator 16.0.0, SVG Export Plug-In . SVG Version: 6.00 Build 0)  -->
<!DOCTYPE svg PUBLIC "-//W3C//DTD SVG 1.1//EN" "http://www.w3.org/Graphics/SVG/1.1/DTD/svg11.dtd">
<svg version="1.1" id="Layer_1" xmlns="http://www.w3.org/2000/svg" xmlns:xlink="http://www.w3.org/1999/xlink" x="0px" y="0px"
	 width="200px" height="200px" viewBox="0 0 200 200" enable-background="new 0 0 200 200" xml:space="preserve">
<g>
	<path d="M71.619,130.954c0.235-0.025,0.472-0.076,0.718-0.155c0.701,0.123,1.355,0.183,1.998,0.183h78.169
		c5.635,0,11.688-4.1,13.782-9.334l21.215-53.039c1.289-3.218,1.022-6.55-0.731-9.14c-1.749-2.586-4.741-4.069-8.209-4.069H58.051
		c-3.327,0-6.334,1.408-8.251,3.862c-1.917,2.454-2.555,5.713-1.749,8.942l13.126,52.5c0.303,1.212,0.811,2.395,1.513,3.521
		c-2.758,2.322-4.878,5.538-6.305,9.567c-1.017,2.881-1.158,7.298,1.5,11.055c1.829,2.59,5.603,5.676,13.194,5.676h94.455
		c2.878,0,5.22-2.342,5.22-5.22c0-2.879-2.342-5.222-5.22-5.222H71.079c-2.365,0-4.111-0.471-4.669-1.26
		c-0.401-0.566-0.23-1.406-0.18-1.548C68.239,131.595,71.512,130.974,71.619,130.954z M152.505,120.54H74.335
		c-1.161,0-2.747-1.237-3.029-2.364L58.222,65.84h119.142l-20.771,51.931C156.052,119.116,153.951,120.54,152.505,120.54z"/>
	<path d="M50.601,53.811c1.335-0.402,2.435-1.301,3.094-2.531c0.658-1.229,0.799-2.641,0.397-3.976l-6.453-21.353
		C44.399,13.19,35.064,9.786,30.059,9.786c-0.223,0-0.438,0.007-0.507,0.015H15.708c-2.878,0-5.22,2.342-5.22,5.22
		s2.342,5.22,5.22,5.22H29.71c1.339,0,5.863,0.612,7.872,8.503l6.515,21.578c0.67,2.22,2.678,3.711,4.996,3.711
		C49.605,54.033,50.113,53.958,50.601,53.811z"/>
	<path d="M71.079,153.111c-10.063,0-18.249,8.187-18.249,18.249c0,10.062,8.186,18.248,18.249,18.248
		c10.062,0,18.248-8.187,18.248-18.248C89.327,161.298,81.141,153.111,71.079,153.111z M71.079,179.168
		c-4.305,0-7.808-3.503-7.808-7.808c0-4.306,3.503-7.809,7.808-7.809s7.808,3.503,7.808,7.809
		C78.887,175.665,75.384,179.168,71.079,179.168z"/>
	<path d="M149.247,153.111c-10.062,0-18.248,8.187-18.248,18.249c0,10.062,8.187,18.248,18.248,18.248
		c10.063,0,18.25-8.187,18.25-18.248C167.497,161.298,159.311,153.111,149.247,153.111z M149.247,179.168
		c-4.305,0-7.808-3.503-7.808-7.808c0-4.306,3.503-7.809,7.808-7.809c4.306,0,7.809,3.503,7.809,7.809
		C157.056,175.665,153.553,179.168,149.247,179.168z"/>
</g>
</svg>
