<?xml version="1.0" encoding="utf-8"?>
<!-- Generator: Adobe Illustrator 16.0.0, SVG Export Plug-In . SVG Version: 6.00 Build 0)  -->
<!DOCTYPE svg PUBLIC "-//W3C//DTD SVG 1.1//EN" "http://www.w3.org/Graphics/SVG/1.1/DTD/svg11.dtd">
<svg version="1.1" id="圖層_1" xmlns="http://www.w3.org/2000/svg" xmlns:xlink="http://www.w3.org/1999/xlink" x="0px" y="0px"
	 width="200px" height="200px" viewBox="0 0 200 200" enable-background="new 0 0 200 200" xml:space="preserve">
<path  d="M87.027,19H23.746C21.125,19,19,21.125,19,23.746v63.281c0,2.621,2.125,4.746,4.746,4.746h63.281
	c2.621,0,4.746-2.125,4.746-4.746V23.746C91.773,21.125,89.648,19,87.027,19 M82.281,82.281H28.492V28.492h53.789V82.281z"/>
<path  d="M64.879,41.148H45.895c-2.621,0-4.746,2.125-4.746,4.746v18.984c0,2.621,2.125,4.746,4.746,4.746h18.984
	c2.621,0,4.746-2.125,4.746-4.746V45.895C69.625,43.273,67.5,41.148,64.879,41.148 M60.133,60.133h-9.492v-9.492h9.492V60.133z"/>
<path  d="M176.254,19h-63.281c-2.621,0-4.746,2.125-4.746,4.746v63.281c0,2.621,2.125,4.746,4.746,4.746h63.281
	c2.621,0,4.746-2.125,4.746-4.746V23.746C181,21.125,178.875,19,176.254,19 M171.508,82.281h-53.789V28.492h53.789V82.281z"/>
<path  d="M154.105,41.148h-18.984c-2.621,0-4.746,2.125-4.746,4.746v18.984c0,2.621,2.125,4.746,4.746,4.746h18.984
	c2.621,0,4.746-2.125,4.746-4.746V45.895C158.852,43.273,156.727,41.148,154.105,41.148 M149.359,60.133h-9.492v-9.492h9.492V60.133
	z"/>
<path  d="M87.027,108.227H23.746c-2.621,0-4.746,2.125-4.746,4.746v63.281c0,2.621,2.125,4.746,4.746,4.746h63.281
	c2.621,0,4.746-2.125,4.746-4.746v-63.281C91.773,110.352,89.648,108.227,87.027,108.227 M82.281,171.508H28.492v-53.789h53.789
	V171.508z"/>
<path  d="M64.879,130.375H45.895c-2.621,0-4.746,2.125-4.746,4.746v18.984c0,2.621,2.125,4.746,4.746,4.746h18.984
	c2.621,0,4.746-2.125,4.746-4.746v-18.984C69.625,132.5,67.5,130.375,64.879,130.375 M60.133,149.359h-9.492v-9.492h9.492V149.359z"
	/>
<path  d="M176.254,152.725h-26.895v-17.604c0-2.621-2.125-4.746-4.746-4.746s-4.746,2.125-4.746,4.746v22.35
	c0,2.622,2.125,4.746,4.746,4.746h26.895v9.291h-26.895c-2.621,0-4.746,2.125-4.746,4.746s2.125,4.746,4.746,4.746h31.641
	c2.621,0,4.746-2.125,4.746-4.746v-18.783C181,154.85,178.875,152.725,176.254,152.725"/>
<path  d="M176.254,108.227c-2.621,0-4.746,2.125-4.746,4.746v22.148c0,2.621,2.125,4.746,4.746,4.746
	s4.746-2.125,4.746-4.746v-22.148C181,110.352,178.875,108.227,176.254,108.227"/>
<path  d="M135.121,108.227h-22.148c-2.621,0-4.746,2.125-4.746,4.746v22.148c0,2.621,2.125,4.746,4.746,4.746
	s4.746-2.125,4.746-4.746v-17.402h17.402c2.621,0,4.746-2.125,4.746-4.746S137.742,108.227,135.121,108.227"/>
<path  d="M112.973,152.725c-2.621,0-4.746,2.125-4.746,4.746v18.783c0,2.621,2.125,4.746,4.746,4.746
	s4.746-2.125,4.746-4.746v-18.783C117.719,154.85,115.594,152.725,112.973,152.725"/>
</svg>
