<?xml version="1.0" encoding="utf-8"?>
<!-- Generator: Adobe Illustrator 21.1.0, SVG Export Plug-In . SVG Version: 6.00 Build 0)  -->
<svg version="1.1" id="圖層_1" xmlns="http://www.w3.org/2000/svg" xmlns:xlink="http://www.w3.org/1999/xlink" x="0px" y="0px"
	 viewBox="0 0 200 200" style="enable-background:new 0 0 200 200;" xml:space="preserve">
<g>
	<path class="st0" d="M108,174.2c-8.5,0-16.6,0-24.7,0c-0.4,0-0.7-0.1-1.1-0.3c-1.5-0.8-2.2-3.8-1.5-6.6c0.5-1.6,1.7-2.2,3.3-2.2
		c2.8,0,5.6,0,8.6,0c0-11.6,0-23.1,0-34.6c-0.1-0.1-0.2-0.2-0.3-0.2c-4.7,0.1-4.3-0.9-4.2-4.6c0.1-7.4,0-14.8,0-22.5
		c-2.5,1.4-4.9,2.6-7.4,3.9c-0.4-0.9-0.8-1.7-1.3-2.6c3-1,5.3-3.3,8.7-4.1c0,0,0-0.6,0-1.2c0-8.6,0-17.2,0-25.9c0-2.4,0.5-2.9,3-2.9
		c6.2,0,12.3,0,18.5,0c2.4,0,3,0.6,3,3c0,10.5,0,21,0,31.5c0,1.4,0.3,2.1,1.7,2.4c2.1,0.5,4.2,1.1,6.5,1.7c-0.1,0.7-0.2,1.5-0.4,2.7
		c-2.6-0.6-5.1-1.2-7.8-1.8c0,2.8,0,5.6,0,8.3c0,2.9,0,5.8,0,8.7c0,2.9-0.4,3.3-3.4,3.4c-0.4,0-0.7,0-1.3,0.1
		C108,145,108,159.5,108,174.2z"/>
	<path class="st0" d="M68.7,108.5c2.6-0.8,4.9-1.5,7.5-2.3c0.3,0.8,0.7,1.6,1.1,2.6c-2.9,0.9-5.6,1.7-8.6,2.7c0,2.6,0,5.4,0,8.1
		c0,2.5,0,5,0,7.5c0,2.8-0.4,3.1-3.1,3.2c-0.4,0-0.9,0-1.5,0.1c0,14.6,0,29.1,0,43.8c-0.9,0-1.5,0-2.2,0c-7.2,0-14.3,0-21.5,0
		c-2.7,0-3.5-0.8-3.5-3.5c-0.1-5.4,0.2-5.6,5.6-5.6c2.1,0,4.2,0,6.5,0c0-11.6,0-23.1,0-34.7c-0.5,0-1.1-0.1-1.6-0.1
		c-2.5-0.1-3.1-0.6-3.1-3.2c0-5,0-9.9,0-14.9c0-1.5,0.1-2.9-2.3-2.8c0.9-1.1,0.3-2.7,2.1-2.8c0.1,0,0.2-1,0.2-1.6
		c0-10.3,0-20.6,0-30.9c0-3.4,0.3-3.7,3.8-3.7c5.9,0,11.7,0,17.6,0c2.7,0,3.1,0.5,3.1,3.2c0,10.8,0,21.5,0,32.3
		C68.7,106.6,68.7,107.3,68.7,108.5z"/>
	<path class="st0" d="M152,174.2c-8.4,0-16.4,0-24.5,0c-1.7,0-2.6-1-2.8-2.7c0-0.1,0-0.1,0-0.2c0-4.6-0.8-6.5,5.8-6.2
		c2.1,0.1,4.1,0,6.3,0c0-11.7,0-23.1,0-34.6c-4.7-0.7-4.7-0.7-4.7-5.4c0-4.2,0-8.4,0-12.9c-2.6,0-5,0-7.5,0c0-1,0-1.8,0-2.9
		c2.5,0,4.9,0,7.5,0c0-1,0-1.7,0-2.5c0-11.1,0-22.1,0-33.2c0-2.8,0.5-3.3,3.3-3.3c6.1,0,12.2,0,18.3,0c2.4,0,2.9,0.5,2.9,2.9
		c0,7.8,0.1,15.6,0.1,23.4c0,2.1-0.1,4.2,1.1,5.3c-0.4,1.8-1,3.1-1,4.4c-0.1,6.8,0,13.6,0,20.4c0,3.3-0.2,3.6-3.5,3.6
		c-0.3,0-0.6,0-1.1,0.1C152,145,152,159.5,152,174.2z"/>
	<path class="st0" d="M144,26.4c10.4,0,18.9,8.4,18.9,18.8c0,10.4-8.4,18.8-18.8,18.8c-10.4,0-18.8-8.3-18.8-18.6
		C125.2,34.8,133.5,26.4,144,26.4z"/>
	<path class="st0" d="M100,26.4c10.4,0,18.8,8.3,18.8,18.8c0,10.5-8.3,18.8-18.7,18.8c-10.5,0-18.8-8.3-18.8-18.7
		C81.2,34.8,89.6,26.4,100,26.4z"/>
	<path class="st0" d="M56,64c-9.7,0.5-19-9.6-18.8-18.8c0.2-10.4,8.5-18.8,18.9-18.7c10.4,0,18.9,8.5,18.8,18.9
		C74.9,55.7,66.4,64,56,64z"/>
	<path class="st0" d="M26.9,137.6c0,10.7,0,21.4,0,32.1c0,1.2-0.2,2.4-0.5,3.5c-0.1,0.4-0.7,0.9-1,0.9c-0.4,0-0.9-0.5-1-0.9
		c-0.3-1.2-0.5-2.5-0.5-3.7c0-21.5,0-43,0-64.5c0-1.3-0.1-2.2-1.6-2.9c-2.5-1.2-3.5-4.1-2.7-6.8c0.7-2.7,3.1-4.4,5.9-4.4
		c2.7,0,5.1,1.8,5.8,4.2c0.8,2.7-0.2,5.7-2.7,7c-1.4,0.7-1.6,1.6-1.6,3C26.9,115.8,26.9,126.7,26.9,137.6z"/>
	<path class="st0" d="M162.5,137.5c0-10.9,0-21.9,0-32.8c0-1.2-0.2-2-1.5-2.6c-2.6-1.2-3.7-4.1-3-6.9c0.7-2.6,3.1-4.4,5.9-4.4
		c2.9,0,5.1,1.8,5.9,4.6c0.7,2.6-0.4,5.5-2.9,6.7c-1.3,0.6-1.4,1.5-1.4,2.7c0,21.7,0,43.4,0,65.1c0,1.1-0.2,2.2-0.5,3.3
		c-0.1,0.4-0.7,0.9-1,0.9c-0.4,0-0.9-0.5-1-0.9c-0.3-1.1-0.5-2.2-0.5-3.3C162.5,159.1,162.5,148.3,162.5,137.5z"/>
	<path class="st0" d="M39.6,105.3c-0.4,0.8-0.7,1.5-1.2,2.6c-2.7-1.5-5.3-3-8.1-4.6c0.7-0.9,1.2-1.6,1.7-2.4
		C34.6,102.4,37,103.8,39.6,105.3z"/>
	<path class="st0" d="M178.4,105.3c-0.4,0.8-0.8,1.6-1.2,2.6c-2.7-1.6-5.3-3.1-8-4.6c0.5-0.9,1-1.5,1.5-2.4
		C173.2,102.3,175.7,103.8,178.4,105.3z"/>
	<path class="st0" d="M180.8,109.5c0.4-1.1,0.7-1.9,1-2.7c2.8,0.8,5.6,1.5,8.5,2.3c-0.1,0.8-0.2,1.6-0.4,2.8
		C186.8,111.1,183.9,110.3,180.8,109.5z"/>
	<path class="st0" d="M18.1,100.4c0.5,0.8,1,1.5,1.5,2.4c-2.7,1.5-5.3,2.9-8.1,4.5c-0.5-0.9-0.8-1.7-1.3-2.5
		C12.8,103.3,15.3,101.9,18.1,100.4z"/>
</g>
</svg>
