<?xml version="1.0" encoding="utf-8"?>
<!-- Generator: Adobe Illustrator 16.0.0, SVG Export Plug-In . SVG Version: 6.00 Build 0)  -->
<!DOCTYPE svg PUBLIC "-//W3C//DTD SVG 1.1//EN" "http://www.w3.org/Graphics/SVG/1.1/DTD/svg11.dtd">
<svg version="1.1" id="圖層_1" xmlns="http://www.w3.org/2000/svg" xmlns:xlink="http://www.w3.org/1999/xlink" x="0px" y="0px"
	 width="200px" height="200px" viewBox="0 0 200 200" enable-background="new 0 0 200 200" xml:space="preserve">
<path d="M70.846,75.123H38.53c-8.712,0-15.841,7.129-15.841,15.843v40.528c0,8.134,6.22,14.881,14.134,15.745v38.923h7.825
	l0.028-46.646H38.53c-4.417,0-8.016-3.604-8.016-8.021V90.966c0-4.42,3.598-8.019,8.016-8.019h32.316
	c4.417,0,8.021,3.598,8.021,8.019v40.528c0,4.418-3.604,8.021-8.021,8.021H64.71l0.022,46.646h7.825v-38.923
	c7.915-0.864,14.134-7.611,14.134-15.745V90.966C86.691,82.252,79.563,75.123,70.846,75.123"/>
<path d="M54.685,23.228c-11.873,0-21.488,9.615-21.488,21.479c0,11.858,9.615,21.477,21.488,21.477
	c11.889,0,21.499-9.618,21.499-21.477C76.184,32.843,66.574,23.228,54.685,23.228 M54.685,58.359
	c-7.533,0-13.663-6.127-13.663-13.652c0-7.536,6.13-13.657,13.663-13.657c7.544,0,13.674,6.122,13.674,13.657
	C68.359,52.232,62.229,58.359,54.685,58.359"/>
<path d="M103.01,23.228c-11.872,0-21.488,9.615-21.488,21.479c0,11.858,9.616,21.477,21.488,21.477
	c11.878,0,21.499-9.618,21.499-21.477C124.509,32.843,114.888,23.228,103.01,23.228 M103.01,58.359
	c-7.539,0-13.668-6.127-13.668-13.652c0-7.536,6.129-13.657,13.668-13.657s13.668,6.122,13.668,13.657
	C116.678,52.232,110.549,58.359,103.01,58.359"/>
<path d="M112.463,75.123H96.302v7.825h16.161c4.423,0,8.021,3.598,8.021,8.019v40.522c0,4.424-3.599,8.027-8.021,8.027h-6.142
	l0.028,46.646h7.825v-38.923c7.915-0.864,14.134-7.611,14.134-15.751V90.966C128.309,82.252,121.175,75.123,112.463,75.123"/>
<path d="M149.797,23.228c-11.872,0-21.488,9.615-21.488,21.479c0,11.858,9.616,21.477,21.488,21.477
	c11.878,0,21.493-9.618,21.493-21.477C171.29,32.843,161.675,23.228,149.797,23.228 M149.797,58.359
	c-7.539,0-13.663-6.127-13.663-13.652c0-7.536,6.124-13.657,13.663-13.657c7.538,0,13.668,6.122,13.668,13.657
	C163.465,52.232,157.335,58.359,149.797,58.359"/>
<path d="M159.249,75.123h-16.16v7.825h16.16c4.418,0,8.017,3.598,8.017,8.019v40.522c0,4.424-3.599,8.027-8.017,8.027h-6.141
	l0.028,46.646h7.825v-38.923c7.914-0.864,14.128-7.611,14.128-15.751V90.966C175.09,82.252,167.961,75.123,159.249,75.123"/>
</svg>
