<?xml version="1.0" encoding="utf-8"?>
<!-- Generator: Adobe Illustrator 16.0.0, SVG Export Plug-In . SVG Version: 6.00 Build 0)  -->
<!DOCTYPE svg PUBLIC "-//W3C//DTD SVG 1.1//EN" "http://www.w3.org/Graphics/SVG/1.1/DTD/svg11.dtd">
<svg version="1.1" id="圖層_1" xmlns="http://www.w3.org/2000/svg" xmlns:xlink="http://www.w3.org/1999/xlink" x="0px" y="0px"
	 width="200px" height="200px" viewBox="0 0 200 200" enable-background="new 0 0 200 200" xml:space="preserve">
<path d="M100.891,31.086c15.574,0,30.277,5.062,42.278,14.238L124.166,64.33l53.198,9.98l-9.978-53.198l-14.739,14.735
	C138.116,24.222,120.057,17.78,100.9,17.78c-45.824,0-83.115,37.289-83.115,83.111h13.3C31.084,62.402,62.405,31.086,100.891,31.086
	"/>
<path d="M170.697,100.893c0,38.495-31.312,69.825-69.806,69.825c-15.422,0-30.223-5.093-42.269-14.245l19.002-19.008l-53.189-9.968
	l9.966,53.193l14.778-14.775c14.579,11.614,32.726,18.096,51.72,18.096c45.825,0,83.104-37.289,83.104-83.109h-13.307V100.893z"/>
</svg>
