<?xml version="1.0" encoding="utf-8"?>
<!-- Generator: Adobe Illustrator 16.0.0, SVG Export Plug-In . SVG Version: 6.00 Build 0)  -->
<!DOCTYPE svg PUBLIC "-//W3C//DTD SVG 1.1//EN" "http://www.w3.org/Graphics/SVG/1.1/DTD/svg11.dtd">
<svg version="1.1" id="Calque_1" xmlns="http://www.w3.org/2000/svg" xmlns:xlink="http://www.w3.org/1999/xlink" x="0px" y="0px"
	 width="200px" height="200px" viewBox="0 0 200 200" enable-background="new 0 0 200 200" xml:space="preserve">
<g>
	<path d="M89.083,108.781V29.284c-43.271,0.758-78.117,36.047-78.117,79.497c0,43.449,34.846,78.742,78.117,79.501
		c0.474,0.009,0.941,0.038,1.419,0.038c43.926,0,79.535-35.613,79.535-79.539H89.083z M78.812,40.54v20.506h-38.23
		C50.646,50.533,63.916,43.107,78.812,40.54z M32.452,71.319H78.81v16.95H24.444C26.347,82.229,29.055,76.542,32.452,71.319z
		 M21.239,108.781c0-3.481,0.326-6.886,0.833-10.239h56.74v10.239v1.896l-5.932,4.813H21.572
		C21.355,113.28,21.239,111.044,21.239,108.781z M33.305,147.612c-4.5-6.579-7.908-13.95-9.928-21.849h36.849L33.305,147.612z
		 M90.502,178.047c-0.168,0-0.33-0.009-0.493-0.018l-0.744-0.021c-19.521-0.341-37.134-8.93-49.553-22.366l45.079-36.589h74.215
		C154.027,152.394,125.204,178.047,90.502,178.047z"/>
	<path d="M109.498,11.68c-0.48,0-0.946,0.027-1.421,0.036v79.5h80.956C189.033,47.288,153.424,11.68,109.498,11.68z
		 M118.35,22.516c30.653,3.926,55.104,27.969,59.652,58.427H118.35V22.516z"/>
</g>
</svg>
