<?xml version="1.0" encoding="utf-8"?>
<!-- Generator: Adobe Illustrator 21.1.0, SVG Export Plug-In . SVG Version: 6.00 Build 0)  -->
<svg version="1.1" id="圖層_1" xmlns="http://www.w3.org/2000/svg" xmlns:xlink="http://www.w3.org/1999/xlink" x="0px" y="0px"
	 viewBox="0 0 200 200" style="enable-background:new 0 0 200 200;" xml:space="preserve">
<g>
	<g>
		<g>
			<path class="st0" d="M175.2,33.4h-3v-15c0-5-4-9-9-9h-6c-5,0-9,4-9,9v15h-96v-15c0-5-4-9-9-9h-6c-5,0-9,4-9,9v15h-3
				c-8.3,0-15,6.7-15,15v126c0,8.3,6.7,15,15,15h150c8.3,0,15-6.7,15-15v-126C190.2,40.1,183.4,33.4,175.2,33.4z M154.2,36.4v-18
				c0-1.7,1.3-3,3-3h6c1.7,0,3,1.3,3,3v18v12c0,1.7-1.3,3-3,3h-6c-1.7,0-3-1.3-3-3V36.4z M34.2,36.4v-18c0-1.7,1.3-3,3-3h6
				c1.7,0,3,1.3,3,3v18v12c0,1.7-1.3,3-3,3h-6c-1.7,0-3-1.3-3-3V36.4z M184.2,174.4c0,5-4,9-9,9h-150c-5,0-9-4-9-9v-87h168V174.4z
				 M184.2,81.4h-168v-33c0-5,4-9,9-9h3v9c0,5,4,9,9,9h6c5,0,9-4,9-9v-9h96v9c0,5,4,9,9,9h6c5,0,9-4,9-9v-9h3c5,0,9,4,9,9V81.4z"/>
		</g>
	</g>
	<g>
		<g>
			<path class="st0" d="M133.2,48.4h-66c-1.7,0-3,1.3-3,3v18c0,1.7,1.3,3,3,3h66c1.7,0,3-1.3,3-3v-18
				C136.2,49.7,134.8,48.4,133.2,48.4z M130.2,66.4h-60v-12h60V66.4z"/>
		</g>
	</g>
	<g>
		<g>
			<path class="st0" d="M49.2,96.4h-18c-1.7,0-3,1.3-3,3v15c0,1.7,1.3,3,3,3h18c1.7,0,3-1.3,3-3v-15C52.2,97.7,50.8,96.4,49.2,96.4z
				 M46.2,111.4h-12v-9h12V111.4z"/>
		</g>
	</g>
	<g>
		<g>
			<path class="st0" d="M88.2,96.4h-18c-1.7,0-3,1.3-3,3v15c0,1.7,1.3,3,3,3h18c1.7,0,3-1.3,3-3v-15C91.2,97.7,89.8,96.4,88.2,96.4z
				 M85.2,111.4h-12v-9h12V111.4z"/>
		</g>
	</g>
	<g>
		<g>
			<path class="st0" d="M130.2,96.4h-18c-1.7,0-3,1.3-3,3v15c0,1.7,1.3,3,3,3h18c1.7,0,3-1.3,3-3v-15
				C133.2,97.7,131.8,96.4,130.2,96.4z M127.2,111.4h-12v-9h12V111.4z"/>
		</g>
	</g>
	<g>
		<g>
			<path class="st0" d="M169.2,96.4h-18c-1.7,0-3,1.3-3,3v15c0,1.7,1.3,3,3,3h18c1.7,0,3-1.3,3-3v-15
				C172.2,97.7,170.8,96.4,169.2,96.4z M166.2,111.4h-12v-9h12V111.4z"/>
		</g>
	</g>
	<g>
		<g>
			<path class="st0" d="M49.2,126.4h-18c-1.7,0-3,1.3-3,3v15c0,1.7,1.3,3,3,3h18c1.7,0,3-1.3,3-3v-15
				C52.2,127.7,50.8,126.4,49.2,126.4z M46.2,141.4h-12v-9h12V141.4z"/>
		</g>
	</g>
	<g>
		<g>
			<path class="st0" d="M88.2,126.4h-18c-1.7,0-3,1.3-3,3v15c0,1.7,1.3,3,3,3h18c1.7,0,3-1.3,3-3v-15
				C91.2,127.7,89.8,126.4,88.2,126.4z M85.2,141.4h-12v-9h12V141.4z"/>
		</g>
	</g>
	<g>
		<g>
			<path class="st0" d="M130.2,126.4h-18c-1.7,0-3,1.3-3,3v15c0,1.7,1.3,3,3,3h18c1.7,0,3-1.3,3-3v-15
				C133.2,127.7,131.8,126.4,130.2,126.4z M127.2,141.4h-12v-9h12V141.4z"/>
		</g>
	</g>
	<g>
		<g>
			<path class="st0" d="M169.2,126.4h-18c-1.7,0-3,1.3-3,3v15c0,1.7,1.3,3,3,3h18c1.7,0,3-1.3,3-3v-15
				C172.2,127.7,170.8,126.4,169.2,126.4z M166.2,141.4h-12v-9h12V141.4z"/>
		</g>
	</g>
	<g>
		<g>
			<path class="st0" d="M49.2,156.4h-18c-1.7,0-3,1.3-3,3v15c0,1.7,1.3,3,3,3h18c1.7,0,3-1.3,3-3v-15
				C52.2,157.7,50.8,156.4,49.2,156.4z M46.2,171.4h-12v-9h12V171.4z"/>
		</g>
	</g>
	<g>
		<g>
			<path class="st0" d="M88.2,156.4h-18c-1.7,0-3,1.3-3,3v15c0,1.7,1.3,3,3,3h18c1.7,0,3-1.3,3-3v-15
				C91.2,157.7,89.8,156.4,88.2,156.4z M85.2,171.4h-12v-9h12V171.4z"/>
		</g>
	</g>
	<g>
		<g>
			<path class="st0" d="M130.9,154.5L118,169.9l-6.7-6.7l-4.2,4.2l9,9c0.6,0.6,1.3,0.9,2.1,0.9c0,0,0.1,0,0.1,0
				c0.8,0,1.6-0.4,2.2-1.1l15-18L130.9,154.5z"/>
		</g>
	</g>
	<g>
		<g>
			<path class="st0" d="M166.9,154.5L154,169.9l-6.7-6.7l-4.2,4.2l9,9c0.6,0.6,1.3,0.9,2.1,0.9c0,0,0.1,0,0.1,0
				c0.8,0,1.6-0.4,2.2-1.1l15-18L166.9,154.5z"/>
		</g>
	</g>
</g>
</svg>
