<?xml version="1.0" encoding="utf-8"?>
<!-- Generator: Adobe Illustrator 16.0.0, SVG Export Plug-In . SVG Version: 6.00 Build 0)  -->
<!DOCTYPE svg PUBLIC "-//W3C//DTD SVG 1.1//EN" "http://www.w3.org/Graphics/SVG/1.1/DTD/svg11.dtd">
<svg version="1.1" id="圖層_1" xmlns="http://www.w3.org/2000/svg" xmlns:xlink="http://www.w3.org/1999/xlink" x="0px" y="0px"
	 width="200px" height="200px" viewBox="0 0 200 200" enable-background="new 0 0 200 200" xml:space="preserve">
<path  d="M176.149,21.06c-1.338-1.337-3.507-1.338-4.846,0l-35.525,35.524c-1.338,1.338-1.338,3.507,0,4.846
	c0.669,0.668,1.546,1.003,2.423,1.003s1.754-0.334,2.424-1.003l35.524-35.524C177.488,24.567,177.488,22.398,176.149,21.06"/>
<path  d="M185.81,30.568c-1.339-1.337-3.507-1.337-4.845,0L145.44,66.093c-1.339,1.338-1.339,3.507-0.001,4.846
	c0.67,0.669,1.546,1.003,2.424,1.003c0.875,0,1.754-0.334,2.422-1.003l35.524-35.525C187.148,34.075,187.148,31.906,185.81,30.568"
	/>
<path  d="M152.297,90.557l44.099-44.1c1.339-1.338,1.339-3.507,0-4.845c-1.338-1.337-3.507-1.338-4.845,0
	l-44.099,44.099c-5.433,5.433-13.741,6.858-20.671,3.548c-1.38-0.658-3.026-0.325-4.039,0.817l-14.984,16.882
	c-0.006,0.007-0.013,0.013-0.019,0.02c-0.007,0.006-0.011,0.013-0.017,0.021l-64.763,72.964c-0.017,0.019-0.033,0.038-0.049,0.057
	c-0.213,0.251-0.415,0.472-0.619,0.676c-4.276,4.275-11.234,4.275-15.508,0c-2.071-2.07-3.212-4.824-3.212-7.754
	s1.141-5.684,3.216-7.759c0.199-0.2,0.419-0.4,0.672-0.616c0.02-0.015,0.039-0.032,0.057-0.049l40.487-35.936
	c1.416-1.257,1.544-3.423,0.289-4.837c-1.256-1.416-3.422-1.546-4.837-0.289l-40.461,35.913c-0.387,0.33-0.733,0.649-1.056,0.973
	c-3.366,3.365-5.219,7.839-5.219,12.6c0,4.759,1.854,9.233,5.218,12.599c3.475,3.475,8.037,5.212,12.601,5.211
	c4.562,0,9.125-1.736,12.597-5.208c0.329-0.329,0.648-0.676,0.976-1.059l49.351-55.603l49.352,55.604
	c0.327,0.383,0.646,0.729,0.973,1.056c3.474,3.474,8.037,5.211,12.6,5.211s9.125-1.737,12.601-5.212
	c6.945-6.946,6.945-18.249,0.002-25.195c-0.328-0.33-0.677-0.647-1.059-0.975l-56.789-50.405l11.111-12.519
	C135.253,99.636,145.438,97.415,152.297,90.557 M167.406,164.518c0.02,0.018,0.037,0.034,0.057,0.05
	c0.251,0.214,0.471,0.415,0.676,0.619c4.274,4.276,4.274,11.233,0,15.508c-4.276,4.275-11.233,4.275-15.511-0.002
	c-0.202-0.202-0.404-0.422-0.618-0.673c-0.016-0.021-0.032-0.038-0.049-0.058l-49.92-56.241l8.549-9.632L167.406,164.518z"/>
<path  d="M165.865,11.081c-1.339-1.337-3.508-1.337-4.846,0l-44.098,44.1c-6.86,6.858-9.081,17.043-5.892,26.047
	L97.46,93.273L84.418,81.697C91.163,68.426,88.701,52.313,78,41.612C67.373,30.985,55.063,23.506,43.339,20.554
	C31.1,17.473,20.607,19.53,13.79,26.347c-6.817,6.817-8.875,17.312-5.793,29.551c2.952,11.723,10.431,24.032,21.059,34.66
	c10.7,10.701,26.813,13.163,40.085,6.418c0,0,12.754,14.369,12.916,14.552c0.677,0.762,1.618,1.151,2.564,1.151
	c0.809,0,1.621-0.285,2.273-0.864l30.508-27.079c1.142-1.013,1.475-2.661,0.817-4.039c-3.311-6.932-1.885-15.238,3.548-20.67
	l44.099-44.099C167.204,14.588,167.204,12.419,165.865,11.081 M84.907,104.416L72.435,90.365c-1.104-1.244-2.945-1.517-4.361-0.642
	c-10.985,6.773-25.038,5.125-34.174-4.011c-9.765-9.765-16.604-20.947-19.259-31.488c-2.469-9.807-1.05-17.987,3.994-23.031
	c5.044-5.045,13.224-6.463,23.03-3.994c10.542,2.654,21.724,9.494,31.489,19.258c9.136,9.136,10.785,23.188,4.011,34.173
	c-0.874,1.417-0.603,3.256,0.642,4.361l14.492,12.863L84.907,104.416z"/>
</svg>
