<?xml version="1.0" encoding="utf-8"?>
<!-- Generator: Adobe Illustrator 16.0.0, SVG Export Plug-In . SVG Version: 6.00 Build 0)  -->
<!DOCTYPE svg PUBLIC "-//W3C//DTD SVG 1.1//EN" "http://www.w3.org/Graphics/SVG/1.1/DTD/svg11.dtd">
<svg version="1.1" id="圖層_1" xmlns="http://www.w3.org/2000/svg" xmlns:xlink="http://www.w3.org/1999/xlink" x="0px" y="0px"
	 width="200px" height="200px" viewBox="0 0 200 200" enable-background="new 0 0 200 200" xml:space="preserve">
<path d="M104.134,5c4.213,1.843,8.104,4.041,10.474,8.277c3.409,6.095,2.355,11.75-1.579,17.259
	c39.44,9.433,61.651,34.126,66.769,74.722c3.21,0,6.709-0.166,10.18,0.071c1.701,0.115,3.351,0.979,5.023,1.504v3.134
	c-1.153,0.519-2.424,1.646-3.438,1.45c-4.205-0.813-6.462,1.834-8.934,4.354c-4.022,4.098-7.996,8.257-12.242,12.115
	c-1.389,1.261-3.556,2.348-5.373,2.353c-43.197,0.13-86.396,0.124-129.594,0.003c-1.693-0.004-3.776-1.018-5.003-2.238
	c-4.436-4.415-8.658-9.055-12.803-13.749c-1.666-1.886-3.325-2.956-5.988-2.828c-1.515,0.073-3.082-0.937-4.626-1.459
	c0-1.044,0-2.088,0-3.134c2.585-0.522,5.149-1.235,7.759-1.513c2.437-0.26,4.922-0.056,7.435-0.056
	C27.136,64.958,49.24,40.16,88.603,30.629c0.011-0.068,0.147-0.347,0.059-0.494c-6.261-10.563-3.091-19.963,8.261-24.493
	c0.344-0.138,0.63-0.425,0.943-0.643H104.134z M29.143,104.961H172.84c-1.232-36.167-30.554-68.295-71.295-68.59
	C60.455,36.074,30.393,68.241,29.143,104.961 M178.303,111.896H23.938c3.656,3.934,6.761,7.46,10.104,10.746
	c0.875,0.859,2.488,1.364,3.763,1.366c41.76,0.069,83.521,0.064,125.281,0.021c1.087-0.001,2.463-0.213,3.211-0.878
	C170.153,119.721,173.849,116.11,178.303,111.896 M101.004,11.274c-5.559,0.004-9.342,3.743-9.394,9.281
	c-0.052,5.681,3.889,9.59,9.579,9.502c5.51-0.085,9.247-3.936,9.203-9.482C110.349,15.065,106.518,11.27,101.004,11.274"/>
<path d="M7,138.167c1.674-0.521,3.34-1.465,5.022-1.495c8.605-0.153,17.214-0.073,25.822-0.072c6.328,0.002,6.328,0.003,7.107,6.267
	c5.143,0,10.336-0.019,15.528,0.003c15.478,0.066,28.712,5.447,39.726,16.436c1.354,1.349,3.753,2.208,5.714,2.303
	c13.71,0.664,27.341,1.803,40.38,6.424c3.886,1.377,7.605,3.391,11.122,5.563c1.911,1.182,3.583,3.103,4.763,5.052
	c3.209,5.31,1.577,8.083-4.488,8.084c-36.127,0.004-72.253,0.002-108.379,0.003c-1.42,0-2.841,0-3.935,0
	c-0.868,2.316-1.608,4.291-2.348,6.268H7C7,174.723,7,156.443,7,138.167 M93.225,161.667
	c-14.489-13.481-31.334-13.174-48.322-12.274v30.755h110.699c0.138-0.357,0.277-0.716,0.416-1.073
	c-3.148-1.668-6.121-4.049-9.477-4.868c-8.949-2.188-18.005-4.785-27.121-5.266c-18.998-1-38.063-0.746-57.099-0.983
	c-2.444-0.03-5.146,0.029-5.059-3.3c0.08-3.035,2.638-3.005,4.951-3C72.236,161.681,82.259,161.667,93.225,161.667 M38.065,143.172
	H13.476v43.373h24.589V143.172z"/>
<path d="M104.113,52.088c-0.469,2.747-2.417,3.025-4.667,3.093c-12.859,0.389-24.234,4.723-33.775,13.374
	c-3.063,2.778-5.617,6.139-8.276,9.338c-1.46,1.756-2.913,3.28-5.184,1.531c-2.039-1.57-1.296-3.387-0.013-5.131
	c11.797-16.04,27.64-24.503,47.525-25.421C102.089,48.761,103.846,49.417,104.113,52.088"/>
</svg>
