<?xml version="1.0" encoding="utf-8"?>
<!-- Generator: Adobe Illustrator 16.0.0, SVG Export Plug-In . SVG Version: 6.00 Build 0)  -->
<!DOCTYPE svg PUBLIC "-//W3C//DTD SVG 1.1//EN" "http://www.w3.org/Graphics/SVG/1.1/DTD/svg11.dtd">
<svg version="1.1" id="圖層_1" xmlns="http://www.w3.org/2000/svg" xmlns:xlink="http://www.w3.org/1999/xlink" x="0px" y="0px"
	 width="200px" height="200px" viewBox="0 0 200 200" enable-background="new 0 0 200 200" xml:space="preserve">
<path  d="M170.107,182.43L158.684,66.712c-0.241-2.443-2.296-4.304-4.751-4.304h-21.363v-18.88
	c0-17.958-14.607-32.564-32.561-32.564c-17.956,0-32.562,14.606-32.562,32.564v18.88H46.081c-2.454,0-4.507,1.86-4.75,4.303
	l-11.489,116.39c-0.133,1.344,0.308,2.678,1.213,3.674c0.904,1.002,2.191,1.57,3.538,1.57h130.833h0.047
	c2.637,0,4.772-2.139,4.772-4.773C170.244,183.178,170.198,182.795,170.107,182.43 M76.995,43.528
	c0-12.689,10.324-23.017,23.013-23.017c12.691,0,23.015,10.328,23.015,23.017v18.88H76.995V43.528z M50.407,71.957h17.039v9.66
	c0,2.634,2.138,4.773,4.774,4.773c2.637,0,4.774-2.14,4.774-4.773v-9.66h46.028v9.66c0,2.634,2.137,4.773,4.772,4.773
	c2.637,0,4.773-2.14,4.773-4.773v-9.66h17.038l8.687,87.989H41.72L50.407,71.957z M39.86,178.801l0.918-9.307h118.46l0.919,9.307
	H39.86z"/>
</svg>
