<?xml version="1.0" encoding="utf-8"?>
<!-- Generator: Adobe Illustrator 16.0.0, SVG Export Plug-In . SVG Version: 6.00 Build 0)  -->
<!DOCTYPE svg PUBLIC "-//W3C//DTD SVG 1.1//EN" "http://www.w3.org/Graphics/SVG/1.1/DTD/svg11.dtd">
<svg version="1.1" id="圖層_1" xmlns="http://www.w3.org/2000/svg" xmlns:xlink="http://www.w3.org/1999/xlink" x="0px" y="0px"
	 width="200px" height="200px" viewBox="0 0 200 200" enable-background="new 0 0 200 200" xml:space="preserve">
<path d="M16.642,191.768c1.214-9.498,2.519-18.986,3.625-28.498c2.609-22.427,5.12-44.863,7.678-67.295
	c1.608-14.104,3.231-28.206,4.886-42.655H62.04c0.232-4.161,0.303-8.001,0.685-11.809C64.65,22.314,80.711,8.221,100.549,8.233
	c18.818,0.011,34.845,14.491,36.725,33.277c0.373,3.716,0.415,7.466,0.629,11.56h29.171c1.051,8.731,2.103,17.126,3.066,25.532
	c2.898,25.327,5.764,50.657,8.635,75.988c1.3,11.457,2.572,22.915,3.888,34.37c0.108,0.95,0.459,1.872,0.696,2.808H16.642z
	 M25.821,183.854h148.353c-4.694-41.104-9.356-81.924-14.024-122.796h-22.238c-0.342,3.868-0.837,7.339,2.139,10.617
	c2.48,2.732,1.491,7.558-1.288,9.869c-2.788,2.317-7.436,2.303-10.131-0.03c-2.74-2.374-3.772-7.284-1.31-9.865
	c3.145-3.295,2.23-6.797,2.048-10.468H70.542c-0.186,4.008-0.671,7.53,2.297,10.826c2.344,2.604,1.198,7.215-1.491,9.523
	c-2.855,2.451-7.608,2.332-10.39-0.259c-2.57-2.395-3.415-7-0.996-9.618c3.021-3.269,2.456-6.747,2.127-10.601H39.853
	C35.189,101.864,30.535,142.604,25.821,183.854 M129.111,53.037c2.497-13.343-2.7-25.798-13.346-32.474
	c-10.081-6.322-23.576-5.866-32.926,0.968c-10.517,7.686-14.227,19.412-11.811,31.506H129.111z"/>
</svg>
