<?xml version="1.0" encoding="utf-8"?>
<!-- Generator: Adobe Illustrator 16.0.0, SVG Export Plug-In . SVG Version: 6.00 Build 0)  -->
<!DOCTYPE svg PUBLIC "-//W3C//DTD SVG 1.1//EN" "http://www.w3.org/Graphics/SVG/1.1/DTD/svg11.dtd">
<svg version="1.1" id="Layer_1" xmlns="http://www.w3.org/2000/svg" xmlns:xlink="http://www.w3.org/1999/xlink" x="0px" y="0px"
	 width="200px" height="200px" viewBox="0 0 200 200" enable-background="new 0 0 200 200" xml:space="preserve">
<g>
	<path d="M177.227,92.56l0.415,0.437l0.118,0.158l0.256,0.298l0.195,0.287c0.283,0.36,0.522,0.718,0.718,1.12l0.021,0.02
		l0.179,0.344l0.159,0.323c0.175,0.431,0.334,0.852,0.453,1.293l0.066,0.165l0.181,0.848l0.111,0.911l0.041,0.58v0.026v0.477v0.04
		l-0.041,0.575l-0.111,0.912l-0.181,0.848l-0.066,0.171c-0.114,0.435-0.277,0.86-0.453,1.271l-0.159,0.332l-0.179,0.334l-0.021,0.03
		c-0.195,0.38-0.435,0.761-0.718,1.118l-0.195,0.287l-0.256,0.287l-0.118,0.146l-0.415,0.45l-79.648,79.648
		c-3.889,3.879-10.184,3.879-14.079,0c-3.889-3.9-3.889-10.2,0-14.09l62.663-62.654H29.175c-5.5,0-9.948-4.457-9.948-9.947
		c0-5.501,4.449-9.96,9.948-9.96h116.984L83.5,26.992c-3.889-3.878-3.889-10.196,0-14.081c3.891-3.878,10.182-3.878,14.079,0
		l79.472,79.467L177.227,92.56L177.227,92.56z M180.139,99.357v0.247v0.225V99.357z"/>
</g>
</svg>
