<?xml version="1.0" encoding="utf-8"?>
<!-- Generator: Adobe Illustrator 16.0.0, SVG Export Plug-In . SVG Version: 6.00 Build 0)  -->
<!DOCTYPE svg PUBLIC "-//W3C//DTD SVG 1.1//EN" "http://www.w3.org/Graphics/SVG/1.1/DTD/svg11.dtd">
<svg version="1.1" id="圖層_1" xmlns="http://www.w3.org/2000/svg" xmlns:xlink="http://www.w3.org/1999/xlink" x="0px" y="0px"
	 width="200px" height="200px" viewBox="0 0 200 200" enable-background="new 0 0 200 200" xml:space="preserve">
<path d="M172.734,89.173c4.709-24.785-2.604-39.262-9.739-47.133c3.893-3.573,5.853-8.201,5.353-12.87
	c-0.477-4.479-3.19-8.495-7.077-10.473c-7.646-3.904-13.103-1.595-15.673,0.118c-3.651,2.449-5.968,6.675-6.296,11.191
	c-2.145-0.319-4.484-0.523-6.997-0.523c-11.486,0-26.4,4.191-40.578,20.712C66.59,79.5,61.036,103.98,37.205,107.824
	c-5.652,0.123-9.199,1.707-10.723,4.834c-2.489,5.109,1.564,12.006,12.378,21.078c0.586,0.494,1.299,0.73,2.006,0.73
	c0.897,0,1.782-0.377,2.403-1.113c1.11-1.324,0.938-3.303-0.391-4.41c-10.067-8.441-11.171-12.717-10.769-13.547
	c0.264-0.553,2.495-1.838,9.509-1.148c1.363,0.137,2.57-0.635,3.116-1.801c14.195-4.758,22.261-16.798,31.955-31.297
	c5.405-8.089,11.527-17.257,19.784-26.881c10.556-12.301,22.606-18.527,35.829-18.527c9.947,0,17.007,3.674,17.053,3.697
	l0.299,0.152l0.253,0.112c0.978,0.422,23.803,10.786,16.68,48.306c-2.507,13.151-6.238,23.921-9.533,33.421
	c-4.743,13.695-8.79,24.693-6.767,36.531c-13.132-11.131-33.755-22.719-47.65-29.471c-13.701-6.664-27.292-12.129-39.303-15.809
	c-1.65-0.5-3.404,0.418-3.91,2.072s0.42,3.404,2.07,3.91c11.711,3.584,24.986,8.932,38.405,15.455
	c40.234,19.553,58.488,37.836,56.592,41.734c-1.897,3.908-27.552,0.84-67.791-18.721c-1.553-0.758-3.427-0.104-4.18,1.449
	c-0.753,1.553-0.109,3.426,1.448,4.174c17.501,8.51,47.61,20.686,64.508,20.686c5.75,0,9.97-1.414,11.643-4.852
	c1.489-3.059,0.448-6.715-2.294-10.67C148.581,145.359,165.508,127.152,172.734,89.173 M152.342,33.939c0,0-2.524-1.366-6.784-2.584
	c-0.098-2.955,1.23-5.804,3.524-7.348c2.501-1.673,5.737-1.578,9.343,0.259c2.029,1.038,3.438,3.168,3.696,5.571
	c0.305,2.82-1.034,5.608-3.72,7.905C154.969,35.034,152.342,33.939,152.342,33.939"/>
<path d="M76.858,129.893c-1.363-1.061-3.329-0.818-4.393,0.547l-4.686,6.02c-2.576-1.369-5.508-2.15-8.613-2.15
	c-10.165,0-18.432,8.268-18.432,18.432c0,10.154,8.268,18.422,18.432,18.422c10.159,0,18.427-8.268,18.427-18.422
	c0-4.807-1.857-9.164-4.87-12.447l4.68-6.01C78.462,132.916,78.221,130.951,76.858,129.893 M59.167,164.906
	c-6.715,0-12.171-5.461-12.171-12.166c0-6.715,5.456-12.176,12.171-12.176c6.709,0,12.166,5.461,12.166,12.176
	C71.333,159.445,65.877,164.906,59.167,164.906"/>
</svg>
