<?xml version="1.0" encoding="utf-8"?>
<!-- Generator: Adobe Illustrator 16.0.0, SVG Export Plug-In . SVG Version: 6.00 Build 0)  -->
<!DOCTYPE svg PUBLIC "-//W3C//DTD SVG 1.1//EN" "http://www.w3.org/Graphics/SVG/1.1/DTD/svg11.dtd">
<svg version="1.1" id="圖層_1" xmlns="http://www.w3.org/2000/svg" xmlns:xlink="http://www.w3.org/1999/xlink" x="0px" y="0px"
	 width="200px" height="200px" viewBox="0 0 200 200" enable-background="new 0 0 200 200" xml:space="preserve">
<path d="M161.309,28.48l-60.675-17.896c-4.717-1.394-9.695-1.394-14.405,0L25.549,28.48c-4.479,1.323-7.61,5.498-7.61,10.167v50.258
	c0,23.255,6.927,45.647,20.019,64.759c12.793,18.658,30.58,33.009,51.462,41.506c1.288,0.526,2.649,0.789,4.011,0.789
	s2.717-0.263,4.004-0.789c20.882-8.497,38.679-22.848,51.466-41.506c13.095-19.112,20.024-41.504,20.024-64.759V38.647
	C168.926,33.978,165.786,29.804,161.309,28.48 M160.436,88.906c0,21.531-6.416,42.266-18.535,59.958
	c-11.846,17.283-28.326,30.581-47.661,38.445c-0.526,0.212-1.098,0.212-1.625,0c-19.328-7.864-35.808-21.162-47.654-38.445
	c-12.125-17.692-18.532-38.428-18.532-59.958V38.647c0-0.928,0.626-1.763,1.519-2.033L88.63,18.722
	c1.563-0.462,3.183-0.69,4.801-0.69s3.23,0.228,4.801,0.69l60.682,17.893c0.893,0.27,1.522,1.105,1.522,2.033V88.906z"/>
<path d="M140.452,47.243l-45.22-13.336c-1.178-0.35-2.421-0.35-3.606,0l-45.22,13.336c-2.688,0.796-4.563,3.301-4.563,6.108v35.555
	c0,18.782,5.681,36.81,16.435,52.111c8.333,11.865,19.473,21.663,32.206,28.333c0.921,0.487,1.933,0.723,2.944,0.723
	c1.015,0,2.026-0.235,2.955-0.723c12.732-6.67,23.865-16.468,32.205-28.333c10.745-15.301,16.435-33.329,16.435-52.111V53.351
	C145.021,50.544,143.141,48.034,140.452,47.243 M136.531,88.906c0,17.033-5.15,33.361-14.891,47.234
	c-7.344,10.448-17.076,19.135-28.213,25.166c-11.127-6.031-20.867-14.718-28.204-25.166c-9.749-13.873-14.896-30.201-14.896-47.234
	V54.938l43.1-12.713l43.104,12.713V88.906z"/>
</svg>
