<?xml version="1.0" encoding="utf-8"?>
<!-- Generator: Adobe Illustrator 16.0.0, SVG Export Plug-In . SVG Version: 6.00 Build 0)  -->
<!DOCTYPE svg PUBLIC "-//W3C//DTD SVG 1.1//EN" "http://www.w3.org/Graphics/SVG/1.1/DTD/svg11.dtd">
<svg version="1.1" id="Layer_1" xmlns="http://www.w3.org/2000/svg" xmlns:xlink="http://www.w3.org/1999/xlink" x="0px" y="0px"
	 width="200px" height="200px" viewBox="0 0 200 200" enable-background="new 0 0 200 200" xml:space="preserve">
<g>
	<path d="M187.442,14.151c-1.952-2.876-4.704-4.393-7.979-4.393c-0.054,0-0.106,0-0.166,0.002
		c-10.635,0.159-25.823,18.173-36.042,32.184c-5.717-3.904-12.473-6.017-19.5-6.017c-8.297,0-16.116,2.875-22.355,8.161
		l-2.813-2.639c-1.645-1.543-3.794-2.394-6.05-2.394c-2.435,0-4.787,1.018-6.451,2.791l-73.964,78.829
		c-3.334,3.553-3.156,9.163,0.397,12.505l55.84,52.39c1.647,1.541,3.793,2.391,6.05,2.391h0.003c2.431,0,4.784-1.016,6.451-2.792
		l73.962-78.823c1.614-1.727,2.461-3.977,2.388-6.339c-0.079-2.365-1.071-4.555-2.792-6.167l-2.812-2.641
		c7.966-10.79,8.8-25.201,2.779-36.749c14.005-7.952,31.542-19.787,34.536-30.564C189.896,20.378,189.388,17.013,187.442,14.151z
		 M144.358,89.202c-1.258,1.391-1.171,3.533,0.199,4.814l5.16,4.841c0.377,0.361,0.602,0.843,0.615,1.367
		c0.02,0.526-0.172,1.025-0.529,1.409l-73.959,78.827c-0.506,0.54-1.115,0.619-1.433,0.619c-0.503,0-0.982-0.189-1.346-0.53
		l-55.833-52.386c-0.791-0.74-0.833-1.991-0.093-2.779l73.964-78.83c0.506-0.538,1.115-0.619,1.433-0.619
		c0.5,0,0.979,0.189,1.343,0.531l5.154,4.838c1.368,1.284,3.511,1.237,4.822-0.107c5.272-5.41,12.339-8.391,19.9-8.391
		c5.587,0,10.956,1.667,15.512,4.747c-1.413,2.038-2.656,3.886-3.689,5.449c-1.906-0.978-4.029-1.498-6.218-1.498
		c-3.759,0-7.391,1.571-9.958,4.31c-2.494,2.657-3.804,6.126-3.691,9.772c0.119,3.646,1.647,7.028,4.307,9.518
		c2.534,2.385,5.849,3.7,9.336,3.7c3.758,0,7.383-1.571,9.957-4.312c3.53-3.765,4.507-9.018,3.003-13.61
		c1.747-0.873,3.789-1.917,6.048-3.12C153.525,67.771,152.284,80.43,144.358,89.202z M134.289,69.784
		c-1.29,1.379-3.044,2.137-4.936,2.137c-1.728,0-3.368-0.65-4.632-1.836c-1.316-1.234-2.071-2.909-2.13-4.717
		c-0.06-1.808,0.589-3.526,1.832-4.844c1.291-1.38,3.044-2.137,4.937-2.137c1.006,0,1.982,0.227,2.873,0.644
		c-0.384,0.873-0.414,1.897,0.018,2.83c0.582,1.257,1.826,1.999,3.123,1.997c0.202,0,0.404-0.029,0.605-0.064
		C136.401,65.873,135.849,68.121,134.289,69.784z M182.288,22.044c-2.269,8.194-17.977,18.83-31.709,26.617
		c-0.63-0.773-1.294-1.525-2-2.251c11.009-14.996,24.174-29.671,30.825-29.77c0.02-0.002,0.046-0.002,0.065-0.002
		c0.708,0,1.476,0.185,2.283,1.375C182.565,19.214,182.731,20.458,182.288,22.044z"/>
	<path d="M58.51,136.232c-3.497,1.571-5.158,2.127-6.408,0.877c-1.022-1.025-0.963-2.832,0.959-4.757
		c1.925-1.923,3.876-2.766,5.044-3.177l-2.593-4.578c-1.694,0.646-3.791,1.811-6.008,4.023c-4.634,4.638-4.866,10-1.515,13.352
		c2.854,2.857,6.791,2.537,11.194,0.41c3.202-1.516,4.836-1.751,6.06-0.527c1.287,1.284,1.052,3.206-0.989,5.25
		c-1.896,1.893-4.344,3.116-6.15,3.698l2.769,4.578c1.717-0.495,4.518-2.13,6.762-4.372c5.392-5.393,5.13-10.725,1.835-14.02
		C66.704,134.218,63.267,134.046,58.51,136.232z"/>
	<path d="M63.217,115.554l13.643,25.654l4.602-4.608l-3.642-6.44l5.627-5.628l6.556,3.527l4.78-4.776l-25.737-13.557L63.217,115.554
		z M69.308,116.11c1.456,0.873,3.265,1.984,4.78,2.798l5.396,2.944l-4.343,4.344l-3.007-5.336c-0.81-1.459-2.011-3.235-2.881-4.691
		L69.308,116.11z"/>
	<polygon points="98.147,112.457 82.232,96.54 77.769,100.999 97.419,120.648 109.69,108.375 105.959,104.645 	"/>
	<polygon points="113.138,97.639 108.474,92.975 115.704,85.746 112.092,82.131 104.86,89.359 100.779,85.279 108.446,77.612 
		104.801,73.969 92.675,86.096 112.316,105.742 124.854,93.208 121.215,89.564 	"/>
</g>
</svg>
