<?xml version="1.0" encoding="utf-8"?>
<!-- Generator: Adobe Illustrator 16.0.0, SVG Export Plug-In . SVG Version: 6.00 Build 0)  -->
<!DOCTYPE svg PUBLIC "-//W3C//DTD SVG 1.1//EN" "http://www.w3.org/Graphics/SVG/1.1/DTD/svg11.dtd">
<svg version="1.1" id="圖層_1" xmlns="http://www.w3.org/2000/svg" xmlns:xlink="http://www.w3.org/1999/xlink" x="0px" y="0px"
	 width="200px" height="200px" viewBox="0 0 200 200" enable-background="new 0 0 200 200" xml:space="preserve">
<g>
	<path d="M86.3,10H17.8c-4.3,0-7.8,3.5-7.8,7.8v68.5c0,4.3,3.5,7.8,7.8,7.8h68.5c4.3,0,7.8-3.5,7.8-7.8V17.8
		C94,13.5,90.6,10,86.3,10z M79.1,71.3c0,4.3-3.5,7.8-7.8,7.8H32.7c-4.3,0-7.8-3.5-7.8-7.8V32.7c0-4.3,3.5-7.8,7.8-7.8h38.6
		c4.3,0,7.8,3.5,7.8,7.8V71.3z"/>
	<circle cx="52" cy="52" r="11.8"/>
	<path d="M86.3,106H17.8c-4.3,0-7.8,3.5-7.8,7.8v68.5c0,4.3,3.5,7.8,7.8,7.8h68.5c4.3,0,7.8-3.5,7.8-7.8v-68.5
		C94,109.4,90.6,106,86.3,106z M79.1,167.3c0,4.3-3.5,7.8-7.8,7.8H32.7c-4.3,0-7.8-3.5-7.8-7.8v-38.6c0-4.3,3.5-7.8,7.8-7.8h38.6
		c4.3,0,7.8,3.5,7.8,7.8V167.3z"/>
	<circle cx="52" cy="148" r="11.8"/>
	<path d="M183.8,10h-68.5c-4.3,0-7.8,3.5-7.8,7.8v68.5c0,4.3,3.5,7.8,7.8,7.8h68.5c4.3,0,7.8-3.5,7.8-7.8V17.8
		C191.6,13.5,188.1,10,183.8,10z M176.6,71.3c0,4.3-3.5,7.8-7.8,7.8h-38.6c-4.3,0-7.8-3.5-7.8-7.8V32.7c0-4.3,3.5-7.8,7.8-7.8h38.6
		c4.3,0,7.8,3.5,7.8,7.8V71.3L176.6,71.3z"/>
	<circle cx="149.6" cy="52" r="11.8"/>
	<rect x="139.7" y="169.6" width="20.399" height="20.4"/>
	<rect x="171.7" y="169.6" width="20.399" height="20.4"/>
	<path d="M139.7,140.7v16.5H191.6v-43.5c0-4.3-3.5-7.8-7.8-7.8h-9.6V135.8h-20.4V106h-38.5c-4.3,0-7.8,3.5-7.8,7.8v68.5
		c0,4.3,3.5,7.8,7.8,7.8h6.5v-49.3h17.9V140.7z"/>
</g>
</svg>
