<?xml version="1.0" encoding="utf-8"?>
<!-- Generator: Adobe Illustrator 16.0.0, SVG Export Plug-In . SVG Version: 6.00 Build 0)  -->
<!DOCTYPE svg PUBLIC "-//W3C//DTD SVG 1.1//EN" "http://www.w3.org/Graphics/SVG/1.1/DTD/svg11.dtd">
<svg version="1.1" id="圖層_1" xmlns="http://www.w3.org/2000/svg" xmlns:xlink="http://www.w3.org/1999/xlink" x="0px" y="0px"
	 width="200px" height="200px" viewBox="0 0 200 200" enable-background="new 0 0 200 200" xml:space="preserve">
<path d="M160.9,23.3C161,13.4,157.3,9.9,147.5,10c-31.6,0.4-63.2,0.4-94.8,0c-10.8-0.2-13.8,4.3-13.6,14.4
	c0.5,24.8,0.2,49.7,0.2,74.5c0,25.7,0.3,51.4-0.2,77.1c-0.2,10.5,3.6,14.1,14,14c31.2-0.5,62.3-0.4,93.5,0
	c10.2,0.1,14.301-3.1,14.301-13.7C160.5,125.3,160.6,74.3,160.9,23.3z M48.9,33.7l-1-1.7L64,22.3l1,1.7l-7.2,4.4L89.1,80l-1.7,1
	L56.1,29.4L48.9,33.7z M93.6,105.2c-1.3,1.6-3,2.399-5.1,2.399c-1.8,0-3.2-0.5-4.3-1.5c-1.1-1-1.8-2.3-1.9-4l2.5-0.199
	c0.2,1.199,0.6,2.1,1.3,2.8c0.7,0.6,1.5,0.899,2.5,0.899c1.2,0,2.1-0.399,2.9-1.3c0.8-0.899,1.2-2,1.2-3.5c0-1.4-0.4-2.4-1.2-3.2
	c-0.8-0.8-1.8-1.2-3-1.2c-0.8,0-1.5,0.2-2.1,0.5c-0.6,0.3-1.1,0.8-1.5,1.4L82.6,98l1.9-10h9.7v2.3h-7.8l-1.1,5.2
	c1.2-0.8,2.4-1.2,3.7-1.2c1.7,0,3.1,0.6,4.3,1.8c1.2,1.2,1.8,2.7,1.8,4.6C95.1,102.4,94.6,103.9,93.6,105.2z M101.4,107.3h-2.7v-2.7
	h2.7V107.3z M104.9,102.2l2.5-0.2c0.199,1.2,0.6,2.1,1.3,2.8s1.5,0.9,2.5,0.9c1.2,0,2.1-0.4,2.899-1.3c0.801-0.9,1.2-2,1.2-3.5
	c0-1.4-0.399-2.4-1.2-3.2c-0.8-0.8-1.8-1.2-3-1.2c-0.8,0-1.5,0.2-2.1,0.5s-1.1,0.8-1.5,1.4l-2.2-0.3l1.9-10h9.7v2.3H109.1l-1.1,5.2
	c1.2-0.8,2.4-1.2,3.7-1.2c1.7,0,3.1,0.6,4.3,1.8c1.2,1.2,1.8,2.7,1.8,4.6c0,1.8-0.5,3.3-1.5,4.601c-1.2,1.6-3,2.399-5.1,2.399
	c-1.8,0-3.2-0.5-4.3-1.5C105.7,105.1,105.1,103.8,104.9,102.2z M136.1,177.7l-1-1.7l7.2-4.4l-31.2-51.5l1.7-1l31.2,51.5l7.2-4.399
	l1,1.7L136.1,177.7z"/>
</svg>
