<?xml version="1.0" encoding="utf-8"?>
<!-- Generator: Adobe Illustrator 21.1.0, SVG Export Plug-In . SVG Version: 6.00 Build 0)  -->
<svg version="1.1" id="圖層_1" xmlns="http://www.w3.org/2000/svg" xmlns:xlink="http://www.w3.org/1999/xlink" x="0px" y="0px"
	 viewBox="0 0 200 200" style="enable-background:new 0 0 200 200;" xml:space="preserve">
<g>
	<path class="st0" d="M143.7,77.2c0-37.1-30.2-67.2-67.2-67.2C39.4,9.9,9.2,40.1,9.2,77.2s30.2,67.2,67.2,67.2
		C113.5,144.4,143.7,114.2,143.7,77.2z M76.4,137.7c-33.4,0-60.5-27.1-60.5-60.5s27.2-60.5,60.5-60.5c33.4,0,60.5,27.1,60.5,60.5
		S109.8,137.7,76.4,137.7z"/>
	<path class="st0" d="M64.5,31.6c-20.7,5.4-35.1,24.1-35.1,45.5c0,8.3,2.2,16.4,6.3,23.5c0.6,1.1,1.8,1.7,2.9,1.7
		c0.6,0,1.1-0.1,1.7-0.5c1.6-0.9,2.2-3,1.2-4.6c-3.5-6.1-5.4-13.1-5.4-20.2c0-18.3,12.4-34.4,30.1-39c1.8-0.5,2.9-2.3,2.4-4.1
		C68.1,32.2,66.2,31.2,64.5,31.6z"/>
	<path class="st0" d="M185.5,163.9l-38.6-38.6c-3.8-3.8-10.5-3.8-14.3,0l-7.1,7.1c-3.9,3.9-3.9,10.3,0,14.3l38.6,38.6
		c2.3,2.3,5.9,3.7,9.6,3.7c1.8,0,3.6-0.4,5.1-1l0.6-0.3l8.6-8.6l0.3-0.6C190.2,173.9,189.1,167.5,185.5,163.9z M182.2,175.3
		l-6.7,6.7c-2.1,0.6-5.2-0.1-6.6-1.5l-38.6-38.6c-1.3-1.3-1.3-3.4,0-4.8l7.1-7.1c0.6-0.6,1.5-1,2.4-1c0.9,0,1.7,0.3,2.4,1l38.6,38.6
		C182.2,170.2,182.9,173.2,182.2,175.3z"/>
</g>
</svg>
