<?xml version="1.0" encoding="utf-8"?>
<!-- Generator: Adobe Illustrator 16.0.0, SVG Export Plug-In . SVG Version: 6.00 Build 0)  -->
<!DOCTYPE svg PUBLIC "-//W3C//DTD SVG 1.1//EN" "http://www.w3.org/Graphics/SVG/1.1/DTD/svg11.dtd">
<svg version="1.1" id="Layer_1" xmlns="http://www.w3.org/2000/svg" xmlns:xlink="http://www.w3.org/1999/xlink" x="0px" y="0px"
	 width="200px" height="200px" viewBox="0 0 200 200" enable-background="new 0 0 200 200" xml:space="preserve">
<path d="M186.229,176.128l-46.462-46.455c9.783-12.226,16.302-28.526,16.302-45.648c0-40.755-32.603-73.358-73.357-73.358
	c-40.754,0-73.357,32.603-73.357,73.358c0,40.754,32.603,73.358,73.357,73.358c17.122,0,33.424-5.708,45.65-16.302l46.453,46.461
	c1.633,1.632,4.076,2.443,5.706,2.443c1.632,0,4.075-0.812,5.708-2.443C189.493,184.278,189.493,179.391,186.229,176.128z
	 M82.712,141.081c-31.782,0-57.055-25.265-57.055-57.056c0-31.784,25.272-57.056,57.055-57.056
	c31.791,0,57.056,25.272,57.056,57.056C139.768,115.816,114.503,141.081,82.712,141.081z"/>
</svg>
