<?xml version="1.0" encoding="utf-8"?>
<!-- Generator: Adobe Illustrator 21.1.0, SVG Export Plug-In . SVG Version: 6.00 Build 0)  -->
<svg version="1.1" id="圖層_1" xmlns="http://www.w3.org/2000/svg" xmlns:xlink="http://www.w3.org/1999/xlink" x="0px" y="0px"
	 viewBox="0 0 200 200" style="enable-background:new 0 0 200 200;" xml:space="preserve">
<g>
	<g>
		<g>
			<path class="st0" d="M172.1,120.6c-0.2-3.2-1.8-6-4.3-7.9c-3.8-2.9-9.2-2.9-13.1,0l-18.5,13.8h-0.1c-1.7-3.5-5.3-6-9.4-6h-18.6
				l-6.7-4.5c-1.5-1-3.2-1.5-5-1.5h-20c-2.1,0-4.2,0.8-5.9,2.2l-17.2,14.7l-4-4c-1.2-1.2-3.1-1.2-4.2,0l-18,18
				c-1.2,1.2-1.2,3.1,0,4.2l39,39c0.6,0.6,1.4,0.9,2.1,0.9c0.8,0,1.5-0.3,2.1-0.9l18-18c1.2-1.2,1.2-3.1,0-4.2l-3.9-3.9l2.1-2.1
				c0.6-0.6,1.3-0.9,2.1-0.9h0l43.5,0.1c0,0,0,0,0,0c4,0,7.8-1.6,10.6-4.4l26.1-26.1C171.1,126.8,172.3,123.7,172.1,120.6z
				 M68.2,182.3l-34.8-34.8l13.8-13.8L82,168.5L68.2,182.3z M164.7,124.8l-26.1,26.1c-1.7,1.7-4,2.6-6.4,2.6c0,0,0,0,0,0l-43.5-0.1
				l0,0c-2.4,0-4.7,0.9-6.4,2.6l-2.1,2.1l-22.6-22.6l16.9-14.4c0.5-0.5,1.2-0.7,2-0.7h20c0.6,0,1.2,0.2,1.7,0.5l7.5,5
				c0.5,0.3,1.1,0.5,1.7,0.5h19.5c2.5,0,4.5,2,4.5,4.5c0,0.1,0,0.1,0,0.2c0,0.2,0,0.5-0.1,0.7c-0.4,2.1-2.5,3.6-4.8,3.6H98.2v6h28.1
				h0.4c3.1,0,5.9-1.4,7.9-3.6c0,0,0,0,0.1-0.1c0.4-0.4,0.7-0.8,1-1.3c0.1-0.2,0.2-0.4,0.4-0.7c0.2-0.3,0.3-0.6,0.5-0.9
				c0.2-0.4,0.3-0.9,0.4-1.4c0-0.2,0.1-0.3,0.1-0.5c0,0,0,0,0,0c0-0.2,0.1-0.4,0.1-0.5h0.1c0.7,0,1.3-0.2,1.8-0.6l19.3-14.5
				c1.7-1.3,4.1-1.3,5.9,0c1.1,0.8,1.8,2.1,1.9,3.6C166.2,122.4,165.7,123.8,164.7,124.8z"/>
		</g>
	</g>
	<g>
		<g>
			<path class="st0" d="M190,91.1c-6.1-35.4-35.5-59.2-76.8-63.1v-9.6c0-5-4-9-9-9h-6c-5,0-9,4-9,9v9.6C48,31.9,18.6,55.8,12.4,91.1
				c-0.7,0.5-1.2,1.4-1.2,2.4v12c0,1.7,1.3,3,3,3h174c1.7,0,3-1.3,3-3v-12C191.2,92.5,190.7,91.7,190,91.1z M95.2,18.5
				c0-1.7,1.3-3,3-3h6c1.7,0,3,1.3,3,3v9.1c-0.1,0-0.3,0-0.4,0c-1.8-0.1-3.7-0.1-5.6-0.1s-3.7,0.1-5.6,0.1c-0.1,0-0.3,0-0.4,0V18.5z
				 M92.6,33.8c5.7-0.4,11.5-0.4,17.1,0c39.3,2.7,67.6,24.3,74,56.7H18.6C25.1,58.1,53.4,36.5,92.6,33.8z M185.2,102.5h-168v-6h168
				V102.5z"/>
		</g>
	</g>
</g>
</svg>
