<?xml version="1.0" encoding="utf-8"?>
<!-- Generator: Adobe Illustrator 16.0.0, SVG Export Plug-In . SVG Version: 6.00 Build 0)  -->
<!DOCTYPE svg PUBLIC "-//W3C//DTD SVG 1.1//EN" "http://www.w3.org/Graphics/SVG/1.1/DTD/svg11.dtd">
<svg version="1.1" id="icons" xmlns="http://www.w3.org/2000/svg" xmlns:xlink="http://www.w3.org/1999/xlink" x="0px" y="0px"
	 width="200px" height="200px" viewBox="0 0 200 200" enable-background="new 0 0 200 200" xml:space="preserve">
<g>
	<path fill="#231815" d="M179.912,166.645c-2.207-7.254-14.097-13.33-25.595-19.206c-3.033-1.548-5.954-3.042-8.491-4.464
		c-1.609-0.906-3.657-0.331-4.561,1.284c-0.906,1.618-0.331,3.659,1.283,4.563c2.602,1.461,5.605,2.993,8.718,4.585
		c8.8,4.499,20.853,10.661,22.229,15.19c2.862,9.418,3.009,10.775,3.009,13.31c0,0.92-0.175,1.33-0.277,1.433
		c-0.662,0.64-3.866,0.527-5.996,0.456c-1.04-0.039-2.115-0.078-3.205-0.078H32.974c-0.812,0-1.617,0.015-2.409,0.028
		c-2.481,0.043-5.893,0.113-6.712-0.693c-0.195-0.19-0.317-0.646-0.347-1.273c0.271-1.245,1.264-5.681,3.24-13.307
		c1.516-5.861,16.424-14.341,44.153-25.146c0.679-0.225,6.746-2.342,10.104-6.825c1.11-1.477,0.811-3.579-0.67-4.69
		c-1.484-1.107-3.582-0.809-4.691,0.672c-1.783,2.377-5.563,4.045-7.018,4.542c-22.361,8.707-45.594,19.054-48.37,29.763
		c-2.394,9.258-3.348,13.798-3.39,13.987c-0.046,0.223-0.071,0.456-0.071,0.686c0,2.688,0.795,4.836,2.365,6.376
		c2.824,2.771,7.041,2.688,11.53,2.613c0.75-0.015,1.514-0.029,2.284-0.029h134.055c1.007,0,2.004,0.036,2.97,0.067
		c0.962,0.039,1.915,0.069,2.841,0.069c3.116,0,5.953-0.379,8.045-2.396c1.541-1.489,2.322-3.594,2.322-6.254
		C183.205,178.39,182.884,176.432,179.912,166.645z"/>
	<path fill="#231815" d="M46.385,109.985h10.053c1.94,0,3.516-0.591,4.685-1.765c2.026-2.032,2.021-4.953,2.014-7.782v-0.333
		c0.539,0.351,1.099,0.664,1.68,0.887c1.809,4.519,3.871,7.757,6.041,11.169c0.612,0.958,1.233,1.937,1.858,2.96
		c2.611,4.284,5.261,7.275,8.121,9.245c0.37,0.305,9.054,7.374,19.041,7.497c0.37,0.054,0.961,0.11,1.748,0.11
		c3.329,0,10.135-1.012,18.327-7.804c2.605-2.013,4.97-4.841,7.442-8.899c0.663-1.083,1.319-2.116,1.972-3.133
		c2.1-3.284,4.258-6.669,6.114-11.232c0.478-0.214,0.938-0.479,1.384-0.783v0.313c-0.008,2.829-0.015,5.751,2.014,7.786
		c0.392,0.392,0.844,0.692,1.321,0.954c-0.226,7.885-2.196,23.184-9.582,25.814c-1.636-1.132-3.6-1.807-5.717-1.807
		c-0.778,0-1.56,0.092-2.32,0.275l-16.302,3.873c-5.394,1.284-8.736,6.718-7.454,12.112c1.081,4.549,5.107,7.729,9.789,7.729
		c0.78,0,1.56-0.095,2.318-0.273l16.302-3.879c5.393-1.284,8.735-6.714,7.455-12.108c-0.028-0.109-0.078-0.205-0.106-0.314
		c10.357-5.331,12.064-22.891,12.303-30.612h6.731c4.567,0,11.06-3.282,13.481-8.254c4.379-9.661,4.379-20.741-0.039-30.496
		c-2.384-4.887-8.877-8.168-13.442-8.168h-0.077C152.671,33.354,129.021,9.444,100,9.444c-29.018,0-52.67,23.91-53.54,53.621h-0.076
		c-4.569,0-11.061,3.284-13.482,8.257c-4.379,9.661-4.379,20.74,0.04,30.494C35.328,106.703,41.819,109.985,46.385,109.985z
		 M125.686,146.496l-16.301,3.879c-1.779,0.412-3.622-0.743-4.037-2.487c-0.427-1.795,0.688-3.604,2.486-4.036l16.302-3.873
		c0.253-0.059,0.513-0.096,0.768-0.096c1.539,0,2.915,1.086,3.269,2.579C128.598,144.259,127.48,146.069,125.686,146.496z
		 M134.153,93.417c-0.474,0.87-1.344,1.417-1.681,1.463c-1.222,0.171-2.249,1-2.678,2.157c-1.731,4.691-3.843,7.991-6.073,11.486
		c-0.676,1.058-1.358,2.133-2.05,3.258c-2.032,3.339-3.882,5.589-5.903,7.152c-8.663,7.179-14.79,6.321-14.99,6.29
		c-0.211-0.039-0.421-0.061-0.634-0.061c-7.659,0-14.975-5.912-15.265-6.136c-2.285-1.588-4.333-3.938-6.439-7.396
		c-0.651-1.064-1.294-2.074-1.928-3.072c-2.323-3.65-4.331-6.806-6.036-11.543c-0.443-1.233-1.735-2.101-3.037-2.213
		c-0.324-0.031-1.213-0.562-1.688-1.426c-0.55-1.009-1.55-1.562-2.613-1.671V79.822c0.003,0,0.005,0,0.009,0
		c1.815,0,3.215-1.016,3.254-2.838c0.003-0.107,0.209-10.372,4.776-20.983c5.89-13.698,15.711-20.645,29.55-20.645
		c33.423,0,33.527,39.253,33.531,40.927c0.004,1.85,2.608,3.333,2.608,3.333v12.127C135.767,91.82,134.723,92.38,134.153,93.417z
		 M160.998,74.088c3.583,7.904,3.583,16.969,0.039,24.785c-1.157,2.379-5.044,4.409-7.418,4.409l-9.95-0.018
		c-0.106-0.702-0.103-1.935-0.103-2.814V72.603c0-0.888-0.004-2.141,0.105-2.833h9.947C155.991,69.771,159.88,71.801,160.998,74.088
		z M100,16.146c25.324,0,45.974,20.904,46.837,46.92h-3.271c-1.544,0-2.848,0.393-3.905,1.136
		c-2.761-14.146-11.411-35.762-38.563-35.762c-27.18,0-36.495,22.44-39.671,36.757c-0.104-0.12-0.19-0.252-0.306-0.366
		c-1.167-1.17-2.742-1.765-4.683-1.765h-3.272C54.028,37.05,74.676,16.146,100,16.146z M38.966,74.177
		c1.158-2.378,5.046-4.409,7.419-4.409l9.949,0.02c0.104,0.701,0.103,1.93,0.099,2.808v27.855c0.003,0.886,0.005,2.138-0.101,2.832
		h-9.947c-2.371,0-6.261-2.03-7.376-4.32C35.426,91.058,35.426,81.994,38.966,74.177z"/>
</g>
</svg>
