<?xml version="1.0" encoding="utf-8"?>
<!-- Generator: Adobe Illustrator 16.0.0, SVG Export Plug-In . SVG Version: 6.00 Build 0)  -->
<!DOCTYPE svg PUBLIC "-//W3C//DTD SVG 1.1//EN" "http://www.w3.org/Graphics/SVG/1.1/DTD/svg11.dtd">
<svg version="1.1" id="圖層_1" xmlns="http://www.w3.org/2000/svg" xmlns:xlink="http://www.w3.org/1999/xlink" x="0px" y="0px"
	 width="200px" height="200px" viewBox="0 0 200 200" enable-background="new 0 0 200 200" xml:space="preserve">
<path d="M184.225,84.433l-18.821-3.092c-1.237-3.978-2.844-7.789-4.745-11.407l11.105-15.66c1.489-2.105,1.245-4.971-0.58-6.788
	l-16.719-16.737c-1.817-1.817-4.687-2.055-6.79-0.568l-15.666,11.106c-3.626-1.91-7.43-3.504-11.409-4.739l-3.096-18.839
	c-0.413-2.556-2.626-4.419-5.209-4.419H88.642c-2.587,0-4.794,1.863-5.208,4.419l-3.101,18.839
	c-3.963,1.234-7.776,2.837-11.403,4.739l-15.66-11.106c-2.11-1.496-4.97-1.25-6.788,0.568L29.754,47.475
	c-1.821,1.824-2.059,4.693-0.576,6.79l11.114,15.66c-1.897,3.597-3.485,7.366-4.713,11.3l-18.897,3.208
	c-2.535,0.436-4.39,2.634-4.39,5.208v23.651c0,2.579,1.855,4.771,4.39,5.204l18.897,3.218c1.245,3.972,2.852,7.778,4.76,11.401
	l-11.14,15.527c-1.504,2.104-1.266,4.985,0.555,6.815l16.729,16.727c1.02,1.021,2.373,1.548,3.733,1.548
	c1.068,0,2.146-0.328,3.082-0.988l15.534-11.153c3.618,1.915,7.417,3.518,11.39,4.763l3.212,18.897
	c0.431,2.541,2.629,4.396,5.208,4.396h23.666c2.563,0,4.767-1.854,5.196-4.396l3.214-18.897c3.976-1.241,7.774-2.848,11.4-4.763
	l15.532,11.153c0.925,0.66,1.994,0.988,3.079,0.988c1.354,0,2.709-0.526,3.735-1.548l16.719-16.727
	c1.834-1.83,2.069-4.712,0.563-6.815l-11.148-15.527c1.936-3.66,3.551-7.506,4.805-11.519l18.821-3.093
	c2.558-0.42,4.426-2.629,4.426-5.212V89.641C188.65,87.051,186.774,84.847,184.225,84.433 M178.091,108.808l-10.273,1.69
	l-5.519,0.909l-5.474,0.896c-0.736,3.812-1.83,7.483-3.277,10.983c-0.042,0.089-0.067,0.186-0.101,0.27
	c-1.489,3.56-3.323,6.941-5.461,10.093l3.239,4.51l3.239,4.518l6.084,8.481l-10.392,10.383l-8.473-6.083l-4.519-3.239l-4.518-3.24
	c-3.097,2.1-6.403,3.904-9.887,5.381c-0.159,0.067-0.319,0.114-0.471,0.177c-3.45,1.418-7.076,2.516-10.829,3.248l-0.934,5.481
	l-0.942,5.536l-1.75,10.282H93.102l-1.759-10.282l-0.934-5.536l-0.93-5.481c-3.752-0.732-7.37-1.83-10.822-3.248
	c-0.16-0.063-0.328-0.109-0.478-0.177c-3.485-1.477-6.794-3.281-9.895-5.381l-4.504,3.231l-4.526,3.248l-8.483,6.083l-10.38-10.383
	l6.081-8.481l3.241-4.518l3.248-4.51c-2.112-3.105-3.921-6.412-5.402-9.899c-0.057-0.147-0.101-0.315-0.16-0.463
	c-1.439-3.453-2.533-7.084-3.267-10.832l-5.476-0.93l-5.534-0.942l-10.275-1.75V94.096l10.275-1.746l5.534-0.938l5.476-0.934
	c0.715-3.679,1.8-7.242,3.185-10.637c0.09-0.219,0.151-0.448,0.242-0.658c1.456-3.443,3.239-6.716,5.312-9.775l-3.223-4.542
	l-3.223-4.547l-6.051-8.53l10.424-10.422l8.517,6.045l4.556,3.231l4.537,3.227c3.115-2.108,6.453-3.904,9.964-5.381
	c0.151-0.065,0.317-0.107,0.478-0.164c3.443-1.414,7.044-2.486,10.778-3.206l0.9-5.479l0.911-5.521l1.687-10.279h14.684
	l1.691,10.279l0.908,5.521l0.9,5.479c3.736,0.72,7.337,1.792,10.778,3.206c0.16,0.057,0.319,0.099,0.479,0.164
	c3.509,1.468,6.841,3.269,9.954,5.381l4.556-3.227l4.539-3.231l8.531-6.045l10.417,10.431l-6.041,8.517l-3.231,4.552l-3.223,4.542
	c2.104,3.12,3.913,6.458,5.377,9.96c0.059,0.16,0.109,0.317,0.168,0.481c1.414,3.433,2.49,7.041,3.21,10.774l5.474,0.9l5.519,0.909
	l10.266,1.689v14.687H178.091z"/>
<path d="M100.474,132.736c-17.249,0-31.274-14.026-31.274-31.27c0-17.242,14.026-31.271,31.274-31.271
	c17.24,0,31.265,14.028,31.265,31.271C131.739,118.71,117.714,132.736,100.474,132.736 M100.474,80.751
	c-11.416,0-20.717,9.291-20.717,20.715c0,11.417,9.302,20.71,20.717,20.71c11.409,0,20.707-9.293,20.707-20.71
	C121.181,90.042,111.883,80.751,100.474,80.751"/>
</svg>
