<?xml version="1.0" encoding="utf-8"?>
<!-- Generator: Adobe Illustrator 16.0.0, SVG Export Plug-In . SVG Version: 6.00 Build 0)  -->
<!DOCTYPE svg PUBLIC "-//W3C//DTD SVG 1.1//EN" "http://www.w3.org/Graphics/SVG/1.1/DTD/svg11.dtd">
<svg version="1.1" id="圖層_1" xmlns="http://www.w3.org/2000/svg" xmlns:xlink="http://www.w3.org/1999/xlink" x="0px" y="0px"
	 width="200px" height="200px" viewBox="0 0 200 200" enable-background="new 0 0 200 200" xml:space="preserve">
<path fill="#040000" d="M177.854,98.225l-72.927-72.926c-2.246-2.244-5.609-2.244-7.855,0L24.146,98.225
	c-2.243,2.246-2.243,5.609,0,7.855c2.246,2.241,5.61,2.241,7.856,0L101,37.079l44.878,44.878v0.562v84.146H56.122v-56.097
	c0-3.375-2.243-5.61-5.609-5.61c-3.367,0-5.61,2.235-5.61,5.61v61.707c0,3.363,2.243,5.609,5.61,5.609h100.975
	c3.375,0,5.61-2.246,5.61-5.609V93.176l12.9,12.904c1.123,1.112,2.806,1.682,3.929,1.682c1.682,0,2.805-0.569,3.928-1.682
	C180.105,103.834,180.105,100.471,177.854,98.225"/>
</svg>
