<?xml version="1.0" encoding="utf-8"?>
<!-- Generator: Adobe Illustrator 21.1.0, SVG Export Plug-In . SVG Version: 6.00 Build 0)  -->
<svg version="1.1" id="圖層_1" xmlns="http://www.w3.org/2000/svg" xmlns:xlink="http://www.w3.org/1999/xlink" x="0px" y="0px"
	 viewBox="0 0 200 200" style="enable-background:new 0 0 200 200;" xml:space="preserve">
<path class="st0" d="M119.7,67.7H75.4c-1.5,0-2.8,1.2-2.8,2.8c0,1.5,1.2,2.8,2.8,2.8h44.3c1.5,0,2.8-1.2,2.8-2.8
	C122.5,68.9,121.3,67.7,119.7,67.7z"/>
<path class="st0" d="M65.4,60l-11.9,9.5l-3.8-3.8c-1.1-1.1-2.8-1.1-3.9,0c-1.1,1.1-1.1,2.8,0,3.9l5.5,5.5c0.5,0.5,1.2,0.8,2,0.8
	c0.6,0,1.2-0.2,1.7-0.6l13.9-11.1c1.2-1,1.4-2.7,0.4-3.9C68.3,59.2,66.6,59,65.4,60z"/>
<path class="st0" d="M119.7,98.2H75.4c-1.5,0-2.8,1.2-2.8,2.8s1.2,2.8,2.8,2.8h44.3c1.5,0,2.8-1.2,2.8-2.8S121.3,98.2,119.7,98.2z"
	/>
<path class="st0" d="M65.4,90.5L53.5,100l-3.8-3.8c-1.1-1.1-2.8-1.1-3.9,0c-1.1,1.1-1.1,2.8,0,3.9l5.5,5.5c0.5,0.5,1.2,0.8,2,0.8
	c0.6,0,1.2-0.2,1.7-0.6l13.9-11.1c1.2-1,1.4-2.7,0.4-3.9C68.3,89.7,66.6,89.5,65.4,90.5z"/>
<g>
	<g id="Double_Arrow_Up_x2F_Down">
		<path class="st0" d="M163.6,132.3l-13.1-12.9c-0.7-0.7-1.9-0.7-2.7,0l-13.1,12.9c-0.7,0.7-0.7,1.9,0,2.6c0.7,0.7,1.9,0.7,2.7,0
			l9.8-9.7v29.1c0,1,0.8,1.9,1.9,1.9s1.9-0.8,1.9-1.9v-29.1l9.8,9.7c0.7,0.7,1.9,0.7,2.7,0C164.3,134.2,164.3,133,163.6,132.3z"/>
		<path class="st0" d="M146,162.5l-9.8,9.7v-29.1c0-1-0.8-1.9-1.9-1.9c-1,0-1.9,0.8-1.9,1.9v29.1l-9.8-9.7c-0.7-0.7-1.9-0.7-2.7,0
			c-0.7,0.7-0.7,1.9,0,2.6L133,178c0.7,0.7,1.9,0.7,2.7,0l13.1-12.9c0.7-0.7,0.7-1.9,0-2.6C148,161.8,146.8,161.8,146,162.5z"/>
	</g>
</g>
<path class="st0" d="M150.2,105.6V49.9L109.8,9.5H20v166.2h87.1c8,10.3,20.6,17,34.7,17c24.2,0,43.9-19.7,43.9-43.9
	C185.7,127.4,170.4,109.6,150.2,105.6z M111.4,19l29.3,29.3h-29.3V19z M25.6,170.2V15.1h80.3v38.8h38.8v51.1c-1-0.1-1.9-0.1-2.9-0.1
	c-24.2,0-43.9,19.7-43.9,43.9c0,7.8,2,15.1,5.6,21.4H25.6z M141.8,186.3c-20.7,0-37.6-16.9-37.6-37.6s16.9-37.6,37.6-37.6
	c20.7,0,37.6,16.9,37.6,37.6S162.5,186.3,141.8,186.3z"/>
</svg>
