<?xml version="1.0" encoding="utf-8"?>
<!-- Generator: Adobe Illustrator 16.0.0, SVG Export Plug-In . SVG Version: 6.00 Build 0)  -->
<!DOCTYPE svg PUBLIC "-//W3C//DTD SVG 1.1//EN" "http://www.w3.org/Graphics/SVG/1.1/DTD/svg11.dtd">
<svg version="1.1" id="圖層_1" xmlns="http://www.w3.org/2000/svg" xmlns:xlink="http://www.w3.org/1999/xlink" x="0px" y="0px"
	 width="200px" height="200px" viewBox="0 0 200 200" enable-background="new 0 0 200 200" xml:space="preserve">
<path d="M53.522,121.445c3.874-3.668,7.009-2.671,10.229,1.154c7.076,8.413,14.384,16.617,22.565,26.016V34.382h9.699v114.082
	c7.89-9.03,14.727-16.858,21.558-24.692c0.813-0.935,1.457-2.46,2.445-2.721c2.294-0.605,5.291-1.579,7.021-0.632
	c2.742,1.516,2.179,4.519,0.157,6.863c-4.635,5.377-9.3,10.733-13.946,16.102c-5.348,6.16-10.7,12.323-16.042,18.498
	c-4.952,5.736-7.104,5.771-12.228-0.074c-10.518-12.012-20.974-24.065-31.458-36.098V121.445z"/>
<path d="M3.04,79.125c3.874,3.664,7.008,2.674,10.228-1.154c7.076-8.41,14.386-16.616,22.565-26.013V166.19h9.699V52.11
	c7.889,9.03,14.728,16.857,21.559,24.687c0.813,0.938,1.457,2.463,2.446,2.725c2.292,0.606,5.29,1.579,7.02,0.623
	c2.742-1.507,2.172-4.513,0.159-6.854c-4.636-5.375-9.3-10.737-13.948-16.101c-5.346-6.163-10.699-12.33-16.04-18.499
	c-4.955-5.739-7.105-5.779-12.23,0.074C23.979,50.775,13.518,62.829,3.04,74.862V79.125z"/>
<path d="M152.532,43.682c-10.46,0-20.926-0.06-31.392,0.034c-3.448,0.028-6.383-0.896-6.39-4.67
	c-0.006-3.618,2.736-4.952,6.247-4.952c20.926,0.045,41.867,0.023,62.793,0.023c3.425,0,6.131,1.14,6.048,5.056
	c-0.08,3.652-2.697,4.531-5.905,4.52C173.468,43.654,163.001,43.676,152.532,43.682"/>
<path d="M152.532,71.918c-10.46,0.006-20.926-0.056-31.392,0.04c-3.448,0.031-6.383-0.896-6.39-4.67
	c-0.006-3.618,2.736-4.958,6.247-4.952c20.926,0.04,41.867,0.023,62.793,0.023c3.425,0,6.131,1.143,6.048,5.051
	c-0.08,3.657-2.697,4.536-5.905,4.524C173.468,71.896,163.001,71.918,152.532,71.918"/>
<path d="M152.328,100.116c-10.282,0-20.573-0.071-30.853,0.034c-3.611,0.043-6.813-0.74-6.712-4.852
	c0.098-3.598,3.015-4.73,6.478-4.719c20.745,0.06,41.496,0.037,62.241,0.026c3.354-0.006,6.282,0.85,6.356,4.752
	c0.08,4.375-3.157,4.853-6.656,4.835c-10.285-0.06-20.57-0.026-30.854-0.026V100.116z"/>
<path d="M156.612,156.656c-8.498,0-16.997-0.056-25.502,0.03c-3.451,0.029-6.875-0.323-6.926-4.576
	c-0.053-4.044,3.06-5.041,6.659-5.035c17.537,0.047,35.068,0.035,52.601,0.018c3.338-0.006,6.297,0.804,6.383,4.7
	c0.106,4.397-3.176,4.843-6.645,4.825c-8.857-0.054-17.709-0.018-26.57-0.018V156.656z"/>
<path d="M166.408,118.968c5.863,0,11.729-0.042,17.588,0.015c3.115,0.029,5.807,0.991,5.849,4.691
	c0.051,3.703-2.715,4.828-5.757,4.857c-11.719,0.11-23.442,0.104-35.167,0.006c-3.021-0.023-5.813-0.997-5.831-4.763
	c-0.021-3.741,2.6-4.741,5.736-4.786C154.684,118.92,160.548,118.968,166.408,118.968"/>
</svg>
