<?xml version="1.0" encoding="utf-8"?>
<!-- Generator: Adobe Illustrator 16.0.0, SVG Export Plug-In . SVG Version: 6.00 Build 0)  -->
<!DOCTYPE svg PUBLIC "-//W3C//DTD SVG 1.1//EN" "http://www.w3.org/Graphics/SVG/1.1/DTD/svg11.dtd">
<svg version="1.1" id="圖層_1" xmlns="http://www.w3.org/2000/svg" xmlns:xlink="http://www.w3.org/1999/xlink" x="0px" y="0px"
	 width="200px" height="200px" viewBox="0 0 200 200" enable-background="new 0 0 200 200" xml:space="preserve">
<path d="M99.671,147.414c5.98,0,10.829,4.848,10.829,10.828c0,5.979-4.849,10.827-10.829,10.827
	c-5.979,0-10.828-4.848-10.828-10.827C88.843,152.262,93.691,147.414,99.671,147.414"/>
<path d="M182.237,66.815c-21.567-23.14-50.772-35.884-82.239-35.885c-31.464,0-60.668,12.745-82.236,35.885
	c-2.471,2.651-2.325,6.804,0.326,9.275c2.652,2.471,6.804,2.325,9.275-0.326c19.058-20.447,44.853-31.708,72.638-31.708
	c27.782,0,53.577,11.261,72.635,31.708c1.292,1.387,3.045,2.088,4.802,2.088c1.603,0,3.209-0.583,4.474-1.762
	C184.562,73.619,184.708,69.466,182.237,66.815"/>
<path d="M158.141,93.916c-15.942-16.063-36.591-24.909-58.142-24.908c-21.557,0-42.205,8.847-58.143,24.909
	c-2.552,2.573-2.537,6.728,0.037,9.281c2.573,2.553,6.728,2.537,9.28-0.036c13.455-13.56,30.795-21.028,48.826-21.028
	c18.025-0.001,35.366,7.468,48.825,21.029c1.283,1.292,2.97,1.939,4.658,1.939c1.671,0,3.343-0.635,4.623-1.904
	C160.678,100.644,160.693,96.488,158.141,93.916"/>
<path d="M131.877,121.096c-8.538-8.459-20.776-13.713-31.939-13.713h-0.005H99.46h-0.005
	c-11.164,0-23.402,5.254-31.94,13.713c-2.574,2.551-2.594,6.706-0.043,9.281c1.283,1.295,2.973,1.943,4.662,1.943
	c1.669,0,3.339-0.633,4.618-1.9c6.078-6.021,14.989-9.912,22.703-9.912h0.004h0.475h0.003c7.714,0,16.625,3.891,22.703,9.912
	c2.573,2.551,6.729,2.531,9.28-0.043C134.471,127.802,134.451,123.646,131.877,121.096"/>
</svg>
