<?xml version="1.0" encoding="utf-8"?>
<!-- Generator: Adobe Illustrator 16.0.0, SVG Export Plug-In . SVG Version: 6.00 Build 0)  -->
<!DOCTYPE svg PUBLIC "-//W3C//DTD SVG 1.1//EN" "http://www.w3.org/Graphics/SVG/1.1/DTD/svg11.dtd">
<svg version="1.1" id="圖層_1" xmlns="http://www.w3.org/2000/svg" xmlns:xlink="http://www.w3.org/1999/xlink" x="0px" y="0px"
	 width="200px" height="200px" viewBox="0 0 200 200" enable-background="new 0 0 200 200" xml:space="preserve">
<g>
	<path d="M106.4,11C100.6,8.2,96,12.2,91.8,15.8c-15.3,13-30.6,26.1-45.9,39.1c-5.5,4.7-10.7,9.6-18,10.6H14.5
		c-1.8,0-3.3,1.5-3.3,3.3V130.4c0,1.8,1.5,3.3,3.3,3.3h14.9c3.5,0.899,6.4,2.8,9.4,5.3c17.8,15.3,35.9,30.2,53.9,45.3
		c4,3.4,8.399,6.4,13.6,4c5.5-2.6,5-8.2,5-13.2c0.2-24.8,0.2-49.5,0.2-74.199c0-25.2,0-50.3,0-75.5C111.5,20,112.3,13.8,106.4,11z"
		/>
	<path d="M152.5,91.9c-3.6-11-10.5-18.4-10.8-18.7c-1.9-2-5.101-2.1-7.101-0.2s-2.1,5.1-0.199,7.1c0.899,0.9,22.1,23.8,0.1,45.8
		c-2,2-2,5.1,0,7.1c0.9,1,2.2,1.5,3.5,1.5c1.2,0,2.5-0.5,3.6-1.5C156.7,117.9,155.9,102.3,152.5,91.9z"/>
	<path d="M169.8,51.7c-9.7-8.8-19.5-11.1-19.899-11.2c-3.301-0.7-6.4,1.3-7.2,4.5s1.2,6.4,4.399,7.2c1.2,0.3,29.7,7.7,29.7,48.6
		c0,37.4-29.2,48.601-30.399,49.101c-3.101,1.1-4.7,4.6-3.601,7.699c0.8,2.5,3.101,4,5.601,4c0.699,0,1.3-0.1,2.199-0.5
		c0.4-0.1,9.9-3.6,19.301-12.8c8.699-8.5,19-23.6,19-47.5C188.9,74.6,178.5,59.6,169.8,51.7z"/>
</g>
</svg>
