<?xml version="1.0" encoding="utf-8"?>
<!-- Generator: Adobe Illustrator 16.0.0, SVG Export Plug-In . SVG Version: 6.00 Build 0)  -->
<!DOCTYPE svg PUBLIC "-//W3C//DTD SVG 1.1//EN" "http://www.w3.org/Graphics/SVG/1.1/DTD/svg11.dtd">
<svg version="1.1" id="Layer_1" xmlns="http://www.w3.org/2000/svg" xmlns:xlink="http://www.w3.org/1999/xlink" x="0px" y="0px"
	 width="200px" height="200px" viewBox="0 0 200 200" enable-background="new 0 0 200 200" xml:space="preserve">
<g>
	<path d="M116.286,140.727c-1.563-1.014-3.657-0.573-4.675,0.997c-1.014,1.563-0.568,3.654,0.996,4.674
		c0.626,0.406,1.061,1.031,1.215,1.763c0.242,1.129,0.028,2.287-0.601,3.261c-0.632,0.974-1.599,1.64-2.729,1.883
		c-1.523,0.325-2.789-0.336-3.586-0.95c-1.483-1.135-2.497-3.012-2.584-4.785c-0.249-4.959-0.389-58.118-0.392-58.653
		c-0.001-0.47-0.099-0.917-0.272-1.322c11.643-0.142,22.474-0.846,30.87-2.018c12.462-1.738,17.319-4.038,17.319-8.204
		c0-4.162-4.857-6.462-17.319-8.2c-9.442-1.318-21.962-2.042-35.255-2.042s-25.812,0.724-35.252,2.042
		c-12.465,1.738-17.322,4.038-17.322,8.2c0,4.166,4.857,6.465,17.322,8.204c9.003,1.257,20.81,1.975,33.415,2.039
		c-0.17,0.405-0.264,0.851-0.263,1.318c0.003,2.129,0.134,50.762,0.377,58.378c-0.236,0.432-0.391,0.916-0.417,1.439
		c-0.087,1.767-1.101,3.645-2.583,4.779c-0.8,0.615-2.072,1.275-3.587,0.951c-1.129-0.238-2.1-0.91-2.729-1.877
		c-0.628-0.974-0.843-2.133-0.603-3.268c0.157-0.73,0.588-1.355,1.217-1.762c1.564-1.014,2.01-3.105,0.996-4.675
		c-1.014-1.564-3.111-2.011-4.675-0.997c-2.141,1.391-3.612,3.528-4.148,6.02c-0.62,2.896-0.072,5.863,1.538,8.354
		c1.611,2.486,4.093,4.195,6.99,4.815c0.738,0.162,1.483,0.237,2.225,0.237c2.421,0,4.808-0.835,6.894-2.439
		c0.977-0.75,1.825-1.643,2.555-2.617c0.485,0.516,0.999,1.007,1.564,1.441c2.086,1.604,4.473,2.438,6.891,2.438
		c0.742,0,1.486-0.08,2.228-0.237c2.896-0.62,5.377-2.329,6.987-4.82c1.613-2.485,2.161-5.451,1.541-8.349
		C119.898,144.249,118.425,142.111,116.286,140.727z M56.815,77.372c6.529-1.642,20.78-3.484,42.459-3.484
		c21.678,0,35.933,1.842,42.463,3.484c-6.53,1.646-20.785,3.488-42.463,3.488C77.595,80.859,63.344,79.018,56.815,77.372z"/>
	<path d="M55.219,95.673c-6.633-1.227-15.258-1.94-24.479-2.046c-0.055-21.532-0.13-40.835-0.223-42.709
		c-0.168-3.323-1.883-6.544-4.583-8.621c-2.416-1.851-5.286-2.541-8.087-1.941c-5.301,1.133-8.696,6.37-7.56,11.68
		c0.475,2.233,1.796,4.145,3.708,5.385c1.57,1.02,3.662,0.571,4.675-0.997c1.017-1.564,0.568-3.658-0.997-4.675
		c-0.4-0.261-0.678-0.663-0.776-1.127c-0.354-1.663,0.707-3.302,2.364-3.656c1.068-0.229,1.981,0.252,2.555,0.692
		c1.118,0.857,1.883,2.271,1.95,3.595c0.165,3.313,0.287,69.648,0.327,104.264c0,1.866,1.515,3.378,3.38,3.378h0.002
		c1.866-0.006,3.378-1.518,3.378-3.389c-0.002-1.751-0.025-20.369-0.067-41.434c9.204-0.107,17.811-0.815,24.434-2.046
		c2.657-0.491,4.875-1.037,6.714-1.651v47.32c0,1.866,1.515,3.377,3.383,3.377c1.866,0,3.378-1.511,3.378-3.377v-52.604
		c0.099-0.397,0.156-0.808,0.156-1.239C68.851,99.888,64.778,97.44,55.219,95.673z M30.771,107.316
		c-0.005-2.307-0.01-4.624-0.015-6.935c15.199,0.172,25.144,1.961,29.448,3.47C55.901,105.361,45.961,107.144,30.771,107.316z"/>
	<path d="M181.71,40.355c-2.806-0.6-5.674,0.09-8.087,1.941c-2.702,2.077-4.414,5.298-4.582,8.624
		c-0.094,1.873-0.168,21.176-0.224,42.708c-9.148,0.114-17.696,0.826-24.282,2.044c-9.241,1.708-13.343,4.057-13.606,7.792
		c-0.041,0.212-0.065,0.43-0.065,0.653v53.577c0,1.866,1.512,3.377,3.376,3.377c1.866,0,3.381-1.511,3.381-3.377v-47.388
		c1.877,0.642,4.161,1.21,6.915,1.719c6.575,1.222,15.104,1.929,24.236,2.044c-0.042,21.064-0.064,39.685-0.066,41.436
		c-0.003,1.871,1.509,3.383,3.377,3.389c0,0,0,0,0.003,0c1.863,0,3.378-1.512,3.381-3.378c0.04-34.615,0.162-100.95,0.324-104.261
		c0.069-1.327,0.835-2.741,1.952-3.598c0.573-0.44,1.486-0.921,2.555-0.692c1.657,0.354,2.718,1.993,2.364,3.65
		c-0.1,0.47-0.377,0.872-0.777,1.133c-1.566,1.017-2.015,3.111-0.995,4.675c1.014,1.567,3.107,2.014,4.675,0.997
		c1.911-1.24,3.229-3.151,3.708-5.387C190.406,46.725,187.012,41.488,181.71,40.355z M139.55,103.852
		c4.286-1.503,14.162-3.283,29.251-3.469c-0.005,2.31-0.011,4.626-0.016,6.933C153.705,107.13,143.835,105.354,139.55,103.852z"/>
</g>
</svg>
