<?xml version="1.0" encoding="utf-8"?>
<!-- Generator: Adobe Illustrator 21.1.0, SVG Export Plug-In . SVG Version: 6.00 Build 0)  -->
<svg version="1.1" id="圖層_1" xmlns="http://www.w3.org/2000/svg" xmlns:xlink="http://www.w3.org/1999/xlink" x="0px" y="0px"
	 viewBox="0 0 200 200" style="enable-background:new 0 0 200 200;" xml:space="preserve">
<path d="M179.2,13.4c-2.4-2.4-5.7-3.9-9.4-3.9H39.5c-3.6,0-7,1.5-9.4,3.9c-2.4,2.4-3.9,5.7-3.9,9.4v15.9c-4.4,3.1-9.5,4.7-9.5,10.3
	v133.2c0,3.9,3.2,7.2,7.2,7.2h130.3c8.7,0,10.6-14,12.4-20.1h3.2c3.6,0,7-1.5,9.4-3.9c2.4-2.4,3.9-5.7,3.9-9.4V22.8
	C183.1,19.2,181.6,15.8,179.2,13.4z M123.7,76.9c-0.5,0-0.9,0-1.4-0.1c-2.7,3.1-6.3,5.7-10.4,7.7c-6.4,3.2-14.3,4.9-22.3,4.9
	c-7.8,0-15.8-1.5-22.9-4.8c-4.2-2-8.1-4.5-11.4-7.8c-0.3,0-0.6,0-0.8,0c-5.1,0-9.2-4.1-9.2-9.2c0.1-5,4.2-9.1,9.2-9.1
	c5.1,0,9.2,4.1,9.2,9.2c0,1.7-0.4,3.2-1.2,4.6c2.3,2,4.9,3.6,7.7,4.9c6,2.8,12.7,4.1,19.4,4.1c6.8,0,13.4-1.4,18.7-4.1
	c2.8-1.4,5.3-3.1,7.3-5.2c-0.7-1.3-1.1-2.7-1.1-4.3c0-5.1,4.1-9.2,9.2-9.2s9.2,4.1,9.2,9.2C132.9,72.8,128.8,76.9,123.7,76.9z
	 M148.6,29l2.6,12.7h-22.6c-0.2-4.6-4-8.3-8.7-8.3c-4.7,0-8.5,3.7-8.7,8.3H76c-0.2-4.6-4-8.3-8.7-8.3s-8.5,3.7-8.7,8.3H40.4l6.2-9.7
	L46,21.7h113.4L148.6,29z M171,156c0,0.1,0,0.1,0,0.2c-1.5,0.2-3.4,0.5-5.4,0.9l-4.1,9.5V43.1l-1.7-8.9l11.2-6.3V156z"/>
</svg>
