<?xml version="1.0" encoding="utf-8"?>
<!-- Generator: Adobe Illustrator 21.1.0, SVG Export Plug-In . SVG Version: 6.00 Build 0)  -->
<svg version="1.1" id="圖層_1" xmlns="http://www.w3.org/2000/svg" xmlns:xlink="http://www.w3.org/1999/xlink" x="0px" y="0px"
	 viewBox="0 0 200 200" style="enable-background:new 0 0 200 200;" xml:space="preserve">
<g>
	<g>
		<g>
			<path class="st0" d="M129.9,23.2H92.4c-7.1,0-12.8,5.7-12.8,12.8v1.5c0,7.1,5.7,12.8,12.8,12.8h37.5c7.1,0,12.8-5.7,12.8-12.8V36
				C142.7,29,136.9,23.2,129.9,23.2z M137.4,37.5c0,4.1-3.4,7.5-7.5,7.5H92.4c-4.1,0-7.5-3.4-7.5-7.5V36c0-4.1,3.4-7.5,7.5-7.5h37.5
				c4.1,0,7.5,3.4,7.5,7.5L137.4,37.5L137.4,37.5z"/>
		</g>
	</g>
	<g>
		<g>
			<path class="st0" d="M179.2,65.4l-3.1-6.9c-0.6-1.3-2.2-1.9-3.5-1.3c-1.3,0.6-1.9,2.2-1.3,3.5l3,6.7V181c0,2-1.6,3.6-3.6,3.6
				H68.5V67.1v-0.3c0-0.3-0.1-0.6-0.2-0.9L49.2,15.2h101.7l12.8,28.5c0.6,1.3,2.2,1.9,3.5,1.3c1.3-0.6,1.9-2.2,1.3-3.5L155,11.5
				c-0.4-1-1.4-1.6-2.4-1.6H45.3c0,0,0,0,0,0c0,0,0,0,0,0c-0.1,0-0.2,0-0.3,0c0,0-0.1,0-0.1,0c0,0-0.1,0-0.1,0c0,0-0.1,0-0.1,0
				c0,0-0.1,0-0.1,0c0,0-0.1,0-0.1,0c0,0,0,0,0,0c0,0,0,0-0.1,0c0,0,0,0-0.1,0c-0.1,0-0.1,0.1-0.2,0.1c0,0,0,0-0.1,0c0,0,0,0,0,0
				c-0.1,0-0.2,0.1-0.3,0.2c0,0,0,0,0,0c0,0,0,0,0,0c-0.1,0-0.1,0.1-0.2,0.1c0,0,0,0-0.1,0.1c0,0,0,0-0.1,0c0,0-0.1,0.1-0.1,0.1
				c0,0,0,0-0.1,0.1c0,0,0,0.1-0.1,0.1c0,0,0,0,0,0.1c0,0,0,0,0,0c0,0,0,0,0,0c0,0,0,0,0,0c0,0.1-0.1,0.1-0.1,0.2c0,0,0,0,0,0
				c0,0,0,0,0,0c0,0,0,0,0,0c0,0.1-0.1,0.2-0.1,0.2c0,0,0,0,0,0c0,0,0,0,0,0L23.1,65.6c-0.2,0.5-0.3,1-0.3,1.5V181
				c0,4.9,4,8.9,8.9,8.9h13.5c0,0,0,0,0.1,0s0,0,0.1,0h20.4h104.8c4.9,0,8.9-4,8.9-8.9V67.2C179.6,66.6,179.4,65.9,179.2,65.4z
				 M42.7,184.6H31.8c-2,0-3.6-1.6-3.6-3.6V67.3l14.5-39.7V184.6z M63.2,184.6H48V27.1l15.2,40.2V184.6z"/>
		</g>
	</g>
	<g>
		<g>
			<path class="st0" d="M155.4,113.1h-39.8c-1.5,0-2.6,1.2-2.6,2.6c0,1.5,1.2,2.6,2.6,2.6h38.9v34.5H87.3v-34.5h9.3
				c1.5,0,2.6-1.2,2.6-2.6c0-1.5-1.2-2.6-2.6-2.6H86.4c-2.4,0-4.4,2-4.4,4.4v36.3c0,2.4,2,4.4,4.4,4.4h69c2.4,0,4.4-2,4.4-4.4v-36.3
				C159.9,115.1,157.9,113.1,155.4,113.1z"/>
		</g>
	</g>
</g>
</svg>
