<?xml version="1.0" encoding="utf-8"?>
<!-- Generator: Adobe Illustrator 16.0.0, SVG Export Plug-In . SVG Version: 6.00 Build 0)  -->
<!DOCTYPE svg PUBLIC "-//W3C//DTD SVG 1.1//EN" "http://www.w3.org/Graphics/SVG/1.1/DTD/svg11.dtd">
<svg version="1.1" id="圖層_1" xmlns="http://www.w3.org/2000/svg" xmlns:xlink="http://www.w3.org/1999/xlink" x="0px" y="0px"
	 width="200px" height="200px" viewBox="0 0 200 200" enable-background="new 0 0 200 200" xml:space="preserve">
<path d="M185.434,140.847l-0.194-4.314c-0.768-16.585-12.753-30.029-28.435-33.138l-2.931-21.296h23.688l-4.038-34.435h-23.531
	v6.328l-2.509-18.174h-27.791v8.26h20.597l8.092,58.702c-17.461,0.714-31.678,13.996-33.678,31.262H98.227l-2.849-6.481
	c-0.243,0.092-1.529,0.524-2.838-0.422c-1.232-0.892-4.974-5-4.639-21.558h17.493V76.204H88.053V29.389H14.726v46.814v8.266v17.445
	h17.798c-7.503,7.508-17.185,20.19-17.793,36.1l-0.165,4.292h11.642c-0.014,0.319-0.057,0.644-0.057,0.968
	c0,15.071,12.26,27.338,27.337,27.338c15.071,0,27.337-12.267,27.337-27.338c0-0.324-0.043-0.648-0.054-0.968h41.344
	c-0.011,0.319-0.054,0.644-0.054,0.968c0,15.071,12.26,27.338,27.331,27.338c15.077,0,27.338-12.267,27.338-27.338
	c0-0.8-0.06-1.61-0.136-2.427H185.434z M22.991,37.649h56.802v38.554H22.991V37.649z M72.56,143.273
	c0,10.515-8.558,19.077-19.072,19.077c-10.52,0-19.072-8.563-19.072-19.077c0-0.324,0.005-0.648,0.022-0.968h38.095
	C72.555,142.625,72.56,142.949,72.56,143.273 M79.415,134.04H27.557h-4.125c3.262-19.212,22.364-32.721,22.569-32.87l10.806-7.524
	H22.991v-9.176h65.062h9.082v12.847H80.009l-0.216,3.914c-0.94,17.664,1.735,28.395,8.174,32.789
	c0.016,0.006,0.027,0.017,0.032,0.021H79.415z M166.173,55.921l2.103,17.915h-15.542l-2.476-17.915H166.173z M149.853,110.974
	c13.065,0,24.013,9.195,26.586,21.618h-53.177C125.834,120.169,136.781,110.974,149.853,110.974 M149.393,162.351
	c-10.514,0-19.071-8.563-19.071-19.077c0-0.324,0.011-0.648,0.027-0.968h38.095c0.016,0.319,0.026,0.644,0.026,0.968
	C168.47,153.788,159.913,162.351,149.393,162.351"/>
</svg>
