<?xml version="1.0" encoding="utf-8"?>
<!-- Generator: Adobe Illustrator 16.0.0, SVG Export Plug-In . SVG Version: 6.00 Build 0)  -->
<!DOCTYPE svg PUBLIC "-//W3C//DTD SVG 1.1//EN" "http://www.w3.org/Graphics/SVG/1.1/DTD/svg11.dtd">
<svg version="1.1" id="Layer_1" xmlns="http://www.w3.org/2000/svg" xmlns:xlink="http://www.w3.org/1999/xlink" x="0px" y="0px"
	 width="200px" height="200px" viewBox="0 0 200 200" enable-background="new 0 0 200 200" xml:space="preserve">
<path d="M184.832,22.133H14.887c-2.599,0-4.723,2.124-4.723,4.72v113.3c0,2.595,2.125,4.718,4.723,4.718h37.764v28.327
	c0,4.407,5.333,6.071,8.047,3.353l32.055-31.68h92.077c2.596,0,4.724-2.123,4.724-4.718v-113.3
	C189.554,24.256,187.43,22.133,184.832,22.133 M180.11,135.429H90.819c-1.254,0-2.431,0.496-3.328,1.372l-25.398,25.088v-21.736
	c0-2.599-2.127-4.724-4.72-4.724H19.607V31.574H180.11V135.429z M99.858,69.341c-9.112,0-16.522,7.409-16.522,16.522
	s7.41,16.522,16.522,16.522c9.109,0,16.52-7.409,16.52-16.522S108.97,69.341,99.858,69.341 M99.858,92.943
	c-3.896,0-7.081-3.186-7.081-7.08s3.185-7.082,7.081-7.082c3.894,0,7.082,3.187,7.082,7.082S103.752,92.943,99.858,92.943
	 M147.067,69.341c-9.112,0-16.522,7.409-16.522,16.522s7.41,16.522,16.522,16.522c9.109,0,16.52-7.409,16.52-16.522
	S156.177,69.341,147.067,69.341 M147.067,92.943c-3.9,0-7.082-3.186-7.082-7.08s3.182-7.082,7.082-7.082
	c3.893,0,7.082,3.187,7.082,7.082S150.96,92.943,147.067,92.943 M52.651,69.341c-9.11,0-16.522,7.409-16.522,16.522
	s7.412,16.522,16.522,16.522c9.113,0,16.522-7.409,16.522-16.522S61.764,69.341,52.651,69.341 M52.651,92.943
	c-3.896,0-7.081-3.186-7.081-7.08s3.185-7.082,7.081-7.082c3.893,0,7.083,3.187,7.083,7.082S56.543,92.943,52.651,92.943"/>
</svg>
