<?xml version="1.0" encoding="utf-8"?>
<!-- Generator: Adobe Illustrator 16.0.0, SVG Export Plug-In . SVG Version: 6.00 Build 0)  -->
<!DOCTYPE svg PUBLIC "-//W3C//DTD SVG 1.1//EN" "http://www.w3.org/Graphics/SVG/1.1/DTD/svg11.dtd">
<svg version="1.1" id="Layer_1" xmlns="http://www.w3.org/2000/svg" xmlns:xlink="http://www.w3.org/1999/xlink" x="0px" y="0px"
	 width="200px" height="200px" viewBox="0 0 200 200" enable-background="new 0 0 200 200" xml:space="preserve">
<g>
	<path d="M105.617,52.875h-3.953V41.368c0-2.121-1.719-3.839-3.838-3.839H84.497L80.668,12.44c-0.288-1.875-1.901-3.26-3.796-3.26
		h-6.566c-1.896,0-3.508,1.385-3.796,3.26l-3.829,25.089H49.352c-2.12,0-3.839,1.718-3.839,3.839v11.507h-3.95
		c-2.12,0-3.839,1.72-3.839,3.84v129.13c0,2.118,1.719,3.837,3.839,3.837h64.055c2.121,0,3.836-1.719,3.836-3.837V56.715
		C109.453,54.595,107.738,52.875,105.617,52.875z M73.589,16.966l3.142,20.563H70.45L73.589,16.966z M53.191,45.208h12.788h15.22
		h12.788v7.667H53.191V45.208z M101.775,182.005H45.401V60.554h3.95h48.474h3.95V182.005z"/>
	<path d="M73.589,98.986c-9.278,0-16.824,7.548-16.824,16.823c0,9.275,7.546,16.822,16.824,16.822s16.824-7.547,16.824-16.822
		C90.413,106.534,82.867,98.986,73.589,98.986z M73.589,124.953c-5.042,0-9.144-4.102-9.144-9.145c0-5.042,4.102-9.144,9.144-9.144
		s9.144,4.102,9.144,9.144C82.732,120.852,78.631,124.953,73.589,124.953z"/>
	<path d="M156.492,52.875h-3.949V41.368c0-2.121-1.719-3.839-3.84-3.839h-13.328l-3.832-25.089c-0.285-1.875-1.9-3.26-3.797-3.26
		h-6.561c-1.898,0-3.51,1.385-3.799,3.26l-3.828,25.089h-0.119c-2.121,0-3.84,1.718-3.84,3.839s1.719,3.84,3.84,3.84h3.418h15.219
		h12.785v7.667h-3.807H120.58c-2.121,0-3.84,1.72-3.84,3.84s1.719,3.839,3.84,3.839h20.475h7.648h3.951v121.451h-31.949
		c-2.123,0-3.842,1.719-3.842,3.841c0,2.118,1.719,3.837,3.842,3.837h35.787c2.123,0,3.842-1.719,3.842-3.837V56.715
		C160.334,54.595,158.615,52.875,156.492,52.875z M121.328,37.529l3.139-20.563l3.139,20.563H121.328z"/>
	<path d="M124.467,124.953c-0.738,0-1.471-0.086-2.18-0.258c-2.057-0.506-4.135,0.761-4.639,2.82
		c-0.502,2.063,0.762,4.137,2.822,4.641c1.301,0.315,2.646,0.475,3.996,0.475c9.275,0,16.822-7.547,16.822-16.822
		c0-9.274-7.547-16.823-16.822-16.823c-1.33,0-2.66,0.156-3.945,0.465c-2.063,0.496-3.334,2.568-2.838,4.631
		c0.494,2.063,2.572,3.326,4.629,2.836c0.703-0.167,1.426-0.253,2.154-0.253c5.041,0,9.143,4.102,9.143,9.144
		C133.609,120.852,129.508,124.953,124.467,124.953z"/>
</g>
</svg>
