<?xml version="1.0" encoding="utf-8"?>
<!-- Generator: Adobe Illustrator 16.0.0, SVG Export Plug-In . SVG Version: 6.00 Build 0)  -->
<!DOCTYPE svg PUBLIC "-//W3C//DTD SVG 1.1//EN" "http://www.w3.org/Graphics/SVG/1.1/DTD/svg11.dtd">
<svg version="1.1" id="圖層_1" xmlns="http://www.w3.org/2000/svg" xmlns:xlink="http://www.w3.org/1999/xlink" x="0px" y="0px"
	 width="200px" height="200px" viewBox="0 0 200 200" enable-background="new 0 0 200 200" xml:space="preserve">
<path d="M77,83.717c-1.026-1.026-2.688-1.026-3.715,0L53.956,103.04c-1.021,1.026-1.021,2.691,0,3.718
	c0.513,0.508,1.189,0.769,1.862,0.769c0.67,0,1.348-0.261,1.862-0.769L77,87.429C78.027,86.409,78.027,84.744,77,83.717"/>
<path d="M90.499,97.214c-1.027-1.026-2.688-1.026-3.709,0l-19.335,19.318c-1.021,1.038-1.021,2.703,0,3.729
	c0.514,0.508,1.192,0.756,1.862,0.756s1.349-0.248,1.862-0.756l19.321-19.329C91.525,99.906,91.525,98.247,90.499,97.214"/>
<path d="M117.503,124.217c-1.033-1.028-2.691-1.028-3.718,0l-19.33,19.323c-1.021,1.026-1.021,2.689,0,3.718
	c0.513,0.508,1.192,0.768,1.862,0.768s1.349-0.26,1.856-0.768l19.329-19.323C118.53,126.896,118.53,125.243,117.503,124.217"/>
<path d="M103.999,110.712c-1.026-1.015-2.687-1.026-3.712,0l-19.329,19.323c-1.021,1.028-1.021,2.691,0,3.719
	c0.513,0.508,1.186,0.768,1.855,0.768s1.349-0.26,1.862-0.768l19.328-19.322C105.026,113.403,105.026,111.74,103.999,110.712"/>
<path d="M194.075,73.642c-0.365-1.109-1.31-1.906-2.455-2.09l-12.317-1.936l-1.972-12.53c-0.205-1.334-1.239-2.366-2.566-2.579
	l-12.543-1.965l-1.977-12.571c-0.205-1.34-1.239-2.373-2.561-2.585l-12.59-1.972l-1.813-11.591c-0.212-1.34-1.244-2.373-2.572-2.579
	l-11.598-1.818l-1.936-12.317c-0.185-1.145-0.98-2.09-2.091-2.455c-1.132-0.366-2.354-0.071-3.191,0.778l-17.712,17.707
	c-1.033,1.027-1.033,2.691,0,3.718c1.026,1.026,2.685,1.026,3.712,0l14.749-14.744l1.522,9.68c0.207,1.334,1.24,2.361,2.563,2.585
	l11.597,1.812l1.824,11.597c0.206,1.334,1.239,2.367,2.578,2.573l12.578,1.978l1.97,12.577c0.208,1.329,1.239,2.361,2.58,2.573
	l12.53,1.966l1.965,12.542c0.213,1.328,1.245,2.361,2.574,2.568l9.691,1.522l-87.521,87.521l-8.629-8.629
	c-1.021-1.026-2.682-1.026-3.709,0c-1.027,1.027-1.027,2.691,0,3.718l8.623,8.629l-18.016,18.014l-1.517-9.691
	c-0.219-1.322-1.251-2.36-2.573-2.573l-12.537-1.96l-1.971-12.536c-0.077-0.495-0.277-0.956-0.555-1.346
	c-0.472-0.648-1.189-1.108-2.012-1.227l-12.589-1.972l-1.972-12.583c-0.209-1.333-1.242-2.36-2.567-2.572l-11.597-1.819
	l-1.827-11.603c-0.204-1.334-1.236-2.36-2.567-2.573l-9.688-1.522l18.016-18.014l41.833,41.834c1.03,1.026,2.691,1.026,3.719,0
	c1.026-1.027,1.026-2.691,0-3.707L35.126,99.628l59.589-59.592c1.021-1.021,1.021-2.686,0-3.712c-1.027-1.027-2.694-1.027-3.725,0
	L6.707,120.616c-0.847,0.839-1.142,2.065-0.772,3.187c0.091,0.283,0.212,0.543,0.375,0.78c0.472,0.696,1.213,1.18,2.077,1.311
	l12.312,1.936l1.826,11.604c0.024,0.164,0.065,0.317,0.115,0.483c0.354,1.085,1.293,1.9,2.453,2.089l11.597,1.806l1.978,12.583
	c0.03,0.179,0.065,0.331,0.121,0.484c0.325,1.026,1.184,1.807,2.254,2.042c0.059,0.013,0.127,0.048,0.198,0.059l12.577,1.96
	l1.971,12.549c0.203,1.321,1.239,2.36,2.573,2.561l12.536,1.971l1.927,12.324c0.188,1.156,0.992,2.089,2.098,2.455
	c0.319,0.094,0.646,0.142,0.965,0.142c0.824,0,1.62-0.319,2.225-0.922L193.296,76.829C194.146,75.997,194.441,74.77,194.075,73.642"
	/>
<path d="M132.051,109.214L112.113,49.19c-0.157-0.378-0.377-0.708-0.701-1.039c-1.257-1.257-3.282-0.874-4.38,0.224
	c-0.647,0.649-1.031,1.582-0.647,2.615l20.095,60.184c0.111,0.436,0.33,0.767,0.603,1.038c0.986,0.991,2.891,1.144,4.143-0.106
	C131.992,111.339,132.381,110.192,132.051,109.214"/>
<path d="M152.042,74.369l-8.087-8.086c-4.916-4.911-9.944-3.495-14.087,0.66c-4.208,4.203-5.572,9.172-0.661,14.094l8.086,8.08
	c4.916,4.917,9.886,3.542,14.087-0.661C155.534,84.306,156.958,79.278,152.042,74.369 M147.893,84.968
	c-2.137,2.131-4.38,2.397-6.616,0.154l-8.085-8.08c-2.238-2.237-1.967-4.48,0.171-6.604c2.124-2.13,4.419-2.461,6.656-0.224
	l8.086,8.084C150.342,80.541,150.018,82.832,147.893,84.968"/>
<path d="M109.334,79.934l-8.078-8.08c-4.921-4.911-9.943-3.494-14.095,0.66c-4.206,4.203-5.571,9.172-0.659,14.083l8.086,8.086
	c4.913,4.923,9.888,3.547,14.084-0.656C112.828,89.879,114.25,84.85,109.334,79.934 M105.187,90.528
	c-2.138,2.136-4.375,2.408-6.617,0.165l-8.08-8.08c-2.24-2.237-1.962-4.48,0.166-6.604c2.127-2.136,4.424-2.461,6.657-0.224
	l8.086,8.085C107.635,86.113,107.315,88.403,105.187,90.528"/>
</svg>
