<?xml version="1.0" encoding="utf-8"?>
<!-- Generator: Adobe Illustrator 16.0.0, SVG Export Plug-In . SVG Version: 6.00 Build 0)  -->
<!DOCTYPE svg PUBLIC "-//W3C//DTD SVG 1.1//EN" "http://www.w3.org/Graphics/SVG/1.1/DTD/svg11.dtd">
<svg version="1.1" id="圖層_1" xmlns="http://www.w3.org/2000/svg" xmlns:xlink="http://www.w3.org/1999/xlink" x="0px" y="0px"
	 width="200px" height="200px" viewBox="0 0 200 200" enable-background="new 0 0 200 200" xml:space="preserve">
<g>
	<path d="M115.723,80.913c0,7.713,0.297,15.526-0.198,23.24c-0.197,2.967-1.483,6.528-3.561,8.704
		c-7.417,8.01-15.229,15.525-22.944,23.141c-4.252,4.154-8.307,4.648-11.669,1.386c-3.461-3.264-2.967-7.813,1.187-12.066
		c6.132-6.229,12.165-12.46,18.593-18.493c2.769-2.571,3.758-5.34,3.659-9.099c-0.197-13.351-0.099-26.702-0.099-40.053
		c0-6.132,2.473-9.099,7.219-9.296c4.847-0.099,7.714,3.165,7.813,9.296C115.723,65.484,115.723,73.198,115.723,80.913z"/>
	<path d="M158.743,95.054c1.186,0,2.274,0,3.461,0c3.065,0.099,5.043,1.484,5.142,4.748c0.1,3.165-1.779,4.846-4.845,5.043
		c-2.274,0.198-4.55,0.1-6.923,0.1c-3.264,0-5.539-1.483-5.638-4.846c-0.099-3.659,2.274-5.143,5.835-5.044
		C156.765,95.153,157.754,95.054,158.743,95.054z"/>
	<path d="M138.666,128.481c2.967,0,10.285,7.121,10.384,10.088c0.1,3.56-3.856,6.526-6.725,4.549
		c-3.065-2.076-5.834-4.847-7.911-7.912C132.237,132.338,135.008,128.382,138.666,128.481z"/>
	<path d="M149.05,61.133c0.1,3.263-7.317,10.483-10.581,10.384c-3.659-0.099-6.132-4.055-4.055-6.922
		c2.077-2.868,4.647-5.539,7.517-7.615C144.798,54.902,148.951,57.573,149.05,61.133z"/>
	<path d="M110.283,150.832c0,0.989,0,1.978,0,2.967c0,3.165-1.088,5.638-4.55,5.735c-3.758,0.198-5.142-2.274-5.241-5.636
		c-0.099-1.979,0-3.956,0-5.835c0.1-3.363,1.483-5.836,5.143-5.736c3.462,0.099,4.747,2.473,4.747,5.638
		C110.283,148.854,110.283,149.843,110.283,150.832z"/>
	<path d="M189.005,85.363L189.005,85.363c-6.032-36.79-41.141-66.854-78.326-66.063c-4.747,0.099-7.912,2.769-8.011,6.824
		c-0.1,4.054,2.967,6.824,7.714,7.219c4.253,0.396,8.604,0.593,12.758,1.483c36.394,7.912,59.041,42.625,51.525,78.821
		c-7.319,35.108-41.833,57.854-77.832,51.13c-26.899-5.045-50.042-29.373-52.316-55.383c1.286,1.187,2.374,2.176,3.461,3.164
		c3.758,3.562,7.912,3.956,10.879,0.989c3.066-3.065,2.868-7.12-0.791-10.879c-5.044-5.142-10.187-10.285-15.329-15.427
		c-4.945-4.846-7.912-4.747-12.956,0.198c-5.637,5.538-11.274,11.076-16.813,16.614l0,0c-3.066,2.177-3.659,6.429-1.483,9.494
		c2.176,2.868,6.132,3.659,9.099,1.682l0,0h0.099c0.099-0.099,0.198-0.099,0.297-0.198c0.297-0.197,0.495-0.396,0.692-0.593
		l2.176-1.682c1.483-1.088,3.263-2.571,5.439-4.351c0.594,2.867,1.088,5.537,1.682,8.108c6.725,30.163,28.581,52.812,57.36,60.723
		l0,0c0,0,5.241,1.78,13.647,2.571c0.099,0,0.198,0,0.297,0c0,0,0.099,0,0.198,0c6.032,0.494,13.746,0.494,22.449-1.187
		c0.89-0.099,1.582-0.197,2.076-0.297c2.967-0.691,5.934-1.483,8.703-2.473c0.1,0,0.198-0.099,0.297-0.099l0,0
		c23.933-8.308,42.328-27.395,50.141-51.13c0,0,0,0,0-0.099C193.059,105.043,189.005,85.363,189.005,85.363z"/>
</g>
</svg>
