<?xml version="1.0" encoding="utf-8"?>
<!-- Generator: Adobe Illustrator 16.0.0, SVG Export Plug-In . SVG Version: 6.00 Build 0)  -->
<!DOCTYPE svg PUBLIC "-//W3C//DTD SVG 1.1//EN" "http://www.w3.org/Graphics/SVG/1.1/DTD/svg11.dtd">
<svg version="1.1" id="Layer_1" xmlns="http://www.w3.org/2000/svg" xmlns:xlink="http://www.w3.org/1999/xlink" x="0px" y="0px"
	 width="200px" height="200px" viewBox="0 0 200 200" enable-background="new 0 0 200 200" xml:space="preserve">
<path d="M99.085,10.602c24.527,0,46.738,9.948,62.805,26.02l0.354,0.389c15.861,16.059,25.671,38.106,25.671,62.41
	c0,24.516-9.946,46.74-26.025,62.803l-0.382,0.354c-16.053,15.864-38.1,25.672-62.423,25.672c-24.493,0-46.692-9.947-62.778-26.037
	l-0.021,0.011C20.222,146.16,10.273,123.937,10.273,99.42c0-24.487,9.941-46.692,26.013-62.772l0.021-0.005l0.005-0.021l0.016-0.014
	C52.406,20.537,74.605,10.602,99.085,10.602L99.085,10.602z M137.88,92.593h-31.955v-54.37c0-3.774-3.064-6.834-6.834-6.834
	c-3.773,0-6.826,3.06-6.826,6.834V99.25v0.17c0,3.774,3.053,6.841,6.826,6.841h38.79c3.762,0,6.826-3.067,6.826-6.841
	C144.706,95.653,141.642,92.593,137.88,92.593L137.88,92.593z M152.243,46.29c-13.614-13.605-32.411-22.021-53.158-22.021
	c-20.76,0-39.552,8.408-53.129,21.987l-0.029,0.034C32.341,59.863,23.934,78.653,23.934,99.42c0,20.75,8.421,39.542,22.022,53.141
	l-0.021,0.017l0.021,0.013c13.577,13.585,32.369,21.979,53.129,21.979c20.604,0,39.286-8.287,52.857-21.691l0.301-0.317
	c13.585-13.599,22.007-32.401,22.007-53.141c0-20.61-8.284-39.286-21.695-52.831L152.243,46.29z"/>
</svg>
