<?xml version="1.0" encoding="utf-8"?>
<!-- Generator: Adobe Illustrator 16.0.0, SVG Export Plug-In . SVG Version: 6.00 Build 0)  -->
<!DOCTYPE svg PUBLIC "-//W3C//DTD SVG 1.1//EN" "http://www.w3.org/Graphics/SVG/1.1/DTD/svg11.dtd">
<svg version="1.1" id="圖層_1" xmlns="http://www.w3.org/2000/svg" xmlns:xlink="http://www.w3.org/1999/xlink" x="0px" y="0px"
	 width="200px" height="200px" viewBox="0 0 200 200" enable-background="new 0 0 200 200" xml:space="preserve">
<path d="M160.277,73.29c-1.522-26-22.96-46.787-48.803-46.787c-15.685,0-30.878,7.693-40.292,20.251
	c-0.213-0.114-0.441-0.193-0.66-0.297c-0.569-0.279-1.15-0.545-1.749-0.779c-0.333-0.13-0.66-0.244-0.998-0.368
	c-0.581-0.203-1.175-0.381-1.776-0.546c-0.333-0.089-0.665-0.183-1.01-0.261c-0.65-0.145-1.305-0.259-1.97-0.358
	c-0.294-0.043-0.586-0.099-0.883-0.135c-0.952-0.104-1.924-0.172-2.906-0.172c-14.34,0-26.005,11.665-26.005,26.005
	c0,0.371,0.021,0.738,0.048,1.096C21.256,77.495,13,91.218,13,104.955c0,20.462,16.65,37.111,37.115,37.111h14.894
	c1.594,0,2.888-1.289,2.888-2.888c0-1.6-1.294-2.889-2.888-2.889H50.114c-17.277,0-31.333-14.056-31.333-31.335
	c0-12,7.813-24.455,18.582-29.623L39,74.548v-1.815c0-0.358,0.028-0.723,0.048-1.086l0.025-0.505l-0.036-0.545
	C39.022,70.348,39,70.099,39,69.843c0-11.155,9.077-20.231,20.231-20.231c0.891,0,1.769,0.084,2.647,0.198
	c0.224,0.025,0.447,0.068,0.67,0.104c0.774,0.125,1.538,0.297,2.287,0.515c0.099,0.025,0.203,0.041,0.297,0.074
	c0.825,0.249,1.632,0.571,2.421,0.929c0.198,0.094,0.396,0.188,0.589,0.287c0.701,0.343,1.386,0.721,2.041,1.147
	c5.574,3.614,9.269,9.868,9.269,16.978c0,1.596,1.294,2.891,2.891,2.891c1.589,0,2.883-1.294,2.883-2.891
	c0-7.957-3.597-15.079-9.241-19.851c8.279-10.833,21.921-17.711,35.49-17.711c22.376,0,40.96,17.726,42.895,40.12
	c-2.949-0.208-7.376-0.312-11.792,0.363c-1.574,0.238-2.66,1.716-2.422,3.292c0.219,1.434,1.447,2.457,2.853,2.457
	c0.147,0,0.29-0.015,0.437-0.036c6.432-0.972,13.128-0.063,13.533-0.005c13.457,2.551,23.589,14.944,23.589,28.848
	c0,15.97-12.994,28.97-28.964,28.97h-11.478c-1.599,0-2.894,1.289-2.894,2.889c0,1.599,1.295,2.888,2.894,2.888h11.478
	c19.157,0,34.746-15.589,34.746-34.746C186.349,91.457,175.293,77.239,160.277,73.29"/>
<path d="M104.612,102.473c-0.27-0.27-0.589-0.482-0.944-0.63c-0.706-0.289-1.503-0.289-2.208,0c-0.355,0.147-0.67,0.36-0.939,0.63
	l-23.112,23.106c-1.127,1.132-1.127,2.954,0,4.081c0.561,0.568,1.305,0.854,2.043,0.854c0.739,0,1.478-0.285,2.043-0.854
	l18.183-18.178v59.478c0,1.6,1.294,2.884,2.884,2.884c1.599,0,2.894-1.284,2.894-2.884v-59.478l18.183,18.178
	c0.563,0.568,1.305,0.854,2.04,0.854c0.736,0,1.478-0.285,2.041-0.854c1.132-1.127,1.132-2.949,0-4.081L104.612,102.473z"/>
</svg>
