<?xml version="1.0" encoding="utf-8"?>
<!-- Generator: Adobe Illustrator 16.0.0, SVG Export Plug-In . SVG Version: 6.00 Build 0)  -->
<!DOCTYPE svg PUBLIC "-//W3C//DTD SVG 1.1//EN" "http://www.w3.org/Graphics/SVG/1.1/DTD/svg11.dtd">
<svg version="1.1" id="圖層_1" xmlns="http://www.w3.org/2000/svg" xmlns:xlink="http://www.w3.org/1999/xlink" x="0px" y="0px"
	 width="200px" height="200px" viewBox="0 0 200 200" enable-background="new 0 0 200 200" xml:space="preserve">
<path d="M34.261,153.77c-2.396,0-6.68-0.358-8.506-3.498c-1.071-1.846-0.82-3.863-0.191-5.281L54.496,9.135l0.775-0.741
	c4.271-4.108,10.008-2.031,12.44-0.368l0.963,0.658l0.373,1.108c0.436,1.296,10.774,31.861,12.543,44.096
	c1.271,8.809-0.017,14.05-0.077,14.264l-19.189,74.416l-26.958,11.179C35.078,153.758,34.699,153.77,34.261,153.77 M31.882,147.98
	l-0.005,0.006L31.882,147.98z M32.372,146.619c0.473,0.086,1.108,0.108,2.134,0.143l21.904-9.287L74.733,66.42
	c0-0.011,0.98-4.23-0.074-11.529c-1.476-10.238-9.797-35.519-11.802-41.552c-0.584-0.239-1.368-0.47-2.043-0.285L32.372,146.619z"/>
<path d="M166.358,186.104c-1.248,0-2.649-0.194-4.188-0.673l-1.214-0.655l-30.066-25.012l-16.91-78.792l17.543-38.313l0.564-0.496
	c0.712-0.624,4.473-3.635,8.324-2.783c2.022,0.461,3.641,1.892,4.563,4.031l0.205,0.655l29.439,137.217l-0.758,1.202
	C172.894,184.041,170.393,186.104,166.358,186.104 M164.854,178.913c0.899,0.211,1.595,0.228,2.131,0.147L138.48,46.223
	c-0.177,0.111-0.758,0.456-1.265,0.812l-15.902,34.738l15.913,74.151L164.854,178.913z"/>
<path d="M145.152,196.684H45.59l21.004-91.28l7.883-6.794h13.172l39.401,19.437L145.152,196.684z M54.39,189.687h81.965
	l-15.384-66.832l-34.96-17.252h-8.931l-4.179,3.606L54.39,189.687z"/>
<path d="M104.757,172.64l-36.59-1.629l7.74-39.872H107.4l4.541,6.461L104.757,172.64z M72.676,167.455l29.049,1.288l6.222-30.312
	l-2.496-3.544h-26.45L72.676,167.455z"/>
<polygon points="93.361,169.301 89.681,168.583 96.381,134.409 100.056,135.127 "/>
</svg>
