<?xml version="1.0" encoding="utf-8"?>
<!-- Generator: Adobe Illustrator 21.1.0, SVG Export Plug-In . SVG Version: 6.00 Build 0)  -->
<svg version="1.1" id="圖層_1" xmlns="http://www.w3.org/2000/svg" xmlns:xlink="http://www.w3.org/1999/xlink" x="0px" y="0px"
	 viewBox="0 0 200 200" style="enable-background:new 0 0 200 200;" xml:space="preserve">s
<g>
	<path class="st0" d="M86.2,10.9c11,5,22.6,6.7,34.6,6.2c5.4-0.2,8,3.9,11.7,7.7c10.6,10.6,6,22.4,5.6,34.1
		c-0.1,2.7,0.8,5.5,0.8,8.2c0,2.7,0.4,6.1-1,8c-6.5,8.8-12.8,18.1-20.7,25.6c-12.5,11.8-28.9,9.1-38.4-5.2c-0.7-1-0.4-2.8-0.5-4.2
		c0,0,0.1-0.1,0.1-0.1c4.2,2.9,8.4,5.8,12.6,8.8c5.3,3.9,10.7,5.1,17,1.7c15.5-8.4,25.4-27.5,22.1-44.9c-1.4-7.6-6.1-15-0.8-20.2
		c-7.6,2.7-16.3,6.8-25.6,8.9c-13,3-19.5-4.7-17-17.9c0.8-4.2-0.3-8.8-0.5-13.2C86.2,13.2,86.2,12.1,86.2,10.9z"/>
	<path class="st0" d="M70.6,112c-2.5,2.7-4.7,6-7.7,8c-9,6.2-14.6,13.9-14,25.4c0.4,7.6,0,15.3,0.1,22.9c0.1,9.8,3.9,14.5,13.6,14.7
		c25.1,0.4,50.3,0.4,75.5,0.1c10.2-0.2,14-4.8,14.2-14.9c0.1-7.9-0.2-15.8,0.1-23.6c0.4-11.2-5.4-18.5-14.2-24.4
		c-4-2.7-7.5-6.2-10.7-10.1c19.1,0.9,33.1,19.2,32.2,32.5c-0.6,8.8,0,17.8-0.1,26.7c-0.1,12.7-7,20.4-19.5,20.6
		c-26.2,0.4-52.4,0.4-78.6,0c-12.6-0.2-19.5-7.8-19.6-20.5c-0.1-9.4-0.2-18.8,0-28.2c0.3-14.2,12.5-27.8,27-30.7
		C69.5,110.9,70.1,111.5,70.6,112z"/>
	<path class="st0" d="M86.2,10.9c0,1.2,0,2.4,0,3.5c-0.3,10.3-6.9,20.5-0.4,30.9c-0.4,0.6-0.8,1.2-1.2,1.8
		c-5.5-2.8-10.9-5.7-18.5-9.6c10.4,8,4.1,16.9,4.8,25.2c0.6,6.4,2.6,12.8,4.3,19.1c0.8,3.1,2.2,6.1,3.3,9.2c0,0-0.1,0.1-0.1,0.1
		C73.4,90,61.8,74,61.8,69c0-7,0.3-14.1-0.8-20.9c-2-11.7,5.6-19.1,11.3-27.3c2.9-4.2,7.6-7.2,11.5-10.6
		C84.2,9.9,85.4,10.6,86.2,10.9z"/>
	<path class="st0" d="M106.1,128c-5.5,7.9-14.9-3.5-20.9,4.6c-0.8,1.1-5,0.6-6.9-0.5c-1-0.6-0.5-3.9-0.6-6.1c0-1.7,0.1-3.4,0.2-5.1
		c0.1-2.3-0.5-6.3,0.4-6.7c2.3-0.9,5.6-1.1,7.8,0c9,4.5,17.7,4.6,26.8,0c2.2-1.1,5.4-0.9,7.8-0.2c0.7,0.2,0.4,4.2,0.4,6.5
		c0.1,1.7,0,3.4,0,5c-0.1,2.3,0.4,6.2-0.4,6.6c-2.3,0.9-5.4,0.8-7.9,0.1C110.6,131.6,108.7,129.7,106.1,128z"/>
</g>
</svg>
