<?xml version="1.0" encoding="utf-8"?>
<!-- Generator: Adobe Illustrator 16.0.0, SVG Export Plug-In . SVG Version: 6.00 Build 0)  -->
<!DOCTYPE svg PUBLIC "-//W3C//DTD SVG 1.1//EN" "http://www.w3.org/Graphics/SVG/1.1/DTD/svg11.dtd">
<svg version="1.1" id="Layer_1" xmlns="http://www.w3.org/2000/svg" xmlns:xlink="http://www.w3.org/1999/xlink" x="0px" y="0px"
	 width="200px" height="200px" viewBox="0 0 200 200" enable-background="new 0 0 200 200" xml:space="preserve">
<path d="M188.804,147.48c-0.728-2.994-2.313-5.815-4.584-8.156l-0.255-0.267l-0.092-0.079c-0.216-0.214-0.441-0.425-0.678-0.636
	c-1.816-1.615-3.923-2.933-6.263-3.918c-2.566-8.697-7.798-10.533-11.753-10.533c-1.841,0-3.758,0.381-5.848,1.163
	c-5.923-9.298-12.446-13.633-20.505-13.633c-1.603,0-3.264,0.183-4.932,0.542c-0.78,0.157-1.468,0.343-2.032,0.503
	c-0.467,0.126-0.924,0.272-1.438,0.443l-9.507-6.651l2.881-4.123l3.462,2.429c1.647,1.139,3.674,1.589,5.683,1.246
	c1.998-0.353,3.743-1.469,4.915-3.143l14.528-20.765c18.506-26.47,4.901-47.993,4.313-48.896c-0.538-0.824-1.219-1.522-2.02-2.073
	c-3.441-2.415-7.335-3.373-11.039-2.717c-6.053,1.07-10.019,5.785-12.797,9.771l-35.33,50.51l-0.084-0.059
	c1.599-7.573-1.463-15.314-7.867-19.805c-0.498-0.339-15.349-10.727-27.282-19.073c-6.805-4.759-12.575-8.795-13.93-9.738
	c-0.271-0.229-0.535-0.409-0.738-0.507c-2.427-1.567-5.379-2.162-8.235-1.656c-2.935,0.518-5.625,2.26-7.378,4.778
	c-1.691,2.401-2.421,5.362-2.037,8.108c-2.841,0.617-5.304,2.256-6.974,4.65c-1.688,2.417-2.383,5.319-1.983,8.145
	c-5.899,1.302-9.938,7.268-8.88,13.271c0.533,3.027,2.218,5.665,4.744,7.427l41.595,29.099c4.204,2.938,9.386,4.083,14.438,3.186
	c2.426-0.425,4.723-1.302,6.833-2.606l0.091,0.064l-21.649,30.967c-2.38,3.395-3.292,7.506-2.568,11.577
	c0.72,4.077,2.987,7.633,6.383,10.012c3.352,2.354,7.504,3.273,11.577,2.553c4.078-0.722,7.63-2.983,10.002-6.369l21.665-30.971
	l7.122,4.981c-7.762,2.036-12.949,9.13-12.646,17.348c0.307,8.016,6.185,14.888,13.977,16.34c1.598,0.3,3.36,0.451,5.237,0.451
	c11.512,0.016,23.018,0.026,34.518,0.026l18.1-0.005c4.96,0,9.413-1.525,12.895-4.425l0.442-0.4c0.417-0.38,0.796-0.755,1.168-1.159
	l0.896-1.03c0.155-0.193,0.31-0.394,0.442-0.58c0.154-0.207,0.308-0.416,0.503-0.707l0.219-0.342
	c0.144-0.226,0.283-0.445,0.389-0.639l0.278-0.499c0.167-0.304,0.332-0.625,0.459-0.91l0.212-0.44
	c0.026-0.056,0.049-0.114,0.104-0.252c0.164-0.37,0.328-0.759,0.464-1.127c0.072-0.191,0.135-0.395,0.194-0.594l0.083-0.26
	c0.1-0.301,0.194-0.591,0.251-0.819c0.178-0.621,0.316-1.207,0.426-1.787c0.057-0.291,0.1-0.586,0.142-0.882l0.12-1.112
	C189.366,150.981,189.223,149.217,188.804,147.48z M181.387,155.762c-0.084,0.259-0.198,0.507-0.315,0.762l-0.261,0.571
	c-0.054,0.119-0.116,0.237-0.206,0.409l-0.266,0.465c-0.07,0.134-0.152,0.259-0.243,0.397l-0.086,0.134
	c-0.102,0.147-0.199,0.286-0.341,0.474c-0.077,0.104-0.153,0.206-0.188,0.248l-0.614,0.706c-0.231,0.248-0.467,0.479-0.702,0.699
	c-0.09,0.079-0.181,0.159-0.273,0.249c-2.17,1.807-5.057,2.762-8.348,2.762l-18.1,0.006c-11.5,0-23.001-0.011-34.512-0.026
	c-1.454,0-2.78-0.111-3.941-0.332c-4.513-0.846-8.051-5.008-8.229-9.681c-0.188-4.92,2.908-9.153,7.524-10.293
	c0.966-0.231,2.122-0.3,3.399-0.376l0.265-0.016c0.627-0.036,1.259-0.073,1.905-0.134l3.315-0.323l-0.129-3.323
	c-0.344-8.928,2.309-14.83,8.104-18.041c0.966-0.526,2.01-0.982,3.196-1.394l0.386-0.135c0.323-0.104,0.657-0.213,1.01-0.312
	c0.553-0.151,1.043-0.281,1.593-0.393c1.2-0.261,2.376-0.393,3.496-0.393c5.953,0,11.025,4.033,15.961,12.693l1.431,2.524
	l3.024-1.008c0.381-0.123,0.711-0.231,1.045-0.384c1.924-0.901,3.57-1.358,4.892-1.358c1.051,0,3.512,0,5.115,5.913
	c0.506,1.919,2.189,3.368,3.632,3.953c1.751,0.711,3.288,1.647,4.563,2.778c0.21,0.194,0.42,0.389,0.614,0.595l0.427,0.448
	c1.209,1.363,2.022,2.884,2.421,4.52c0.239,0.983,0.329,2.012,0.26,2.96l-0.08,0.714c-0.029,0.205-0.059,0.408-0.09,0.601
	c-0.067,0.35-0.16,0.736-0.301,1.245c-0.02,0.075-0.045,0.146-0.07,0.219l-0.089,0.26c-0.041,0.12-0.073,0.232-0.116,0.395
	L181.387,155.762z M61.285,106.233l-41.59-29.099c-0.678-0.472-1.132-1.182-1.278-1.998c-0.131-0.738,0.077-1.566,0.572-2.272
	c0.496-0.707,1.207-1.188,1.95-1.32c0.824-0.147,1.618,0.031,2.313,0.519l29.203,20.413c0.909,0.643,2.033,0.903,3.148,0.707
	c1.083-0.19,2.075-0.823,2.727-1.743l0.555-0.813c0.645-0.917,0.893-2.033,0.698-3.141c-0.195-1.11-0.811-2.076-1.731-2.719
	L28.647,64.342c-0.674-0.472-1.127-1.183-1.274-1.998c-0.148-0.837,0.027-1.638,0.508-2.319c0.559-0.799,1.554-1.295,2.599-1.295
	c0.638,0,1.234,0.181,1.723,0.524L61.4,79.683c0.909,0.643,2.031,0.903,3.15,0.706c1.091-0.198,2.081-0.833,2.717-1.745l0.563-0.813
	c1.33-1.901,0.866-4.531-1.033-5.864l-29.21-20.424c-0.671-0.47-1.12-1.18-1.264-2c-0.135-0.739,0.072-1.569,0.566-2.278
	c0.598-0.852,1.521-1.34,2.534-1.34c0.625,0,1.221,0.187,1.725,0.541l0.418,0.261l0.016-0.021c2.32,1.71,8.952,6.414,41.155,28.843
	c4.129,2.895,5.76,8.374,3.879,13.025c-0.732,1.795-0.103,3.907,1.496,5.021l34.03,23.806c-3.598,3.005-6.032,7.043-7.249,12.021
	L80.08,105.073c-0.712-0.497-1.547-0.761-2.415-0.761c-0.25,0-0.499,0.022-0.743,0.066c-0.778,0.138-1.497,0.491-2.078,1.02
	c-1.507,1.355-3.378,2.264-5.409,2.626C66.58,108.525,63.657,107.883,61.285,106.233z M102.416,93.323l35.324-50.507
	c1.858-2.655,4.375-5.77,7.363-6.297c1.497-0.266,3.033,0.132,4.596,1.186c0.922,1.465,10.697,18.044-4.221,39.374l-14.065,20.111
	l-6.242-4.359c-0.71-0.499-1.544-0.762-2.411-0.762c-1.377,0-2.67,0.671-3.459,1.795l-5.29,7.567L102.416,93.323z M96.324,126.718
	l-21.654,30.97c-1.087,1.547-2.71,2.582-4.567,2.915c-1.85,0.319-3.747-0.101-5.29-1.174c-1.55-1.086-2.584-2.706-2.913-4.563
	c-0.331-1.857,0.084-3.735,1.168-5.287l21.665-30.962L96.324,126.718z"/>
</svg>
