<?xml version="1.0" encoding="utf-8"?>
<!-- Generator: Adobe Illustrator 16.0.0, SVG Export Plug-In . SVG Version: 6.00 Build 0)  -->
<!DOCTYPE svg PUBLIC "-//W3C//DTD SVG 1.1//EN" "http://www.w3.org/Graphics/SVG/1.1/DTD/svg11.dtd">
<svg version="1.1" id="Layer_1" xmlns="http://www.w3.org/2000/svg" xmlns:xlink="http://www.w3.org/1999/xlink" x="0px" y="0px"
	 width="200px" height="200px" viewBox="0 0 200 200" enable-background="new 0 0 200 200" xml:space="preserve">
<g>
	<path d="M190.16,117.665c-0.684-1.721-2.32-2.833-4.171-2.833c-0.566,0-1.123,0.106-1.653,0.317l-51.413,20.404
		c-0.406-0.677-0.838-1.342-1.306-1.989c-0.213-0.295-0.436-0.581-0.658-0.865l47.953-18.382c1.687-0.646,3.021-1.911,3.76-3.564
		c0.734-1.651,0.782-3.489,0.135-5.173l-23.93-62.434c-0.994-2.598-3.533-4.343-6.317-4.343c-0.824,0-1.638,0.15-2.42,0.448
		L87.717,63.182c-1.688,0.644-3.025,1.908-3.762,3.558c-0.738,1.652-0.788,3.492-0.14,5.181l19.6,51.13
		c-1.054,0.244-2.09,0.534-3.094,0.896L71.739,51.935c0-0.001,0-0.001-0.001-0.002l-0.346-0.875
		c-0.088-0.222-0.194-0.437-0.316-0.641l-3.943-6.625c-6.603-12.224-21.008-20.122-36.7-20.122c-2.763,0-5.55,0.243-8.283,0.721
		c-0.391,0.068-0.756,0.202-1.107,0.364C14.979,25.204,10,29.712,9.019,35.815c-0.56,3.479,0.27,6.97,2.335,9.829
		c2.067,2.857,5.122,4.739,8.602,5.298c0.7,0.112,1.408,0.169,2.105,0.169c6.511,0,11.986-4.67,13.02-11.104
		c0.397-2.461,0.085-4.924-0.855-7.17c10.923,1.082,20.509,6.825,25.04,15.262c0.033,0.062,0.066,0.123,0.101,0.179l3.818,6.417
		l0.215,0.545c0,0.001,0,0.003,0.001,0.004l29.045,73.18c-4.987,4.073-8.52,9.913-9.617,16.731
		c-2.375,14.774,7.712,28.728,22.486,31.104c1.433,0.23,2.893,0.348,4.338,0.348c13.383,0,24.64-9.604,26.767-22.834
		c0.535-3.329,0.445-6.661-0.224-9.866l51.451-20.42C189.944,122.575,191.072,119.964,190.16,117.665z M109.652,167.636
		c-0.972,0-1.952-0.078-2.912-0.233c-9.892-1.59-16.645-10.932-15.055-20.822c0.867-5.391,4.004-9.871,8.339-12.561
		c0.072-0.038,0.152-0.061,0.222-0.103c2.717-1.643,5.85-2.534,9.007-2.607c0.033-0.001,0.066-0.004,0.1-0.005
		c0.041-0.001,0.082,0.004,0.124,0.003c0.06,0.003,0.117,0.015,0.178,0.015c0.566,0.002,1.081,0.021,1.564,0.056
		c0.424,0.037,0.847,0.079,1.267,0.146c0.008,0.001,0.015,0.002,0.022,0.003c0.516,0.083,1.021,0.197,1.521,0.321
		c0.172,0.044,0.343,0.089,0.514,0.137c0.32,0.09,0.636,0.193,0.949,0.301c0.111,0.038,0.225,0.072,0.335,0.112
		c0.091,0.034,0.182,0.068,0.271,0.104c0.244,0.094,0.484,0.194,0.723,0.298c0.038,0.017,0.075,0.032,0.113,0.049
		c0.074,0.033,0.149,0.065,0.224,0.1c0.252,0.116,0.5,0.239,0.746,0.366c0.093,0.049,0.187,0.095,0.278,0.145
		c0.245,0.133,0.485,0.272,0.725,0.415c0.085,0.052,0.172,0.1,0.257,0.152c0.308,0.191,0.61,0.392,0.906,0.601
		c0.004,0.003,0.009,0.006,0.014,0.01c2.863,2.03,5.14,4.882,6.454,8.253c0.011,0.026,0.027,0.049,0.038,0.075
		c1.141,2.958,1.503,6.172,0.985,9.386C126.138,161.207,118.606,167.636,109.652,167.636z M116.417,123.19
		c-0.036-0.009-0.072-0.017-0.109-0.025c-0.288-0.073-0.577-0.143-0.869-0.206c-0.019-0.005-0.037-0.01-0.057-0.014
		c-0.465-0.101-0.933-0.19-1.406-0.268c-0.014-0.002-0.027-0.006-0.042-0.008c-0.006-0.001-0.012-0.001-0.018-0.002
		c-0.358-0.058-0.725-0.107-1.1-0.149L92.98,70.771l58.31-22.354l22.352,58.312l-50.331,19.293
		C121.171,124.773,118.858,123.817,116.417,123.19z M25.476,35.433c0.662,0.915,0.927,2.034,0.748,3.15
		c-0.361,2.245-2.549,3.873-4.844,3.502c-1.115-0.18-2.094-0.783-2.756-1.698c-0.662-0.915-0.927-2.033-0.749-3.148
		c0.332-2.062,2.083-3.558,4.163-3.558c0.227,0,0.458,0.019,0.683,0.055C23.837,33.916,24.815,34.518,25.476,35.433z"/>
	<path d="M156.908,85.132c0.085-2.215-1.213-4.183-3.475-5.265l-8.004-3.818c-1.25-0.597-3.29-1.584-4.536-2.196l-7.905-3.877
		c-0.942-0.461-1.988-0.706-3.025-0.706c-2.824,0-5.309,1.721-6.329,4.384l-3.154,8.221c-0.493,1.294-1.317,3.407-1.827,4.694
		l-3.263,8.243c-1.061,2.671-0.193,4.578,0.417,5.476c1.409,2.071,4.204,2.81,6.835,1.776l4.316-1.713l4.922,12.529
		c1.047,2.668,3.679,4.46,6.55,4.46c0.881,0,1.743-0.163,2.563-0.485l8.684-3.412c1.745-0.686,3.12-2.012,3.871-3.735
		c0.751-1.723,0.787-3.634,0.101-5.378l-4.922-12.532l4.32-1.683C155.381,89.21,156.824,87.347,156.908,85.132z M139.767,87.883
		c-0.754,1.721-0.79,3.631-0.104,5.377l4.927,12.543l-5.07,1.992l-4.928-12.547c-1.063-2.703-3.631-4.45-6.541-4.45
		c-0.504,0-1.001,0.054-1.489,0.16l0.431-1.088c0.521-1.314,1.359-3.469,1.864-4.787l2.307-6.013l5.778,2.835
		c1.271,0.623,3.352,1.631,4.626,2.239l1.053,0.502C141.359,85.392,140.365,86.512,139.767,87.883z"/>
	<path d="M111.406,137.167c-0.663-0.107-1.341-0.162-2.015-0.162c-6.224,0-11.459,4.466-12.448,10.618
		c-1.104,6.868,3.586,13.354,10.453,14.459c0.663,0.107,1.341,0.162,2.015,0.162c6.224,0,11.459-4.465,12.448-10.616
		c0.534-3.322-0.26-6.658-2.236-9.393C117.646,139.502,114.728,137.701,111.406,137.167z M105.801,149.046
		c0.286-1.778,1.796-3.069,3.591-3.069c0.194,0,0.393,0.016,0.588,0.047c0.963,0.155,1.808,0.676,2.378,1.464
		c0.57,0.789,0.8,1.754,0.645,2.718c-0.312,1.939-2.188,3.343-4.18,3.021C106.837,152.906,105.482,151.03,105.801,149.046z"/>
</g>
</svg>
