<?xml version="1.0" encoding="utf-8"?>
<!-- Generator: Adobe Illustrator 16.0.0, SVG Export Plug-In . SVG Version: 6.00 Build 0)  -->
<!DOCTYPE svg PUBLIC "-//W3C//DTD SVG 1.1//EN" "http://www.w3.org/Graphics/SVG/1.1/DTD/svg11.dtd">
<svg version="1.1" id="圖層_1" xmlns="http://www.w3.org/2000/svg" xmlns:xlink="http://www.w3.org/1999/xlink" x="0px" y="0px"
	 width="200px" height="200px" viewBox="0 0 200 200" enable-background="new 0 0 200 200" xml:space="preserve">
<path d="M188.628,16.793c-1.221-1.075-2.774-1.536-4.474-1.358L14.599,38.046c-2.807,0.383-4.913,2.775-4.913,5.605v113.033
	c0,2.845,2.106,5.233,4.913,5.613l169.555,22.605c0.251,0.035,0.508,0.047,0.747,0.047c1.35,0,2.676-0.497,3.715-1.402
	c1.232-1.075,1.934-2.611,1.934-4.252V21.045C190.55,19.413,189.849,17.865,188.628,16.793 M179.247,94.516h-79.125v-56.47
	L179.247,27.5V94.516z M88.814,39.553v54.962H20.992V48.604L88.814,39.553z M20.992,105.824h67.822v54.954l-67.822-9.042V105.824z
	 M100.123,162.285v-56.461h79.125v67.004L100.123,162.285z"/>
</svg>
