<?xml version="1.0" encoding="utf-8"?>
<!-- Generator: Adobe Illustrator 16.0.0, SVG Export Plug-In . SVG Version: 6.00 Build 0)  -->
<!DOCTYPE svg PUBLIC "-//W3C//DTD SVG 1.1//EN" "http://www.w3.org/Graphics/SVG/1.1/DTD/svg11.dtd">
<svg version="1.1" id="Layer_1" xmlns="http://www.w3.org/2000/svg" xmlns:xlink="http://www.w3.org/1999/xlink" x="0px" y="0px"
	 width="200px" height="200px" viewBox="0 0 200 200" enable-background="new 0 0 200 200" xml:space="preserve">
<g>
	<path d="M88.268,90.68c-0.002-0.002-0.004-0.003-0.006-0.004c0,0.014,0,0.027,0,0.041c0.003,0,0.004,0,0.006,0v22.238
		l29.419-14.999L88.268,83.574V90.68z"/>
	<path d="M99.859,9.692c-49.706,0-90,40.294-90,90s40.294,90,90,90s90-40.294,90-90S149.564,9.692,99.859,9.692z M154.206,110.325
		c-0.003,0.136-0.084,0.271-0.129,0.405c-0.005,2.283-0.126,4.555-0.476,6.81c-0.01,0.263-0.033,0.524-0.117,0.784
		c0.061,0.076,0.055,0.146-0.019,0.209c-0.019,0.294-0.034,0.587-0.052,0.881c0.053,0.534,0.049,1.061-0.215,1.55
		c0.076,1.106-0.174,2.152-0.577,3.171c-0.001,0-0.001,0.001-0.001,0.001c0,0.399-0.005,0.796-0.299,1.115
		c-0.09,0.269-0.18,0.538-0.27,0.808c0.036,0.683-0.225,1.266-0.599,1.813c-0.269,1.072-0.716,2.054-1.449,2.893
		c-0.724,1.402-1.854,2.408-3.165,3.237c-2.24,1.888-4.939,2.524-7.758,2.778c-7.206,0.654-14.439,0.789-21.668,0.998
		c-10.225,0.297-20.446,0.287-30.669,0.072c-7.662-0.16-15.335-0.195-22.978-0.83c-3.102-0.258-6.249-0.522-9.122-1.93
		c-0.623-0.304-1.185-0.738-1.774-1.111c-1.334-0.793-2.416-1.838-3.18-3.195c-0.708-0.858-1.176-1.836-1.444-2.912
		c-0.414-0.518-0.515-1.159-0.703-1.766c-0.27-0.635-0.511-1.275-0.469-1.984c-0.419-1.045-0.642-2.126-0.587-3.256
		c-0.327-0.751-0.277-1.543-0.25-2.332c-0.276-0.657-0.273-1.346-0.233-2.037c-0.277-1.908-0.421-3.826-0.371-5.757
		c0,0,0-0.001,0-0.003c-0.057-0.237-0.087-0.478-0.106-0.715c-0.188-1.381-0.133-2.776-0.143-4.164
		c-0.055-7.851-0.232-15.706,0.646-23.53c0.085-0.777,0.169-1.554,0.253-2.331c-0.068-0.696,0.055-1.367,0.243-2.032
		c0.033-1.411,0.392-2.749,0.894-4.057c0.806-3.203,2.043-6.146,4.889-8.121c2.279-2.078,5.067-2.891,8.046-3.175
		c6.922-0.659,13.87-0.788,20.815-0.983c11.582-0.326,23.165-0.314,34.746-0.075c7.813,0.162,15.631,0.293,23.417,1.057
		c3.133,0.307,6.048,1.18,8.378,3.453c2.673,1.945,3.792,4.795,4.57,7.844c0.229,0.354,0.343,0.738,0.307,1.163
		c0.382,0.928,0.604,1.889,0.587,2.898c0.236,0.756,0.32,1.529,0.262,2.318c0.078,0.682,0.156,1.363,0.234,2.045
		C154.639,91.648,154.408,100.986,154.206,110.325z"/>
</g>
</svg>
