<svg id="圖層_1" xmlns="http://www.w3.org/2000/svg" viewBox="0 0 200 200"><style>.st0{fill:#fff}</style><path class="st0" d="M175.8 62.2c0-.4-.1-.9-.3-1.3 0-.8-.2-1.6-.8-2.3l-21.1-24.8v-17c0-1.1-.5-2-1.3-2.7-.5-1.3-1.7-2.3-3.2-2.3H50.6c-1.9 0-3.4 1.5-3.4 3.4 0 .4.1.8.2 1.1v17.4l-21.1 25c-.5.6-.7 1.2-.8 1.9-.3.5-.5 1.1-.5 1.7 0 9.9 7.1 18.3 17.1 21.9v59c0 3.3 2.7 5.9 6 5.9h103.3c3.3 0 6-2.7 6-5.9V84.6c10.7-3.2 18.4-12 18.4-22.4zM54.1 31.8V18.7H147v13.1H54.1zm96.5 110.5H48.9V85.6c1.2.1 2.4.2 3.6.2.8 0 1.5 0 2.2-.1v30.9c0 2.5 2.1 4.5 4.6 4.5h50c2.5 0 4.6-2 4.6-4.5V84.2c0-.5-.1-.9-.3-1.3 4.5-2.2 8.3-5.4 10.8-9.3 4.7 7.3 13.7 12.3 24 12.3.7 0 1.4 0 2.1-.1v56.5zM76.4 73.6c4.7 7.3 13.7 12.3 24 12.3 2.3 0 4.6-.3 6.7-.7v29.3H61.4v-30c6.4-1.9 11.8-5.8 15-10.9zm72.1 5.5c-11.4 0-20.6-7.6-20.6-16.9 0-1.9-1.5-3.4-3.4-3.4s-3.4 1.5-3.4 3.4c0 9.3-9.3 16.9-20.6 16.9-11.4 0-20.6-7.6-20.6-16.9 0-1.9-1.5-3.4-3.4-3.4s-3.4 1.5-3.4 3.4c0 9.3-9.3 16.9-20.6 16.9-11.2 0-20.4-7.4-20.6-16.5l20.4-24.1H79l-3.8 9.1c-.7 1.7.1 3.7 1.8 4.4.4.2.9.3 1.3.3 1.3 0 2.6-.8 3.1-2.1l4.8-11.4c0-.1 0-.1.1-.2h30.3l3.6 11.5c.5 1.4 1.8 2.4 3.2 2.4.3 0 .7-.1 1-.2 1.8-.6 2.8-2.5 2.2-4.2l-3-9.5h25.2L169 62.4c0 9.2-9.2 16.7-20.5 16.7z"/><path class="st0" d="M164.6 121.7v6.4c13.7 6 18.6 13.6 18.6 21.1 0 15.3-33.4 31.8-83.2 31.8-49.8 0-83.2-16.4-83.2-31.8 0-6.8 4.6-13.9 16.4-19.6v-6.5C18.1 129.8 11 139 11 149.2c0 21.2 39.1 37.8 89 37.8s89-16.6 89-37.8c0-10.9-7.4-20.6-24.4-27.5z"/></svg>