<svg xmlns="http://www.w3.org/2000/svg" width="200" height="200"><g fill="#FFF"><path d="M9.8 134.1c.5-3.1.8-6.199 1.4-9.199 2.1-10 7.1-18.5 14.3-25.7l73.5-73.5c9.4-9.4 20.6-14.7 33.9-15.6.399 0 .8-.2 1.199-.3h4.4c3.3.5 6.7.8 10 1.6 20.2 5.5 33.3 18.3 38.1 38.6 4.4 18.6-.6 35.1-14.1 48.7-24.4 24.7-49.1 49.2-73.7 73.7C88.7 182.5 76.4 188 62.1 188c-17 0-31-6.8-41.6-20.3-6.4-8.2-9.9-17.601-10.6-28 0-.4-.2-.8-.3-1.2.2-1.5.2-3 .2-4.4zm127-10.5c10.5-10.399 21-20.6 31.3-31.2 9.5-9.7 13.801-21.6 12.301-35.1-2.2-19.1-12.7-32.2-31-38.1-15.5-5-30.101-2-42.2 9C95.9 38.6 85.3 49.8 74.5 60.6c-.2.2-.2.4-.2.4 20.9 21 41.7 41.8 62.5 62.6zm-112-12.3c-1.3 2.601-2.6 5-3.8 7.4-.2.399-.2 1-.1 1.399.4 1.7-.1 2.9-1.3 4-.3.301-.6.7-.7 1.2-1.3 4.7-1.6 9.5-1.2 14.3 3.4 1.2 4.6 4.2 2.5 6.2-1.4 1.3-1.1 2.3-.7 3.601 3.2 9.899 9.1 17.8 17.7 23.6 3.1 2.1 6.5 3.5 10.1 5.5-.2-2.6.3-4.3 2.3-5 1.4-.5 2.8-.2 3.8.8 1.7 1.7 1.2 3.601.1 5.4 4.9 1.2 13.6 1.1 16.9-.2-1.2-2.2-1.2-3.6 0-5 1.1-1.2 2.4-1.6 3.9-1 2 .7 2.6 2.4 2.4 4.5.9-.3 1.7-.6 2.5-.9 5.7-2.399 10.6-6 15-10.3 12.1-12 24.1-24.1 36.2-36.2.399-.399.8-.899 1-1L69 67.201l-5.9 5.9c1.8.7 2.9 2.1 2.7 3.9-.2 1.7-1.4 3-3.1 3.3-1.8.3-3.2-.6-4.2-2.8-2.2 2.2-4.4 4.5-6.6 6.7 2.2 1.2 3.1 2.5 2.8 4.3-.3 1.6-1.5 2.8-3.1 3-2 .2-3.1-.6-4.2-2.9l-6.7 6.7c2.4 1.2 3.2 2.3 2.9 4.3-.2 1.7-1.3 2.7-2.9 3.1-1.9.399-3.2-.5-4.3-2.5-2.2 2-4.6 4.2-7.1 6.399 2 .5 3.1 1.801 3.2 3.7 0 1.601-.7 2.8-2.3 3.4-2.5.6-4-.5-5.4-2.4z"/><path d="M92 106.3c-2 0-3.7-1.6-3.7-3.6s1.5-3.6 3.5-3.7c2.1-.1 3.7 1.5 3.8 3.5 0 2.1-1.6 3.7-3.6 3.8zm-.2 37.2c2.1 0 3.7 1.6 3.7 3.6s-1.7 3.7-3.7 3.7c-1.9 0-3.6-1.6-3.6-3.6s1.6-3.6 3.6-3.7zm-44.4 0c2.1 0 3.6 1.6 3.6 3.7 0 2-1.6 3.6-3.6 3.6s-3.7-1.7-3.7-3.6c-.1-2 1.6-3.7 3.7-3.7zm11-3.8c-2.1 0-3.6-1.7-3.6-3.8.1-2 1.7-3.5 3.6-3.601 2 0 3.7 1.7 3.7 3.7 0 2.101-1.7 3.701-3.7 3.701zm59.5-14.8c0 1.899-1.7 3.699-3.7 3.699-1.9 0-3.7-1.8-3.7-3.699 0-1.9 1.8-3.7 3.7-3.7 1.9 0 3.7 1.8 3.7 3.7zM84.4 91.4c0 2-1.6 3.7-3.6 3.7s-3.7-1.7-3.7-3.7c0-1.9 1.7-3.6 3.6-3.7 1.9 0 3.7 1.7 3.7 3.7zm-29.6 67c0-2.101 1.6-3.7 3.6-3.7s3.7 1.7 3.7 3.7c0 1.899-1.6 3.6-3.6 3.699-1.9.001-3.6-1.699-3.7-3.699zm14.9-14.9c2 0 3.7 1.8 3.6 3.8-.1 1.9-1.8 3.5-3.7 3.5-2 0-3.7-1.7-3.7-3.7.1-2 1.7-3.6 3.8-3.6zm3.6-40.9c0 2-1.7 3.7-3.7 3.601-2 0-3.7-1.7-3.6-3.8.1-2 1.7-3.5 3.6-3.601 2 .1 3.7 1.8 3.7 3.8zm7.5 7.5c2 0 3.7 1.7 3.6 3.7 0 1.9-1.7 3.601-3.6 3.601-1.9 0-3.7-1.7-3.8-3.7 0-1.901 1.8-3.601 3.8-3.601zM95.5 125c0 2-1.8 3.7-3.8 3.6-1.9-.1-3.5-1.699-3.6-3.6 0-2 1.7-3.7 3.7-3.7 2.1-.1 3.8 1.6 3.7 3.7zm33.5 11.1c0 2.101-1.6 3.601-3.7 3.601-2 0-3.6-1.601-3.6-3.601s1.7-3.699 3.7-3.699c1.9-.001 3.6 1.599 3.6 3.699zm-78-11.2c0 2-1.7 3.699-3.7 3.699s-3.7-1.8-3.6-3.8c.1-1.899 1.7-3.6 3.6-3.6 2 .001 3.7 1.701 3.7 3.701zm48.4-11.2c0-2 1.7-3.601 3.8-3.601 2 .101 3.6 1.7 3.6 3.601 0 2-1.8 3.7-3.7 3.7-2.1 0-3.7-1.7-3.7-3.7zm-63.2 26c-2 0-3.7-1.7-3.7-3.7.1-1.9 1.7-3.6 3.6-3.6 2 0 3.7 1.699 3.7 3.699.1 1.901-1.6 3.601-3.6 3.601zm78 3.8c2 0 3.7 1.7 3.7 3.7 0 1.899-1.7 3.6-3.601 3.6-2 0-3.7-1.7-3.8-3.6.001-2 1.701-3.7 3.701-3.7zm-40.9-18.6c0 1.899-1.8 3.699-3.7 3.699-2 0-3.7-1.699-3.6-3.699 0-2 1.8-3.7 3.7-3.7 1.9 0 3.6 1.8 3.6 3.7zm7.4 14.8c-2 0-3.7-1.8-3.6-3.8.1-1.9 1.8-3.5 3.7-3.601 2 0 3.7 1.7 3.7 3.7-.1 2.101-1.8 3.701-3.8 3.701zm22.3 0c-2.1 0-3.7-1.601-3.6-3.7 0-2 1.6-3.6 3.5-3.6 2-.101 3.699 1.6 3.8 3.6.1 2-1.6 3.7-3.7 3.7zM36.3 162c-1.9.1-3.7-1.7-3.8-3.6-.1-1.9 1.6-3.7 3.6-3.7s3.7 1.6 3.8 3.6c0 1.9-1.7 3.7-3.6 3.7zm44.4 0c-1.9 0-3.7-1.8-3.7-3.8s1.8-3.7 3.8-3.601c1.9.101 3.5 1.7 3.6 3.601 0 2.1-1.7 3.8-3.7 3.8zm18.7-3.7c0-2 1.7-3.7 3.7-3.6 2 .1 3.601 1.7 3.601 3.6 0 1.9-1.8 3.7-3.7 3.7-2.001 0-3.601-1.7-3.601-3.7zM51 169.4c0 2.1-1.6 3.699-3.6 3.699s-3.7-1.699-3.7-3.699c0-1.9 1.7-3.601 3.6-3.601 1.9-.099 3.6 1.601 3.7 3.601zm22.3.1c0 2-1.8 3.7-3.8 3.6-2 0-3.6-1.8-3.6-3.8.1-1.899 1.7-3.6 3.6-3.6 2.1.1 3.8 1.9 3.8 3.8zm-18.5-55.8c0-2.101 1.7-3.601 3.7-3.601s3.6 1.601 3.6 3.601-1.7 3.7-3.7 3.7c-1.9 0-3.6-1.7-3.6-3.7zm40.7 55.8c0 2-1.7 3.7-3.7 3.6-2 0-3.6-1.6-3.6-3.6s1.7-3.7 3.6-3.7c2.1 0 3.8 1.7 3.7 3.7z"/></g></svg>