<svg xmlns="http://www.w3.org/2000/svg" width="200" height="200"><path d="M31.779 124.408c-12.561 0-23.359-10.356-24.073-23.085-.288-6.204 2.101-12.487 6.55-17.276 4.53-4.876 10.775-7.772 17.134-7.945.203-.006.412-.009.62-.009 12.41 0 23.393 10.587 23.984 23.119.286 6.229-2.096 12.537-6.534 17.312-4.49 4.831-10.706 7.702-17.053 7.875-.205.005-.418.009-.628.009zm.232-40.315c-.132 0-.265.002-.397.006-4.23.115-8.419 2.081-11.497 5.394-2.997 3.226-4.608 7.389-4.422 11.423.478 8.518 8.094 15.722 16.491 15.487 4.218-.115 8.378-2.057 11.416-5.325 2.985-3.212 4.59-7.401 4.402-11.494-.389-8.251-7.862-15.491-15.993-15.491zM99.2 124.4h-.038c-12.869-.122-23.842-11.005-23.962-23.764-.113-6.235 2.428-12.487 6.974-17.116 4.569-4.653 10.821-7.322 17.152-7.322l.21.001.134-.001c12.675 0 23.588 10.819 23.829 23.625.115 6.184-2.461 12.42-7.066 17.111-4.658 4.746-10.938 7.466-17.233 7.466zm.126-40.201c-4.199 0-8.37 1.796-11.444 4.927-3.051 3.107-4.758 7.263-4.682 11.4.079 8.386 7.562 15.782 16.019 15.874 4.155-.006 8.348-1.853 11.505-5.068 3.111-3.17 4.853-7.31 4.777-11.358-.159-8.403-7.557-15.775-15.831-15.775l-.132.001-.212-.001zm67.609 40.104l-.408-.004c-12.797-.239-23.707-11.166-23.826-23.861-.058-6.269 2.522-12.5 7.078-17.097 4.56-4.602 10.773-7.241 17.048-7.241l.21.001c12.748.121 23.722 11.031 23.963 23.824.113 6.163-2.436 12.358-6.992 17-4.606 4.688-10.828 7.378-17.073 7.378zm-.109-40.204c-4.155 0-8.297 1.776-11.365 4.873-3.063 3.091-4.799 7.244-4.761 11.392.079 8.478 7.395 15.776 15.975 15.938l.26.002c4.112 0 8.254-1.816 11.363-4.983 3.063-3.12 4.776-7.219 4.703-11.246-.159-8.429-7.654-15.894-16.039-15.973l-.136-.003z" fill="#FFF"/></svg>