<svg xmlns="http://www.w3.org/2000/svg" width="200" height="200"><path fill="#FFF" d="M100 193c-51.3 0-93-41.7-93-93S48.7 7 100 7s93 41.7 93 93-41.7 93-93 93zm0-180c-48 0-87 39-87 87s39 87 87 87 87-39 87-87-39-87-87-87z"/><path fill="#FFF" d="M148.4 55c-13.7-5.8-27.5-11.3-40.4-16.3-5.2-2-10.3-2.1-15-.2-4.6 1.8-9.2 3.7-13.8 5.5-9.1 3.6-18.6 7.4-27.9 11.2-3.8 1.6-5.8 5-5.7 9.6.6 27.6 7.5 50.5 21.3 69.9 9.4 13.2 18.4 21.6 29.1 27.2 1.4.8 2.8 1.1 4.1 1.1s2.6-.4 3.8-1.2c1.199-.8 2.399-1.6 3.6-2.399 3-2 6.2-4 8.9-6.5C140.6 130.8 152.9 102.7 154 67c1.1-7.5-2.4-10.7-5.6-12zm-2.9 10.6c-.1.9-.2 1.7-.2 2.6 0 .4-.1.8-.1 1.2v.1c-1 28.8-11.2 53.3-30.5 72.9-2.2 2.199-4.7 4.199-7.101 6.199-1.399 1.2-2.899 2.4-4.3 3.601-2.2 1.899-4.1 1.899-6.9 0-9.1-6.3-17-14.601-24.2-25.4C60.8 109.3 55 89.2 54.5 65.1c0-1.5.4-2.2 1.7-2.7l32.1-12.9 6.2-2.5c1.9-.8 3.8-1.1 5.6-1.1 1.9 0 3.8.4 5.8 1.2 5 2 10.1 4.1 15.1 6.1 7.5 3 15 6 22.4 9 1.7.6 2.3 1.6 2.1 3.4z"/></svg>