<svg xmlns="http://www.w3.org/2000/svg" width="200" height="200"><path fill="#FFF" d="M175.7 87.6c0-41.7-34-75.7-75.7-75.7s-75.7 34-75.7 75.7c0 36.9 26.6 67.7 61.6 74.3 2.6 6.399 8.3 11.199 15.1 12.8-.8 1.3-1.2 2.899-1.2 4.5 0 4.8 4 8.899 8.8 8.899h36.9c4.8 0 8.8-4.1 8.8-8.899 0-2.101-1.2-4.2-2.399-5.7 7.6-3.3 12.6-10.9 12.6-19.7v-24.5c0-.6-.1-1.2-.2-1.7 7.199-11.7 11.399-25.4 11.399-40zm-138.1 0c0-34.4 28-62.4 62.4-62.4s62.4 28 62.4 62.4c0 10.4-2.601 20.2-7.101 28.9-1.3-2.4-3.899-4-6.8-4-.7 0-1.4.1-2 .3 4.1-7.5 6.4-16.1 6.4-25.2 0-29.2-23.7-52.9-52.9-52.9S47.1 58.4 47.1 87.6c0 23.7 15.7 43.8 37.2 50.5v9.901C57.4 141 37.6 116.6 37.6 87.6zm75.9 18.5V86c0-4.6-3.7-7.9-8.3-7.9H104c-4.6 0-8.8 3.3-8.8 7.9v24c-10.3-2.2-18.1-11.4-18.1-22.4 0-12.6 10.3-22.9 22.9-22.9 12.6 0 22.9 10.3 22.9 22.9 0 7.6-3.7 14.3-9.4 18.5zm25.2 4a7.849 7.849 0 0 0-5.101-1.899c-4.3 0-7.8 3.5-7.8 7.8v-3.2c0-3.899-2.8-7.2-6.6-7.7 4.2-4.6 6.8-10.7 6.8-17.399 0-14.3-11.6-25.9-25.9-25.9S74.2 73.4 74.2 87.7c0 12.6 9.1 23.2 21.1 25.5v7c-.7-.5-2-.9-3.3-.9-4.3 0-7.6 3.5-7.6 7.8v2.5c-16.9-6.399-29-22.8-29-41.899 0-24.7 20.1-44.8 44.8-44.8S145 63 145 87.7c-.2 8.1-2.5 15.8-6.3 22.4z"/></svg>