<svg xmlns="http://www.w3.org/2000/svg" width="200" height="200"><path fill="#FFF" d="M86.755 177.989c-7.854 0-14.497-3.122-18.706-8.793-5.225-7.039-6.176-17.286-2.677-28.854 1.818-6.001 4.081-10.036 6.269-13.938 2.872-5.121 5.841-10.417 8.366-21.122 4.134-17.639 14.954-28.173 28.941-28.173 7.736 0 16.042 3.299 24.017 9.541 8.683 6.814 14.32 9.063 19.771 11.238 4.152 1.656 8.445 3.368 13.622 6.911 12.434 8.471 18.154 19.851 15.295 30.436-3.146 11.648-15.819 19.64-33.072 20.855-17.879 1.25-22.398 2.842-37.203 13.099-8.314 5.757-16.828 8.8-24.623 8.8zm22.193-92.88c-10.166 0-17.876 8.02-21.154 22.004-2.785 11.806-6.181 17.861-9.176 23.203-2.159 3.852-4.024 7.178-5.59 12.344-2.747 9.081-2.234 16.813 1.444 21.768 2.701 3.639 6.948 5.562 12.282 5.562 6.16 0 13.099-2.551 20.067-7.377 15.867-10.993 22.028-13.162 41.198-14.503 13.75-.969 23.679-6.702 25.909-14.961 1.959-7.252-2.444-15.177-12.082-21.743-4.453-3.047-7.985-4.456-12.075-6.087-5.699-2.273-12.158-4.85-21.742-12.372-6.549-5.127-13.149-7.838-19.081-7.838zM47.75 137.987c-7.506 0-16.524-4.08-24.125-10.913-5.767-5.186-10.104-11.356-12.213-17.377-2.397-6.846-1.717-12.837 1.915-16.873 2.597-2.886 6.409-4.411 11.023-4.411 7.506 0 16.524 4.079 24.124 10.912 5.767 5.185 10.105 11.356 12.214 17.378 2.397 6.845 1.717 12.838-1.915 16.873-2.597 2.886-6.409 4.411-11.023 4.411zm-23.4-41.574c-1.592 0-3.766.306-5.077 1.763-1.564 1.738-1.677 4.974-.311 8.877 1.648 4.704 5.297 9.833 10.012 14.072 6.08 5.467 13.274 8.862 18.776 8.862 1.592 0 3.766-.306 5.077-1.763 1.564-1.738 1.678-4.974.311-8.877-1.648-4.705-5.297-9.834-10.012-14.073-6.08-5.465-13.274-8.861-18.776-8.861zm49.597-1.504h-.001c-9.002-.001-19.739-7.247-27.355-18.461-6.722-9.718-9.811-20.522-8.242-28.871.825-4.392 2.938-7.847 6.112-9.991 2.299-1.554 4.998-2.342 8.019-2.342 9.011 0 19.775 7.222 27.422 18.397 6.73 9.73 9.818 20.534 8.25 28.883-.825 4.392-2.938 7.847-6.112 9.991-2.295 1.581-5.028 2.394-8.093 2.394zM52.479 43.244c-1.396 0-2.587.327-3.54.971-1.382.934-2.3 2.562-2.728 4.839-1.147 6.106 1.592 15.083 6.978 22.871 5.999 8.833 14.527 14.983 20.757 14.984h.001c1.413 0 2.618-.337 3.583-1.002 1.413-.955 2.331-2.583 2.759-4.86 1.147-6.106-1.592-15.083-6.978-22.871-6.021-8.799-14.582-14.932-20.832-14.932zm112.66 50.764c-.662 0-1.329-.054-1.98-.16-3.532-.574-6.68-2.663-9.103-6.04-4.528-6.312-6.174-16.43-4.401-27.065 2.613-15.789 11.617-27.25 21.407-27.25.662 0 1.328.054 1.98.16 10.272 1.82 16.181 16.346 13.508 33.079-2.617 15.813-11.621 27.276-21.411 27.276zm5.923-52.516c-4.884 0-11.479 8.262-13.516 20.561-1.388 8.331-.206 16.608 3.01 21.091 1.173 1.634 2.479 2.579 3.886 2.807.229.037.464.056.697.056 4.884 0 11.479-8.262 13.515-20.561 2.015-12.612-2.007-23.032-6.951-23.909a4.563 4.563 0 0 0-.641-.045zm-50.674 34.936h-.002c-10.9 0-20.218-13.588-21.672-31.606-1.382-18.647 6.338-33.926 17.573-34.81.343-.027.686-.04 1.027-.04 11.013 0 20.331 13.598 21.676 31.63 1.379 18.623-6.341 33.902-17.576 34.785-.344.028-.685.041-1.026.041zm-3.075-58.456c-.133 0-.267.005-.4.016-5.721.45-11.327 11.328-10.224 26.217 1.169 14.479 8.026 24.223 13.697 24.223.133 0 .266-.005.399-.016 5.722-.45 11.328-11.327 10.225-26.217-1.063-14.274-8.072-24.223-13.697-24.223z"/></svg>