<svg xmlns="http://www.w3.org/2000/svg" width="200" height="200"><g fill="#FFF"><path d="M102.4 167.4c-30.9 0-56.1-25.2-56.1-56.1 0-30.9 25.2-56.1 56.101-56.1 30.899 0 56.1 25.2 56.1 56.1-.001 31-25.101 56.1-56.101 56.1zm0-105.6c-27.3 0-49.5 22.2-49.5 49.5s22.2 49.5 49.5 49.5 49.5-22.2 49.5-49.5-22.2-49.5-49.5-49.5z"/><path d="M102.4 150.9c-10.601 0-20.5-4.101-28-11.601a3.32 3.32 0 0 1 0-4.7c1.3-1.3 3.4-1.3 4.7 0 6.2 6.2 14.5 9.7 23.3 9.7 18.199 0 33-14.8 33-33 0-9.7-4.2-18.8-11.601-25.1-1.399-1.2-1.6-3.3-.399-4.7 1.199-1.4 3.3-1.5 4.699-.4 8.801 7.5 13.9 18.5 13.9 30.1C142 133.2 124.3 150.9 102.4 150.9zm-36.3-36.3c-1.8 0-3.3-1.5-3.3-3.3 0-21.8 17.8-39.6 39.601-39.6 1.8 0 3.3 1.5 3.3 3.3s-1.5 3.3-3.3 3.3c-18.2 0-33 14.8-33 33-.001 1.8-1.501 3.3-3.301 3.3zM29.8 68.4c-2.7 0-7.4-1.7-10.7-3.3l-1.4-.7c-4.3-2.2-7.7-7.7-7.7-12.5v-33c0-1.8 1.5-3.3 3.3-3.3 1.8 0 3.3 1.5 3.3 3.3v33c0 2.4 2 5.5 4.1 6.6l1.4.7c3.1 1.6 6.7 2.6 7.7 2.6s4.6-1 7.7-2.6l1.4-.7c2.1-1.1 4.1-4.2 4.1-6.6v-33c0-1.8 1.5-3.3 3.3-3.3 1.8 0 3.3 1.5 3.3 3.3v33c0 4.9-3.4 10.3-7.7 12.5l-1.4.7c-3.3 1.6-8 3.3-10.7 3.3z"/><path d="M29.8 68.4c-1.8 0-3.3-1.5-3.3-3.3V18.9c0-1.8 1.5-3.3 3.3-3.3 1.8 0 3.3 1.5 3.3 3.3v46.2c0 1.8-1.5 3.3-3.3 3.3z"/><path d="M29.8 187.2c-5.4 0-13.2-8.2-13.2-23.101 0-9 2.8-23.3 5.4-37 2.3-11.899 4.5-23.1 4.5-29V68.4c0-1.8 1.5-3.3 3.3-3.3 1.8 0 3.3 1.5 3.3 3.3v29.7c0 2.3 1.6 10.8 3.2 19.8 3 16 6.7 35.8 6.7 46.199C43 179 35.2 187.2 29.8 187.2zm.3-67c-.5 2.7-1 5.399-1.6 8.2-2.6 13.5-5.3 27.399-5.3 35.699 0 11.4 5.3 16.301 6.7 16.5 1.2-.199 6.5-5.199 6.5-16.5 0-9.499-3.6-29.099-6.3-43.899zm148.2 67c-8 0-16.5-4.3-16.5-16.5 0-4.8.7-9.601 1.5-14.601.9-5.699 1.8-11.6 1.8-18.399v-19.5c-.1-1-.1-3.2 1.601-5.4.899-1.1 2-2 3.5-2.7-3.2-5.5-8.3-18.1-8.3-41.6 0-54 21.5-59.1 22.399-59.3 1-.2 2 0 2.8.7.801.6 1.2 1.6 1.2 2.6V174c-.1 4.6-2.1 13.2-10 13.2zm3.3-72.6c-7.1 0-9.1 1.601-9.6 2.101-.3.3-.3.6-.3.6.2.4.1.101.1.601v19.8c0 7.3-1 13.7-1.899 19.399-.7 4.801-1.4 9.301-1.4 13.601 0 8.2 5.4 9.899 9.9 9.899 3.1 0 3.3-6.6 3.3-6.6v-59.4h-.101zm0-96.5c-5.1 4.7-13.199 17.3-13.199 50.3 0 25.8 6.399 37 8.399 39.9 1.5-.2 3-.3 4.8-.3V18.1z"/></g></svg>