<svg xmlns="http://www.w3.org/2000/svg" width="200" height="200"><g fill="#FFF"><path d="M173.2 26.1h-131c-1.4 0-2.7.7-3.5 1.7L12.5 54.1c-.5.4-.9.9-1.2 1.4l-.1.2c-.3.7-.5 1.3-.5 2.1v11.4c0 7.1 4.7 13.4 11.6 15.4v73.1c0 8.899 7.2 16.1 16.1 16.1h134.8c8.899 0 16.1-7.2 16.1-16.1V42.2c0-8.9-7.2-16.1-16.1-16.1zm0 138.6h-35.6c1.101-2.2 1.601-4.601 1.601-7V35.3H173.1c3.801 0 7 3.1 7 7v115.5c0 3.8-3.1 6.9-6.9 6.9zM64.6 131.5v33.2H50.7v-33.2h13.9zM33.8 62.2v7c0 3.8-3.1 7-7 7-3.8 0-7-3.1-7-7v-7h14zm35.4 60.2H46.1c-2.5 0-4.6 2.1-4.6 4.6v37.8h-3.1c-3.8 0-7-3.1-7-7V84.6c2.6-.8 5-2.2 6.9-4.3 3.1 3.2 7.2 5 11.6 5 4.3 0 8.5-1.8 11.6-5 3.1 3.2 7.2 5 11.6 5 4.3 0 8.5-1.8 11.6-5 3.1 3.2 7.2 5 11.6 5 8.9 0 16.101-7.2 16.101-16.1v-9.8l17.8-17.8v116.1c0 3.8-3.101 7-7 7H73.8V127c0-2.6-2.1-4.6-4.6-4.6zm33.9-53.2c0 3.8-3.1 7-7 7-3.8 0-7-3.1-7-7v-7H103l.1 7zm-23.1 0c0 3.8-3.1 7-7 7-3.8 0-7-3.1-7-7v-7h14v7zm-23.1 0c0 3.8-3.1 7-7 7-3.8 0-7-3.1-7-7v-7h13.9v7h.1zm38.6-16.1l17.8-17.8h10.4l-17.8 17.8H95.5zm-23.1 0l17.8-17.8h10.4L82.8 53.1H72.4zm-23.1 0l17.8-17.8h10.4L59.7 53.1H49.3zm-23.1 0L44 35.3h10.4L36.6 53.1H26.2z"/><path d="M84.6 131.5h30.8c2.5 0 4.6-2.1 4.6-4.6v-27c0-2.5-2.1-4.6-4.6-4.6H84.6c-2.5 0-4.6 2.1-4.6 4.6v27c0 2.6 2.1 4.6 4.6 4.6zm4.6-9.1v-17.8h21.6v17.8H89.2z"/></g></svg>