<svg xmlns="http://www.w3.org/2000/svg" width="43" height="41"><path fill="#FFF" d="M16.6 28.9c.7-.7 1.5-1.301 2.4-1.9-10.4 0-17-4-17-6V11c3.1 2.6 9.5 5 17 5 7.4 0 13.9-2.4 17-5v8.1c.7.4 1.4.8 2 1.3V8c0-4.4-8.5-8-19-8C9.3 0 1.4 2.9.2 6.8L0 8v26c0 3.6 7 6.4 16.1 6.9-.5-.7-1-1.4-1.3-2.101C6.9 37.9 2 34.7 2 33v-9c2.8 2.3 8.1 4.5 14.6 4.9M19 2c10.4 0 17 3.6 17 6-.4 2.4-6.9 6-17 6C8.6 14 2 10.4 2 8s6.6-6 17-6m19 27.7v-.2c0-4.1-3.4-7.4-7.5-7.4S23 25.4 23 29.5v.2c-2.6.6-5 2.5-5 5.3 0 3.3 3.7 6 7 6h12c3 0 6-2.7 6-6 0-2.8-2.4-4.6-5-5.3M37 39H25c-2.2 0-5-1.8-5-4s2.3-3.5 4.5-3.5c.3 0 .6.1.9.1-.2-.6-.4-1.3-.4-2 0-3 2.5-5.399 5.5-5.399S36 26.6 36 29.6c0 .7-.1 1.4-.4 2.101.3-.101.6-.101.9-.101 2.2 0 4.5 1.301 4.5 3.5 0 2.1-1.8 3.9-4 3.9"/></svg>