<svg xmlns="http://www.w3.org/2000/svg" width="200" height="200"><path d="M117.6 121.1L85.9 89.4c.1-.2.4-.8.8-1.2C105.3 69.4 124 50.7 142.8 32c7.2-7.1 17-8.7 25.8-4.6 8.301 3.9 13.9 12.5 12.801 21.8-.5 4.6-2.101 9.9-5.199 13.1C157.1 82.1 137.5 101.4 118.1 120.8c-.1.2-.5.3-.5.3zm-5.5-22.2c1.4-1.1 2.102-1.5 2.602-2.1 16.6-16.6 33.199-33.1 49.699-49.7.601-.6 1.399-1.2 1.601-1.9.2-1.2.5-3-.101-3.5-.899-.7-2.699-1-3.899-.6-1.101.3-2.101 1.6-3 2.5l-47.601 47.6c-1 1-1.899 2.2-3.301 3.8 1.3 1.3 2.5 2.4 4 3.9zm-8.4-8.2c1.399-1 2.1-1.4 2.7-1.9 15.3-15.3 30.699-30.6 46-45.9.6-.6 1.5-1.2 1.5-1.9 0-1.3 0-3-.801-3.9-.5-.6-2.399-.4-3.5 0-1 .4-1.801 1.5-2.601 2.3l-43.8 43.8c-1 1-1.801 2.2-2.9 3.4 1.302 1.6 2.302 2.8 3.402 4.1zm16.5 16.3c1.3-1 1.8-1.3 2.3-1.8l45.9-45.9c.6-.6 1.5-1.2 1.6-1.9.2-1.3.4-3.2-.3-3.9-.8-.7-2.7-.6-3.9-.2-1.1.4-2 1.7-3 2.6L118.7 100c-.8.8-1.4 1.7-2.4 2.9 1.4 1.5 2.5 2.7 3.9 4.1zM20.7 48.7c4.8 5.1 8.9 9.7 13.2 14 7.8 7.8 18.6 8 25.8.7 7.2-7.3 7-17.5-.7-25.4-3.9-4.1-8-7.9-12.1-12 9.9-5.1 27.2.8 35.9 12 10.7 14 10.1 33.3-1.5 46.5-11.4 12.9-31.1 15.8-46 6.7-14.1-8.7-20.7-26.4-14.6-42.5zm88.9 90.4l27.5-27.199c9.801 9.699 20.102 19.301 29.801 29.601 7.101 7.5 6.199 19.399-1 26.7-7.101 7.1-19 8.398-26.301 1.6-10.4-9.802-20-20.402-30-30.702zm51.7 15.8c0-4.801-4.2-9-8.899-8.9-4.399.1-8.601 4.3-8.699 8.7-.102 4.6 4.199 9.1 8.8 9.1 4.698.2 8.798-4 8.798-8.9zM61.2 135c8.8-9 17.5-17.7 26.3-26.6 3.3 3.5 6.5 6.8 10.1 10.6-8.8 8.6-17.6 17.4-26.4 26 2.5 4.6 1.6 8.2-2.8 11-10.5 6.7-21.2 13.2-32.5 20.1-1.6-2.1-3.2-4.199-5.2-6.898 6.4-10.301 13.2-21.5 20.2-32.5 2.3-3.602 5.9-4.002 10.3-1.702z" fill="#265792"/></svg>