<svg xmlns="http://www.w3.org/2000/svg" width="200" height="200"><g fill="#265792"><path d="M115.723 80.913c0 7.713.297 15.526-.197 23.239-.197 2.968-1.483 6.529-3.562 8.705-7.417 8.01-15.229 15.524-22.944 23.141-4.252 4.154-8.307 4.648-11.669 1.386-3.461-3.264-2.967-7.813 1.187-12.065 6.132-6.229 12.165-12.461 18.593-18.493 2.769-2.571 3.758-5.341 3.659-9.099-.197-13.351-.099-26.702-.099-40.053 0-6.132 2.473-9.099 7.219-9.296 4.847-.099 7.714 3.165 7.813 9.296v23.239zm43.02 14.141h3.461c3.065.099 5.043 1.484 5.142 4.748.1 3.165-1.779 4.847-4.845 5.044-2.274.197-4.55.1-6.923.1-3.264 0-5.539-1.483-5.639-4.846-.099-3.659 2.274-5.143 5.836-5.044.991.097 1.979-.002 2.968-.002zm-20.077 33.426c2.967 0 10.285 7.121 10.384 10.088.101 3.561-3.856 6.527-6.725 4.55a30.111 30.111 0 0 1-7.911-7.912c-2.178-2.868.594-6.824 4.252-6.726zm10.384-67.347c.101 3.263-7.317 10.483-10.581 10.384-3.658-.099-6.132-4.055-4.055-6.922 2.077-2.868 4.646-5.539 7.518-7.615 2.866-2.078 7.019.593 7.118 4.153zm-38.767 89.699v2.967c0 3.165-1.088 5.639-4.551 5.735-3.758.198-5.142-2.274-5.24-5.636-.099-1.979 0-3.957 0-5.836.1-3.362 1.482-5.836 5.143-5.735 3.463.099 4.747 2.473 4.747 5.638-.099.889-.099 1.878-.099 2.867z"/><path d="M189.005 85.363c-6.032-36.79-41.142-66.854-78.325-66.063-4.748.099-7.912 2.769-8.012 6.824-.1 4.054 2.967 6.824 7.714 7.219 4.253.396 8.604.593 12.759 1.483 36.394 7.912 59.041 42.625 51.524 78.82-7.319 35.108-41.833 57.854-77.832 51.131-26.899-5.045-50.042-29.373-52.316-55.383a580.38 580.38 0 0 0 3.461 3.164c3.758 3.562 7.912 3.955 10.879.988 3.066-3.064 2.868-7.12-.791-10.879-5.044-5.142-10.187-10.285-15.329-15.427-4.945-4.846-7.912-4.747-12.956.198-5.637 5.538-11.274 11.076-16.813 16.614-3.066 2.178-3.659 6.43-1.483 9.494 2.176 2.868 6.132 3.659 9.099 1.682h.099c.099-.099.198-.099.297-.197.297-.197.495-.396.692-.594l2.176-1.682c1.483-1.088 3.263-2.57 5.439-4.352.594 2.867 1.088 5.537 1.682 8.109 6.725 30.162 28.581 52.812 57.36 60.723 0 0 5.241 1.779 13.647 2.57h.494c6.032.494 13.746.494 22.449-1.187.891-.099 1.582-.197 2.076-.297 2.967-.691 5.934-1.483 8.703-2.474.1 0 .197-.099.297-.099 23.934-8.308 42.328-27.396 50.141-51.13v-.1c6.923-19.475 2.869-39.155 2.869-39.155z"/></g></svg>