<svg xmlns="http://www.w3.org/2000/svg" width="200" height="200"><path fill="#FFF" d="M100 193c-51.3 0-93-41.7-93-93S48.7 7 100 7s93 41.7 93 93-41.7 93-93 93zm0-180c-48 0-87 39-87 87s39 87 87 87 87-39 87-87-39-87-87-87z"/><path fill="#FFF" d="M51.8 88.4h3.4v7.9c-.2.1-2.8.1-3.3 0 0-.1 0-.3-.1-.4-.2-1.1-.7-1.9-1.5-2.6-.8-.7-1.7-1.1-2.6-1.5-1.3-.5-2.6-.8-3.9-.9-1.2-.2-2.3-.2-3.5-.2-1.6 0-3.2.1-4.8.5-.6.2-1.1.3-1.6.7-.3.2-.6.4-.8.7-.3.3-.4.7-.4 1.1 0 .4.1.7.4.9.3.2.6.4.9.5.7.3 1.4.4 2.1.5 1.2.2 2.5.3 3.7.4 1.6.2 3.3.3 4.9.5 1.8.2 3.7.6 5.5 1.1 1.3.4 2.5.9 3.6 1.7 1.2.9 2.2 2 2.5 3.5.4 1.601.3 3.2-.5 4.7-.5.9-1.2 1.6-2 2.3-1.1.8-2.3 1.4-3.6 1.8-1.5.5-3.1.801-4.7 1-1.1.101-2.1.2-3.2.2-1 0-1.9-.1-2.9-.3-2.4-.4-4.8-1-7.2-1.7-.4-.1-.8-.2-1.1-.399-.3-.2-.6-.2-1-.2v1.399c-.2.101-3.6.101-3.9 0v-9h3.7c0 .301.1.5.1.801.2 1.1.8 2 1.7 2.699.8.7 1.8 1.2 2.8 1.601 1.3.5 2.6.8 4 1 1.5.2 3.1.3 4.6.3 1.4 0 2.9-.2 4.2-.8.7-.3 1.4-.601 1.9-1.2.3-.3.5-.6.7-.9.1-.199.1-.3.1-.5-.1-.399-.3-.8-.6-1-.4-.3-.8-.6-1.3-.699-.9-.301-1.8-.5-2.7-.7-1.5-.3-3-.4-4.5-.601-2-.199-4-.399-6-.8-1.7-.3-3.4-.7-5.1-1.4-.9-.4-1.8-.9-2.5-1.6-1-1-1.5-2.2-1.6-3.6 0-1.8.7-3.3 2-4.5 1-1 2.3-1.7 3.6-2.3 1.7-.7 3.4-1.1 5.2-1.4 1.4-.2 2.8-.3 4.3-.3 1.2.1 2.3.2 3.5.4 2 .4 4 1 5.9 1.8.2.1.5.3.7.4.1.1.3.1.4.1.3 0 .4-.1.4-.4.1-.001.1-.301.1-.601 0 .1 0 0 0 0zm48 3.1v-3h11.7c.2 0 .3.1.5.2 3.7 3.3 7.4 6.7 11.1 10 1.4 1.3 2.801 2.5 4.2 3.8l.2.2v-9.8c0-.5-.2-.8-.6-1-.301-.1-.5-.2-.801-.2h-3.3v-3.2c.2-.1 13.4-.1 13.8 0v3.2H133c-.5.1-.8.4-.9.9v18.8h-4.899c-.101 0-.3-.101-.4-.101-2-1.8-3.899-3.5-5.899-5.3-3.801-3.4-7.601-6.8-11.5-10.2-.2-.1-.301-.3-.5-.4-.101.1-.101.2-.101.3v12.099c0 .3.101.4.4.4h4.1c.101.2.101 2.5 0 3.1-.2.101-12.8.101-13.7 0-.1-.2-.1-2.7 0-3.1h3.499c.5 0 .801-.3.801-.8v-15.2c0-.6-.2-.8-.801-.9h-3.299c.199.202.099.202-.001.202zm-20.9 21.6H77c-3.9-.3-7.6-1.399-10.8-3.8-1.6-1.2-2.9-2.6-3.9-4.3-.7-1.3-1.2-2.7-1.3-4.2-.2-2 .3-3.9 1.3-5.7 1-1.8 2.3-3.2 4-4.3 2-1.5 4.3-2.4 6.7-3.1 1.3-.3 2.7-.6 4-.7 1.2-.1 2.4-.1 3.6 0 2.8.2 5.5.8 8 2 1.8.8 3.4 1.9 4.8 3.3 1.5 1.4 2.6 3.1 3.1 5.1.7 2.5.4 4.9-.8 7.3-1 1.899-2.4 3.399-4.1 4.6-2 1.5-4.3 2.5-6.7 3.101-1.4.399-2.8.6-4.3.699h-1.7zm-.4-4.1c1.6 0 2.9-.2 4-.6 2-.7 3.8-1.7 5.1-3.5 1.8-2.4 2.3-5.101 1.1-8-.8-1.8-2.1-3.2-3.7-4.2-1.7-1-3.6-1.6-5.6-1.6-1.5-.1-3 .1-4.4.6-2 .7-3.7 1.8-5 3.6-1.6 2.2-2.1 4.7-1.2 7.3.6 1.801 1.7 3.101 3.2 4.2 2.1 1.5 4.4 2.1 6.5 2.2zm83.8-17.2v-3.2h13.3v3.3h-3.5c-.199 0-.3 0-.399.2-2.8 3-5.7 6.1-8.5 9.1-.7.7-1.3 1.399-2 2.1-.101.101-.101.2-.101.3v4.5c0 .301.2.5.5.5h4.1c.1.2.1 2.5 0 2.9-.2.1-15.5.1-16 0-.101-.2-.101-2.4 0-2.9h3.701c.3-.1.399-.199.5-.5v-4.699c0-.2-.101-.301-.2-.4-2.4-2.6-4.8-5.3-7.2-7.9l-2.7-3c-.1-.1-.3-.2-.399-.2h-3.901v-3.2c.2-.1 16.1-.1 16.4 0v3.2h-1.9c-.4 0-.7.2-.5.7.1.2.2.3.3.4l2.101 2.4 3 3.3c0 .1.1.1.1.2l.2-.2c1.8-2 3.7-4 5.5-6 .1-.1.2-.3.2-.5a.552.552 0 0 0-.5-.3h-1.9c-.002-.101-.102-.101-.202-.101z"/></svg>