<svg xmlns="http://www.w3.org/2000/svg" width="200" height="200"><path d="M160.9 23.3c.1-9.9-3.6-13.4-13.4-13.3-31.6.4-63.2.4-94.8 0-10.8-.2-13.8 4.3-13.6 14.4.5 24.8.2 49.7.2 74.5 0 25.7.3 51.4-.2 77.1-.2 10.5 3.6 14.1 14 14 31.2-.5 62.3-.4 93.5 0 10.2.1 14.301-3.1 14.301-13.7-.401-51-.301-102-.001-153zm-112 10.4l-1-1.7L64 22.3l1 1.7-7.2 4.4L89.1 80l-1.7 1-31.3-51.6-7.2 4.3zm44.7 71.5c-1.3 1.6-3 2.399-5.1 2.399-1.8 0-3.2-.5-4.3-1.5-1.1-1-1.8-2.3-1.9-4l2.5-.199c.2 1.199.6 2.1 1.3 2.8.7.6 1.5.899 2.5.899 1.2 0 2.1-.399 2.9-1.3.8-.899 1.2-2 1.2-3.5 0-1.4-.4-2.4-1.2-3.2-.8-.8-1.8-1.2-3-1.2-.8 0-1.5.2-2.1.5-.6.3-1.1.8-1.5 1.4L82.6 98l1.9-10h9.7v2.3h-7.8l-1.1 5.2c1.2-.8 2.4-1.2 3.7-1.2 1.7 0 3.1.6 4.3 1.8 1.2 1.2 1.8 2.7 1.8 4.6 0 1.7-.5 3.2-1.5 4.5zm7.8 2.1h-2.7v-2.7h2.7v2.7zm3.5-5.1l2.5-.2c.199 1.2.6 2.1 1.3 2.8s1.5.9 2.5.9c1.2 0 2.1-.4 2.899-1.3.801-.9 1.2-2 1.2-3.5 0-1.4-.399-2.4-1.2-3.2-.8-.8-1.8-1.2-3-1.2-.8 0-1.5.2-2.1.5s-1.1.8-1.5 1.4l-2.2-.3 1.9-10h9.7v2.3H109.1l-1.1 5.2c1.2-.8 2.4-1.2 3.7-1.2 1.7 0 3.1.6 4.3 1.8 1.2 1.2 1.8 2.7 1.8 4.6 0 1.8-.5 3.3-1.5 4.601-1.2 1.6-3 2.399-5.1 2.399-1.8 0-3.2-.5-4.3-1.5-1.2-1.2-1.8-2.5-2-4.1zm31.2 75.5l-1-1.7 7.2-4.4-31.2-51.5 1.7-1 31.2 51.5 7.2-4.399 1 1.7-16.1 9.799z"/></svg>