<svg xmlns="http://www.w3.org/2000/svg" width="200" height="200"><path d="M86.3 10H17.8c-4.3 0-7.8 3.5-7.8 7.8v68.5c0 4.3 3.5 7.8 7.8 7.8h68.5c4.3 0 7.8-3.5 7.8-7.8V17.8c-.1-4.3-3.5-7.8-7.8-7.8zm-7.2 61.3c0 4.3-3.5 7.8-7.8 7.8H32.7c-4.3 0-7.8-3.5-7.8-7.8V32.7c0-4.3 3.5-7.8 7.8-7.8h38.6c4.3 0 7.8 3.5 7.8 7.8v38.6z"/><circle cx="52" cy="52" r="11.8"/><path d="M86.3 106H17.8c-4.3 0-7.8 3.5-7.8 7.8v68.5c0 4.3 3.5 7.8 7.8 7.8h68.5c4.3 0 7.8-3.5 7.8-7.8v-68.5c-.1-4.4-3.5-7.8-7.8-7.8zm-7.2 61.3c0 4.3-3.5 7.8-7.8 7.8H32.7c-4.3 0-7.8-3.5-7.8-7.8v-38.6c0-4.3 3.5-7.8 7.8-7.8h38.6c4.3 0 7.8 3.5 7.8 7.8v38.6z"/><circle cx="52" cy="148" r="11.8"/><path d="M183.8 10h-68.5c-4.3 0-7.8 3.5-7.8 7.8v68.5c0 4.3 3.5 7.8 7.8 7.8h68.5c4.3 0 7.8-3.5 7.8-7.8V17.8c0-4.3-3.5-7.8-7.8-7.8zm-7.2 61.3c0 4.3-3.5 7.8-7.8 7.8h-38.6c-4.3 0-7.8-3.5-7.8-7.8V32.7c0-4.3 3.5-7.8 7.8-7.8h38.6c4.3 0 7.8 3.5 7.8 7.8v38.6z"/><circle cx="149.6" cy="52" r="11.8"/><path d="M139.7 169.6h20.399V190H139.7zm32 0h20.399V190H171.7z"/><path d="M139.7 140.7v16.5h51.9v-43.5c0-4.3-3.5-7.8-7.8-7.8h-9.6v29.9h-20.4V106h-38.5c-4.3 0-7.8 3.5-7.8 7.8v68.5c0 4.3 3.5 7.8 7.8 7.8h6.5v-49.3h17.9v-.1z"/></svg>