<svg xmlns="http://www.w3.org/2000/svg" width="200" height="200"><path d="M59.5 86.5h81c4.4 0 8-3.6 8-8V18c0-4.4-3.6-8-8-8h-81c-4.4 0-8 3.6-8 8v60.5c0 4.4 3.6 8 8 8zm80.5 70.6H59.9c-4.7 0-8.5 3.801-8.5 8.5v15.9c0 4.7 3.8 8.5 8.5 8.5h80.2c4.601 0 8.4-3.8 8.4-8.5v-15.9c0-4.7-3.8-8.5-8.5-8.5z"/><path d="M170.3 36.9c-9.1 0-16.5 7.4-16.5 16.5v31.8c-2.3 4.9-7.1 6.2-16.8 6.2-20.3.1-40.5 0-60.8 0-19.8 0-27.2 0-29.9-8v-30c0-9.1-7.4-16.5-16.5-16.5s-16.5 7.4-16.5 16.5v116.2c0 9.101 7.4 16.5 16.5 16.5s16.5-7.399 16.5-16.5v-11.2c2.9-6.5 7.7-6.9 15-6.9 25 .1 50 0 75 0 10.2 0 15.3 1.5 17.601 6.8v11.2c0 9.1 7.399 16.5 16.5 16.5 9.1 0 16.5-7.4 16.5-16.5V53.4c-.101-9.1-7.501-16.5-16.601-16.5z"/></svg>