<svg xmlns="http://www.w3.org/2000/svg" width="200" height="200"><path d="M106.4 11c-5.8-2.8-10.4 1.2-14.6 4.8-15.3 13-30.6 26.1-45.9 39.1-5.5 4.7-10.7 9.6-18 10.6H14.5c-1.8 0-3.3 1.5-3.3 3.3v61.6c0 1.8 1.5 3.3 3.3 3.3h14.9c3.5.899 6.4 2.8 9.4 5.3 17.8 15.3 35.9 30.2 53.9 45.3 4 3.4 8.399 6.4 13.6 4 5.5-2.6 5-8.2 5-13.2.2-24.8.2-49.5.2-74.199v-75.5c0-5.401.8-11.601-5.1-14.401zm46.1 80.9c-3.6-11-10.5-18.4-10.8-18.7-1.9-2-5.101-2.1-7.101-.2s-2.1 5.1-.199 7.1c.899.9 22.1 23.8.1 45.8-2 2-2 5.1 0 7.1.9 1 2.2 1.5 3.5 1.5 1.2 0 2.5-.5 3.6-1.5 15.1-15.1 14.3-30.7 10.9-41.1z"/><path d="M169.8 51.7c-9.7-8.8-19.5-11.1-19.899-11.2-3.301-.7-6.4 1.3-7.2 4.5s1.2 6.4 4.399 7.2c1.2.3 29.7 7.7 29.7 48.6 0 37.4-29.2 48.601-30.399 49.101-3.101 1.1-4.7 4.6-3.601 7.699.8 2.5 3.101 4 5.601 4 .699 0 1.3-.1 2.199-.5.4-.1 9.9-3.6 19.301-12.8 8.699-8.5 19-23.6 19-47.5C188.9 74.6 178.5 59.6 169.8 51.7z"/></svg>