<svg xmlns="http://www.w3.org/2000/svg" width="33.705" height="37.025"><path fill="#FFF" d="M17.586 31.123c-.238-.012-.479-.002-.719-.003s-.48-.008-.718 0c-.731.023-1.182.379-1.168 1.133.011.726.439 1.133 1.16 1.179.478.031.962.04 1.437-.005.715-.067 1.131-.488 1.117-1.219-.011-.695-.422-1.052-1.109-1.085m1.834-9.898h-1.096a.616.616 0 0 0-.617.617v.152c0 .34.275.616.617.616h1.096c.34 0 .617-.276.617-.616v-.152a.617.617 0 0 0-.617-.617m3.475 0h-1.094a.616.616 0 0 0-.617.617v.152c0 .34.275.616.617.616h1.094a.616.616 0 0 0 .617-.616v-.152a.617.617 0 0 0-.617-.617m3.652 0h-1.098a.616.616 0 0 0-.615.617v.152c0 .34.276.616.615.616h1.098c.34 0 .617-.276.617-.616v-.152a.617.617 0 0 0-.617-.617m-7.127 2.237h-1.096a.616.616 0 0 0-.617.616v.152c0 .341.275.617.617.617h1.096c.34 0 .617-.276.617-.617v-.152a.617.617 0 0 0-.617-.616m3.475 0h-1.094a.616.616 0 0 0-.617.616v.152c0 .341.275.617.617.617h1.094a.616.616 0 0 0 .617-.617v-.152a.616.616 0 0 0-.617-.616m3.652 0h-1.098a.616.616 0 0 0-.615.616v.152c0 .341.276.617.615.617h1.098c.34 0 .617-.276.617-.617v-.152a.617.617 0 0 0-.617-.616m-.531-7.932h-7.232a1.34 1.34 0 0 0-1.338 1.337v1.748c0 .737.602 1.338 1.338 1.338h7.232a1.34 1.34 0 0 0 1.338-1.338v-1.748c0-.738-.6-1.337-1.338-1.337m-.102 2.982h-7.027v-1.543h7.027v1.543z"/><path fill="#FFF" d="M32.369 27.475h-.1c-.553-5.791-1.992-13.603-2.355-14.509a2.597 2.597 0 0 0-1.387-1.434.733.733 0 0 0-.258-.048h-5.15V7.233h5.229c.738 0 1.338-.599 1.338-1.336v-4.56C29.686.6 29.086 0 28.348 0H16.864c-.739 0-1.336.6-1.336 1.337v4.56c0 .737.597 1.336 1.336 1.336h4.816v4.251h-7.346c.276-.471.485-.741.518-.781a.72.72 0 0 0-.559-1.173H9.561a.72.72 0 0 0-.481.185 9.427 9.427 0 0 0-1.539 1.769H5.436c-1.385 0-1.918.892-2.033 1.451-1.551 3.944-1.928 12.076-2.008 14.54h-.058C.6 27.475 0 28.074 0 28.812v6.877c0 .737.6 1.336 1.338 1.336H32.37c.736 0 1.336-.599 1.336-1.336v-6.877a1.34 1.34 0 0 0-1.337-1.337M16.964 1.44h11.279v4.354H16.964V1.44zm-7.12 9.531h3.129c-.924 1.674-2.248 5.042-1.336 9.534H7.801c-.405-1.517-1.321-6.304 2.043-9.534m-5.076 2.428c.031-.075.043-.102.047-.177.029-.117.152-.297.621-.297h1.322c-1.275 2.948-.812 6.052-.445 7.58h-.488a.72.72 0 1 0 0 1.44h8.388a.72.72 0 1 0 0-1.44h-1.101c-.733-3.265-.157-5.876.525-7.58h14.461a1.2 1.2 0 0 1 .479.575c.247.628 1.668 8.003 2.245 13.975H2.835c.086-2.462.472-10.445 1.933-14.076m27.498 22.187H1.439v-6.672h.625c.01 0 .019.004.029.004h29.522c.01 0 .02-.004.031-.004h.619v6.672z"/></svg>